<svg width="44" height="54" viewBox="0 0 44 54" xmlns="http://www.w3.org/2000/svg" xmlns:xlink="http://www.w3.org/1999/xlink"><title>apple-logo</title><desc>Created using Figma</desc><use xlink:href="#a" transform="translate(19.85)" fill="#0C97CC"/><use xlink:href="#b" transform="translate(.01 14.2)" fill="#0C97CC"/><defs><path id="a" fill-rule="evenodd" d="M1.609 14.258l-.252-.004A1.292 1.292 0 0 1 .13 13.19c-.508-2.789.492-6.05 2.674-8.726C4.809 2.003 8.124.21 11.05.003a1.292 1.292 0 0 1 1.365 1.104c.433 2.937-.513 6.164-2.595 8.854-2.017 2.61-5.24 4.297-8.212 4.297zm8.33-11.44c-1.886.506-3.899 1.767-5.143 3.293-.558.685-2.185 2.9-2.223 5.47 1.91-.318 3.912-1.53 5.214-3.215.67-.865 2.063-2.965 2.152-5.548z"/><path id="b" fill-rule="evenodd" d="M43.011 24.281c.333.127.6.386.736.717.136.33.13.703-.014 1.03-1.14 2.556-1.711 3.74-3.214 6.058-2.445 3.742-5.482 7.568-9.492 7.602h-.078c-1.7 0-2.824-.52-3.91-1.021-1.136-.524-2.208-1.02-4.175-1.02h-.066c-2.004.011-3.111.51-4.283 1.036-1.11.499-2.256 1.014-3.96 1.014h-.084c-4.092-.035-7.017-3.673-9.338-7.225C1.041 26.192-.766 18.68.301 12.377c.379-2.216 1.071-4.12 2.059-5.661C5.029 2.572 9.31 0 13.534 0c2.192 0 3.945.633 5.492 1.19 1.325.478 2.467.89 3.72.89 1.134 0 2.122-.377 3.266-.814C27.566.673 29.327 0 31.93 0c3.716 0 7.54 2.019 10.23 5.4a1.303 1.303 0 0 1-.384 1.949c-2.023 1.123-3.487 2.82-4.23 4.91-1.505 4.214.158 10.007 5.466 12.022zm-12.007 12.81c2.815-.024 5.412-3.447 7.359-6.429 1.159-1.788 1.71-2.821 2.485-4.514-5.216-2.716-7.77-9.052-5.73-14.766a11.46 11.46 0 0 1 4.066-5.445c-2.09-2.113-4.722-3.341-7.255-3.341-2.129 0-3.59.557-5.002 1.097-1.266.484-2.575.983-4.18.983-1.701 0-3.17-.53-4.59-1.041-1.48-.534-2.88-1.04-4.623-1.04-3.36 0-6.812 2.12-9.01 5.531-.796 1.243-1.363 2.821-1.682 4.689-.96 5.671.702 12.487 4.446 18.23 1.833 2.806 4.309 6.031 7.207 6.056h.06c1.155 0 1.928-.348 2.908-.788 1.236-.557 2.774-1.248 5.322-1.262h.08c2.53 0 4.037.696 5.248 1.256.95.438 1.7.785 2.836.785h.055z"/></defs></svg>