<svg width="44" height="54" viewBox="0 0 44 54" xmlns="http://www.w3.org/2000/svg" xmlns:xlink="http://www.w3.org/1999/xlink"><title>apple-logo</title><desc>Created using Figma</desc><use xlink:href="#a" transform="translate(19.848)" fill="#FFF"/><use xlink:href="#b" transform="translate(.014 14.18)" fill="#FFF"/><defs><path id="a" fill-rule="evenodd" d="M1.61 14.257c-.085 0-.169 0-.253-.003A1.293 1.293 0 0 1 .13 13.19c-.508-2.788.492-6.05 2.674-8.726C4.809 2.002 8.124.21 11.05.004a1.291 1.291 0 0 1 1.366 1.104c.432 2.936-.514 6.163-2.596 8.853m.119-7.143c-1.887.506-3.9 1.766-5.143 3.293-.559.685-2.186 2.9-2.224 5.469 1.91-.317 3.912-1.53 5.214-3.214.67-.866 2.063-2.965 2.153-5.548z"/><path id="b" fill-rule="evenodd" d="M43.011 24.282c.333.126.6.385.736.716.136.33.131.703-.014 1.03-1.14 2.556-1.712 3.74-3.214 6.058-2.445 3.742-5.482 7.568-9.492 7.602h-.078c-1.7 0-2.824-.519-3.911-1.021-1.135-.524-2.207-1.02-4.174-1.02h-.066c-2.005.011-3.112.509-4.283 1.036-1.11.499-2.256 1.014-3.96 1.014h-.084c-4.092-.035-7.017-3.672-9.338-7.226C1.041 26.192-.766 18.681.301 12.377c.379-2.216 1.071-4.12 2.059-5.661C5.029 2.572 9.31 0 13.534 0c2.192 0 3.945.633 5.493 1.19 1.323.478 2.466.89 3.72.89 1.133 0 2.12-.377 3.265-.814C27.566.673 29.328 0 31.93 0c3.716 0 7.54 2.019 10.23 5.4a1.306 1.306 0 0 1-.383 1.948c-2.025 1.124-3.488 2.822-4.232 4.911-1.504 4.213.159 10.007 5.467 12.023zm-12.007 12.81c2.815-.024 5.411-3.448 7.358-6.429 1.16-1.788 1.71-2.821 2.485-4.515-5.216-2.716-7.77-9.052-5.729-14.766a11.465 11.465 0 0 1 4.066-5.445c-2.09-2.112-4.722-3.34-7.255-3.34-2.13 0-3.59.557-5.002 1.096-1.266.484-2.575.984-4.18.984-1.701 0-3.17-.53-4.59-1.042-1.48-.534-2.88-1.039-4.623-1.039-3.36 0-6.813 2.12-9.01 5.53-.796 1.244-1.363 2.822-1.682 4.69-.96 5.67.702 12.486 4.446 18.23 1.832 2.806 4.308 6.03 7.206 6.055h.06c1.155 0 1.929-.348 2.909-.788 1.236-.556 2.774-1.248 5.321-1.261h.08c2.53 0 4.038.696 5.249 1.255.949.44 1.7.786 2.836.786h.055z"/></defs></svg>