<svg width="8" height="12" viewBox="0 0 8 12" xmlns="http://www.w3.org/2000/svg" xmlns:xlink="http://www.w3.org/1999/xlink"><title>Combined Shape Copy 8</title><desc>Created using Figma</desc><use xlink:href="#a" transform="translate(1 1)" fill="#0C97CC" opacity=".3"/><defs><path id="a" d="M.252.688L.619.283.252.688zm4.742 4.311l.368.403L5.805 5l-.444-.404L4.994 5zM0 .459L-.367.054l-.444.404.444.403L0 .458zM.504 0L.87-.404.504-.737l-.367.333L.504 0zm.252.229l.367-.403-.367.403zm4.738 4.315l-.367.404.007.006.36-.41zm.254.224l.367-.404-.006-.005-.36.41zm.252.23l.366.404.446-.404-.445-.405L6 4.997zm-.25.225l-.366-.404-.002.002.368.402zm-.254.233l.367.403.001-.001-.368-.402zM.756 9.772l.368.404-.367-.404zM.507 10l-.363.407.366.327.364-.33L.506 10zM0 9.55l-.368-.404-.447.408.452.403L0 9.549zm.25-.229l-.367-.403.367.403zm-.365-8.23l4.742 4.312.734-.808L.62.284l-.734.807zM-.367.862l.252.23.734-.808-.252-.23-.734.808zM.137-.404l-.504.459.734.807.504-.458-.734-.808zm.986.23L.87-.405.137.404l.252.229.734-.808zM5.86 4.14L1.123-.174.39.632l4.738 4.316.734-.807zm.248.218l-.254-.224-.721.819.253.223.722-.818zm.258.234l-.252-.229-.734.808.252.229.734-.808zm-.251 1.035l.25-.226-.732-.81-.25.227.732.809zm-.252.23l.254-.232-.736-.805-.254.232.736.805zm-4.74 4.317l4.74-4.316-.735-.807L.389 9.37l.735.806zm-.251.229l.25-.228-.733-.808-.251.228.734.808zm-1.236-.447l.506.45.726-.814-.506-.451-.726.815zm.245-1.039l-.25.228.736.806.25-.228-.736-.806zm4.745-4.322L-.117 8.918l.734.807 4.745-4.323-.735-.806z"/></defs></svg>