<svg width="16" height="17" viewBox="0 0 16 17" xmlns="http://www.w3.org/2000/svg" xmlns:xlink="http://www.w3.org/1999/xlink"><title>Group 2</title><desc>Created using Figma</desc><use xlink:href="#a" transform="translate(1 1.79)" fill="#0C97CC"/><use xlink:href="#b" transform="translate(5 7.79)" fill="#0C97CC"/><defs><path id="a" d="M13 6.995a5.998 5.998 0 0 1-6 5.996v2c4.418 0 8-3.58 8-7.996h-2zm-6 5.996c-3.314 0-6-2.685-6-5.996h-2a7.998 7.998 0 0 0 8 7.996v-2zM1 6.995A5.998 5.998 0 0 1 7 1v-2C2.582-1-1 2.58-1 6.995h2zM7 1c3.314 0 6 2.685 6 5.995h2A7.998 7.998 0 0 0 7-1v2z"/><path id="b" d="M6.6.8A1 1 0 0 0 5.4-.8L6.6.8zM2 2.998l-.707.707a1 1 0 0 0 1.307.093l-.6-.8zM.707.292A1 1 0 1 0-.707 1.707L.707.292zM5.4-.8l-4 2.998 1.2 1.6L6.6.8 5.4-.8zM2.707 2.29l-2-1.998-1.414 1.415 2 1.998 1.414-1.414z"/></defs></svg>