<svg width="14" height="22" viewBox="0 0 14 22" xmlns="http://www.w3.org/2000/svg" xmlns:xlink="http://www.w3.org/1999/xlink"><title>Combined Shape Copy</title><desc>Created using Figma</desc><g transform="translate(2 2)" fill="#FFF"><use xlink:href="#a"/><use xlink:href="#b"/></g><defs><path id="a" fill-rule="evenodd" d="M8.324 9.163L.42 1.261 0 .84.84 0l.42.42 7.896 7.91.424.41.42.42-.418.414L9.16 10l-7.898 7.912-.418.418L0 17.504l.418-.418 7.906-7.923z"/><path id="b" d="M.42 1.26l-.707.708.707-.707zm7.904 7.903l.708.706.706-.707-.707-.706-.707.707zM0 .841L-.708.134l-.706.707.707.707L0 .84zM.84 0l.707-.707-.708-.708-.707.708L.84 0zm.42.42l.707-.707L1.26.42zm7.896 7.91l-.707.707.006.006.007.007.694-.72zm.424.41l.707-.708-.006-.006-.006-.006-.695.72zm.42.42l.705.709.712-.707-.71-.71L10 9.16zm-.418.414l-.705-.71-.005.006.71.704zM9.16 10l.708.707.003-.003L9.16 10zm-7.898 7.912l.707.707-.707-.707zm-.418.418l-.7.715.707.692.7-.7-.707-.707zM0 17.504l-.707-.707-.715.714.722.707.7-.714zm.418-.418l.707.707-.707-.707zM-.287 1.968L7.617 9.87l1.414-1.414L1.127.554-.287 1.968zm-.42-.42l.42.42L1.127.554l-.42-.42-1.414 1.414zm.84-2.255l-.84.841L.707 1.548l.84-.841L.131-.707zm1.834.42l-.42-.42L.133.707l.42.42L1.967-.287zm7.897 7.91L1.967-.286.552 1.126l7.897 7.91 1.415-1.412zm.41.397l-.423-.41-1.39 1.44.425.409 1.389-1.44zm.433.432l-.42-.42-1.414 1.414.42.42 1.414-1.414zm-.42 1.832l.418-.415-1.41-1.42-.418.416 1.41 1.419zm-.416.42l.421-.426-1.42-1.408-.422.426 1.42 1.408zm-7.902 7.915l7.899-7.912-1.416-1.414-7.898 7.913 1.415 1.413zm-.418.418l.418-.418-1.414-1.414-.418.418 1.414 1.414zm-2.25-.819l.843.827 1.4-1.43L.7 16.79l-1.4 1.43zm.41-1.84l-.418.419L.707 18.21l.418-.418-1.414-1.414zm7.905-7.921L-.29 16.38l1.416 1.412L9.032 9.87 7.616 8.457z"/></defs></svg>