<svg width="24" height="15" viewBox="0 0 24 15" xmlns="http://www.w3.org/2000/svg" xmlns:xlink="http://www.w3.org/1999/xlink"><title>Машина</title><desc>Created using Figma</desc><g transform="translate(13891 2140)"><path fill="#FFF" d="M-13891-2140h24v15h-24z"/><clipPath id="a" clip-rule="evenodd"><path d="M-15270-6998h1920v6710h-1920v-6710z" fill="#FFF"/></clipPath><g clip-path="url(#a)"><path d="M-15270-6998h1920v6710h-1920v-6710z" fill="#FFF"/><use xlink:href="#b" transform="translate(-14022 -2159)" fill="#0BAFF0"/><mask id="c"><use xlink:href="#b" fill="#fff" transform="translate(-14022 -2159)"/></mask><g mask="url(#c)"><use xlink:href="#d" transform="translate(-14022 -2159)" fill="#0BAFF0"/></g><g fill="#F6F9FA"><use xlink:href="#e" transform="translate(-13890 -2138.75)"/><use xlink:href="#f" transform="translate(-13887 -2130.07)"/><use xlink:href="#f" transform="translate(-13876 -2130.07)"/><use xlink:href="#g" transform="translate(-13880 -2135.86)"/></g></g></g><defs><path id="b" fill-rule="evenodd" d="M0 6a6 6 0 0 1 6-6h168v54H6a6 6 0 0 1-6-6V6z"/><path id="d" d="M174 0h3v-3h-3v3zm0 54v3h3v-3h-3zM6 3h168v-6H6v6zm165-3v54h6V0h-6zm3 51H6v6h168v-6zM3 48V6h-6v42h6zM6-3a9 9 0 0 0-9 9h6a3 3 0 0 1 3-3v-6zm0 54a3 3 0 0 1-3-3h-6a9 9 0 0 0 9 9v-6z"/><path id="e" d="M9 0v-.75a.75.75 0 0 0-.612.317L9 0zM6 4.243l.25.707a.75.75 0 0 0 .362-.274L6 4.243zM19 0l.695-.281A.75.75 0 0 0 19-.75V0zm3 7.425l.715.225a.75.75 0 0 0-.02-.506L22 7.425zm-1 3.182v.75a.75.75 0 0 0 .715-.525L21 10.607zm-3 0h-.75c0 .414.336.75.75.75v-.75zm-4 0v.75a.75.75 0 0 0 .75-.75H14zm-7 0h-.75c0 .414.336.75.75.75v-.75zm-4 0v.75a.75.75 0 0 0 .75-.75H3zm-2 0l-.546.515a.75.75 0 0 0 .546.235v-.75zm-1-1.06h-.75a.75.75 0 0 0 .204.514L0 9.546zm0-3.183l-.25-.707a.75.75 0 0 0-.5.707H0zM8.388-.433l-3 4.243 1.224.866 3-4.243-1.224-.866zM14-.75H9v1.5h5v-1.5zm5 0h-5v1.5h5v-1.5zm3.695 7.894l-3-7.425-1.39.562 3 7.425 1.39-.562zm-.98 3.688l1-3.182-1.43-.45-1 3.182 1.43.45zM18 11.357h3v-1.5h-3v1.5zm.75-.75c0-1.505-1.257-2.679-2.75-2.679v1.5c.716 0 1.25.554 1.25 1.179h1.5zM16 7.928c-1.493 0-2.75 1.174-2.75 2.679h1.5c0-.625.534-1.179 1.25-1.179v-1.5zm-9 3.429h7v-1.5H7v1.5zM5 9.428c.716 0 1.25.554 1.25 1.179h1.5c0-1.505-1.257-2.679-2.75-2.679v1.5zm-1.25 1.179c0-.625.534-1.179 1.25-1.179v-1.5c-1.493 0-2.75 1.174-2.75 2.679h1.5zm-2.75.75h2v-1.5H1v1.5zm-1.546-1.296l1 1.06 1.092-1.028-1-1.061-1.092 1.029zM-.75 6.364v3.182h1.5V6.364h-1.5zm6.5-2.828l-6 2.121.5 1.414 6-2.121-.5-1.414z"/><path id="f" d="M2 4.607c1.493 0 2.75-1.174 2.75-2.678h-1.5c0 .625-.534 1.178-1.25 1.178v1.5zM4.75 1.93C4.75.424 3.493-.75 2-.75v1.5c.716 0 1.25.553 1.25 1.179h1.5zM2-.75C.507-.75-.75.424-.75 1.929h1.5C.75 1.303 1.284.75 2 .75v-1.5zM-.75 1.929C-.75 3.433.507 4.607 2 4.607v-1.5c-.716 0-1.25-.553-1.25-1.178h-1.5z"/><path id="g" d="M0 .214a.75.75 0 1 0 0 1.5v-1.5zm7 1.5a.75.75 0 0 0 0-1.5v1.5zm-7 0h7v-1.5H0v1.5z"/></defs></svg>