<svg width="16" height="16" viewBox="0 0 16 16" xmlns="http://www.w3.org/2000/svg" xmlns:xlink="http://www.w3.org/1999/xlink"><title>Time icon</title><desc>Created using Figma</desc><use xlink:href="#a" transform="translate(1 1)" fill="#C8D1D4"/><use xlink:href="#b" transform="translate(8 5)" fill="#C8D1D4"/><use xlink:href="#c" transform="translate(8 8)" fill="#C8D1D4"/><defs><path id="a" d="M13 6.995a5.998 5.998 0 0 1-6 5.996v2c4.418 0 8-3.58 8-7.996h-2zm-6 5.996c-3.314 0-6-2.685-6-5.996h-2a7.998 7.998 0 0 0 8 7.996v-2zM1 6.995A5.998 5.998 0 0 1 7 1v-2C2.582-1-1 2.58-1 6.995h2zM7 1c3.314 0 6 2.685 6 5.995h2A7.998 7.998 0 0 0 7-1v2z"/><path id="b" d="M1 0a1 1 0 1 0-2 0h2zm-2 2.998a1 1 0 1 0 2 0h-2zM-1 0v2.998h2V0h-2z"/><path id="c" d="M1.293 2.706a1 1 0 0 0 1.414-1.415L1.293 2.706zM.707-.707A1 1 0 0 0-.707.707L.707-.707zm2 1.998l-2-1.998L-.707.707l2 1.999 1.414-1.415z"/></defs></svg>