<svg width="84" height="81" viewBox="0 0 84 81" xmlns="http://www.w3.org/2000/svg" xmlns:xlink="http://www.w3.org/1999/xlink"><title>Economy</title><desc>Created using Figma</desc><use xlink:href="#a" transform="translate(2 27.06)" fill="#262E31"/><use xlink:href="#b" transform="translate(68.1 27.06)" fill="#262E31"/><use xlink:href="#c" transform="translate(22.5 53.47)" fill="#C8D1D4"/><use xlink:href="#c" transform="matrix(-1 0 0 1 62 53.47)" fill="#C8D1D4"/><use xlink:href="#c" transform="rotate(180 31 26.465)" fill="#C8D1D4"/><use xlink:href="#c" transform="matrix(1 0 0 -1 22.5 52.93)" fill="#C8D1D4"/><use xlink:href="#d" transform="translate(2 65.15)" fill="#262E31"/><use xlink:href="#e" transform="translate(68.1 65.15)" fill="#262E31"/><use xlink:href="#f" transform="translate(36.8 44.37)" fill="#262E31"/><use xlink:href="#g" transform="translate(42 40.91)" fill="#262E31"/><use xlink:href="#h" transform="translate(42 61.69)" fill="#262E31"/><use xlink:href="#i" transform="translate(10.8 51.3)" fill="#0C97CC"/><use xlink:href="#i" transform="translate(69.7 51.3)" fill="#0C97CC"/><g transform="translate(2 2)"><use xlink:href="#j" fill="#F6F9FA"/><use xlink:href="#k" fill="#0C97CC"/></g><defs><path id="a" d="M1.5 5.194a1.5 1.5 0 0 0-3 0h3zM30.633-1.5a1.5 1.5 0 0 0 0 3v-3zM-1.5 5.194V46.75h3V5.194h-3zm0 41.556c0 3.706 3.016 6.694 6.717 6.694v-3c-2.058 0-3.717-1.659-3.717-3.694h-3zm6.717 6.694h69.566v-3H5.217v3zm69.566 0c3.701 0 6.717-2.988 6.717-6.694h-3c0 2.035-1.659 3.694-3.717 3.694v3zM81.5 46.75V5.194h-3V46.75h3zm0-41.556c0-3.706-3.016-6.694-6.717-6.694v3c2.058 0 3.717 1.659 3.717 3.694h3zM74.783-1.5h-44.15v3h44.15v-3z"/><path id="b" d="M13.913 15.352a1.5 1.5 0 1 0 0-3v3zM1.5 0a1.5 1.5 0 0 0-3 0h3zm12.413 12.352C7.052 12.352 1.5 6.815 1.5 0h-3c0 8.484 6.907 15.352 15.413 15.352v-3z"/><path id="c" d="M19.478 19.97a1.5 1.5 0 1 0 0-3v3zM1.5 0a1.5 1.5 0 0 0-3 0h3zm17.978 16.97C9.474 16.97 1.5 9.296 1.5 0h-3c0 11.102 9.47 19.97 20.978 19.97v-3z"/><path id="d" d="M0-1.5a1.5 1.5 0 0 0 0 3v-3zm12.413 15.352a1.5 1.5 0 0 0 3 0h-3zM0 1.5c6.861 0 12.413 5.537 12.413 12.352h3C15.413 5.368 8.506-1.5 0-1.5v3z"/><path id="e" d="M-1.5 13.852a1.5 1.5 0 0 0 3 0h-3zM13.913 1.5a1.5 1.5 0 1 0 0-3v3zM1.5 13.852C1.5 7.037 7.052 1.5 13.913 1.5v-3C5.407-1.5-1.5 5.368-1.5 13.852h3z"/><path id="f" d="M10.435 1.5a1.5 1.5 0 0 0 0-3v3zM0 15.815a1.5 1.5 0 0 0 0 3v-3zM10.435-1.5H4.348v3h6.087v-3zm-6.087 0C1.126-1.5-1.5 1.105-1.5 4.329h3A2.84 2.84 0 0 1 4.348 1.5v-3zM-1.5 4.329c0 3.224 2.626 5.828 5.848 5.828v-3A2.84 2.84 0 0 1 1.5 4.33h-3zm5.848 5.828h1.739v-3h-1.74v3zm1.739 0a2.84 2.84 0 0 1 2.848 2.83h3c0-3.225-2.626-5.83-5.848-5.83v3zm2.848 2.83a2.84 2.84 0 0 1-2.848 2.828v3c3.222 0 5.848-2.605 5.848-5.829h-3zm-2.848 2.828H0v3h6.087v-3z"/><path id="g" d="M-1.5 3.463a1.5 1.5 0 1 0 3 0h-3zM1.5 0a1.5 1.5 0 0 0-3 0h3zm0 3.463V0h-3v3.463h3z"/><path id="h" d="M1.5 0a1.5 1.5 0 0 0-3 0h3zm-3 3.463a1.5 1.5 0 1 0 3 0h-3zM-1.5 0v3.463h3V0h-3z"/><path id="i" d="M1.978 1.731a.236.236 0 0 1-.239.232v3a3.236 3.236 0 0 0 3.24-3.232h-3zm-.239.232a.236.236 0 0 1-.239-.232h-3a3.236 3.236 0 0 0 3.24 3.232v-3zM1.5 1.731c0-.12.101-.231.24-.231v-3A3.236 3.236 0 0 0-1.5 1.731h3zm.24-.231c.137 0 .238.11.238.231h3A3.236 3.236 0 0 0 1.74-1.5v3z"/><path id="j" fill-rule="evenodd" d="M31.304 25.972c0 8.599-7.019 15.584-15.652 15.584C7.016 41.556 0 34.57 0 25.972c0-.29 0-.585.017-.88.258-8.944 5.2-11.24 5.2-11.24s-.19 6.926 5.218 6.926c0-2.715.361-6.074 1.534-9.471 1.51-4.381 4.887-8.447 8.9-11.307 0 10.389 9.402 12.13 10.345 24.303.035.55.09 1.084.09 1.67z"/><path id="k" d="M.017 25.093l1.498.088.002-.045-1.5-.043zm5.2-11.241l1.5.041a1.5 1.5 0 0 0-2.132-1.402l.632 1.36zm5.218 6.926v1.5a1.5 1.5 0 0 0 1.5-1.5h-1.5zm1.534-9.471l1.418.489-1.418-.49zM20.869 0h1.5A1.5 1.5 0 0 0 20-1.222L20.87 0zm10.345 24.303l1.497-.095-.002-.02-1.495.115zm-1.41 1.67c0 7.763-6.34 14.083-14.152 14.083v3c9.455 0 17.152-7.65 17.152-17.084h-3zM15.652 40.055c-7.814 0-14.152-6.32-14.152-14.084h-3c0 9.433 7.693 17.084 17.152 17.084v-3zM1.5 25.972c0-.29 0-.54.015-.79l-2.995-.178c-.02.339-.02.677-.02.968h3zm.017-.836c.12-4.182 1.326-6.69 2.397-8.119a6.84 6.84 0 0 1 1.434-1.472 3.835 3.835 0 0 1 .51-.336l.009-.005a.163.163 0 0 1-.01.005l-.004.002h-.002s-.002.001-.634-1.36a98.316 98.316 0 0 0-.634-1.359l-.002.001-.004.002-.01.006a3.714 3.714 0 0 0-.326.176c-.16.094-.426.267-.707.479a11.171 11.171 0 0 0-2.02 2.063c-1.465 1.954-2.859 5.068-2.996 9.83l2.999.087zm3.7-11.284c-1.499-.042-1.499-.041-1.5-.04v.004a3.725 3.725 0 0 0 0 .111c0 .058 0 .155.003.265a12.366 12.366 0 0 0 .667 3.635c.36.977 1.042 2.163 1.963 2.998 1.025.895 2.38 1.453 4.085 1.453v-3c-1 0-1.649-.309-2.11-.712-.564-.464-.849-1.009-1.117-1.763a7.985 7.985 0 0 1-.444-2.022 8.575 8.575 0 0 1-.047-.887v-.005.003l-1.5-.04zm6.718 6.926c-.002-2.635.325-5.747 1.452-8.982l-2.836-.979c-1.218 3.56-1.614 7.165-1.616 9.96h3zm1.452-8.983c1.387-4.024 4.536-7.853 8.353-10.573L20-1.222c-4.211 3-7.817 7.303-9.45 12.04l2.837.977zM19.37 0c.08 5.68 2.66 9.14 5.123 12.389 2.464 3.25 4.845 6.354 5.225 12.03l2.991-.232c-.562-6.496-3.353-10.35-5.825-13.61C24.41 7.314 22.289 4.708 22.37 0h-3zm10.347 24.398c.037.58.09 1.067.087 1.574h3c-.002-.663-.06-1.244-.093-1.764l-2.994.19z"/></defs></svg>