<svg width="54" height="54" viewBox="0 0 54 54" xmlns="http://www.w3.org/2000/svg" xmlns:xlink="http://www.w3.org/1999/xlink"><title>GameConsole</title><desc>Created using Figma</desc><use xlink:href="#a" transform="translate(0 .33)" fill="#0C97CC"/><use xlink:href="#b" transform="translate(43.6 36.94)" fill="#0C97CC"/><use xlink:href="#b" transform="translate(28.8 36.94)" fill="#0C97CC"/><use xlink:href="#c" transform="translate(37.2 37.86)" fill="#0C97CC"/><defs><path id="a" fill-rule="evenodd" d="M53.338 37.208c.41 1.13.496 3.62.336 4.645-.13.825-.25 1.253-.338 1.566-.118.42-.162.578-.083 1.735l.26 3.797c.003 2.307-1.823 4.132-4.066 4.132a4.094 4.094 0 0 1-3.874-2.831l-1.676-3.576h-1.23v1.614l2.396 4.793H0l2.396-4.792V1.828c0-.477.366-.873.84-.913L14.218 0c.03-.002.06.004.089.01.018.004.036.008.054.009.017.002.033 0 .05-.002a.206.206 0 0 1 .062 0l27.458 5.49a.917.917 0 0 1 .735.898v27.717a19.305 19.305 0 0 0 3.08-.679c.6-.187 1.103-.279 1.54-.284l.092-.001c2.692 0 5.08 1.619 5.959 4.05zm-20.986-4.05a7.37 7.37 0 0 1 2.016.29c2.187.655 4.35.915 6.468.83V22.766l-25.627-3.417v28.243H26.21l.168-2.438c.079-1.157.035-1.314-.082-1.734a12.159 12.159 0 0 1-.337-1.566c-.161-1.021-.075-3.508.333-4.64.879-2.435 3.27-4.055 5.965-4.055h.095zM4.227 20.06l3.66-.305V47.59h-3.66V20.06zm9.152-.763l-3.661.305V47.59h3.661V19.297zm27.458 1.621L15.21 17.501V2.029l25.627 5.125v13.764zm-31.12-3.152l3.662-.305V1.908l-3.661.305v15.553zM7.888 2.365v15.554l-3.66.304V2.67l3.66-.304zm-4.01 47.057l-.915 1.83h11.683l-.916-1.83H3.877zm12.813 1.83l-.915-1.83h10.36c.01.104.03.204.05.305l.005.03.017.107c.05.23.121.45.207.664l.059.136c.09.204.192.402.315.587l-10.098.001zm16.997-.18c-.033.062-.065.123-.103.18h8.518l-.915-1.83H34.45l-.392.83a3.972 3.972 0 0 1-.233.568 1.416 1.416 0 0 1-.06.108l-.038.066-.041.078zm7.15-3.481h-5.519l.438-.915h5.08v.915zm10.736-4.667c.08-.283.179-.637.291-1.354.12-.764.04-2.942-.248-3.74-.618-1.707-2.315-2.843-4.239-2.843l-.067.001c-.176.002-.495.039-1.022.202a20.908 20.908 0 0 1-4.87.895c-.486.034-.947.056-1.379.056-1.508 0-3.048-.176-4.594-.521l-.011-.002c-.53-.119-1.06-.257-1.591-.416a5.57 5.57 0 0 0-1.516-.213h-.07c-1.927 0-3.625 1.136-4.243 2.845-.288.798-.367 2.974-.246 3.735.11.719.21 1.07.29 1.355.17.612.242.941.146 2.352l-.259 3.769a2.24 2.24 0 0 0 2.238 2.206c.996 0 1.857-.641 2.143-1.595l.05-.128.204-.433.464-.982.11-.23.138-.294c1.297-2.736 1.393-2.874 1.998-2.745h9.77l2.246 4.812a2.251 2.251 0 0 0 2.142 1.595 2.24 2.24 0 0 0 2.237-2.238l-.258-3.736c-.097-1.412-.026-1.741.146-2.353zm-18.53 5.189v.002-.002z"/><path id="b" fill-rule="evenodd" d="M0 3.661A3.665 3.665 0 0 1 3.661 0a3.665 3.665 0 0 1 3.661 3.661 3.665 3.665 0 0 1-3.66 3.661A3.665 3.665 0 0 1 0 3.662zm1.83 0a1.832 1.832 0 0 0 3.661 0 1.83 1.83 0 0 0-3.66 0z"/><path id="c" d="M4.576 0a.914.914 0 0 0-.915.915h-1.83A.914.914 0 1 0 0 .915v.916c0 .506.41.915.915.915h3.661c.506 0 .916-.41.916-.915V.915A.914.914 0 0 0 4.576 0z"/></defs></svg>