<svg width="54" height="54" viewBox="0 0 54 54" xmlns="http://www.w3.org/2000/svg" xmlns:xlink="http://www.w3.org/1999/xlink"><title>game-console</title><desc>Created using Figma</desc><use xlink:href="#a" transform="translate(0 .33)" fill="#FFF"/><use xlink:href="#b" transform="translate(43.583 36.94)" fill="#FFF"/><use xlink:href="#b" transform="translate(28.83 36.94)" fill="#FFF"/><use xlink:href="#c" transform="translate(37.176 37.86)" fill="#FFF"/><defs><path id="a" fill-rule="evenodd" d="M53.338 37.208c.41 1.13.496 3.62.336 4.645-.13.82-.25 1.25-.337 1.562l-.002.004c-.117.42-.162.578-.082 1.735l.261 3.797c.002 2.307-1.823 4.132-4.067 4.132a4.095 4.095 0 0 1-3.874-2.831l-1.676-3.576h-1.23v1.614l2.396 4.793H0l2.396-4.792V1.828c0-.477.365-.873.84-.913L14.217 0a.25.25 0 0 1 .074.006h.004l.004.002h.004l.004.002c.018.004.036.008.054.009.017.002.033 0 .05-.002a.206.206 0 0 1 .062 0l27.457 5.49a.916.916 0 0 1 .736.898V34.12a19.248 19.248 0 0 0 3.08-.678c.6-.186 1.103-.279 1.54-.285h.092c2.692 0 5.08 1.619 5.96 4.05zm-20.986-4.05a7.356 7.356 0 0 1 2.016.29c2.186.655 4.35.915 6.468.83V22.766l-25.627-3.417v28.243H26.21l.168-2.438c.08-1.157.035-1.313-.083-1.733a12.197 12.197 0 0 1-.337-1.568c-.16-1.02-.075-3.506.334-4.639.88-2.434 3.269-4.055 5.964-4.055h.096zM4.227 20.06l3.66-.304V47.59h-3.66V20.06zm9.152-.762l-3.66.305v27.99h3.66V19.296zm27.458 1.62L15.21 17.502V2.03l25.627 5.125v13.764zM9.718 17.767l3.661-.305V1.908l-3.66.305v15.553zM7.888 2.365v15.554l-3.661.304V2.67l3.66-.304zm-4.01 47.057l-.916 1.83h11.682l-.915-1.83H3.877zM16.69 51.25l-.916-1.828h10.36c.01.098.028.193.046.288l.009.047.007.045.01.062a4.056 4.056 0 0 0 .266.8c.09.204.192.402.315.586H16.69zm16.999-.182c-.034.063-.067.126-.106.184h8.518l-.915-1.83h-6.735l-.393.83a4.078 4.078 0 0 1-.232.568 1.74 1.74 0 0 1-.057.103l-.002.002a2.415 2.415 0 0 0-.04.07l-.038.073zm7.147-3.477h-5.518c.197-.415.337-.708.437-.915h5.082l-.001.915zm10.737-4.667c.08-.283.178-.638.29-1.354.12-.764.041-2.942-.247-3.74-.618-1.707-2.316-2.843-4.24-2.843l-.067.001c-.175.002-.494.039-1.021.202a20.93 20.93 0 0 1-4.87.895c-.487.034-.948.056-1.38.056a21.09 21.09 0 0 1-4.593-.521l-.012-.002c-.53-.119-1.06-.257-1.59-.416a5.56 5.56 0 0 0-1.516-.213h-.07c-1.927 0-3.626 1.136-4.244 2.845-.288.798-.367 2.973-.246 3.735.111.716.21 1.069.29 1.353v.002c.171.612.243.941.146 2.353l-.259 3.768a2.24 2.24 0 0 0 2.238 2.206c.996 0 1.857-.641 2.144-1.595l.05-.128.203-.433.464-.98v-.002l.11-.23.138-.294c1.297-2.736 1.393-2.873 1.998-2.745h9.771l2.245 4.812a2.252 2.252 0 0 0 2.142 1.595 2.24 2.24 0 0 0 2.238-2.238l-.259-3.735c-.097-1.413-.025-1.742.147-2.354z"/><path id="b" fill-rule="evenodd" d="M0 3.661A3.665 3.665 0 0 1 3.661 0a3.665 3.665 0 0 1 3.661 3.661 3.665 3.665 0 0 1-3.661 3.661A3.665 3.665 0 0 1 0 3.662zm1.83 0a1.832 1.832 0 0 0 3.661 0 1.83 1.83 0 0 0-3.66 0z"/><path id="c" d="M4.576 0a.914.914 0 0 0-.915.915h-1.83A.914.914 0 1 0 0 .915v.916c0 .506.41.915.915.915h3.661c.506 0 .916-.41.916-.915V.915A.914.914 0 0 0 4.576 0z"/></defs></svg>