<svg width="87" height="87" viewBox="0 0 87 87" xmlns="http://www.w3.org/2000/svg" xmlns:xlink="http://www.w3.org/1999/xlink"><title>Hardware</title><desc>Created using Figma</desc><use xlink:href="#a" transform="translate(21.6 21.65)" fill="#303C42"/><use xlink:href="#b" transform="translate(28.1 16.46)" fill="#303C42"/><use xlink:href="#b" transform="translate(36.1 16.46)" fill="#303C42"/><use xlink:href="#b" transform="translate(43.1 16.46)" fill="#303C42"/><use xlink:href="#b" transform="translate(51.2 16.46)" fill="#303C42"/><use xlink:href="#b" transform="translate(59.2 16.46)" fill="#303C42"/><use xlink:href="#b" transform="translate(28.1 65.76)" fill="#303C42"/><use xlink:href="#b" transform="translate(36.1 65.76)" fill="#303C42"/><use xlink:href="#b" transform="translate(43.1 65.76)" fill="#303C42"/><use xlink:href="#b" transform="translate(51.2 65.76)" fill="#303C42"/><use xlink:href="#b" transform="translate(59.2 65.76)" fill="#303C42"/><use xlink:href="#c" transform="translate(66.4 27.17)" fill="#303C42"/><use xlink:href="#c" transform="translate(66.4 35.17)" fill="#303C42"/><use xlink:href="#c" transform="translate(66.4 43.17)" fill="#303C42"/><use xlink:href="#c" transform="translate(66.4 51.17)" fill="#303C42"/><use xlink:href="#c" transform="translate(66.4 59.18)" fill="#303C42"/><use xlink:href="#c" transform="translate(16.3 27.17)" fill="#303C42"/><use xlink:href="#c" transform="translate(16.3 35.17)" fill="#303C42"/><use xlink:href="#c" transform="translate(16.3 43.17)" fill="#303C42"/><use xlink:href="#c" transform="translate(16.3 51.17)" fill="#303C42"/><use xlink:href="#c" transform="translate(16.3 59.18)" fill="#303C42"/><use xlink:href="#d" transform="translate(26.9 26.84)" fill="#C8D1D4"/><use xlink:href="#e" transform="translate(39.8 40.59)" fill="#0C97CC"/><g fill="#0C97CC"><use xlink:href="#f" transform="translate(43.5 2)"/><use xlink:href="#g" transform="translate(2 3.48)"/></g><defs><path id="a" d="M40.885 42.61H3.957v3h36.928v-3zm-36.928 0c-1.382 0-2.457-1.092-2.457-2.392h-3c0 3.003 2.465 5.392 5.457 5.392v-3zM1.5 40.218V3.892h-3v36.326h3zm0-36.326c0-1.3 1.075-2.392 2.457-2.392v-3C.965-1.5-1.5.89-1.5 3.892h3zM3.957 1.5h36.928v-3H3.957v3zm36.928 0c1.381 0 2.456 1.093 2.456 2.392h3c0-3.003-2.465-5.392-5.456-5.392v3zm2.456 2.392v36.326h3V3.892h-3zm0 36.326c0 1.3-1.075 2.392-2.456 2.392v3c2.991 0 5.456-2.39 5.456-5.392h-3z"/><path id="b" d="M-1.5 5.19a1.5 1.5 0 1 0 3 0h-3zM1.5 0a1.5 1.5 0 0 0-3 0h3zm0 5.19V0h-3v5.19h3z"/><path id="c" d="M0-1.5a1.5 1.5 0 0 0 0 3v-3zm5.275 3a1.5 1.5 0 1 0 0-3v3zM0 1.5h5.275v-3H0v3z"/><path id="d" d="M0 33.731h-1.5a1.5 1.5 0 0 0 1.5 1.5v-1.5zm34.29 0v1.5a1.5 1.5 0 0 0 1.5-1.5h-1.5zM34.29 0h1.5a1.5 1.5 0 0 0-1.5-1.5V0zM0 0v-1.5A1.5 1.5 0 0 0-1.5 0H0zm0 35.231h34.29v-3H0v3zm35.79-1.5V0h-3v33.731h3zM34.29-1.5H0v3h34.29v-3zM-1.5 0v33.731h3V0h-3z"/><path id="e" d="M1.052 2.563a1.5 1.5 0 0 0-2.104 2.139l2.104-2.139zM2.77 6.357l-1.052 1.07a1.5 1.5 0 0 0 2.104 0L2.77 6.356zm7.514-5.288A1.5 1.5 0 1 0 8.18-1.069l2.104 2.138zM-1.052 4.702l2.77 2.724 2.104-2.138-2.77-2.725-2.104 2.139zm4.874 2.724l6.462-6.357L8.18-1.069 1.718 5.288l2.104 2.138z"/><path id="f" d="M10.435 80.03a1.5 1.5 0 1 0 .782 2.896l-.782-2.896zM0 0v-1.5a1.5 1.5 0 0 0-.937 2.672L0 0zm8.085 8.385a1.5 1.5 0 0 0 1.873-2.343L8.085 8.385zm3.132 74.541C29.512 77.991 43 61.333 43 41.476h-3c0 18.46-12.538 33.96-29.565 38.554l.782 2.896zM43 41.476C43 17.742 23.75-1.5 0-1.5v3c22.095 0 40 17.9 40 39.977h3zM-.937 1.173l9.022 7.213 1.873-2.343L.937-1.172-.937 1.172z"/><path id="g" d="M31.065 1.448a1.5 1.5 0 0 0-.782-2.896l.782 2.896zM41.5 81.478v1.5a1.5 1.5 0 0 0 .937-2.672l-.937 1.172zm-8.085-8.385a1.5 1.5 0 0 0-1.873 2.343l1.873-2.343zM30.283-1.448C11.988 3.487-1.5 20.145-1.5 40.002h3c0-18.46 12.538-33.96 29.565-38.554l-.782-2.896zM-1.5 40.002c0 23.734 19.25 42.976 43 42.976v-3c-22.095 0-40-17.9-40-39.977h-3zm43.937 40.304l-9.022-7.213-1.873 2.343 9.021 7.213 1.874-2.343z"/></defs></svg>