<svg width="80" height="80" viewBox="0 0 80 80" xmlns="http://www.w3.org/2000/svg" xmlns:xlink="http://www.w3.org/1999/xlink"><title>Group</title><desc>Created using Figma</desc><use xlink:href="#a" fill="#0BAFF0"/><use xlink:href="#b" transform="translate(34 33)" fill="#FFF"/><use xlink:href="#c" transform="translate(37 32)" fill="#FFF"/><use xlink:href="#d" transform="translate(38 39)" fill="#FFF"/><defs><path id="a" fill-rule="evenodd" d="M40 80c22.091 0 40-17.909 40-40S62.091 0 40 0 0 17.909 0 40s17.909 40 40 40z"/><path id="b" d="M3 1a1 1 0 0 0 0-2v2zM0 0v-1a1 1 0 0 0-1 1h1zm12 0h1a1 1 0 0 0-1-1v1zM9-1a1 1 0 1 0 0 2v-2zM3-1H0v2h3v-2zm-4 1v12h2V0h-2zm0 12a2 2 0 0 0 2 2v-2h-2zm2 2h10v-2H1v2zm10 0a2 2 0 0 0 2-2h-2v2zm2-2V0h-2v12h2zM12-1H9v2h3v-2z"/><path id="c" d="M0-1a1 1 0 1 0 0 2v-2zm6 1h1a1 1 0 0 0-1-1v1zM1 0a1 1 0 1 0-2 0h2zM0 1h6v-2H0v2zm5-1v2h2V0H5zm0 2v2a2 2 0 0 0 2-2H5zm0 0H1v2h4V2zM1 2h-2a2 2 0 0 0 2 2V2zm0 0V0h-2v2h2z"/><path id="d" d="M4.707.707A1 1 0 0 0 3.293-.707L4.707.707zM1 3l-.707.707a1 1 0 0 0 1.414 0L1 3zM.707 1.293A1 1 0 0 0-.707 2.707L.707 1.293zm2.586-2l-3 3 1.414 1.414 3-3L3.293-.707zm-1.586 3l-1-1-1.414 1.414 1 1 1.414-1.414z"/></defs></svg>