<svg width="80" height="80" viewBox="0 0 80 80" xmlns="http://www.w3.org/2000/svg" xmlns:xlink="http://www.w3.org/1999/xlink"><title>Group</title><desc>Created using Figma</desc><use xlink:href="#a" fill="#0BAFF0"/><use xlink:href="#b" transform="translate(33 34)" fill="#FFF"/><use xlink:href="#c" transform="translate(33 37)" fill="#FFF"/><use xlink:href="#d" transform="translate(40 37)" fill="#FFF"/><defs><path id="a" fill-rule="evenodd" d="M40 80c22.091 0 40-17.909 40-40S62.091 0 40 0 0 17.909 0 40s17.909 40 40 40z"/><path id="b" d="M0 3l-.394-.92a1 1 0 0 0 0 1.84L0 3zm7-3l.394-.92a1 1 0 0 0-.788 0L7 0zm7 3l.394.92a1 1 0 0 0 0-1.84L14 3zM7 6l-.394.92a1 1 0 0 0 .788 0L7 6zM.394 3.92l7-3-.788-1.84-7 3 .788 1.84zm6.212-3l7 3 .788-1.84-7-3L6.606.92zm7 1.16l-7 3 .788 1.84 7-3-.788-1.84zm-6.212 3l-7-3-.788 1.84 7 3 .788-1.84z"/><path id="c" d="M1 0a1 1 0 1 0-2 0h2zM0 8h-1a1 1 0 0 0 .606.92L0 8zm7 3l-.394.92A1 1 0 0 0 8 11H7zm1-8a1 1 0 0 0-2 0h2zm-9-3v8h2V0h-2zm.606 8.92l7 3 .788-1.84-7-3-.788 1.84zM8 11V3H6v8h2z"/><path id="d" d="M8 0a1 1 0 0 0-2 0h2zM7 8l.394.92A1 1 0 0 0 8 8H7zm-7.394 2.08a1 1 0 1 0 .788 1.84l-.788-1.84zM6 0v8h2V0H6zm.606 7.08l-7 3 .788 1.84 7-3-.788-1.84z"/></defs></svg>