<svg width="80" height="80" viewBox="0 0 80 80" xmlns="http://www.w3.org/2000/svg" xmlns:xlink="http://www.w3.org/1999/xlink"><title>Group</title><desc>Created using Figma</desc><use xlink:href="#a" fill="#0BAFF0"/><use xlink:href="#b" transform="translate(33 32)" fill="#FFF"/><defs><path id="a" fill-rule="evenodd" d="M40 80c22.091 0 40-17.909 40-40S62.091 0 40 0 0 17.909 0 40s17.909 40 40 40z"/><path id="b" d="M7 0l.638-.77a1 1 0 0 0-1.276 0L7 0zm-.458.379l-.638-.77a1 1 0 0 0-.104.1l.742.67zM0 7.628l-.742-.67a1 1 0 0 0-.258.67h1zm14 0h1a1 1 0 0 0-.258-.67l-.742.67zM7.458.379l.742-.67a1 1 0 0 0-.104-.1l-.638.77zM6.362-.771l-.458.38 1.276 1.54.458-.379L6.362-.77zM5.8-.29L-.742 6.958l1.484 1.34 6.542-7.249L5.8-.291zM-1 7.628V13h2V7.628h-2zM-1 13a2 2 0 0 0 2 2v-2h-2zm2 2h3v-2H1v2zm3 0a2 2 0 0 0 2-2H4v2zm2-2V9H4v4h2zm0-4V7a2 2 0 0 0-2 2h2zm0 0h2V7H6v2zm2 0h2a2 2 0 0 0-2-2v2zm0 0v4h2V9H8zm0 4a2 2 0 0 0 2 2v-2H8zm2 2h3v-2h-3v2zm3 0a2 2 0 0 0 2-2h-2v2zm2-2V7.628h-2V13h2zm-.258-6.042L8.2-.291l-1.484 1.34 6.542 7.249 1.484-1.34zM8.096-.392L7.638-.77 6.362.77l.458.38L8.096-.392z"/></defs></svg>