<svg width="80" height="80" viewBox="0 0 80 80" xmlns="http://www.w3.org/2000/svg" xmlns:xlink="http://www.w3.org/1999/xlink"><title>Group</title><desc>Created using Figma</desc><use xlink:href="#a" fill="#0BAFF0"/><use xlink:href="#b" transform="translate(33 32)" fill="#FFF"/><use xlink:href="#c" transform="translate(37 41)" fill="#FFF"/><use xlink:href="#d" transform="translate(37 36)" fill="#FFF"/><use xlink:href="#d" transform="translate(41 36)" fill="#FFF"/><defs><path id="a" fill-rule="evenodd" d="M40 80c22.091 0 40-17.909 40-40S62.091 0 40 0 0 17.909 0 40s17.909 40 40 40z"/><path id="b" d="M13 7a6 6 0 0 1-6 6v2a8 8 0 0 0 8-8h-2zm-6 6a6 6 0 0 1-6-6h-2a8 8 0 0 0 8 8v-2zM1 7a6 6 0 0 1 6-6v-2a8 8 0 0 0-8 8h2zm6-6a6 6 0 0 1 6 6h2a8 8 0 0 0-8-8v2z"/><path id="c" d="M6 0l.894.447A1 1 0 0 0 6-1v1zM0 0v-1A1 1 0 0 0-.894.447L0 0zm6 0a128.89 128.89 0 0 1-.894-.448V-.45l.002-.001v-.002l-.002.005-.021.038a3.148 3.148 0 0 1-.542.703C4.152.683 3.64 1 3 1v2c1.359 0 2.348-.684 2.957-1.293.298-.302.547-.63.688-.84a5.416 5.416 0 0 0 .24-.403c.003-.003.005-.008.006-.01L6.893.45l.001-.001L6 0zM3 1C2.359 1 1.848.684 1.457.293A3.148 3.148 0 0 1 .915-.41a1.153 1.153 0 0 1-.02-.038C.891-.451.89-.455.891-.453a.302.302 0 0 1 .002.004v.001L0 0l-.894.448A.8.8 0 0 0-.87.494a4.029 4.029 0 0 0 .226.374c.141.21.39.538.688.84C.652 2.317 1.64 3 3 3V1zM0 1h6v-2H0v2z"/><path id="d" fill-rule="evenodd" d="M2 1a1 1 0 1 1-2 0 1 1 0 0 1 2 0"/></defs></svg>