<svg width="10" height="17" viewBox="0 0 10 17" xmlns="http://www.w3.org/2000/svg" xmlns:xlink="http://www.w3.org/1999/xlink"><title>Shape</title><desc>Created using Figma</desc><g transform="translate(1 .59)" fill="#FFF"><use xlink:href="#a"/><use xlink:href="#b"/></g><defs><path id="a" fill-rule="evenodd" d="M3.345 4.043c1.08 0 1.958-.907 1.958-2.021C5.303.907 4.425 0 3.345 0S1.388.907 1.388 2.022c0 1.114.878 2.021 1.957 2.021zM3.318.56c.827 0 1.5.673 1.5 1.5s-.673 1.5-1.5 1.5a1.501 1.501 0 0 1 0-3zm2.786 14.847a.37.37 0 0 0 .364-.376.37.37 0 0 0-.364-.376H5.44l-.868-7.053a.367.367 0 0 0-.407-.325.374.374 0 0 0-.315.42l.907 7.372.001.01v.008l.006.025.002.01.007.024.003.009.008.024.005.011.015.03.013.02.006.01.013.018.01.01.013.016.01.01.015.014.012.01.014.01.013.01.016.01.013.007.017.009.014.006.02.007.012.004.023.007.01.002.034.005.038.002h.983zm1.431-4.965a.427.427 0 0 1-.15.028.407.407 0 0 1-.377-.236l-1.28-2.951c-.389-.9-.757-1.476-1.384-1.571-.2-.03-1.559-.025-1.751.005-.736.128-1.256.868-1.724 1.615l-.014.022.827 1.985c.08.194-.023.412-.232.487a.417.417 0 0 1-.525-.215L.028 7.457a.352.352 0 0 1 .027-.324l.112-.18c.54-.858 1.203-1.79 2.278-1.975.29-.05 1.774-.048 2.032-.009 1.11.17 1.616 1.139 2.005 2.033L7.76 9.953c.083.193-.018.412-.226.49zM1.62 14.655l1.144-3.486a.38.38 0 0 0-.228-.477.362.362 0 0 0-.462.236L.766 14.913l-.007.025-.003.012-.004.02-.003.019v.015l-.002.027v.01l.002.024.001.015.004.02.004.018.004.018.006.019.006.015.007.018.007.015.01.017.008.015.009.014.012.017.01.01.014.017.009.009.016.016.01.008.018.014.011.008.019.01.014.01.017.007.02.008.014.006.012.003.021.006.011.002.032.005.04.002h.98a.37.37 0 0 0 .364-.376.37.37 0 0 0-.364-.376h-.476z"/><path id="b" d="M5.44 14.655l-.272.034.03.241h.243v-.275zm-.867-7.053l.273-.033-.273.033zm-.407-.325l.036.272-.036-.272zm-.315.42l.273-.034-.273.034zm.907 7.372l.274-.028-.001-.006-.273.034zm.001.01l-.274.027v.005l.274-.032zm0 .008l-.272.032.001.01.002.01.27-.052zm.006.025l-.27.052.001.008.269-.06zm.002.01l-.269.059.003.012.266-.072zm.007.024l-.266.072.002.009.003.009.26-.09zm.003.009l-.26.09.001.004.259-.094zm.008.024l-.258.094.003.008.003.008.252-.11zm.005.011l-.252.11.003.007.003.006.246-.123zm.015.03l-.246.123.006.011.007.012.233-.146zm.013.02l-.234.146.003.004.23-.15zm.006.01l-.23.15.006.01.224-.16zm.013.018l-.224.16.01.014.013.014.201-.188zm.01.01l.212-.174-.005-.006-.006-.007-.201.188zm.013.016l-.213.175.01.012.01.01.193-.197zm.01.01l-.192.198.01.009.182-.206zm.015.014l-.182.206.003.003.179-.21zm.012.01l-.179.209.006.004.005.005.168-.218zm.014.01l-.167.22.008.005.16-.224zm.013.01l-.16.224.007.005.007.004.146-.233zm.016.01l-.146.233.006.004.006.003.134-.24zm.013.007l-.133.24.007.005.126-.245zm.017.009l-.126.244.007.004.007.003.112-.251zm.014.006l-.113.251.008.003.008.003.097-.257zm.02.007l-.098.258.012.004.085-.262zm.012.004l-.086.262.007.002.007.002.072-.266zm.023.007l-.072.265.012.003.06-.268zm.01.002l-.06.268.008.002.01.002.042-.272zm.034.005l-.043.272.015.002h.014l.014-.274zm.038.002l-.014.275h.014v-.275zm2.414-4.965l-.096-.257h-.001l.097.257zm-.527-.208l.252-.11-.252.11zm-1.28-2.951l-.252.11.253-.11zM4.345 5.712l.041-.272h-.001l-.04.272zm-1.751.005l-.043-.271h-.004l.047.271zM.869 7.332l.232.148.001-.002-.233-.146zm-.014.022l-.232-.147-.077.12.055.133.254-.106zm.827 1.985l-.254.106.254-.106zm-.232.487l-.092-.26.092.26zM.925 9.61l-.254.105.254-.105zM.028 7.457l.253-.106-.253.106zm.027-.324l-.233-.147v.001l.233.146zm.112-.18l-.233-.146.233.147zm2.278-1.975l.046.27-.046-.27zm2.032-.009l-.042.272.042-.272zm2.005 2.033l.252-.109-.252.11zM7.76 9.953l.253-.109-.253.11zM2.763 11.17l.261.086-.261-.086zm-1.144 3.486l-.261-.086-.118.36h.38v-.274zm.454-3.727l.262.086-.262-.086zM.766 14.913l-.261-.086-.003.008-.002.007.266.07zm-.007.025l-.266-.07v.004l.266.066zm-.003.012l-.267-.066-.002.007-.001.008.27.051zm-.004.02l-.27-.05-.001.006.271.045zm-.003.019l-.271-.045-.002.013-.001.014.274.018zm0 .015l-.275-.018v.008l.274.01zm-.002.027l-.275-.01v.01h.275zm0 .01H.472v.01l.001.011.274-.022zm.002.024l.275-.018v-.004l-.275.022zm.001.015l-.274.018v.016l.004.016.27-.05zm.004.02l-.27.051.002.01.268-.06zm.004.018l-.268.06.268-.06zm.004.018l-.268.06.002.01.003.01.263-.08zm.006.019l-.263.08.003.01.003.01.257-.1zm.006.015l-.257.1.003.007.254-.107zm.007.018l-.253.107.004.01.25-.117zm.007.015l-.25.117.007.012.243-.129zm.01.017l-.244.128.003.006.24-.134zm.008.015l-.24.135.004.007.005.007.23-.149zm.009.014l-.232.149.006.01.007.008.219-.167zm.012.017l-.218.167.005.007.213-.174zm.01.01l-.214.175.006.006.207-.18zm.014.017l-.208.18.007.008.006.007.195-.195zm.009.009l-.195.194.003.003.192-.197zm.016.016l-.191.197.01.01.01.008.171-.215zm.01.008l-.172.215.005.003.167-.218zm.018.014l-.166.219.008.006.158-.225zm.011.008l-.158.224.008.006.008.005.142-.235zm.019.01l-.143.236.007.004.136-.24zm.014.01l-.135.238.009.006.01.004.116-.249zm.017.007l-.117.25.012.004.105-.254zm.02.008l-.105.254.006.003.099-.257zm.014.006l-.098.257.008.003.008.002L1 15.39zm.012.003l-.082.263.01.003.072-.266zm.021.006l-.072.266.012.003.011.002.05-.27zm.011.002l-.05.27.007.002.043-.272zm.032.005l-.043.272.016.002.015.001.012-.275zm.04.002l-.013.275h.012v-.275zM5.027 2.022c0 .971-.763 1.746-1.683 1.746v.55c1.24 0 2.233-1.038 2.233-2.296h-.55zM3.345.275c.92 0 1.683.775 1.683 1.747h.55c0-1.258-.993-2.297-2.233-2.297v.55zM1.663 2.022c0-.972.763-1.747 1.682-1.747v-.55c-1.24 0-2.232 1.039-2.232 2.297h.55zm1.682 1.746c-.919 0-1.682-.775-1.682-1.746h-.55c0 1.258.993 2.296 2.232 2.296v-.55zM5.093 2.06c0-.979-.796-1.775-1.775-1.775v.55c.675 0 1.225.55 1.225 1.225h.55zM3.318 3.835c.979 0 1.775-.796 1.775-1.775h-.55c0 .675-.55 1.225-1.225 1.225v.55zM1.543 2.06c0 .98.796 1.775 1.775 1.775v-.55c-.676 0-1.225-.55-1.225-1.225h-.55zM3.318.285c-.98 0-1.775.796-1.775 1.775h.55c0-.675.55-1.225 1.225-1.225v-.55zm2.875 14.746c0 .064-.048.101-.09.101v.55c.362 0 .64-.3.64-.65h-.55zm-.09-.101c.042 0 .09.037.09.101h.55a.645.645 0 0 0-.64-.651v.55zm-.662 0h.663v-.55H5.44v.55zM4.3 7.636l.867 7.053.546-.068-.868-7.052-.546.067zm-.099-.087c.04-.005.09.024.098.087l.546-.067a.642.642 0 0 0-.716-.565l.072.545zm-.078.114c-.008-.063.036-.108.078-.114l-.072-.545a.649.649 0 0 0-.552.727l.546-.068zm.907 7.372l-.907-7.372-.546.068.907 7.371.546-.067zm.002.016l-.001-.01-.548.055.001.01.548-.055zm0 .004v-.008l-.547.064v.008l.547-.064zm.002.005l-.005-.025-.54.104.005.025.54-.104zm0 .001l-.002-.008-.537.119.002.009.537-.12zm.004.014l-.007-.025-.53.143.006.025.531-.143zm-.002-.01l-.003-.008-.52.179.002.008.52-.178zm.007.02l-.009-.024-.517.188.009.024.517-.188zm-.002-.004l-.004-.011-.505.219.005.011.504-.22zm.009.016l-.015-.03-.492.246.015.03.492-.246zm0-.003l-.013-.02-.466.292.013.02.466-.292zm.004.006l-.007-.01-.46.3.006.01.46-.3zm.006.009l-.013-.018-.448.319.013.018.448-.32zm-.013-.018l-.01-.01-.402.375.01.01.402-.374zm.024.028l-.013-.015-.424.35.012.015.425-.35zm-.01-.011l-.01-.01-.385.393.011.01.385-.393zm.005.003l-.015-.012-.364.412.015.013.364-.412zm.008.007l-.011-.01-.358.419.012.01.357-.419zm.004.003l-.015-.012-.335.437.015.011.335-.436zm.004.003l-.012-.01-.32.449.014.009.318-.448zm.002 0l-.015-.01-.292.467.016.01.291-.466zm.001 0l-.013-.007-.267.481.014.008.266-.481zm.01.005l-.017-.008-.252.489.017.008.252-.489zm0 0l-.014-.006-.224.502.013.006.225-.502zm.004 0l-.02-.007-.193.515.02.008.193-.515zm.001.001l-.012-.004-.171.523.012.004.171-.523zm.01.002l-.023-.006-.144.53.023.007.144-.53zm-.002 0l-.01-.003-.12.537.01.002.12-.536zm.017.002l-.034-.006-.086.544.034.005.086-.543zm.01-.001l-.039-.002-.028.549.038.002.028-.55zm.968 0H5.12v.55h.983v-.55zm1.28-4.388a.842.842 0 0 0 .249-.046l-.195-.514c-.024.01-.026.01-.053.01v.55zm-.628-.402a.682.682 0 0 0 .629.402v-.55c-.065 0-.11-.036-.125-.07l-.504.218zm-1.28-2.95l1.28 2.95.504-.219-1.279-2.95-.505.218zm-1.174-1.41c.23.036.422.157.61.387.202.245.373.58.564 1.022l.505-.219c-.199-.457-.406-.86-.643-1.15-.25-.307-.555-.522-.953-.583l-.083.544zm-1.666.006c-.014.002.042-.005.094-.007a23.661 23.661 0 0 1 .737-.015c.4-.001.763.006.837.017l.08-.544c-.125-.019-.542-.024-.919-.023-.196 0-.393.003-.553.008a4.1 4.1 0 0 0-.362.02l.086.544zM1.102 7.478c.232-.37.463-.72.728-.996.258-.272.522-.444.81-.494l-.094-.542c-.448.078-.812.34-1.115.656-.296.313-.559.707-.795 1.084l.466.292zm-.016.024l.015-.022-.463-.296-.015.023.463.295zm.85 1.732l-.827-1.985L.6 7.46l.827 1.985.508-.211zm-.393.85c.343-.122.54-.498.392-.85l-.507.212a.075.075 0 0 1-.001.063.117.117 0 0 1-.07.058l.186.518zM.67 9.718c.143.34.538.487.872.367l-.185-.517c-.084.03-.16-.016-.18-.063l-.507.213zm-.897-2.154L.67 9.716l.508-.211L.28 7.35l-.507.212zm.047-.576a.627.627 0 0 0-.047.577l.507-.214a.077.077 0 0 1 .007-.072l-.467-.29zm.113-.18l-.112.18.466.292.112-.18-.466-.292zm2.464-2.1c-1.21.21-1.932 1.253-2.464 2.1L.4 7.1c.546-.87 1.153-1.689 2.091-1.851l-.093-.542zm2.12-.01c-.154-.023-.615-.033-1.046-.032-.43 0-.9.012-1.074.042l.093.542c.117-.02.533-.033.982-.034.448 0 .859.01.962.026l.083-.543zm2.216 2.196c-.383-.882-.94-2-2.216-2.195l-.083.543c.945.145 1.4.964 1.794 1.871l.505-.22zm1.28 2.95l-1.28-2.95-.505.219 1.28 2.95.504-.218zm-.383.857a.643.643 0 0 0 .383-.856l-.506.218a.076.076 0 0 1 0 .064.117.117 0 0 1-.069.059l.192.515zm-5.13.384L1.357 14.57l.523.171 1.143-3.485-.522-.171zm-.057-.132c.043.015.078.07.058.132l.522.171a.654.654 0 0 0-.398-.822l-.182.519zm-.11.062c.02-.057.072-.076.11-.062l.182-.52a.637.637 0 0 0-.814.41l.523.172zM1.026 15l1.308-3.985-.523-.172-1.307 3.985.522.172zm-.002.01l.007-.025-.532-.142-.007.026.532.141zm-.002.008l.003-.012-.534-.133-.003.011.534.134zm0 .005l.003-.02-.54-.103-.004.021.54.102zm-.002.011l.002-.017-.542-.09-.003.018.543.09zm.002-.011v-.015l-.548-.036-.001.015.549.036zm0 .019v-.027l-.55-.02v.027l.55.02zm0 0v-.01h-.55v.01h.55zm0 .002l-.002-.024-.548.043.002.025.548-.044zm.002.019l-.001-.015-.55.036.002.015.549-.036zm0-.011l-.004-.021-.541.1.004.021.54-.1zm.001.008l-.003-.018-.537.12.004.017.536-.12zm.004.016l-.004-.017-.536.12.004.018.536-.12zm0-.001l-.005-.02-.526.163.006.019.526-.162zm0-.003l-.006-.015-.513.198.006.015.513-.198zm.005.01l-.008-.018-.507.214.008.018.507-.213zm.002.006l-.006-.015-.499.233.007.014.498-.232zm.003.004l-.009-.016-.486.257.009.016.486-.257zm.006.01l-.01-.016-.479.27.01.015.479-.27zm0 0l-.009-.014-.462.297.008.014.463-.298zm0-.002l-.013-.017-.437.334.013.017.437-.334zm.003.003l-.009-.01-.426.348.01.01.425-.348zm.01.01l-.015-.016-.415.36.014.018.415-.361zm-.005-.005l-.009-.008-.389.389.01.008.388-.389zm.014.014l-.017-.016-.383.394.017.016.383-.394zm-.01-.01l-.01-.008-.344.43.01.008.344-.43zm.013.01l-.018-.014-.334.438.019.014.333-.438zm.003.002l-.011-.008-.317.45.01.008.318-.45zm.002 0l-.018-.01-.285.47.018.011.285-.47zm.008.005l-.015-.008-.27.478.014.008.271-.478zm-.002-.002l-.016-.008-.235.498.017.008.234-.498zm.007.003l-.02-.008-.209.508.02.008.21-.508zm.009.003l-.015-.006-.197.514.015.005.197-.513zm-.005-.002l-.012-.004-.164.525.012.004.164-.525zm.012.003l-.022-.006-.144.53.021.007.145-.531zm-.013-.003l-.01-.002-.099.54.011.003.098-.541zm.027.004l-.033-.005-.086.543.032.005.087-.543zm.007-.002l-.039-.002-.024.55.04.002.023-.55zm.969 0h-.98v.55h.98v-.55zm.09-.101c0 .064-.049.101-.09.101v.55c.361 0 .64-.3.64-.651h-.55zm-.09-.101c.04 0 .09.037.09.101h.55a.645.645 0 0 0-.64-.651v.55zm-.476 0h.476v-.55h-.476v.55z"/></defs></svg>