<svg width="14" height="16" viewBox="0 0 14 16" xmlns="http://www.w3.org/2000/svg" xmlns:xlink="http://www.w3.org/1999/xlink"><title>Group 3</title><desc>Created using Figma</desc><use xlink:href="#a" transform="translate(4 1)" fill="#88979D"/><use xlink:href="#b" transform="translate(1 9.99)" fill="#88979D"/><defs><path id="a" d="M5 2.998a1.999 1.999 0 0 1-2 1.998v2a4 4 0 0 0 4-3.998H5zM3 4.996c-1.105 0-2-.895-2-1.998h-2a3.999 3.999 0 0 0 4 3.998v-2zM1 2.998C1 1.895 1.895 1 3 1v-2a4 4 0 0 0-4 3.998h2zM3 1c1.105 0 2 .895 2 1.998h2A3.999 3.999 0 0 0 3-1v2z"/><path id="b" d="M12 4.997v1a1 1 0 0 0 1-1h-1zm-12 0h-1a1 1 0 0 0 1 1v-1zm12-1H0v2h12v-2zm-11 1A3.998 3.998 0 0 1 5 1v-2C1.686-1-1 1.685-1 4.997h2zM5 1h2v-2H5v2zm2 0c2.21 0 4 1.79 4 3.997h2A5.998 5.998 0 0 0 7-1v2z"/></defs></svg>