<svg width="24" height="14" viewBox="0 0 24 14" xmlns="http://www.w3.org/2000/svg" xmlns:xlink="http://www.w3.org/1999/xlink"><title>Машина</title><desc>Created using Figma</desc><use xlink:href="#a" transform="translate(1 1)" fill="#FFF"/><use xlink:href="#b" transform="translate(4 9)" fill="#FFF"/><use xlink:href="#b" transform="translate(15 9)" fill="#FFF"/><defs><path id="a" d="M9 0v-.75a.75.75 0 0 0-.6.3L9 0zM6 4l.237.712A.75.75 0 0 0 6.6 4.45L6 4zm13-4l.69-.295A.75.75 0 0 0 19-.75V0zm3 7l.712.237a.75.75 0 0 0-.023-.532L22 7zm-1 3v.75a.75.75 0 0 0 .712-.513L21 10zm-3 0h-.75c0 .414.336.75.75.75V10zm-4 0v.75a.75.75 0 0 0 .75-.75H14zm-7 0h-.75c0 .414.336.75.75.75V10zm-4 0v.75a.75.75 0 0 0 .75-.75H3zm-2 0l-.53.53c.14.141.331.22.53.22V10zM0 9h-.75c0 .199.079.39.22.53L0 9zm0-3l-.237-.712A.75.75 0 0 0-.75 6H0zM8.4-.45l-3 4 1.2.9 3-4-1.2-.9zm5.6-.3H9v1.5h5v-1.5zm5 0h-5v1.5h5v-1.5zm3.69 7.455l-3-7-1.38.59 3 7 1.38-.59zm-.979 3.532l1-3-1.422-.474-1 3 1.422.474zM18 10.75h3v-1.5h-3v1.5zm.75-.75A2.75 2.75 0 0 0 16 7.25v1.5c.69 0 1.25.56 1.25 1.25h1.5zM16 7.25A2.75 2.75 0 0 0 13.25 10h1.5c0-.69.56-1.25 1.25-1.25v-1.5zm-9 3.5h7v-1.5H7v1.5zm-2-2c.69 0 1.25.56 1.25 1.25h1.5A2.75 2.75 0 0 0 5 7.25v1.5zM3.75 10c0-.69.56-1.25 1.25-1.25v-1.5A2.75 2.75 0 0 0 2.25 10h1.5zM1 10.75h2v-1.5H1v1.5zM-.53 9.53l1 1 1.06-1.06-1-1-1.06 1.06zM-.75 6v3h1.5V6h-1.5zm6.513-2.712l-6 2 .474 1.424 6-2-.474-1.424z"/><path id="b" d="M2 4.75A2.75 2.75 0 0 0 4.75 2h-1.5c0 .69-.56 1.25-1.25 1.25v1.5zM4.75 2A2.75 2.75 0 0 0 2-.75v1.5c.69 0 1.25.56 1.25 1.25h1.5zM2-.75A2.75 2.75 0 0 0-.75 2h1.5C.75 1.31 1.31.75 2 .75v-1.5zM-.75 2A2.75 2.75 0 0 0 2 4.75v-1.5C1.31 3.25.75 2.69.75 2h-1.5z"/></defs></svg>