<svg width="16" height="13" viewBox="0 0 16 13" xmlns="http://www.w3.org/2000/svg" xmlns:xlink="http://www.w3.org/1999/xlink"><title>mail</title><desc>Created using Figma</desc><use xlink:href="#a" transform="translate(1 1.74)" fill="#88979D"/><use xlink:href="#b" transform="translate(2 2.74)" fill="#88979D"/><defs><path id="a" d="M13 8.993H1v2h12v-2zm-12 0v.001h-2a2 2 0 0 0 2 2v-2zm0 .001V1h-2v7.995h2zM1 1v-2a2 2 0 0 0-2 2h2zm0 0h12v-2H1v2zm12 0h2a2 2 0 0 0-2-2v2zm0 0v7.994h2V1h-2zm0 7.994v2a2 2 0 0 0 2-2h-2z"/><path id="b" d="M12.64.768a1 1 0 1 0-1.28-1.536L12.64.768zM6 4.997l-.64.768a1 1 0 0 0 1.28 0L6 4.997zM.64-.768A1 1 0 0 0-.64.768L.64-.768zm10.72 0l-6 4.996 1.28 1.537 6-4.997-1.28-1.536zM6.64 4.228l-6-4.996L-.64.768l6 4.997 1.28-1.537z"/></defs></svg>