<svg width="10" height="17" viewBox="0 0 10 17" xmlns="http://www.w3.org/2000/svg" xmlns:xlink="http://www.w3.org/1999/xlink"><title>Shape</title><desc>Created using Figma</desc><g transform="translate(13742 2668)"><path fill="#FFF" d="M-13742-2668h10v17h-10z"/><clipPath id="a" clip-rule="evenodd"><path d="M-15305-7526h1920v6710h-1920v-6710z" fill="#FFF"/></clipPath><g clip-path="url(#a)"><path d="M-15305-7526h1920v6710h-1920v-6710z" fill="#FFF"/><use xlink:href="#b" transform="matrix(-1 0 0 1 -13709 -2687)" fill="#FFF"/><mask id="c"><use xlink:href="#b" fill="#fff" transform="matrix(-1 0 0 1 -13709 -2687)"/></mask><g mask="url(#c)"><use xlink:href="#d" transform="matrix(-1 0 0 1 -13709 -2687)" fill="#0BAFF0"/></g><g transform="translate(-13741 -2667.71)" fill="#0C97CC"><use xlink:href="#e"/><use xlink:href="#f"/></g></g></g><defs><path id="b" fill-rule="evenodd" d="M0 6a6 6 0 0 1 6-6h168v54H6a6 6 0 0 1-6-6V6z"/><path id="d" d="M174 0h3v-3h-3v3zm0 54v3h3v-3h-3zM6 3h168v-6H6v6zm165-3v54h6V0h-6zm3 51H6v6h168v-6zM3 48V6h-6v42h6zM6-3a9 9 0 0 0-9 9h6a3 3 0 0 1 3-3v-6zm0 54a3 3 0 0 1-3-3h-6a9 9 0 0 0 9 9v-6z"/><path id="e" fill-rule="evenodd" d="M3 3.857c1.102 0 2-.865 2-1.929C5 .865 4.102 0 3 0 1.897 0 1 .865 1 1.928c0 1.064.897 1.93 2 1.93zM3 .482c.827 0 1.5.65 1.5 1.446 0 .798-.673 1.447-1.5 1.447s-1.5-.649-1.5-1.447c0-.797.673-1.446 1.5-1.446zm3.583 15.91a.41.41 0 0 0 .417-.4.41.41 0 0 0-.417-.402h-.759L4.83 8.065a.413.413 0 0 0-.466-.347.405.405 0 0 0-.361.448l1.039 7.869v.007l.003.009.005.027.002.01.007.026.004.01.01.026.006.011.018.032.013.021.008.012.015.018.01.012.016.016.012.011.015.014.015.01.017.013.014.01.018.01.015.008.02.009.016.006.022.008.014.005.027.007.01.002.04.006.044.002h1.125zm1.155-5.813a.439.439 0 0 1-.155.028.418.418 0 0 1-.387-.247L5.883 7.273c-.4-.94-.778-1.544-1.422-1.644-.205-.03-1.6-.026-1.798.006-.757.133-1.29.907-1.772 1.689l-.014.024.85 2.077a.388.388 0 0 1-.238.509.425.425 0 0 1-.539-.225L.028 7.456a.374.374 0 0 1 .028-.34l.116-.188C.724 6.03 1.407 5.056 2.51 4.861c.297-.053 1.822-.05 2.087-.008 1.14.177 1.66 1.19 2.06 2.126l1.313 3.088a.386.386 0 0 1-.232.512zm-5.88 5.048l1.123-3.55c.063-.2-.037-.417-.224-.485s-.391.04-.454.24l-1.285 4.057-.006.027-.003.011-.004.021-.003.019-.001.015L1 16.01v.009l.002.025v.016l.005.021.003.018.004.017.006.02.005.015.008.02.007.014.009.017.008.016.01.014.011.017.009.01.014.018.01.009.016.016.009.008.018.015.01.007.018.012.016.008.016.008.018.008.015.006.013.004.02.006.01.002.032.005.038.002h.965c.197 0 .357-.172.357-.383 0-.212-.16-.383-.357-.383h-.468z"/><path id="f" d="M5.824 15.59l-.273.036.032.24h.241v-.276zM4.83 8.065l-.273.035v.001l.273-.036zm-.827.101l-.273.035v.001l.273-.036zm1.039 7.869l.273-.036-.273.036zm0 .007l-.272.035.002.014.003.012.268-.06zm.003.009l.27-.049-.002-.012-.268.06zm.005.027l-.271.049.001.006.27-.055zm.002.01l-.27.055.002.01.003.01.265-.076zm.007.026l-.264.077.005.015.006.015.253-.107zm.004.01l.258-.097-.004-.01-.254.107zm.01.026l-.257.097.005.013.006.013.246-.123zm.006.011l-.246.123.006.012.24-.135zm.018.032l-.24.135.007.011.233-.146zm.013.021l-.233.147.007.01.226-.157zm.008.012l-.226.157.005.006.004.006.217-.17zm.015.018l-.217.17.008.01.01.01.199-.19zm.01.012l.2-.19-.2.19zm.016.016l-.199.19.009.009.19-.199zm.012.011l-.19.199.007.007.183-.206zm.015.014l-.183.206.01.008.01.008.163-.222zm.015.01l-.163.223.002.001.161-.223zm.017.013l-.161.223.008.006.153-.23zm.014.01l-.152.228.007.005.007.004.138-.237zm.018.01l-.139.238.01.005.129-.243zm.015.008l-.129.243.008.004.009.004.112-.25zm.02.009l-.113.25.006.003.107-.253zm.016.006l-.107.254.008.003.008.003.09-.26zm.022.008l-.09.26.006.002.084-.262zm.014.005l-.084.261.008.003.01.002.066-.266zm.027.007l-.067.266.006.002.061-.268zm.01.002l-.06.268.01.003.012.001.039-.272zm.04.006l-.04.272.013.002H5.4l.014-.274zm.044.002l-.014.275h.014v-.275zm2.28-5.814l.098.257-.098-.257zm-.542-.219l-.253.108.253-.108zM5.883 7.273l.253-.108-.253.108zM4.46 5.629l.042-.272H4.5l-.04.272zm-1.798.006l-.044-.272h-.004l.048.272zM.89 7.324L.657 7.18l.234.144zm-.014.024l-.235-.144-.073.12.053.128.255-.104zm.85 2.077l-.254.104.254-.104zm-.238.509l.094.258-.094-.258zM.95 9.709l-.254.104.254-.104zM.028 7.456l.255-.105-.255.105zm.028-.34l-.234-.144.234.144zM2.51 4.86l.047.27-.047-.27zm2.087-.008l-.043.271.043-.271zm2.06 2.126l.252-.107-.253.107zm1.313 3.088l-.253.108.253-.108zm-4.989 2.01l.262.084v-.001l-.262-.082zm-1.124 3.55l-.262-.083-.113.358h.375v-.275zm.9-4.035l-.095.258h.001l.094-.258zm-.454.24l-.263-.083.263.083zm-1.285 4.057l-.262-.083-.004.014.266.07zm-.006.027l-.267-.07v.004l.267.066zm-.003.011l-.267-.065-.002.008-.002.007.27.05zm-.004.021l-.27-.05-.002.007.272.043zm-.003.019l-.272-.044-.002.013v.013l.274.018zM1 15.982l-.275-.018v.008l.275.01zm0 .028L.725 16v.01H1zm0 .009H.725v.021L1 16.02zm.002.025l.274-.017v-.004l-.274.021zm0 .016l-.274.017.001.016.003.016.27-.05zm.005.021l.271-.045v-.004l-.271.05zm.003.018l-.272.044.003.015.004.014.265-.073zm.004.017l-.265.074.002.006.263-.08zm.006.02l-.263.08v.002l.263-.082zm.005.015l-.262.082.003.012.005.012.254-.106zm.008.02l-.254.105.004.009.25-.115zm.007.014l-.25.115.006.012.244-.127zm.009.017l-.244.127.003.006.24-.133zm.008.016l-.24.133.004.007.004.007.232-.147zm.01.014l-.233.147.006.01.226-.157zm.011.017l-.226.157.005.007.006.007.215-.172zm.009.01l-.215.172.005.006.21-.178zm.014.018l-.21.177.008.01.008.007.194-.194zm.01.009l-.195.194.001.002.193-.196zm.016.016l-.193.196.007.007.186-.203zm.009.008l-.186.203.008.007.009.007.169-.217zm.018.015l-.169.217.007.005.162-.223zm.01.007l-.161.223.012.008.15-.23zm.018.012l-.15.23.01.007.011.006.13-.243zm.016.008l-.129.243.003.002.126-.245zm.016.008l-.126.245.008.004.008.003.11-.252zm.018.008l-.11.253.008.003.102-.256zm.015.006l-.102.255.013.005.013.004.076-.264zm.013.004l-.077.264h.001l.076-.264zm.02.006l-.075.264.007.002.008.002.06-.268zm.01.002l-.06.268.008.002.009.001.043-.271zm.032.005l-.043.272.014.002h.015l.014-.274zm.038.002l-.014.275h.014v-.275zM4.725 1.928c0 .903-.765 1.654-1.725 1.654v.55c1.245 0 2.275-.979 2.275-2.204h-.55zM3 .275c.96 0 1.725.751 1.725 1.653h.55C5.275.704 4.245-.275 3-.275v.55zM1.275 1.928C1.275 1.026 2.04.275 3 .275v-.55C1.755-.275.725.704.725 1.928h.55zM3 3.582c-.96 0-1.725-.751-1.725-1.654h-.55c0 1.225 1.03 2.204 2.275 2.204v-.55zm1.775-1.654C4.775.97 3.969.208 3 .208v.55c.685 0 1.225.534 1.225 1.17h.55zM3 3.65c.97 0 1.775-.762 1.775-1.722h-.55C4.225 2.565 3.685 3.1 3 3.1v.55zM1.225 1.928c0 .96.805 1.722 1.775 1.722V3.1c-.685 0-1.225-.535-1.225-1.172h-.55zM3 .208c-.97 0-1.775.762-1.775 1.72h.55c0-.636.54-1.17 1.225-1.17v-.55zm3.725 15.784c0 .06-.054.126-.142.126v.55a.684.684 0 0 0 .692-.676h-.55zm-.142-.127c.088 0 .142.066.142.127h.55a.684.684 0 0 0-.692-.677v.55zm-.759 0h.759v-.55h-.759v.55zM4.557 8.101l.994 7.525.546-.072-.994-7.525-.546.072zm-.16-.11c.089-.011.152.05.16.11l.546-.07a.688.688 0 0 0-.772-.586l.067.545zm-.121.14c-.008-.06.036-.13.122-.14l-.067-.546a.68.68 0 0 0-.601.756l.546-.07zM5.314 16L4.275 8.13l-.545.072 1.04 7.869.544-.072zm.002.008L5.315 16l-.546.07.001.008.546-.07zm-.003-.018l-.002-.008-.536.123.002.008.536-.122zm.007.04l-.005-.027-.54.098.004.027.541-.098zm.001.003l-.002-.01-.539.111.002.01.539-.11zm.003.006l-.008-.027-.529.153.008.027.529-.153zm-.007-.02l-.004-.01-.507.213.004.01.507-.214zm.013.035l-.01-.026-.514.194.01.026.514-.194zm-.005-.015l-.006-.011-.492.246.006.011.492-.246zm.011.02l-.017-.031-.48.27.018.03.48-.27zm.007.01l-.014-.022-.465.293.013.022.466-.293zm0 0l-.007-.01-.452.313.008.012.452-.314zm.007.007l-.015-.018-.434.338.015.018.434-.338zm-.008-.01l-.01-.01-.398.38.01.01.398-.38zm.016.017l-.016-.016-.397.38.015.016.398-.38zm.003.003l-.012-.012-.38.398.011.01.381-.396zm.008.007l-.015-.014-.366.41.015.015.366-.411zm-.005-.006l-.015-.01-.325.443.014.01.326-.443zm.014.01l-.016-.011-.322.446.017.012.321-.446zm.007.005l-.015-.01-.305.458.015.01.305-.458zm.003.001l-.017-.01-.277.475.017.01.277-.475zm.006.003l-.015-.008-.258.486.015.008.258-.486zm.004.001l-.02-.009-.225.502.02.009.225-.502zm.01.004l-.016-.006-.214.506.016.007.214-.507zm.005.002l-.022-.008-.18.52.022.007.18-.52zm.008.002l-.014-.005-.168.524.014.005.168-.524zm.01.002l-.028-.007-.133.533.027.007.134-.533zm.005 0l-.011-.002-.122.537.01.002.123-.536zm.017.002l-.039-.005-.078.544.039.006.078-.545zm.019 0l-.044-.002-.028.55.044.002.028-.55zm1.11 0H5.459v.55h1.125v-.55zm1-5.236a.853.853 0 0 0 .254-.046l-.196-.514a.095.095 0 0 1-.057.01v.55zm-.639-.414a.693.693 0 0 0 .64.414v-.55a.143.143 0 0 1-.134-.08l-.506.216zM5.63 7.381l1.313 3.087.506-.215-1.313-3.088-.506.216zM4.418 5.9c.237.037.436.164.63.407.209.257.385.61.582 1.073l.506-.216c-.204-.478-.416-.897-.658-1.201-.255-.319-.567-.543-.975-.607l-.085.544zm-1.711.005c.027-.004.13-.01.299-.015.16-.004.356-.007.554-.008.41 0 .784.007.86.018l.081-.544c-.128-.02-.555-.025-.943-.024-.2.001-.404.004-.567.008-.155.005-.3.01-.372.022l.088.543zM1.126 7.468c.238-.388.476-.754.749-1.044.267-.285.539-.466.836-.518l-.096-.542c-.46.081-.833.354-1.142.685-.304.326-.573.737-.816 1.13l.469.29zm-.015.023l.015-.023-.47-.288-.014.024.47.287zm.87 1.83l-.85-2.077-.509.208.85 2.077.51-.209zm-.397.87a.663.663 0 0 0 .398-.87l-.51.208c.02.047.002.117-.078.146l.19.517zm-.888-.378a.7.7 0 0 0 .887.379l-.188-.517c-.086.032-.167-.015-.19-.07l-.51.208zM-.226 7.56l.922 2.253.509-.209-.922-2.253-.51.209zm.048-.588a.649.649 0 0 0-.048.588l.508-.21a.099.099 0 0 1 .009-.09l-.469-.288zm.116-.188l-.116.188.469.288.115-.187-.468-.289zM2.462 4.59C1.222 4.81.482 5.9-.062 6.784l.468.289c.56-.911 1.186-1.77 2.151-1.941l-.095-.542zm2.177-.01c-.159-.024-.631-.034-1.074-.033-.441 0-.925.012-1.103.043l.096.542c.12-.021.546-.035 1.008-.035.46-.001.882.01.988.027l.085-.543zm2.27 2.292c-.392-.922-.963-2.088-2.27-2.291l-.085.543c.974.152 1.444 1.013 1.85 1.963l.505-.215zm1.314 3.087L6.909 6.872l-.506.215 1.314 3.088.506-.216zm-.387.877a.661.661 0 0 0 .387-.877l-.506.216c.02.047.002.117-.077.147l.196.514zm-5.117 1.159l-1.124 3.549.524.166 1.124-3.55-.524-.165zm-.056-.144c.036.013.079.071.056.145l.525.164c.102-.327-.055-.704-.394-.826l-.187.517zm-.098.064a.1.1 0 0 1 .047-.06.06.06 0 0 1 .05-.005l.189-.516a.628.628 0 0 0-.81.415l.524.166zM1.28 15.972l1.284-4.057-.525-.166-1.284 4.057.525.166zm-.003.013l.006-.026-.532-.14-.006.027.532.14zm-.002.008l.003-.012-.535-.13-.002.011.534.13zm0 .006l.003-.021-.54-.1-.005.02.541.1zm-.003.011l.003-.018-.543-.087-.003.018.543.087zm.002-.01l.001-.015-.549-.036v.015l.548.036zm0 .02v-.028l-.549-.02V16l.55.02zm0-.001v-.01h-.55v.01h.55zm.001.004l-.002-.025-.548.042.002.026.548-.043zm.001.019v-.015l-.55.035.001.015.55-.035zm0-.01l-.004-.022-.54.099.003.021.541-.098zm.004.022l-.003-.018-.543.09.003.017.543-.089zm-.002-.011l-.004-.018-.53.148.005.017.53-.147zm.004.013l-.005-.02-.527.16.006.02.526-.16zm.005.013l-.005-.015-.525.164.005.015.525-.164zm-.001-.004l-.008-.02-.508.212.008.019.508-.211zm.003.005l-.007-.015-.5.23.007.015.5-.23zm.002.005l-.008-.017-.488.254.009.017.487-.254zm.006.01l-.009-.016-.48.266.008.016.481-.267zm0 0l-.008-.014-.465.294.009.014.465-.294zm.006.006l-.012-.016-.452.314.012.017.452-.314zm-.003-.003l-.008-.011-.43.343.009.011.43-.343zm.01.011l-.014-.017-.42.355.014.017.42-.355zm-.006-.008l-.01-.009-.388.39.009.008.389-.389zm.015.015l-.017-.016-.386.392.017.016.386-.392zm.001.001l-.008-.008-.372.406.009.008.371-.406zm.002 0l-.019-.014-.337.434.019.015.337-.435zm.004.003l-.011-.008-.324.445.011.008.324-.445zm.006.003l-.018-.011-.3.46.017.012.3-.46zm-.006-.004l-.016-.008-.258.486.016.008.258-.486zm.013.007l-.016-.008-.252.488.016.009.252-.49zm.002 0l-.019-.008-.219.504.019.008.219-.504zm.007.003l-.015-.006-.204.51.015.006.204-.51zm-.013-.006l-.013-.003-.152.528.012.004.153-.529zm.02.006l-.02-.006-.152.53.02.005.152-.529zm-.006-.002l-.01-.002-.12.537.01.002.12-.537zm.015.002l-.032-.005-.086.543.032.006.086-.544zm.01 0l-.039-.003-.028.55.038.002.028-.55zm.95-.001H1.36v.55h.965v-.55zm.082-.108c0 .078-.054.108-.082.108v.55c.367 0 .632-.313.632-.658h-.55zm-.082-.108c.028 0 .082.03.082.108h.55c0-.345-.265-.658-.632-.658v.55zm-.468 0h.468v-.55h-.468v.55z"/></defs></svg>