<svg width="15" height="18" viewBox="0 0 15 18" xmlns="http://www.w3.org/2000/svg" xmlns:xlink="http://www.w3.org/1999/xlink"><title>Map icon</title><desc>Created using Figma</desc><use xlink:href="#a" transform="translate(5.3 5.997)" fill="#0C97CC"/><use xlink:href="#b" transform="translate(1 1.733)" fill="#0C97CC"/><defs><path id="a" d="M2.167 5.264c1.733 0 3.166-1.388 3.166-3.132h-2c0 .61-.507 1.132-1.166 1.132v2zm3.166-3.132C5.333.388 3.9-1 2.167-1v2c.659 0 1.166.523 1.166 1.132h2zM2.167-1C.434-1-1 .388-1 2.132h2C1 1.522 1.508 1 2.167 1v-2zM-1 2.132C-1 3.876.434 5.264 2.167 5.264v-2C1.507 3.264 1 2.74 1 2.132h-2z"/><path id="b" d="M12 6.396c0 2.308-1.172 4.199-2.545 5.55a9.774 9.774 0 0 1-1.984 1.53c-.584.343-1.066.432-.971.448v2c.327 0 .672-.107.953-.216.289-.113.66-.293 1.022-.502a12.686 12.686 0 0 0 2.383-1.835C12.464 11.791 14 9.418 14 6.396h-2zm-5.5 7.528c.095-.016-.387-.105-.97-.448a9.774 9.774 0 0 1-1.985-1.53C2.172 10.595 1 8.704 1 6.396h-2C-1 9.418.536 11.79 2.142 13.37c.8.783 1.68 1.425 2.383 1.835.363.21.733.389 1.022.502.281.11.626.216.953.216v-2zM1 6.396C1 3.432 3.448 1 6.5 1v-2C2.374-1-1 2.297-1 6.396h2zM6.5 1C9.552 1 12 3.432 12 6.396h2C14 2.296 10.626-1 6.5-1v2z"/></defs></svg>