<svg width="54" height="54" viewBox="0 0 54 54" xmlns="http://www.w3.org/2000/svg" xmlns:xlink="http://www.w3.org/1999/xlink"><title>Notebook</title><desc>Created using Figma</desc><use xlink:href="#a" fill="#181818" opacity=".01"/><use xlink:href="#b" transform="translate(6.1 7.36)" fill="#0C97CC"/><use xlink:href="#c" transform="translate(1.2 36.82)" fill="#0C97CC"/><use xlink:href="#d" transform="translate(1.2 44.18)" fill="#0C97CC"/><defs><path id="a" fill-rule="evenodd" d="M0 0h54v54H0V0z"/><path id="b" d="M2 1h37.727v-2H2v2zm38.727 1v25.454h2V2h-2zm-1 26.454H2v2h37.727v-2zM1 27.454V2h-2v25.454h2zM2-1a3 3 0 0 0-3 3h2a1 1 0 0 1 1-1v-2zm37.727 2a1 1 0 0 1 1 1h2a3 3 0 0 0-3-3v2zm1 26.454a1 1 0 0 1-1 1v2a3 3 0 0 0 3-3h-2zM2 28.454a1 1 0 0 1-1-1h-2a3 3 0 0 0 3 3v-2z"/><path id="c" d="M51.545 7.364v1a1 1 0 0 0 .832-1.555l-.832.555zM0 7.364l-.832-.555A1 1 0 0 0 0 8.364v-1zM4.612.445L5.444 1 4.612.445zm42.321 0L46.101 1l.832-.555zM5.444 1h40.657v-2H5.444v2zm40.657 0l4.612 6.918 1.664-1.11-4.612-6.917L46.101 1zm5.444 5.364H0v2h51.545v-2zM.832 7.918L5.444 1 3.78-.11-.832 6.81.832 7.92zM5.444-1a2 2 0 0 0-1.664.89L5.444 1v-2zm40.657 2l1.664-1.11A2 2 0 0 0 46.101-1v2z"/><path id="d" d="M0 0v-1a1 1 0 0 0-1 1h1zm51.545 0h1a1 1 0 0 0-1-1v1zM0 1h51.545v-2H0v2zm50.545-1v2.91h2V0h-2zm-1 3.91H2v2h47.545v-2zM1 2.91V0h-2v2.91h2zm49.545 0a1 1 0 0 1-1 1v2a3 3 0 0 0 3-3h-2zM2 3.91a1 1 0 0 1-1-1h-2a3 3 0 0 0 3 3v-2z"/></defs></svg>