<svg width="26" height="26" viewBox="0 0 26 26" xmlns="http://www.w3.org/2000/svg" xmlns:xlink="http://www.w3.org/1999/xlink"><title>Пункт 4 Copy</title><desc>Created using Figma</desc><g transform="translate(14169 4246)"><use xlink:href="#a" transform="translate(-14166 -4243)" fill="#0BAFF0"/><mask id="b"><path fill="#fff" transform="translate(-14166 -4243)" d="M-3-3h26v26H-3z"/><use xlink:href="#a" transform="translate(-14166 -4243)"/></mask><g mask="url(#b)"><use xlink:href="#c" transform="translate(-14166 -4243)" fill="#FFF"/></g></g><use xlink:href="#d" transform="translate(9 6)" fill="#FFF"/><defs><path id="a" fill-rule="evenodd" d="M10 20c5.523 0 10-4.477 10-10S15.523 0 10 0 0 4.477 0 10s4.477 10 10 10z"/><path id="c" d="M10 23c7.18 0 13-5.82 13-13h-6a7 7 0 0 1-7 7v6zm13-13c0-7.18-5.82-13-13-13v6a7 7 0 0 1 7 7h6zM10-3C2.82-3-3 2.82-3 10h6a7 7 0 0 1 7-7v-6zM-3 10c0 7.18 5.82 13 13 13v-6a7 7 0 0 1-7-7h-6z"/><path id="d" d="M1.207 6.723l.434-4.254h4.37V3.47h-3.45l-.258 2.326c.418-.246.892-.37 1.424-.37.777 0 1.394.259 1.851.774.457.512.686 1.205.686 2.08 0 .88-.239 1.573-.715 2.08-.473.504-1.135.756-1.987.756-.753 0-1.369-.209-1.845-.627-.477-.418-.748-.996-.815-1.734h1.026c.066.488.24.857.521 1.107.281.246.653.37 1.114.37.503 0 .898-.173 1.183-.516.29-.344.434-.819.434-1.424 0-.57-.157-1.027-.47-1.371-.308-.348-.72-.522-1.235-.522-.473 0-.844.104-1.114.31l-.287.235-.867-.222z"/></defs></svg>