<svg width="26" height="26" viewBox="0 0 26 26" xmlns="http://www.w3.org/2000/svg" xmlns:xlink="http://www.w3.org/1999/xlink"><title>Пункт 1</title><desc>Created using Figma</desc><g transform="translate(14650 4565)"><use xlink:href="#a" transform="translate(-14647 -4562)" fill="#0BAFF0"/><mask id="b"><path fill="#fff" transform="translate(-14647 -4562)" d="M-3-3h26v26H-3z"/><use xlink:href="#a" transform="translate(-14647 -4562)"/></mask><g mask="url(#b)"><use xlink:href="#c" transform="translate(-14647 -4562)" fill="#FFF"/></g></g><use xlink:href="#d" transform="translate(10 6)" fill="#FFF"/><defs><path id="a" fill-rule="evenodd" d="M10 20c5.523 0 10-4.477 10-10S15.523 0 10 0 0 4.477 0 10s4.477 10 10 10z"/><path id="c" d="M10 23c7.18 0 13-5.82 13-13h-6a7 7 0 0 1-7 7v6zm13-13c0-7.18-5.82-13-13-13v6a7 7 0 0 1 7 7h6zM10-3C2.82-3-3 2.82-3 10h6a7 7 0 0 1 7-7v-6zM-3 10c0 7.18 5.82 13 13 13v-6a7 7 0 0 1-7-7h-6z"/><path id="d" d="M4.271 11h-1.09V3.775l-2.185.803v-.984l3.106-1.166h.17V11z"/></defs></svg>