<svg width="26" height="26" viewBox="0 0 26 26" xmlns="http://www.w3.org/2000/svg" xmlns:xlink="http://www.w3.org/1999/xlink"><title>Пункт 2</title><desc>Created using Figma</desc><g transform="translate(14330 4565)"><use xlink:href="#a" transform="translate(-14327 -4562)" fill="#0BAFF0"/><mask id="b"><path fill="#fff" transform="translate(-14327 -4562)" d="M-3-3h26v26H-3z"/><use xlink:href="#a" transform="translate(-14327 -4562)"/></mask><g mask="url(#b)"><use xlink:href="#c" transform="translate(-14327 -4562)" fill="#FFF"/></g></g><use xlink:href="#d" transform="translate(10 6)" fill="#FFF"/><defs><path id="a" fill-rule="evenodd" d="M10 20c5.523 0 10-4.477 10-10S15.523 0 10 0 0 4.477 0 10s4.477 10 10 10z"/><path id="c" d="M10 23c7.18 0 13-5.82 13-13h-6a7 7 0 0 1-7 7v6zm13-13c0-7.18-5.82-13-13-13v6a7 7 0 0 1 7 7h6zM10-3C2.82-3-3 2.82-3 10h6a7 7 0 0 1 7-7v-6zM-3 10c0 7.18 5.82 13 13 13v-6a7 7 0 0 1-7-7h-6z"/><path id="d" d="M6.299 11H.709v-.78l2.953-3.28c.438-.497.738-.899.902-1.208.168-.312.252-.634.252-.966 0-.446-.134-.81-.404-1.096-.27-.285-.629-.428-1.078-.428-.54 0-.959.154-1.26.463-.297.305-.445.73-.445 1.277H.545c0-.785.252-1.42.756-1.904.508-.484 1.185-.726 2.033-.726.793 0 1.42.209 1.88.627.462.414.692.966.692 1.658 0 .84-.535 1.84-1.605 3l-2.285 2.478h4.283V11z"/></defs></svg>