<svg width="12" height="16" viewBox="0 0 12 16" xmlns="http://www.w3.org/2000/svg" xmlns:xlink="http://www.w3.org/1999/xlink"><title>Phone icon</title><desc>Created using Figma</desc><use xlink:href="#a" transform="translate(1 1)" fill="#88979D"/><use xlink:href="#b" transform="translate(5 10.99)" fill="#88979D"/><defs><path id="a" d="M9 12.99H1v2h8v-2zm-8 0v.002h-2a2 2 0 0 0 2 1.999v-2zm0 .002V.998h-2v11.993h2zM1 .998V1v-2a2 2 0 0 0-2 2h2zM1 1h8v-2H1v2zm8 0h2a2 2 0 0 0-2-2v2zm0 0v11.992h2V.998H9zm0 11.992v-.001 2a2 2 0 0 0 2-2H9z"/><path id="b" d="M0-1a1 1 0 1 0 0 2v-2zm2 2a1 1 0 0 0 0-2v2zM0 1h2v-2H0v2z"/></defs></svg>