<svg width="32" height="52" viewBox="0 0 32 52" xmlns="http://www.w3.org/2000/svg" xmlns:xlink="http://www.w3.org/1999/xlink"><title>phone</title><desc>Created using Figma</desc><use xlink:href="#a" transform="translate(1.273 1.45)" fill="#FFF"/><use xlink:href="#b" transform="translate(13.545 40.73)" fill="#FFF"/><use xlink:href="#c" transform="translate(13.545 5.14)" fill="#FFF"/><defs><path id="a" d="M3 1h23.454v-2H3v2zm25.454 2v43.09h2V3h-2zm-2 45.09H3v2h23.454v-2zM1 46.09V3h-2v43.09h2zM3-1a4 4 0 0 0-4 4h2a2 2 0 0 1 2-2v-2zm23.454 2a2 2 0 0 1 2 2h2a4 4 0 0 0-4-4v2zm2 45.09a2 2 0 0 1-2 2v2a4 4 0 0 0 4-4h-2zM3 48.09a2 2 0 0 1-2-2h-2a4 4 0 0 0 4 4v-2z"/><path id="b" d="M2.455 5.91a3.455 3.455 0 0 0 3.454-3.455h-2c0 .803-.651 1.454-1.454 1.454v2zm3.454-3.455A3.455 3.455 0 0 0 2.455-1v2c.803 0 1.454.651 1.454 1.455h2zM2.455-1A3.455 3.455 0 0 0-1 2.455h2C1 1.65 1.651 1 2.455 1v-2zM-1 2.455a3.455 3.455 0 0 0 3.455 3.454v-2A1.455 1.455 0 0 1 1 2.455h-2z"/><path id="c" d="M0 .227a1 1 0 1 0 0 2v-2zm4.91 2a1 1 0 1 0 0-2v2zm-4.91 0h4.91v-2H0v2z"/></defs></svg>