<svg width="19" height="24" viewBox="0 0 19 24" xmlns="http://www.w3.org/2000/svg" xmlns:xlink="http://www.w3.org/1999/xlink"><title>QualitySmall</title><desc>Created using Figma</desc><use xlink:href="#a" transform="translate(.1)" fill="#FF8306"/><use xlink:href="#b" transform="translate(4.4 3.92)" fill="#FF8306"/><use xlink:href="#c" transform="translate(6.7 6.9)" fill="#FF8306"/><defs><path id="a" fill-rule="evenodd" d="M18.643 8.487L16.819 6.6l.367-2.598a.745.745 0 0 0-.608-.837l-2.583-.452-1.23-2.318a.744.744 0 0 0-.983-.32L9.427 1.228 7.069.076a.742.742 0 0 0-.982.32l-1.23 2.318-2.584.453a.744.744 0 0 0-.607.836l.367 2.598L.21 8.487a.745.745 0 0 0 0 1.034l1.824 1.886-.367 2.599a.744.744 0 0 0 .607.837l2.069.362v8.045a.743.743 0 0 0 1.075.665l4.01-2.005 4.008 2.005a.744.744 0 0 0 1.076-.665v-8.044l2.068-.363a.745.745 0 0 0 .607-.837l-.367-2.6 1.824-1.885a.743.743 0 0 0 0-1.034zm-9.55 11.927l-3.265 1.632v-4.92l.258.488a.744.744 0 0 0 .983.32l2.357-1.154 2.356 1.153a.744.744 0 0 0 .983-.32l.258-.486v4.92L9.76 20.413a.741.741 0 0 0-.665 0zm6.203-9.159a.742.742 0 0 1 .202-.621l1.576-1.63-1.576-1.63a.743.743 0 0 1-.202-.622l.317-2.245-2.232-.391a.744.744 0 0 1-.529-.384L11.79 1.728l-2.036.996a.742.742 0 0 1-.653 0l-2.037-.996-1.062 2.004a.744.744 0 0 1-.528.384l-2.234.391.318 2.245a.742.742 0 0 1-.203.622l-1.576 1.63 1.576 1.63a.74.74 0 0 1 .203.62l-.318 2.248 2.234.391c.225.04.42.181.528.384l1.062 2.003 2.037-.996a.74.74 0 0 1 .653 0l2.036.996 1.063-2.003a.744.744 0 0 1 .529-.384l2.232-.392-.317-2.246z"/><path id="b" fill-rule="evenodd" d="M0 5.086A5.091 5.091 0 0 1 5.085 0a5.091 5.091 0 0 1 5.085 5.086 5.092 5.092 0 0 1-5.085 5.087A5.092 5.092 0 0 1 0 5.086zm1.487 0c0 1.985 1.615 3.6 3.598 3.6a3.602 3.602 0 0 0 3.598-3.6 3.602 3.602 0 0 0-3.598-3.598 3.602 3.602 0 0 0-3.598 3.598z"/><path id="c" d="M4.301.218L2.105 2.414l-.836-.835a.743.743 0 1 0-1.05 1.053l1.36 1.36a.74.74 0 0 0 1.052 0L5.353 1.27A.744.744 0 0 0 4.3.218z"/></defs></svg>