<svg width="67" height="84" viewBox="0 0 67 84" xmlns="http://www.w3.org/2000/svg" xmlns:xlink="http://www.w3.org/1999/xlink"><title>Shield</title><desc>Created using Figma</desc><use xlink:href="#a" transform="translate(10.6 7.52)" fill="#0C97CC"/><use xlink:href="#b" transform="translate(5.4 2)" fill="#262E31"/><use xlink:href="#c" transform="translate(12.4 22.65)" fill="#262E31"/><use xlink:href="#d" transform="translate(57.1 21.36)" fill="#0C97CC"/><use xlink:href="#e" transform="translate(.2 56.04)" fill="#C8D1D4"/><defs><path id="a" d="M3.858 52.626A28.202 28.202 0 0 0 14.81 63.247l9.744 5.285 9.745-5.285c9.13-4.95 14.8-14.446 14.8-24.784v-19.48h-2.583v19.48c0 9.397-5.155 18.031-13.453 22.53l-8.509 4.613-8.508-4.613c-2.42-1.313-7.567-5.434-10.747-11.642-3.728 0-2.706-6.79-2.706-10.888V7.276a78.725 78.725 0 0 0 21.961-4.538 78.74 78.74 0 0 0 21.961 4.538v1.432h2.584V4.833l-1.233-.057A76.187 76.187 0 0 1 25.001.166L24.553 0l-.448.164A76.205 76.205 0 0 1 1.24 4.774l-1.232.059v21.855s-.365 18.796 3.85 25.938z"/><path id="b" d="M30.193.191l.555-1.393L30.192.19zm29.23 5.045h1.5v-1.5h-1.5v1.5zM41.93 73.276l-.715-1.32.715 1.32zM29.712 79.9l-.715 1.319.715.387.715-.388-.715-1.318zm-12.218-6.626l-.718 1.318.003.001.715-1.319zm-13.88-14.1v-1.5H1.16l1.118 2.183 1.335-.684zM0 34.772h-1.5v1.5H0v-1.5zM0 5.236v-1.5h-1.5v1.5H0zM29.233.19l.555 1.394h.003L29.233.19zm.479-.19l.554-1.394-.556-.22-.555.221L29.712 0zm26.833 3.736a68.882 68.882 0 0 1-25.797-4.938l-1.109 2.787a73.163 73.163 0 0 0 26.906 5.15v-3zm2.879 0h-2.88v3h2.88v-3zm1.5 40.243V5.236h-3v38.743h3zm-18.28 30.615c11.274-6.112 18.28-17.842 18.28-30.615h-3c0 11.666-6.398 22.388-16.71 27.978l1.43 2.637zM30.428 81.22l12.218-6.626-1.43-2.637-12.218 6.625 1.43 2.638zM16.78 74.594l12.218 6.626 1.43-2.638-12.218-6.625-1.43 2.637zM2.278 59.858c3.118 6.055 8.195 11.28 14.498 14.735l1.436-2.635C12.287 68.75 7.834 64.165 4.949 58.491l-2.671 1.367zm2.889-2.184H3.613v3h1.554v-3zm-.208.216c0-.128.1-.216.208-.216v3a2.79 2.79 0 0 0 2.792-2.784h-3zm0-21.832V57.89h3V36.058h-3zm.208.215a.21.21 0 0 1-.208-.215h3a2.79 2.79 0 0 0-2.792-2.785v3zm-5.167 0h5.167v-3H0v3zm-1.5-3.104v1.604h3V33.17h-3zm0-27.933v27.933h3V5.236h-3zm4.38-1.5H0v3h2.88v-3zm25.8-4.939a68.901 68.901 0 0 1-25.8 4.939v3a73.18 73.18 0 0 0 26.908-5.15l-1.109-2.788zm.475-.19l-.479.192 1.115 2.785.478-.191-1.114-2.786zm1.592.19l-.48-.19-1.11 2.787.482.191 1.108-2.787z"/><path id="c" d="M6.242 37.173l-1.246.835.001.001 1.245-.836zM0 34.675h-1.5v1.5H0v-1.5zm.08-15.21c5.098-.274 9.171-4.483 9.171-9.637h-3c0 3.536-2.802 6.452-6.332 6.642l.162 2.996zm9.171-9.637V3.211h-3v6.617h3zm0-6.617c0-.934.769-1.711 1.73-1.711v-3C8.379-1.5 6.25.605 6.25 3.21h3zm1.73-1.711c.96 0 1.73.777 1.73 1.71h3c0-2.606-2.129-4.71-4.73-4.71v3zm1.73 1.71v8.084h3V3.21h-3zm0 8.084c0 3.107 2.537 5.617 5.64 5.617v-3c-1.463 0-2.64-1.184-2.64-2.617h-3zm5.64 5.617h9.471v-3h-9.47v3zm9.471 0c1.646 0 2.974 1.331 2.974 2.947h3c0-3.29-2.688-5.947-5.974-5.947v3zm2.974 2.947V34.08h3V19.858h-3zm0 14.222c0 1.616-1.327 2.947-2.974 2.947v3c3.286 0 5.974-2.657 5.974-5.947h-3zm-2.974 2.947H8.788v3h19.034v-3zm-19.034 0c-.526 0-1.01-.259-1.301-.691l-2.49 1.673a4.562 4.562 0 0 0 3.791 2.018v-3zm-1.3-.69a7.141 7.141 0 0 0-5.942-3.162v3c1.394 0 2.681.687 3.45 1.833l2.492-1.67zm-5.942-3.162H0v3h1.546v-3zm-.046 1.5V17.968h-3v16.707h3z"/><path id="d" d="M0 0h2.584v2.568H0V0z"/><path id="e" d="M0 0h9.043v2.568H0V0z"/></defs></svg>