<svg width="42" height="52" viewBox="0 0 42 52" xmlns="http://www.w3.org/2000/svg" xmlns:xlink="http://www.w3.org/1999/xlink"><title>Tablet</title><desc>Created using Figma</desc><use xlink:href="#a" transform="translate(1 1)" fill="#0C97CC"/><use xlink:href="#b" transform="translate(19 41)" fill="#0C97CC"/><use xlink:href="#c" transform="translate(20 5)" fill="#0C97CC"/><defs><path id="a" d="M3 1h34v-2H3v2zm36 2v44h2V3h-2zm-2 46H3v2h34v-2zM1 47V3h-2v44h2zM3-1a4 4 0 0 0-4 4h2a2 2 0 0 1 2-2v-2zm34 2a2 2 0 0 1 2 2h2a4 4 0 0 0-4-4v2zm2 46a2 2 0 0 1-2 2v2a4 4 0 0 0 4-4h-2zM3 49a2 2 0 0 1-2-2h-2a4 4 0 0 0 4 4v-2z"/><path id="b" d="M2.5 6A3.5 3.5 0 0 0 6 2.5H4A1.5 1.5 0 0 1 2.5 4v2zM6 2.5A3.5 3.5 0 0 0 2.5-1v2A1.5 1.5 0 0 1 4 2.5h2zM2.5-1A3.5 3.5 0 0 0-1 2.5h2A1.5 1.5 0 0 1 2.5 1v-2zM-1 2.5A3.5 3.5 0 0 0 2.5 6V4A1.5 1.5 0 0 1 1 2.5h-2z"/><path id="c" fill-rule="evenodd" d="M1.5 3a1.5 1.5 0 1 0 0-3 1.5 1.5 0 0 0 0 3z"/></defs></svg>