<svg width="209" height="196" viewBox="0 0 209 196" xmlns="http://www.w3.org/2000/svg" xmlns:xlink="http://www.w3.org/1999/xlink"><title>Group</title><desc>Created using Figma</desc><use xlink:href="#a" transform="matrix(-1 0 0 1 157 3)" fill="#90A4AE"/><use xlink:href="#b" transform="matrix(-1 0 0 1 27 45)" fill="#90A4AE"/><use xlink:href="#c" transform="matrix(-1 0 0 1 160 34)" fill="#90A4AE"/><use xlink:href="#d" transform="matrix(-1 0 0 1 160 0)" fill="#CFD8DC"/><use xlink:href="#e" transform="matrix(-1 0 0 1 152 3)" fill="#F57C00"/><use xlink:href="#f" transform="matrix(-1 0 0 1 59 58)" fill="#ECEFF1"/><use xlink:href="#g" transform="matrix(-1 0 0 1 129 18)" fill="#78909C"/><use xlink:href="#h" transform="matrix(-1 0 0 1 160 0)" fill="#ECEFF1" opacity=".1"/><use xlink:href="#i" transform="scale(1 -1) rotate(-60 -120.922 -68.117)" fill="#CFD8DC"/><use xlink:href="#j" transform="scale(1 -1) rotate(-60 -119.964 -104.456)" fill="#90A4AE"/><use xlink:href="#k" transform="scale(1 -1) rotate(-60 -121.2 -102.595)" fill="url(#l)"/><use xlink:href="#m" transform="scale(1 -1) rotate(-60 -118.688 -68.247)" fill="#B0BEC5"/><use xlink:href="#n" transform="scale(1 -1) rotate(-60 -61.074 -138.457)" fill="#90A4AE"/><use xlink:href="#o" transform="scale(1 -1) rotate(-60 -120.922 -68.117)" fill="#CFD8DC"/><use xlink:href="#p" transform="scale(1 -1) rotate(-60 -110.53 -74.115)" fill="#F57C00"/><use xlink:href="#q" transform="scale(1 -1) rotate(-60 -116.025 -83.638)" fill="#263238"/><use xlink:href="#r" transform="scale(1 -1) rotate(-60 -64.204 -115.876)" fill="#CFD8DC"/><use xlink:href="#s" transform="scale(1 -1) rotate(-60 -118.688 -68.247)" fill="#ECEFF1" opacity=".1"/><g transform="translate(141 58)" fill="#CFD8DC"><use xlink:href="#t"/><use xlink:href="#u"/></g><g transform="translate(141 60)" fill="#B0BEC5"><use xlink:href="#v"/><use xlink:href="#w"/></g><use xlink:href="#x" transform="translate(203 94)" fill="#90A4AE"/><use xlink:href="#y" transform="translate(144 65)" fill="#F57C00"/><g transform="translate(88 152)" fill="#90A4AE"><use xlink:href="#z"/><use xlink:href="#A"/></g><use xlink:href="#B" transform="translate(87 120)" fill="#CFD8DC"/><g transform="translate(112 153)" fill="#B0BEC5"><use xlink:href="#C"/><use xlink:href="#D"/></g><g transform="translate(150 142)"><use xlink:href="#E" fill="#546E7A"/><use xlink:href="#F" fill="#CFD8DC"/></g><g transform="translate(130 146)"><use xlink:href="#G" fill="#546E7A"/><use xlink:href="#H" fill="#CFD8DC"/></g><g transform="translate(142 153)"><use xlink:href="#I" fill="#546E7A"/><use xlink:href="#J" fill="#CFD8DC"/></g><g transform="translate(148 157)"><use xlink:href="#K" fill="#546E7A"/><use xlink:href="#L" fill="#CFD8DC"/></g><g transform="translate(136 150)"><use xlink:href="#M" fill="#546E7A"/><use xlink:href="#N" fill="#CFD8DC"/></g><g transform="translate(143 146)"><use xlink:href="#O" fill="#546E7A"/><use xlink:href="#P" fill="#CFD8DC"/></g><g transform="translate(164 141)"><use xlink:href="#Q" fill="#546E7A"/><use xlink:href="#R" fill="#CFD8DC"/></g><g transform="translate(170 145)"><use xlink:href="#S" fill="#546E7A"/><use xlink:href="#T" fill="#CFD8DC"/></g><g transform="translate(157 145)"><use xlink:href="#U" fill="#546E7A"/><use xlink:href="#V" fill="#CFD8DC"/></g><g transform="translate(163 149)"><use xlink:href="#W" fill="#546E7A"/><use xlink:href="#X" fill="#CFD8DC"/></g><g transform="translate(150 149)"><use xlink:href="#Y" fill="#546E7A"/><use xlink:href="#Z" fill="#CFD8DC"/></g><g transform="translate(156 153)"><use xlink:href="#aa" fill="#546E7A"/><use xlink:href="#ab" fill="#CFD8DC"/></g><g transform="translate(157 137)"><use xlink:href="#M" fill="#546E7A"/><use xlink:href="#N" fill="#CFD8DC"/></g><g transform="translate(144 138)"><use xlink:href="#M" fill="#546E7A"/><use xlink:href="#N" fill="#CFD8DC"/></g><g transform="translate(151 133)"><use xlink:href="#ac" fill="#546E7A"/><use xlink:href="#ad" fill="#CFD8DC"/></g><g transform="translate(144 130)"><use xlink:href="#ae" fill="#546E7A"/><use xlink:href="#af" fill="#CFD8DC"/></g><g transform="translate(137 134)"><use xlink:href="#ag" fill="#546E7A"/><use xlink:href="#ah" fill="#CFD8DC"/></g><g transform="translate(131 130)"><use xlink:href="#ai" fill="#546E7A"/><use xlink:href="#aj" fill="#CFD8DC"/></g><g transform="translate(139 126)"><use xlink:href="#ak" fill="#546E7A"/><use xlink:href="#al" fill="#CFD8DC"/></g><g transform="translate(182 152)"><use xlink:href="#ai" fill="#546E7A"/><use xlink:href="#aj" fill="#CFD8DC"/></g><g transform="translate(161 165)"><use xlink:href="#am" fill="#546E7A"/><use xlink:href="#an" fill="#CFD8DC"/></g><g transform="translate(168 160)"><use xlink:href="#ag" fill="#546E7A"/><use xlink:href="#ah" fill="#CFD8DC"/></g><g transform="translate(175 157)"><use xlink:href="#ao" fill="#546E7A"/><use xlink:href="#ap" fill="#CFD8DC"/></g><g transform="translate(169 153)"><use xlink:href="#aq" fill="#546E7A"/><use xlink:href="#ar" fill="#CFD8DC"/></g><g transform="translate(176 148)"><use xlink:href="#ae" fill="#546E7A"/><use xlink:href="#af" fill="#CFD8DC"/></g><g transform="translate(125 135)"><use xlink:href="#aq" fill="#546E7A"/><use xlink:href="#ar" fill="#CFD8DC"/></g><g transform="translate(123 142)"><use xlink:href="#aq" fill="#546E7A"/><use xlink:href="#ar" fill="#CFD8DC"/></g><g transform="translate(130 139)"><use xlink:href="#am" fill="#546E7A"/><use xlink:href="#an" fill="#CFD8DC"/></g><g transform="translate(137 142)"><use xlink:href="#M" fill="#546E7A"/><use xlink:href="#N" fill="#CFD8DC"/></g><g transform="translate(155 161)"><use xlink:href="#as" fill="#546E7A"/><use xlink:href="#at" fill="#CFD8DC"/></g><g transform="translate(162 157)"><use xlink:href="#am" fill="#546E7A"/><use xlink:href="#an" fill="#CFD8DC"/></g><g transform="translate(117 139)"><use xlink:href="#au" fill="#546E7A"/><use xlink:href="#av" fill="#CFD8DC"/></g><use xlink:href="#aw" transform="translate(140 120)" fill="#455A64" opacity=".15"/><defs><linearGradient id="l" x2="1" gradientUnits="userSpaceOnUse" gradientTransform="matrix(.76896 1.3824 -1.728 .61517 2.191 1.178)"><stop offset="0" stop-color="#CFD8DC"/><stop offset="1" stop-color="#90A4AE"/></linearGradient><path id="a" d="M129.624 48.411L77.106 79.248a5.443 5.443 0 0 1-5.523 0L.873 37.727A1.781 1.781 0 0 1 0 36.187c0-.635.333-1.22.874-1.538L55.717.238a1.72 1.72 0 0 1 1.746 0l72.97 44.557c1.164.684.355 2.932-.809 3.616z"/><path id="b" d="M4 0S4.154 4.579.416 6.937c-1.251.79.713-6.105.713-6.105L4 0z"/><path id="c" d="M.076 0s-.92 4.348 3.634 6.892C5.195 7.722 6 3.49 6 3.49L.076 0z"/><path id="d" d="M136.104 46.802l-55.81 32.45a5.506 5.506 0 0 1-5.54 0L.89 36.297a1.79 1.79 0 0 1-.89-1.55c0-.64.339-1.23.89-1.55L56.706.748a5.506 5.506 0 0 1 5.54 0l73.857 42.948c.554.318.896.911.896 1.554a1.79 1.79 0 0 1-.896 1.553z"/><path id="e" d="M118.761 38.654l-52.53 30.282a.478.478 0 0 1-.477 0L.24 31.172a.477.477 0 0 1 0-.826L52.769.064a.478.478 0 0 1 .477 0l65.515 37.764a.476.476 0 0 1 0 .826z"/><path id="f" d="M5.115.439c1.174.584 1.182 1.535.014 2.122-1.169.587-3.066.584-4.242 0C-.29 1.977-.295 1.025.87.441A5.337 5.337 0 0 1 5.115.44z"/><path id="g" d="M.854.148C.94.199 1 .341 1 .5 1 .66.941.8.854.852c-.222.197-.486.197-.708 0C.06.801 0 .659 0 .5 0 .34.059.2.146.148c.222-.197.486-.197.708 0z"/><path id="h" d="M7.27 39.952l-6.38-3.7A1.787 1.787 0 0 1 0 34.706c0-.639.34-1.229.89-1.548L56.79.747a5.527 5.527 0 0 1 5.549 0L130 40 7.27 39.952z"/><path id="i" d="M29.014 19L0 2.293 3.986 0 33 16.707 29.014 19z"/><path id="j" d="M4 67.677L0 70V2.323L4 0v67.677z"/><path id="k" d="M3.966 0A2.037 2.037 0 0 1 5 1.758L1.034 4c0-.303-.767-1.607-1.034-1.758L3.966 0z"/><path id="m" d="M30.67 86.883L1.064 70.038A2.088 2.088 0 0 1 0 68.225V.872c0-.311.169-.6.443-.755a.899.899 0 0 1 .887 0l29.606 16.845A2.088 2.088 0 0 1 32 18.775v67.353a.87.87 0 0 1-.443.755.898.898 0 0 1-.887 0z"/><path id="n" d="M0 3c.3-.153.485-.434.485-.738L5 0c0 .308-.189.592-.497.744L0 3z"/><path id="o" d="M4 .144a.516.516 0 0 0-.716 0L0 3a.516.516 0 0 1 .716 0L4 .144z"/><path id="p" d="M28.31 67.938L.23 51.668a.461.461 0 0 1-.23-.4V.461a.461.461 0 0 1 .69-.4l28.08 16.271c.142.083.23.235.23.4v50.812a.461.461 0 0 1-.69.394z"/><path id="q" d="M9.577 5.968L.142 1.255A.24.24 0 0 1 0 1.043v-.8a.24.24 0 0 1 .141-.21.322.322 0 0 1 .282-.001l9.435 4.713a.24.24 0 0 1 .142.212v.8a.241.241 0 0 1-.142.21.322.322 0 0 1-.28.001z"/><path id="r" d="M2.492 6.627c1.377.868 2.503.168 2.508-1.556.005-1.724-1.114-3.833-2.492-4.7C1.131-.493.005.205 0 1.929c-.005 1.724 1.105 3.837 2.492 4.7z"/><path id="s" d="M0 17.966V.877C0 .564.169.274.443.117a.895.895 0 0 1 .887 0l29.606 16.935A2.1 2.1 0 0 1 32 18.874v42.124c.005.333-32-42.72-32-43.032z"/><path id="t" d="M0 2.154L3.687 0 65 35.815v61.03L61.313 99"/><path id="u" d="M3.687 0l1.316-2.253a2.61 2.61 0 0 0-2.632 0L3.687 0zM65 35.815h2.61a2.61 2.61 0 0 0-1.294-2.253L65 35.815zm0 61.03l1.316 2.254a2.61 2.61 0 0 0 1.293-2.253H65zM1.316 4.408l3.687-2.154-2.632-4.506-3.687 2.154 2.632 4.506zm1.055-2.154l61.313 35.815 2.632-4.506L5.003-2.253 2.371 2.253zm60.02 33.562v61.03h5.218v-61.03h-5.218zm1.293 58.778l-3.688 2.154 2.633 4.506 3.687-2.154-2.632-4.506z"/><path id="v" d="M61 97L0 61.125V0l61 35.875V97z"/><path id="w" d="M0 61.125h-2.61c0 .925.49 1.78 1.287 2.25L0 61.124zM0 0l1.323-2.249A2.61 2.61 0 0 0-2.61 0H0zm61 35.875h2.61c0-.925-.49-1.78-1.287-2.25L61 35.876zm1.323 58.876l-61-35.875-2.646 4.498 61 35.875 2.646-4.498zM2.609 61.125V0h-5.218v61.125h5.218zM-1.323 2.25l61 35.875 2.646-4.498-61-35.875-2.646 4.498zm59.714 33.626V97h5.218V35.875h-5.218z"/><path id="x" d="M.003 2.149L4 0v60.978c0 .537-.308 1.032-.806 1.3L0 64 .003 2.149z"/><path id="y" d="M54 84L0 51.892V0l54 32.105V84z"/><path id="z" d="M0 0v5.275L61.556 41 114 10.564V5.29"/><path id="A" d="M0 5.275h-2.61c0 .93.496 1.79 1.3 2.257L0 5.275zM61.556 41l-1.31 2.257c.81.47 1.81.47 2.62 0L61.556 41zM114 10.564l1.31 2.257a2.61 2.61 0 0 0 1.299-2.257H114zM-2.61 0v5.275h5.22V0h-5.22zm1.3 7.532l61.557 35.725 2.619-4.514L1.31 3.02l-2.62 4.513zm64.176 35.725L115.31 12.82l-2.62-4.514-52.443 30.436 2.619 4.514zm53.743-32.693V5.29h-5.218v5.275h5.218z"/><path id="B" d="M115.339 36.009L54.112.176a1.284 1.284 0 0 0-1.299 0L.65 30.704a1.32 1.32 0 0 0-.65 1.14c0 .471.248.907.65 1.142l61.238 35.838c.402.235.897.235 1.299 0l52.163-30.53c.402-.236.65-.67.65-1.141s-.248-.906-.65-1.141l-.011-.003z"/><path id="C" d="M35 11.15l-9.757-5.575L15.486 0 7.172 4.75 0 8.85l9.757 5.575L19.514 20l7.172-4.1L35 11.15z"/><path id="D" d="M25.243 5.575l1.294-2.265-1.294 2.265zM15.486 0l1.294-2.265a2.61 2.61 0 0 0-2.589 0L15.486 0zM7.172 4.75L5.878 2.484 7.171 4.75zM0 8.85l-1.295-2.266a2.61 2.61 0 0 0 0 4.53L0 8.85zM19.514 20l-1.294 2.265a2.61 2.61 0 0 0 2.589 0L19.514 20zm7.172-4.1l-1.294-2.265 1.294 2.265zm9.608-7.015L26.538 3.31l-2.589 4.53 9.758 5.576 2.588-4.53zM26.538 3.31L16.78-2.265l-2.589 4.53 9.757 5.576 2.59-4.531zM14.192-2.265l-8.314 4.75 2.588 4.53 8.314-4.75-2.589-4.53zm-8.315 4.75l-7.172 4.1 2.59 4.53 7.172-4.1-2.59-4.53zm-7.171 8.63l9.757 5.575 2.589-4.53-9.758-5.576-2.588 4.53zm9.757 5.575l9.757 5.575 2.589-4.53-9.757-5.576-2.59 4.531zm12.346 5.575l7.172-4.1-2.59-4.53-7.172 4.1 2.59 4.53zm7.172-4.1l8.313-4.749-2.588-4.53-8.314 4.749 2.589 4.53z"/><path id="E" d="M11 3.225L5.086 7 0 3.775 5.914 0 11 3.225z"/><path id="F" d="M5.086 7l-.28.44.281.178.28-.178-.28-.44zM0 3.775l-.28-.44-.692.442.693.439.279-.44zM5.914 0l.28-.44-.281-.178-.28.178.28.44zm4.805 2.785L4.806 6.56l.561.88 5.914-3.775-.562-.88zM5.366 6.559L.279 3.334l-.558.882L4.807 7.44l.559-.882zM.28 4.215L6.194.44l-.561-.88-5.914 3.775.562.88zM5.634.441l5.087 3.225.558-.882L6.193-.44l-.559.882z"/><path id="G" d="M11 3.225L5.088 7 0 3.775 5.912 0 11 3.225z"/><path id="H" d="M5.088 7l-.28.44.28.178.28-.178-.28-.44zM0 3.775l-.28-.44-.692.442.693.439.279-.44zM5.912 0l.28-.44-.28-.178-.28.178.28.44zm4.807 2.785L4.807 6.56l.561.88 5.913-3.775-.562-.88zM5.367 6.559L.279 3.334l-.558.882L4.808 7.44l.559-.882zM.28 4.215L6.193.44l-.561-.88-5.913 3.775.562.88zM5.633.441l5.088 3.225.558-.882L6.192-.44l-.559.882z"/><path id="I" d="M12 2.764L5.55 6 0 3.233 6.453 0 12 2.764z"/><path id="J" d="M5.55 6l-.233.467.234.116.233-.117L5.55 6zM0 3.233l-.234-.466-.933.468.934.465L0 3.233zM6.453 0l.233-.467-.234-.116-.233.116.234.467zm5.313 2.298l-6.45 3.236.468.932 6.45-3.235-.468-.933zM5.783 5.533L.233 2.766l-.466.934 5.55 2.767.466-.934zM.233 3.7L6.688.467 6.22-.467-.233 2.767l.468.933zM6.22.467l5.547 2.764.466-.934L6.686-.467 6.22.467z"/><path id="K" d="M12 2.765L5.55 6 0 3.235 6.453 0 12 2.765z"/><path id="L" d="M5.55 6l-.233.467.234.116.233-.117L5.55 6zM0 3.235l-.234-.467-.933.468.934.466L0 3.235zM6.453 0l.233-.467-.234-.116-.233.117.234.466zm5.313 2.299l-6.45 3.235.468.932 6.45-3.234-.468-.933zM5.783 5.533L.233 2.768l-.466.934 5.55 2.765.466-.934zM.233 3.7L6.688.466 6.22-.466-.233 2.768l.468.933zM6.22.467l5.547 2.765.466-.934L6.686-.467 6.22.467z"/><path id="M" d="M11 2.765L5.088 6 0 3.235 5.912 0 11 2.765z"/><path id="N" d="M5.088 6l-.25.458.25.136.25-.136L5.088 6zM0 3.235l-.25-.458-.84.46.84.456.25-.458zM5.912 0l.25-.458-.25-.136-.25.136.25.458zm4.837 2.307L4.837 5.542l.501.916 5.913-3.235-.502-.916zM5.337 5.542L.249 2.776l-.498.917 5.087 2.765.499-.916zM.25 3.692L6.163.459l-.501-.916L-.25 2.777l.5.916zM5.663.459l5.088 2.766.498-.917L6.162-.458l-.499.916z"/><path id="O" d="M11 3.225L5.088 7 0 3.772 5.915 0 11 3.225z"/><path id="P" d="M5.088 7l-.28.44.28.179.28-.18L5.088 7zM0 3.772l-.28-.44-.692.441.692.44.28-.44zM5.915 0l.28-.44-.28-.178-.28.178.28.44zm4.804 2.785L4.807 6.56l.561.88 5.913-3.775-.562-.88zM5.367 6.559L.28 3.332l-.56.881 5.088 3.228.56-.882zM.281 4.212L6.196.44l-.562-.88L-.28 3.332l.562.88zM5.636.441l5.084 3.225.56-.882L6.195-.44l-.56.882z"/><path id="Q" d="M12 2.765L5.549 6 0 3.235 6.449 0 12 2.765z"/><path id="R" d="M5.549 6l-.233.467.233.116.233-.117L5.55 6zM0 3.235l-.234-.467-.933.468.934.466L0 3.235zM6.449 0l.232-.467-.233-.116-.233.117.234.466zm5.317 2.299L5.315 5.534l.467.932 6.452-3.234-.468-.933zM5.781 5.533L.233 2.768l-.466.934 5.549 2.765.465-.934zM.234 3.701L6.683.466l-.468-.932-6.449 3.234.468.933zM6.216.467l5.551 2.765.466-.934L6.68-.467l-.465.934z"/><path id="S" d="M12 2.763L5.551 6 0 3.235 6.451 0 12 2.763z"/><path id="T" d="M5.551 6l-.232.467.233.116.234-.117L5.55 6zM0 3.235l-.234-.467-.933.468.934.466L0 3.235zM6.451 0l.233-.467-.233-.116-.233.117L6.45 0zm5.315 2.296L5.317 5.534l.468.932 6.45-3.237-.47-.933zM5.784 5.533L.233 2.768l-.466.934L5.32 6.467l.465-.934zM.234 3.7L6.685.466l-.467-.932-6.452 3.234.468.933zM6.219.467l5.548 2.763.466-.934L6.684-.467 6.22.467z"/><path id="U" d="M12 2.765L5.547 6 0 3.235 6.45 0 12 2.765z"/><path id="V" d="M5.547 6l-.233.467.234.116.233-.117L5.547 6zM0 3.235l-.234-.467-.933.468.934.466L0 3.235zM6.45 0l.233-.467-.234-.116-.233.117L6.45 0zm5.316 2.299L5.313 5.534l.468.933 6.453-3.235-.468-.933zM5.78 5.533L.233 2.768l-.466.934 5.547 2.765.466-.934zM.234 3.701L6.684.466l-.468-.932-6.45 3.234.468.933zM6.217.467l5.55 2.765.466-.934-5.55-2.765-.466.934z"/><path id="W" d="M12 3.225L5.549 7 0 3.775 6.451 0 12 3.225z"/><path id="X" d="M5.549 7l-.263.451.263.153.263-.154L5.55 7zM0 3.775l-.264-.45-.772.452.774.45L0 3.774zM6.451 0l.263-.451-.263-.153-.263.154.263.45zm5.285 2.774L5.285 6.55l.527.9 6.452-3.775-.528-.9zM5.811 6.55L.262 3.324l-.524.902 5.548 3.225.525-.902zM.264 4.226L6.715.45l-.527-.9-6.452 3.775.528.9zM6.189.45l5.549 3.225.524-.902L6.714-.451 6.189.45z"/><path id="Y" d="M12 3.225L5.547 7 0 3.775 6.45 0 12 3.225z"/><path id="Z" d="M5.547 7l-.262.451.263.153.263-.154L5.547 7zM0 3.775l-.264-.45-.772.452.774.45L0 3.774zM6.45 0l.262-.451-.263-.153-.263.154.264.45zm5.286 2.774L5.284 6.55l.527.9 6.453-3.775-.527-.9zM5.81 6.55L.262 3.324l-.524.902 5.547 3.225.524-.902zM.264 4.226L6.714.45l-.528-.9-6.45 3.775.528.9zM6.188.45l5.55 3.225.524-.902-5.55-3.225-.524.902z"/><path id="aa" d="M12 2.765L5.55 6 0 3.237 6.453 0 12 2.765z"/><path id="ab" d="M5.55 6l-.232.467.233.116.233-.117L5.55 6zM0 3.237l-.234-.466-.933.468.934.465L0 3.237zM6.453 0l.233-.467-.234-.116-.233.117.234.466zm5.313 2.299l-6.45 3.235.468.932 6.45-3.234-.468-.933zM5.783 5.533L.233 2.77l-.466.934 5.55 2.763.466-.934zM.234 3.703L6.687.467l-.468-.932L-.234 2.77l.468.933zM6.22.468l5.547 2.765.466-.934L6.686-.467 6.22.467z"/><path id="ac" d="M11 3.225L5.089 7 0 3.772 5.914 0 11 3.225z"/><path id="ad" d="M5.089 7l-.28.44.28.179.28-.18L5.09 7zM0 3.772l-.28-.44-.692.442.692.439.28-.44zM5.914 0l.28-.44-.281-.178-.28.178.28.44zm4.805 2.785L4.808 6.56l.562.88 5.91-3.775-.56-.88zM5.37 6.559L.278 3.332l-.559.881 5.09 3.228.558-.882zM.28 4.212L6.194.44l-.56-.88-5.915 3.772.562.88zM5.634.441l5.087 3.225.558-.882L6.193-.44l-.559.882z"/><path id="ae" d="M11 2.765L5.086 6 0 3.235 5.911 0 11 2.765z"/><path id="af" d="M5.086 6l-.25.458.25.136.25-.136L5.087 6zM0 3.235l-.25-.458-.84.46.84.456.25-.458zM5.911 0l.25-.459-.25-.135-.25.136.25.458zm4.839 2.307L4.836 5.542l.5.916 5.914-3.235-.5-.916zM5.335 5.542L.25 2.776l-.498.917 5.086 2.765.498-.916zM.251 3.692L6.16.459l-.5-.916-5.912 3.235.502.916zM5.662.46l5.089 2.765.498-.917L6.16-.46l-.498.92z"/><path id="ag" d="M11 2.763L5.086 6 0 3.235 5.914 0 11 2.763z"/><path id="ah" d="M5.086 6l-.25.458.251.136.25-.136L5.087 6zM0 3.235l-.25-.458-.84.46.84.456.25-.458zM5.914 0l.249-.459-.25-.135-.25.136.25.458zm4.835 2.305L4.836 5.542l.5.916 5.915-3.237-.502-.916zM5.335 5.542L.25 2.776l-.498.917 5.086 2.765.498-.916zM.25 3.692L6.164.459l-.5-.916L-.25 2.777l.5.916zM5.665.46l5.085 2.76.498-.917L6.163-.459 5.665.46z"/><path id="ai" d="M11 2.765L5.086 6 0 3.237 5.914 0 11 2.765z"/><path id="aj" d="M5.086 6l-.249.459.25.135.25-.136L5.087 6zM0 3.237l-.25-.458-.84.46.84.457.25-.459zM5.914 0l.25-.458-.251-.136-.25.136.25.458zm4.836 2.307L4.836 5.542l.5.916 5.914-3.235-.5-.916zM5.335 5.541L.25 2.78l-.498.917L4.838 6.46l.498-.918zM.251 3.695L6.164.458l-.5-.916L-.252 2.78l.502.916zM5.665.458l5.086 2.766.498-.917L6.163-.458l-.498.916z"/><path id="ak" d="M11 2.763L5.089 6 0 3.235 5.914 0 11 2.763z"/><path id="al" d="M5.089 6l-.25.459.25.135.25-.136L5.09 6zM0 3.235l-.25-.458-.84.46.84.456.25-.458zM5.914 0l.249-.459-.25-.135-.25.136.25.458zm4.835 2.305L4.84 5.542l.5.916 5.912-3.238-.502-.915zM5.338 5.541L.249 2.776l-.498.917L4.84 6.46l.498-.918zM.25 3.693L6.164.458l-.5-.916L-.25 2.777l.5.916zM5.665.459L10.75 3.22l.498-.917L6.163-.459 5.665.46z"/><path id="am" d="M11 3.225L5.086 7 0 3.775 5.914 0 11 3.225z"/><path id="an" d="M5.086 7l-.28.44.281.178.28-.178-.28-.44zM0 3.775l-.28-.44-.692.442.693.439.279-.44zM5.914 0l.28-.44-.281-.178-.28.178.28.44zm4.805 2.785L4.805 6.56l.562.88 5.914-3.775-.562-.88zM5.366 6.559L.279 3.334l-.558.882L4.807 7.44l.559-.882zM.28 4.215L6.195.44l-.562-.88L-.28 3.335l.562.88zM5.634.441l5.087 3.225.558-.882L6.193-.44l-.559.882z"/><path id="ao" d="M11 2.765L5.085 6 0 3.235 5.912 0 11 2.765z"/><path id="ap" d="M5.085 6l-.25.458.25.136.25-.136L5.085 6zM0 3.235l-.25-.458-.84.46.84.456.25-.458zM5.912 0l.25-.458-.25-.136-.25.136.25.458zm4.838 2.307L4.835 5.542l.5.916 5.915-3.235-.5-.916zM5.334 5.542L.25 2.776l-.498.917 5.085 2.765.498-.916zM.25 3.692L6.163.459l-.501-.916L-.25 2.777l.5.916zM5.663.459l5.088 2.766.498-.917L6.162-.458l-.499.916z"/><path id="aq" d="M11 2.765L5.086 6 0 3.235 5.914 0 11 2.765z"/><path id="ar" d="M5.086 6l-.25.458.25.136.25-.136L5.087 6zM0 3.235l-.25-.458-.84.46.84.456.25-.458zM5.914 0l.25-.458-.25-.136-.25.136.25.458zm4.836 2.307L4.836 5.542l.5.916 5.914-3.235-.5-.916zM5.335 5.542L.25 2.776l-.498.917 5.086 2.765.498-.916zM.25 3.692L6.164.459l-.5-.916L-.25 2.777l.5.916zM5.665.459l5.086 2.766.498-.917L6.163-.458l-.498.916z"/><path id="as" d="M11 2.765L5.088 6 0 3.237 5.915 0 11 2.765z"/><path id="at" d="M5.088 6l-.25.459.25.135.25-.136L5.088 6zM0 3.237l-.25-.458-.84.46.841.457L0 3.237zM5.915 0l.25-.458-.25-.136-.25.136.25.458zm4.834 2.307L4.837 5.542l.501.916 5.913-3.235-.502-.916zM5.337 5.541L.249 2.78l-.498.917L4.839 6.46l.498-.918zM.25 3.695L6.166.458l-.501-.916L-.251 2.78l.502.916zM5.666.458l5.085 2.766.498-.917L6.164-.458l-.498.916z"/><path id="au" d="M11 2.763L5.088 6 0 3.235 5.915 0 11 2.763z"/><path id="av" d="M5.088 6l-.25.458.25.136.25-.136L5.088 6zM0 3.235l-.25-.458-.84.46.84.456.25-.458zM5.915 0l.25-.459-.25-.135-.25.136.25.458zm4.834 2.305L4.837 5.542l.501.916 5.913-3.237-.502-.916zM5.337 5.542L.249 2.776l-.498.917 5.087 2.765.499-.916zM.25 3.692L6.165.459l-.5-.916L-.25 2.777l.5.916zM5.666.46l5.084 2.76.498-.917L6.164-.459 5.666.46z"/><path id="aw" d="M62.352 36.213L1.295.177A1.27 1.27 0 0 0 0 .177L15.777 66l46.575-27.492A1.33 1.33 0 0 0 63 37.36c0-.473-.247-.91-.648-1.147z"/></defs></svg>