<svg width="368" height="288" viewBox="0 0 368 288" xmlns="http://www.w3.org/2000/svg" xmlns:xlink="http://www.w3.org/1999/xlink"><title>Group</title><desc>Created using Figma</desc><use xlink:href="#a" transform="matrix(-1 0 0 1 209 49)" fill="#90A4AE"/><use xlink:href="#b" transform="matrix(-1 0 0 1 7 113)" fill="#90A4AE"/><use xlink:href="#c" transform="matrix(-1 0 0 1 214 97)" fill="#90A4AE"/><use xlink:href="#d" transform="matrix(-1 0 0 1 214 43)" fill="#CFD8DC"/><use xlink:href="#e" transform="matrix(-1 0 0 1 202 49)" fill="#F57C00"/><use xlink:href="#f" transform="matrix(-1 0 0 1 56 134)" fill="#ECEFF1"/><use xlink:href="#g" transform="matrix(-1 0 0 1 165 71)" fill="#78909C"/><use xlink:href="#h" transform="matrix(-1 0 0 1 214 43)" fill="#ECEFF1" opacity=".1"/><use xlink:href="#i" transform="scale(1 -1) rotate(-60 -181.55 -196.501)" fill="#CFD8DC"/><use xlink:href="#j" transform="scale(1 -1) rotate(-60 -180.446 -252.56)" fill="#90A4AE"/><use xlink:href="#k" transform="scale(1 -1) rotate(-60 -181.163 -249.856)" fill="url(#l)"/><use xlink:href="#m" transform="matrix(.5 .86603 .86603 -.5 81 252.25)" fill="#B0BEC5"/><use xlink:href="#n" transform="scale(1 -1) rotate(-60 -88.151 -304.698)" fill="#90A4AE"/><use xlink:href="#o" transform="scale(1 -1) rotate(-60 -181.058 -195.64)" fill="#CFD8DC"/><use xlink:href="#p" transform="matrix(.5 .86603 .86603 -.5 95 246.48)" fill="#F57C00"/><use xlink:href="#q" transform="scale(1 -1) rotate(-60 -173.128 -219.814)" fill="#263238"/><use xlink:href="#r" transform="scale(1 -1) rotate(-60 -93.227 -269.407)" fill="#CFD8DC"/><use xlink:href="#s" transform="matrix(.5 .86603 .86603 -.5 81 252.25)" fill="#ECEFF1" opacity=".1"/><g transform="translate(261 5)" fill="#CFD8DC"><use xlink:href="#t"/><use xlink:href="#u"/></g><g transform="translate(261 8)" fill="#B0BEC5"><use xlink:href="#v"/><use xlink:href="#w"/></g><use xlink:href="#x" transform="translate(359 61)" fill="#90A4AE"/><use xlink:href="#y" transform="translate(266 16)" fill="#F57C00"/><g transform="translate(179 152)" fill="#90A4AE"><use xlink:href="#z"/><use xlink:href="#A"/></g><use xlink:href="#B" transform="translate(177 102)" fill="#CFD8DC"/><g transform="translate(216 154)" fill="#B0BEC5"><use xlink:href="#C"/><use xlink:href="#D"/></g><g transform="translate(275 136)"><use xlink:href="#E" fill="#546E7A"/><use xlink:href="#F" fill="#CFD8DC"/></g><g transform="translate(244 143)"><use xlink:href="#G" fill="#546E7A"/><use xlink:href="#H" fill="#CFD8DC"/></g><g transform="translate(263 154)"><use xlink:href="#I" fill="#546E7A"/><use xlink:href="#J" fill="#CFD8DC"/></g><g transform="translate(273 160)"><use xlink:href="#K" fill="#546E7A"/><use xlink:href="#L" fill="#CFD8DC"/></g><g transform="translate(254 149)"><use xlink:href="#M" fill="#546E7A"/><use xlink:href="#N" fill="#CFD8DC"/></g><g transform="translate(265 142)"><use xlink:href="#O" fill="#546E7A"/><use xlink:href="#P" fill="#CFD8DC"/></g><g transform="translate(297 135)"><use xlink:href="#Q" fill="#546E7A"/><use xlink:href="#R" fill="#CFD8DC"/></g><g transform="translate(307 141)"><use xlink:href="#S" fill="#546E7A"/><use xlink:href="#T" fill="#CFD8DC"/></g><g transform="translate(286 142)"><use xlink:href="#U" fill="#546E7A"/><use xlink:href="#V" fill="#CFD8DC"/></g><g transform="translate(296 148)"><use xlink:href="#W" fill="#546E7A"/><use xlink:href="#X" fill="#CFD8DC"/></g><g transform="translate(275 148)"><use xlink:href="#Y" fill="#546E7A"/><use xlink:href="#Z" fill="#CFD8DC"/></g><g transform="translate(285 154)"><use xlink:href="#aa" fill="#546E7A"/><use xlink:href="#ab" fill="#CFD8DC"/></g><g transform="translate(287 129)"><use xlink:href="#M" fill="#546E7A"/><use xlink:href="#N" fill="#CFD8DC"/></g><g transform="translate(266 130)"><use xlink:href="#M" fill="#546E7A"/><use xlink:href="#N" fill="#CFD8DC"/></g><g transform="translate(277 123)"><use xlink:href="#ac" fill="#546E7A"/><use xlink:href="#ad" fill="#CFD8DC"/></g><g transform="translate(267 117)"><use xlink:href="#Q" fill="#546E7A"/><use xlink:href="#R" fill="#CFD8DC"/></g><g transform="translate(256 124)"><use xlink:href="#ae" fill="#546E7A"/><use xlink:href="#af" fill="#CFD8DC"/></g><g transform="translate(246 118)"><use xlink:href="#ag" fill="#546E7A"/><use xlink:href="#ah" fill="#CFD8DC"/></g><g transform="translate(258 112)"><use xlink:href="#S" fill="#546E7A"/><use xlink:href="#T" fill="#CFD8DC"/></g><g transform="translate(326 152)"><use xlink:href="#ag" fill="#546E7A"/><use xlink:href="#ah" fill="#CFD8DC"/></g><g transform="translate(293 172)"><use xlink:href="#W" fill="#546E7A"/><use xlink:href="#X" fill="#CFD8DC"/></g><g transform="translate(304 165)"><use xlink:href="#ae" fill="#546E7A"/><use xlink:href="#af" fill="#CFD8DC"/></g><g transform="translate(315 159)"><use xlink:href="#U" fill="#546E7A"/><use xlink:href="#V" fill="#CFD8DC"/></g><g transform="translate(305 153)"><use xlink:href="#ai" fill="#546E7A"/><use xlink:href="#aj" fill="#CFD8DC"/></g><g transform="translate(316 146)"><use xlink:href="#Q" fill="#546E7A"/><use xlink:href="#R" fill="#CFD8DC"/></g><g transform="translate(236 125)"><use xlink:href="#ai" fill="#546E7A"/><use xlink:href="#aj" fill="#CFD8DC"/></g><g transform="translate(234 137)"><use xlink:href="#ai" fill="#546E7A"/><use xlink:href="#aj" fill="#CFD8DC"/></g><g transform="translate(245 131)"><use xlink:href="#W" fill="#546E7A"/><use xlink:href="#X" fill="#CFD8DC"/></g><g transform="translate(255 136)"><use xlink:href="#M" fill="#546E7A"/><use xlink:href="#N" fill="#CFD8DC"/></g><g transform="translate(283 166)"><use xlink:href="#aa" fill="#546E7A"/><use xlink:href="#ab" fill="#CFD8DC"/></g><g transform="translate(294 159)"><use xlink:href="#W" fill="#546E7A"/><use xlink:href="#X" fill="#CFD8DC"/></g><g transform="translate(224 131)"><use xlink:href="#ak" fill="#546E7A"/><use xlink:href="#al" fill="#CFD8DC"/></g><use xlink:href="#am" transform="translate(260 102)" fill="#455A64" opacity=".15"/><defs><linearGradient id="l" x2="1" gradientUnits="userSpaceOnUse" gradientTransform="matrix(1.23034 2.0736 -2.76481 .92276 3.506 1.766)"><stop offset="0" stop-color="#CFD8DC"/><stop offset="1" stop-color="#90A4AE"/></linearGradient><path id="a" d="M202.847 75.038l-82.184 47.795a8.587 8.587 0 0 1-8.644 0L1.367 58.476A2.756 2.756 0 0 1 0 56.092c0-.984.521-1.893 1.367-2.385L87.19.37a2.715 2.715 0 0 1 2.733 0l114.19 69.063c1.822 1.06.556 4.545-1.266 5.606z"/><path id="b" d="M6.998 0S7.271 7.195.73 10.9c-2.19 1.244 1.247-9.593 1.247-9.593L6.998 0z"/><path id="c" d="M.114 0s-1.38 6.832 5.452 10.83C7.793 12.135 9 5.483 9 5.483L.114 0z"/><path id="d" d="M212.6 72.544l-87.176 50.297a8.658 8.658 0 0 1-8.654 0L1.389 56.26a2.772 2.772 0 0 1 0-4.804L88.578 1.16a8.658 8.658 0 0 1 8.654 0L212.6 67.728a2.77 2.77 0 0 1 0 4.816z"/><path id="e" d="M185.627 60.502L103.522 107.9a.747.747 0 0 1-.746 0L.373 48.79a.746.746 0 0 1 0-1.291L82.478.099a.746.746 0 0 1 .746 0l102.403 59.11a.746.746 0 0 1 0 1.292z"/><path id="f" d="M7.672.732c1.76.973 1.773 2.559.021 3.536-1.752.978-4.598.974-6.363 0C-.435 3.295-.443 1.71 1.305.736c2-.98 4.367-.981 6.367-.004z"/><path id="g" d="M1.708.296C1.882.399 2 .682 2 1c0 .318-.118.601-.292.704-.444.395-.972.395-1.416 0C.118 1.601 0 1.318 0 1 0 .682.118.399.292.296c.444-.395.972-.395 1.416 0z"/><path id="h" d="M11.353 61.925L1.39 56.192a2.767 2.767 0 0 1 0-4.798L88.68 1.157a8.685 8.685 0 0 1 8.664 0L203 62l-191.647-.075z"/><path id="i" d="M45.719 30L0 3.62 6.281 0 52 26.38 45.719 30z"/><path id="j" d="M6 105.383L0 109V3.617L6 0v105.383z"/><path id="k" d="M6.345 0C7.365.547 7.995 1.55 8 2.637L1.655 6C1.655 5.546.428 3.589 0 3.363L6.345 0z"/><path id="m" d="M47.922 135.817l-46.26-26.332A3.265 3.265 0 0 1 0 106.651V1.364C0 .877.264.426.693.183a1.404 1.404 0 0 1 1.385 0l46.26 26.332A3.265 3.265 0 0 1 50 29.35v105.287c0 .487-.264.938-.693 1.181a1.402 1.402 0 0 1-1.385 0z"/><path id="n" d="M0 5c.421-.256.68-.724.679-1.23L7 0a1.43 1.43 0 0 1-.695 1.24L0 5z"/><path id="o" d="M7 .192a1.115 1.115 0 0 0-1.252 0L0 4a1.115 1.115 0 0 1 1.252 0L7 .192z"/><path id="p" d="M43.93 105.904L.357 80.541A.72.72 0 0 1 0 79.918V.718A.72.72 0 0 1 .357.097a.71.71 0 0 1 .713 0L44.643 25.46a.72.72 0 0 1 .357.623v79.207a.712.712 0 1 1-1.07.615z"/><path id="q" d="M14.366 9.947L.212 2.092A.405.405 0 0 1 0 1.74V.407C0 .262.081.127.211.055A.44.44 0 0 1 .634.053l14.154 7.855A.405.405 0 0 1 15 8.26v1.335a.405.405 0 0 1-.213.35.44.44 0 0 1-.421 0z"/><path id="r" d="M3.986 10.414C6.191 11.778 7.992 10.678 8 7.97 8.008 5.26 6.218 1.945 4.014.584 1.809-.776.008.32 0 3.03c-.008 2.71 1.768 6.03 3.986 7.385z"/><path id="s" d="M0 27.98V1.366C0 .878.264.427.693.183a1.402 1.402 0 0 1 1.385 0l46.26 26.373A3.27 3.27 0 0 1 50 29.395v65.602c.008.52-50-66.531-50-67.017z"/><path id="t" d="M0 3.373L5.786 0 102 56.074v95.553L96.214 155"/><path id="u" d="M5.786 0L7.84-3.522a4.077 4.077 0 0 0-4.106 0L5.786 0zM102 56.074h4.077c0-1.45-.771-2.792-2.024-3.522L102 56.074zm0 95.553l2.053 3.522a4.076 4.076 0 0 0 2.024-3.522H102zM2.053 6.895l5.786-3.373-4.106-7.044L-2.053-.15l4.106 7.044zm1.68-3.373l96.214 56.074 4.106-7.044L7.839-3.522 3.734 3.522zm94.19 52.552v95.553h8.154V56.074h-8.154zm2.024 92.031l-5.786 3.373 4.106 7.044 5.786-3.373-4.106-7.044z"/><path id="v" d="M96 152L0 95.784V0l96 56.216V152z"/><path id="w" d="M0 95.784h-4.077c0 1.448.768 2.787 2.017 3.518L0 95.784zM0 0l2.06-3.518A4.077 4.077 0 0 0-4.077 0H0zm96 56.216h4.077a4.077 4.077 0 0 0-2.017-3.518L96 56.216zm2.06 92.266l-96-56.216-4.12 7.036 96 56.216 4.12-7.036zM4.077 95.784V0h-8.154v95.784h8.154zM-2.06 3.518l96 56.216 4.12-7.036-96-56.216-4.12 7.036zm93.983 52.698V152h8.154V56.216h-8.154z"/><path id="x" d="M.004 3.358L6 0v95.278c0 .839-.461 1.613-1.209 2.031L0 100 .004 3.358z"/><path id="y" d="M85 131L0 80.927V0l85 50.069V131z"/><path id="z" d="M0 0v8.235L96.114 64 178 16.49V8.256"/><path id="A" d="M0 8.235h-4.077c0 1.453.774 2.797 2.031 3.526L0 8.235zM96.114 64l-2.046 3.526a4.077 4.077 0 0 0 4.092 0L96.114 64zM178 16.49l2.046 3.527a4.077 4.077 0 0 0 2.031-3.527H178zM-4.077 0v8.235h8.154V0h-8.154zm2.031 11.761l96.114 55.765 4.092-7.052L2.046 4.708l-4.092 7.053zM98.16 67.526l81.886-47.51-4.092-7.052-81.886 47.51 4.092 7.052zm83.917-51.036V8.256h-8.154v8.234h8.154z"/><path id="B" d="M180.963 56.362L84.9.276a2.018 2.018 0 0 0-2.038 0L1.02 48.058A2.065 2.065 0 0 0 0 49.844c0 .737.389 1.418 1.02 1.786l96.08 56.094a2.02 2.02 0 0 0 2.038 0l81.842-47.787a2.066 2.066 0 0 0 1.02-1.785c0-.737-.389-1.418-1.02-1.786l-.017-.004z"/><path id="C" d="M55 17.841l-15.333-8.92L24.335 0 11.27 7.6 0 14.158l15.333 8.92L30.665 32l11.27-6.56L55 17.842z"/><path id="D" d="M24.335 0l2.05-3.524a4.077 4.077 0 0 0-4.1 0L24.335 0zM11.27 7.6L9.22 4.075l2.05 3.523zM0 14.158l-2.05-3.524a4.077 4.077 0 0 0 0 7.048L0 14.159zm15.333 8.92l-2.05 3.524 2.05-3.524zM30.665 32l-2.05 3.524a4.077 4.077 0 0 0 4.1 0L30.666 32zm11.27-6.56l-2.05-3.523 2.05 3.524zM57.05 14.318l-15.332-8.92-4.1 7.047 15.332 8.92 4.1-7.047zm-15.332-8.92l-15.333-8.92-4.1 7.047 15.332 8.92 4.1-7.047zM22.285-3.524l-13.064 7.6 4.1 7.047 13.064-7.599-4.1-7.048zM9.22 4.076l-11.27 6.56 4.1 7.046 11.271-6.559L9.22 4.076zM-2.05 17.683l15.332 8.92 4.1-7.047-15.332-8.92-4.1 7.047zm15.332 8.92l15.333 8.92 4.1-7.047-15.332-8.92-4.1 7.047zm19.434 8.92l11.27-6.559-4.101-7.047-11.27 6.56 4.1 7.046zm11.27-6.558l13.064-7.6-4.1-7.048-13.064 7.6 4.1 7.048z"/><path id="E" d="M18 5.068L8.323 11 0 5.932 9.677 0 18 5.068z"/><path id="F" d="M8.323 11l-.424.696.426.26.424-.26L8.323 11zM0 5.932l-.426-.695-1.138.698 1.14.694L0 5.932zM9.677 0l.424-.696-.426-.26-.424.26.426.696zm7.897 4.372l-9.677 5.933.852 1.39 9.677-5.932-.852-1.39zm-8.827 5.932L.424 5.236l-.848 1.393 8.323 5.067.848-1.392zM.427 6.628L10.102.695 9.25-.695-.427 5.237l.852 1.39zM9.252.696l8.323 5.068.848-1.393L10.1-.696 9.253.696z"/><path id="G" d="M18 5.068L8.325 11 0 5.932 9.675 0 18 5.068z"/><path id="H" d="M8.325 11l-.424.697.426.259.424-.26L8.325 11zM0 5.932l-.426-.695-1.138.698 1.14.694L0 5.932zM9.675 0l.424-.696-.426-.26-.424.26.426.696zm7.899 4.372l-9.675 5.933.852 1.39 9.675-5.932-.852-1.39zm-8.825 5.931L.424 5.236l-.848 1.393 8.325 5.068.848-1.393zM.426 6.628L10.101.695 9.25-.695-.426 5.237l.852 1.39zM9.251.696l8.325 5.068.848-1.393-8.325-5.067L9.25.696z"/><path id="I" d="M18 4.607L8.325 10 0 5.389 9.68 0 18 4.607z"/><path id="J" d="M8.325 10l-.395.713.396.22.396-.22L8.325 10zM0 5.389l-.397-.712-1.282.714 1.284.711L0 5.39zM9.68 0l.394-.713-.396-.22-.395.22.396.713zm7.923 3.895L7.928 9.288l.794 1.424 9.675-5.393-.794-1.424zM8.72 9.287L.395 4.676l-.79 1.426 8.325 4.611.79-1.426zM.397 6.1L10.076.712 9.283-.712l-9.68 5.389L.397 6.1zM9.284.713l8.321 4.607.79-1.426-8.32-4.607-.79 1.426z"/><path id="K" d="M18 4.609L8.325 10 0 5.391 9.68 0 18 4.609z"/><path id="L" d="M8.325 10l-.395.713.396.22.396-.22L8.325 10zM0 5.391l-.397-.712-1.283.714 1.285.712L0 5.39zM9.68 0l.394-.713-.396-.22-.396.22L9.68 0zm7.923 3.897l-9.675 5.39.794 1.425 9.675-5.391-.794-1.424zM8.72 9.287L.395 4.677l-.79 1.428 8.325 4.608.79-1.426zM.397 6.104L10.076.712 9.282-.712l-9.679 5.39.794 1.426zM9.284.714l8.32 4.608.791-1.426-8.32-4.61-.79 1.427z"/><path id="M" d="M18 4.609L8.325 10 0 5.391 9.675 0 18 4.609z"/><path id="N" d="M8.325 10l-.395.713.396.22.396-.22L8.325 10zM0 5.391l-.397-.712-1.282.715 1.284.71L0 5.392zM9.675 0l.395-.713-.396-.22-.396.22.397.713zm7.928 3.897l-9.675 5.39.794 1.425 9.675-5.391-.794-1.424zM8.72 9.287L.395 4.677l-.79 1.428 8.325 4.608.79-1.426zM.397 6.103l9.675-5.39-.794-1.425-9.675 5.391.794 1.424zM9.28.713l8.325 4.61.79-1.428L10.07-.713 9.28.713z"/><path id="O" d="M18 5.068L8.325 11 0 5.928 9.68 0 18 5.068z"/><path id="P" d="M8.325 11l-.424.696.425.26.425-.26L8.325 11zM0 5.928l-.426-.695-1.138.697 1.14.694L0 5.928zM9.68 0l.423-.696-.425-.26-.425.26L9.68 0zm7.894 4.372l-9.675 5.933.852 1.39 9.675-5.932-.852-1.39zm-8.825 5.932L.424 5.232l-.848 1.392L7.9 11.696l.848-1.392zM.426 6.624l9.679-5.93-.852-1.39-9.679 5.928.852 1.39zM9.256.695l8.32 5.068.848-1.393-8.32-5.067-.85 1.393z"/><path id="Q" d="M18 4.609L8.323 10 0 5.391 9.673 0 18 4.609z"/><path id="R" d="M8.323 10l-.395.713.396.22.396-.22L8.323 10zM0 5.391l-.397-.712-1.282.715 1.284.71L0 5.392zM9.673 0l.395-.713-.396-.22-.396.22.397.713zm7.93 3.896L7.926 9.288l.794 1.424 9.677-5.391-.794-1.425zm-8.885 5.39L.395 4.679l-.79 1.427 8.323 4.608.79-1.426zM.397 6.104L10.07.713 9.276-.713-.397 4.679l.794 1.424zM9.278.713l8.327 4.61.79-1.428-8.327-4.608-.79 1.426z"/><path id="S" d="M18 4.605L8.327 10 0 5.391 9.677 0 18 4.605z"/><path id="T" d="M8.327 10l-.395.713.397.22.395-.22L8.327 10zM0 5.391l-.397-.712-1.283.715 1.285.71L0 5.392zM9.677 0l.395-.713-.396-.22-.396.22.397.713zm7.926 3.893L7.93 9.288l.794 1.424 9.673-5.395-.794-1.424zM8.722 9.287L.395 4.677l-.79 1.428 8.327 4.608.79-1.426zM.397 6.104L10.074.712 9.28-.712-.397 4.679l.794 1.425zM9.282.714l8.323 4.604.79-1.427-8.323-4.604-.79 1.426z"/><path id="U" d="M18 4.609L8.32 10 0 5.391 9.675 0 18 4.609z"/><path id="V" d="M8.32 10l-.394.713.396.22.396-.22L8.32 10zM0 5.391l-.397-.712-1.282.714 1.284.711L0 5.391zM9.675 0l.395-.713-.396-.22-.396.22.397.713zm7.928 3.896L7.924 9.288l.794 1.424 9.679-5.39-.794-1.426zm-8.887 5.39L.396 4.679l-.791 1.426 8.32 4.61.79-1.427zM.396 6.104l9.676-5.39-.794-1.425L-.397 4.68l.794 1.424zM9.28.713l8.325 4.61.79-1.428L10.07-.713 9.28.713z"/><path id="W" d="M18 5.068L8.323 11 0 5.932 9.677 0 18 5.068z"/><path id="X" d="M8.323 11l-.424.696.425.26.425-.26L8.323 11zM0 5.932l-.426-.695-1.138.698 1.14.694L0 5.932zM9.677 0l.424-.696-.425-.26-.425.26.426.696zm7.897 4.372l-9.677 5.933.852 1.39 9.677-5.932-.852-1.39zm-8.827 5.932L.424 5.236l-.848 1.393 8.323 5.067.848-1.392zM.427 6.628L10.102.695 9.25-.695-.427 5.237l.852 1.39zM9.252.696l8.323 5.068.848-1.393L10.1-.696 9.253.696z"/><path id="Y" d="M18 5.068L8.32 11 0 5.932 9.675 0 18 5.068z"/><path id="Z" d="M8.32 11l-.423.696.425.26.425-.26L8.32 11zM0 5.932l-.426-.695-1.138.698 1.14.694L0 5.932zM9.675 0l.424-.696-.426-.26-.424.26.426.696zm7.899 4.372l-9.68 5.933.853 1.39 9.68-5.932-.853-1.39zm-8.83 5.932L.425 5.236l-.848 1.393 8.32 5.067.849-1.392zM.427 6.628L10.101.695 9.25-.695-.426 5.237l.852 1.39zM9.251.696l8.325 5.068.848-1.393-8.325-5.067L9.25.696z"/><path id="aa" d="M18 4.609L8.325 10 0 5.395 9.68 0 18 4.609z"/><path id="ab" d="M8.325 10l-.395.713.397.22.395-.22L8.325 10zM0 5.395l-.397-.712-1.283.715 1.285.71L0 5.396zM9.68 0l.394-.713-.396-.22-.396.22L9.68 0zm7.923 3.897l-9.675 5.39.794 1.425 9.675-5.391-.794-1.424zM8.72 9.287L.395 4.682l-.79 1.427 8.325 4.604.79-1.426zM.397 6.107l9.68-5.395-.795-1.424-9.679 5.395.794 1.425zM9.284.714l8.32 4.609.791-1.426-8.32-4.61-.79 1.427z"/><path id="ac" d="M18 5.068L8.327 11 0 5.928 9.677 0 18 5.068z"/><path id="ad" d="M8.327 11l-.424.696.426.26.424-.26L8.327 11zM0 5.928l-.426-.695-1.138.697 1.14.694L0 5.928zM9.677 0l.424-.696-.425-.26-.425.26.426.696zm7.897 4.373L7.9 10.305l.852 1.39 9.673-5.932-.852-1.39zm-8.823 5.93L.424 5.233l-.848 1.392 8.327 5.072.848-1.392zM.426 6.624L10.103.695l-.852-1.39-9.677 5.928.852 1.39zM9.253.696l8.323 5.068.848-1.393-8.323-5.067L9.253.696z"/><path id="ae" d="M18 4.605L8.323 10 0 5.391 9.677 0 18 4.605z"/><path id="af" d="M8.323 10l-.395.713.396.22.396-.22L8.323 10zM0 5.391l-.397-.712-1.282.714 1.284.712L0 5.39zM9.677 0l.395-.713-.396-.22-.396.22.397.713zm7.926 3.893L7.926 9.288l.794 1.424 9.677-5.395-.794-1.424zM8.718 9.287L.395 4.677l-.79 1.428 8.323 4.608.79-1.426zM.397 6.104L10.074.712 9.28-.712-.397 4.679l.794 1.425zM9.282.714l8.323 4.604.79-1.427-8.323-4.604-.79 1.426z"/><path id="ag" d="M18 4.609L8.323 10 0 5.395 9.677 0 18 4.609z"/><path id="ah" d="M8.323 10l-.395.713.396.22.396-.22L8.323 10zM0 5.395l-.397-.712-1.282.715 1.284.71L0 5.396zM9.677 0l.395-.713-.396-.22-.396.22.397.713zm7.926 3.896L7.926 9.288l.794 1.424 9.677-5.391-.794-1.425zm-8.885 5.39L.395 4.683l-.79 1.427 8.323 4.604.79-1.426zM.397 6.108L10.074.712 9.28-.712-.397 4.683l.794 1.424zM9.282.713l8.323 4.61.79-1.428-8.323-4.608-.79 1.426z"/><path id="ai" d="M18 4.609L8.323 10 0 5.391 9.677 0 18 4.609z"/><path id="aj" d="M8.323 10l-.395.713.396.22.396-.22L8.323 10zM0 5.391l-.397-.712-1.282.714 1.284.712L0 5.39zM9.677 0l.395-.713-.396-.22-.396.22.397.713zm7.926 3.896L7.926 9.288l.794 1.424 9.677-5.391-.794-1.425zm-8.885 5.39L.395 4.679l-.79 1.427 8.323 4.608.79-1.426zM.397 6.105L10.074.712 9.28-.712-.397 4.679l.794 1.425zM9.282.714l8.323 4.608.79-1.427-8.323-4.608-.79 1.426z"/><path id="ak" d="M18 4.605L8.325 10 0 5.391 9.68 0 18 4.605z"/><path id="al" d="M8.325 10l-.395.713.397.22.395-.22L8.325 10zM0 5.391l-.397-.712-1.283.714 1.285.712L0 5.39zM9.68 0l.394-.713-.396-.22-.396.22L9.68 0zm7.923 3.893L7.928 9.288l.794 1.424 9.675-5.395-.794-1.424zM8.72 9.287L.395 4.677l-.79 1.428 8.325 4.608.79-1.426zM.397 6.104L10.076.712 9.282-.712l-9.679 5.39.794 1.426zM9.284.714l8.321 4.604.79-1.427-8.321-4.604-.79 1.426z"/><path id="am" d="M97.981 56.514L2.036.277A2.009 2.009 0 0 0 0 .277L24.792 103l73.19-42.905A2.073 2.073 0 0 0 99 58.305a2.07 2.07 0 0 0-1.019-1.79z"/></defs></svg>