<svg width="583" height="232" viewBox="0 0 583 232" xmlns="http://www.w3.org/2000/svg" xmlns:xlink="http://www.w3.org/1999/xlink"><title>Group</title><desc>Created using Figma</desc><use xlink:href="#a" transform="matrix(-1 0 0 1 257.4 46.96)" fill="#90A4AE"/><use xlink:href="#b" transform="matrix(-1 0 0 1 9 124.64)" fill="#90A4AE"/><use xlink:href="#c" transform="matrix(-1 0 0 1 263 104.95)" fill="#90A4AE"/><use xlink:href="#d" transform="matrix(-1 0 0 1 262.9 38.51)" fill="#CFD8DC"/><use xlink:href="#e" transform="matrix(-1 0 0 1 247.8 47.17)" fill="#F57C00"/><use xlink:href="#f" transform="matrix(-1 0 0 1 68.6 151.16)" fill="#ECEFF1"/><use xlink:href="#g" transform="matrix(-1 0 0 1 202.5 73.78)" fill="#78909C"/><use xlink:href="#h" transform="matrix(-1 0 0 1 262.9 38.51)" fill="#ECEFF1" opacity=".1"/><use xlink:href="#i" transform="scale(1 -1) rotate(-60 80.508 -237.344)" fill="#CFD8DC"/><use xlink:href="#j" transform="scale(1 -1) rotate(-60 82.558 -306.135)" fill="#90A4AE"/><use xlink:href="#k" transform="scale(1 -1) rotate(-60 80.517 -302.58)" fill="url(#l)"/><use xlink:href="#m" transform="scale(1 -1) rotate(-60 85.45 -237.263)" fill="#B0BEC5"/><use xlink:href="#n" transform="scale(1 -1) rotate(-60 195.914 -370.593)" fill="#90A4AE"/><use xlink:href="#o" transform="scale(1 -1) rotate(-60 81.177 -235.803)" fill="#CFD8DC"/><use xlink:href="#p" transform="scale(1 -1) rotate(-60 99.031 -248.127)" fill="#F57C00"/><use xlink:href="#q" transform="scale(1 -1) rotate(-60 91.872 -265.886)" fill="#263238"/><use xlink:href="#r" transform="matrix(.5 .86603 .86603 -.5 378.3 -.98)" fill="#CFD8DC"/><use xlink:href="#s" transform="scale(1 -1) rotate(-60 85.45 -237.263)" fill="#ECEFF1" opacity=".1"/><g transform="translate(452.1 -30)" fill="#CFD8DC"><use xlink:href="#t"/><use xlink:href="#u"/></g><g transform="translate(452.1 -25.89)" fill="#B0BEC5"><use xlink:href="#v"/><use xlink:href="#w"/></g><use xlink:href="#x" transform="translate(572.6 38.19)" fill="#90A4AE"/><use xlink:href="#y" transform="translate(458.4 -15.92)" fill="#F57C00"/><g transform="translate(351.6 148.59)" fill="#90A4AE"><use xlink:href="#z"/><use xlink:href="#A"/></g><use xlink:href="#B" transform="translate(349 87.92)" fill="#CFD8DC"/><g transform="translate(396.9 151.56)" fill="#B0BEC5"><use xlink:href="#C"/><use xlink:href="#D"/></g><g transform="translate(470.2 129.01)"><use xlink:href="#E" fill="#546E7A"/><use xlink:href="#F" fill="#CFD8DC"/></g><g transform="translate(431 137.92)"><use xlink:href="#G" fill="#546E7A"/><use xlink:href="#H" fill="#CFD8DC"/></g><g transform="translate(455 151.8)"><use xlink:href="#I" fill="#546E7A"/><use xlink:href="#J" fill="#CFD8DC"/></g><g transform="translate(467 158.75)"><use xlink:href="#K" fill="#546E7A"/><use xlink:href="#L" fill="#CFD8DC"/></g><g transform="translate(443 144.86)"><use xlink:href="#M" fill="#546E7A"/><use xlink:href="#N" fill="#CFD8DC"/></g><g transform="translate(456.6 136.94)"><use xlink:href="#I" fill="#546E7A"/><use xlink:href="#J" fill="#CFD8DC"/></g><g transform="translate(495.9 128.03)"><use xlink:href="#O" fill="#546E7A"/><use xlink:href="#P" fill="#CFD8DC"/></g><g transform="translate(507.9 134.98)"><use xlink:href="#Q" fill="#546E7A"/><use xlink:href="#R" fill="#CFD8DC"/></g><g transform="translate(482.2 135.96)"><use xlink:href="#S" fill="#546E7A"/><use xlink:href="#T" fill="#CFD8DC"/></g><g transform="translate(494.3 142.9)"><use xlink:href="#U" fill="#546E7A"/><use xlink:href="#V" fill="#CFD8DC"/></g><g transform="translate(468.6 143.88)"><use xlink:href="#W" fill="#546E7A"/><use xlink:href="#X" fill="#CFD8DC"/></g><g transform="translate(480.6 150.83)"><use xlink:href="#Y" fill="#546E7A"/><use xlink:href="#Z" fill="#CFD8DC"/></g><g transform="translate(483.8 121.09)"><use xlink:href="#M" fill="#546E7A"/><use xlink:href="#N" fill="#CFD8DC"/></g><g transform="translate(458.2 122.07)"><use xlink:href="#M" fill="#546E7A"/><use xlink:href="#N" fill="#CFD8DC"/></g><g transform="translate(471.8 114.15)"><use xlink:href="#aa" fill="#546E7A"/><use xlink:href="#ab" fill="#CFD8DC"/></g><g transform="translate(459.8 107.2)"><use xlink:href="#O" fill="#546E7A"/><use xlink:href="#P" fill="#CFD8DC"/></g><g transform="translate(446.2 115.13)"><use xlink:href="#ac" fill="#546E7A"/><use xlink:href="#ad" fill="#CFD8DC"/></g><g transform="translate(434.2 108.18)"><use xlink:href="#ae" fill="#546E7A"/><use xlink:href="#af" fill="#CFD8DC"/></g><g transform="translate(447.8 100.26)"><use xlink:href="#Q" fill="#546E7A"/><use xlink:href="#R" fill="#CFD8DC"/></g><g transform="translate(531.9 148.87)"><use xlink:href="#ae" fill="#546E7A"/><use xlink:href="#af" fill="#CFD8DC"/></g><g transform="translate(491 172.64)"><use xlink:href="#U" fill="#546E7A"/><use xlink:href="#V" fill="#CFD8DC"/></g><g transform="translate(504.7 164.72)"><use xlink:href="#ac" fill="#546E7A"/><use xlink:href="#ad" fill="#CFD8DC"/></g><g transform="translate(518.3 156.79)"><use xlink:href="#S" fill="#546E7A"/><use xlink:href="#T" fill="#CFD8DC"/></g><g transform="translate(506.3 149.85)"><use xlink:href="#ag" fill="#546E7A"/><use xlink:href="#ah" fill="#CFD8DC"/></g><g transform="translate(519.9 141.92)"><use xlink:href="#O" fill="#546E7A"/><use xlink:href="#P" fill="#CFD8DC"/></g><g transform="translate(420.6 116.11)"><use xlink:href="#ag" fill="#546E7A"/><use xlink:href="#ah" fill="#CFD8DC"/></g><g transform="translate(419 130.97)"><use xlink:href="#ag" fill="#546E7A"/><use xlink:href="#ah" fill="#CFD8DC"/></g><g transform="translate(432.6 123.05)"><use xlink:href="#U" fill="#546E7A"/><use xlink:href="#V" fill="#CFD8DC"/></g><g transform="translate(444.6 130)"><use xlink:href="#M" fill="#546E7A"/><use xlink:href="#N" fill="#CFD8DC"/></g><g transform="translate(479 165.69)"><use xlink:href="#Y" fill="#546E7A"/><use xlink:href="#Z" fill="#CFD8DC"/></g><g transform="translate(492.6 157.77)"><use xlink:href="#U" fill="#546E7A"/><use xlink:href="#V" fill="#CFD8DC"/></g><g transform="translate(407 124.03)"><use xlink:href="#ai" fill="#546E7A"/><use xlink:href="#aj" fill="#CFD8DC"/></g><use xlink:href="#ak" transform="translate(450.9 87.92)" fill="#455A64" opacity=".15"/><defs><linearGradient id="l" x2="1" gradientUnits="userSpaceOnUse" gradientTransform="matrix(1.50853 2.76057 -3.38994 1.22846 4.299 2.352)"><stop offset="0" stop-color="#CFD8DC"/><stop offset="1" stop-color="#90A4AE"/></linearGradient><path id="a" d="M249.409 91.706L148.36 150.12a10.616 10.616 0 0 1-10.628 0L1.681 71.466a3.365 3.365 0 0 1 0-5.828L107.204.45a3.356 3.356 0 0 1 3.36 0l140.402 84.404c2.239 1.296.683 5.555-1.557 6.851z"/><path id="b" d="M8.849 0S9.193 9.259.923 14.027C-1.847 15.627 2.5 1.682 2.5 1.682L8.849 0z"/><path id="c" d="M.142 0s-1.716 8.384 6.775 13.291c2.77 1.6 4.27-6.563 4.27-6.563L.141 0z"/><path id="d" d="M261.089 89.256L154.03 151.14a10.616 10.616 0 0 1-10.628 0L1.706 69.22a3.411 3.411 0 0 1 0-5.91L108.78 1.426a10.614 10.614 0 0 1 10.627 0L261.089 83.33a3.412 3.412 0 0 1 0 5.926z"/><path id="e" d="M228.782 74.672l-101.194 58.5a.915.915 0 0 1-.919 0L.459 60.218a.921.921 0 0 1 0-1.595L101.654.123a.918.918 0 0 1 .919 0l126.21 72.954a.921.921 0 0 1 0 1.595z"/><path id="f" d="M9.513.947c2.183 1.26 2.199 3.313.026 4.578-2.173 1.265-5.702 1.26-7.89 0C-.54 4.265-.55 2.212 1.619.952A8.68 8.68 0 0 1 9.512.947z"/><path id="g" d="M2.275.23a.576.576 0 0 1 0 1.09 2.052 2.052 0 0 1-1.885 0 .576.576 0 0 1 0-1.09 2.052 2.052 0 0 1 1.885 0z"/><path id="h" d="M13.926 76.283l-12.22-7.062a3.411 3.411 0 0 1 0-5.91L108.78 1.425a10.614 10.614 0 0 1 10.627 0l129.605 74.95-235.087-.093z"/><path id="i" d="M56.499 37.097L0 4.477 7.763 0 64.26 32.62l-7.76 4.477z"/><path id="j" d="M7.763 130.436L0 134.913V4.477L7.763 0v130.436z"/><path id="k" d="M7.78 0a4.081 4.081 0 0 1 2.029 3.51l-7.78 4.478C2.03 7.383.524 4.778 0 4.477L7.78 0z"/><path id="m" d="M58.515 168.246l-56.486-32.62A4.053 4.053 0 0 1 0 132.115V1.689A1.69 1.69 0 0 1 2.537.226l56.485 32.62a4.054 4.054 0 0 1 2.03 3.511v130.426a1.69 1.69 0 0 1-2.537 1.463z"/><path id="n" d="M0 5.937a1.69 1.69 0 0 0 .835-1.46L8.615 0a1.69 1.69 0 0 1-.856 1.473L0 5.937z"/><path id="o" d="M9.454.226a1.693 1.693 0 0 0-1.692 0L0 4.703a1.693 1.693 0 0 1 1.691 0L9.454.226z"/><path id="p" d="M54.56 130.477L.444 99.229A.885.885 0 0 1 0 98.462V.886A.885.885 0 0 1 1.33.119l54.117 31.248c.274.158.443.45.443.767v97.586a.884.884 0 0 1-1.33.757z"/><path id="q" d="M17.165 12.362L.254 2.6A.507.507 0 0 1 0 2.16V.506a.507.507 0 0 1 .758-.44l16.911 9.762c.157.09.254.258.254.439v1.659a.507.507 0 0 1-.758.436z"/><path id="r" d="M4.972 12.132c2.75 1.588 4.996.307 5.006-2.849.01-3.156-2.222-7.018-4.972-8.602C2.256-.904.01.373 0 3.529c-.01 3.156 2.205 7.025 4.972 8.603z"/><path id="s" d="M0 34.607V1.689A1.69 1.69 0 0 1 2.537.226l56.485 32.62a4.054 4.054 0 0 1 2.03 3.511v81.141C61.061 118.14 0 35.208 0 34.607z"/><path id="t" d="M0 4.106L7.099 0l118.035 68.264v116.325l-7.099 4.106"/><path id="u" d="M7.099 0l2.503-4.328a5 5 0 0 0-5.007 0L7.1 0zm118.035 68.264h5a5 5 0 0 0-2.497-4.329l-2.503 4.329zm0 116.325l2.503 4.329a5.002 5.002 0 0 0 2.497-4.329h-5zM2.504 8.434l7.098-4.106-5.007-8.656-7.098 4.106 5.006 8.656zm2.091-4.106L122.63 72.592l5.007-8.657L9.602-4.328 4.595 4.328zm115.539 63.936v116.325h10V68.264h-10zm2.496 111.997l-7.099 4.106 5.007 8.656 7.099-4.105-5.007-8.657z"/><path id="v" d="M118.035 184.589L0 116.321V0l118.035 68.269v116.32z"/><path id="w" d="M0 116.321h-5a5 5 0 0 0 2.497 4.328L0 116.321zM0 0l2.503-4.328A5 5 0 0 0-5 0h5zm118.035 68.269h5a5 5 0 0 0-2.497-4.328l-2.503 4.328zm2.503 111.992L2.503 111.992l-5.006 8.657 118.035 68.269 5.006-8.657zM5 116.321V0H-5v116.321H5zM-2.503 4.328l118.035 68.269 5.006-8.656L2.503-4.33l-5.006 8.657zm115.538 63.94V184.59h10V68.269h-10z"/><path id="x" d="M.005 4.096L7.104 0v116.213a2.862 2.862 0 0 1-1.431 2.478L0 121.973.005 4.096z"/><path id="y" d="M105.447 159.545L0 98.561V0l105.447 60.979v98.566z"/><path id="z" d="M0 0v10.08l118.035 68.264 100.562-58.158v-10.08"/><path id="A" d="M0 10.08h-5a5 5 0 0 0 2.497 4.329L0 10.08zm118.035 68.264l-2.503 4.328a5 5 0 0 0 5.006 0l-2.503-4.328zm100.562-58.158l2.503 4.329a5 5 0 0 0 2.497-4.329h-5zM-5 0v10.08H5V0H-5zm2.497 14.409l118.035 68.263 5.006-8.656L2.503 5.752l-5.006 8.657zm123.041 68.263L221.1 24.515l-5.007-8.657-100.561 58.158 5.006 8.656zm103.059-62.486v-10.08h-10v10.08h10z"/><path id="B" d="M222.354 68.595L104.319.336a2.5 2.5 0 0 0-2.504 0L1.253 58.49a2.51 2.51 0 0 0 0 4.346l118.056 68.269a2.5 2.5 0 0 0 2.504 0l100.562-58.158a2.51 2.51 0 0 0 0-4.346l-.021-.005z"/><path id="C" d="M67.537 21.778L48.709 10.89 29.882 0 13.84 9.277 0 17.284l18.828 10.889 18.827 10.889 13.84-8.007 16.042-9.277z"/><path id="D" d="M48.71 10.89l-2.504 4.327 2.503-4.328zM29.881 0l2.503-4.328a5 5 0 0 0-5.006 0L29.882 0zM13.84 9.277l-2.503-4.329h-.001l2.504 4.329zM0 17.284l-2.504-4.328a5 5 0 0 0 0 8.656L0 17.284zm18.828 10.889L16.323 32.5l2.503-4.328zm18.827 10.889l-2.503 4.328a5 5 0 0 0 5.007 0l-2.504-4.328zm13.84-8.007l-2.503-4.328h-.001l2.504 4.328zM70.04 17.45L51.213 6.561l-5.007 8.656 18.828 10.89 5.006-8.657zM51.213 6.561L32.385-4.329 27.38 4.329l18.827 10.89 5.007-8.657zM27.379-4.329L11.337 4.949l5.006 8.657 16.042-9.277-5.006-8.656zM11.336 4.95l-13.84 8.007 5.008 8.655 13.84-8.007-5.008-8.655zm-13.84 16.663L16.325 32.5l5.007-8.656-18.828-10.89-5.006 8.657zM16.325 32.5l18.828 10.89 5.006-8.657-18.827-10.89-5.007 8.657zM40.16 43.39L54 35.383l-5.008-8.656-13.84 8.007 5.008 8.656zm13.839-8.007l16.042-9.276-5.006-8.657-16.042 9.277 5.006 8.656z"/><path id="E" d="M21.541 5.76l-11.58 6.742L0 6.742 11.58 0l9.961 5.76z"/><path id="F" d="M9.96 12.502l-.5.866.502.29.502-.292-.503-.864zM0 6.742l-.503-.864-1.49.867 1.492.863L0 6.742zM11.58 0l.501-.866-.502-.29-.502.292.504.864zm9.458 4.895l-11.58 6.743 1.006 1.728 11.58-6.742-1.006-1.729zm-10.577 6.741l-9.96-5.76-1.002 1.732 9.961 5.76 1.001-1.732zM.503 7.606L12.083.865 11.079-.864-.503 5.878.503 7.607zM11.08.867l9.96 5.76 1.002-1.732-9.96-5.76L11.08.866z"/><path id="G" d="M21.536 5.76L9.961 12.501 0 6.742 11.576 0l9.96 5.76z"/><path id="H" d="M9.96 12.502l-.5.866.502.29.502-.292-.503-.864zM0 6.742l-.503-.864-1.49.868 1.492.862L0 6.742zM11.576 0l.5-.866-.502-.29-.502.292.504.864zm9.457 4.895L9.457 11.638l1.007 1.728 11.575-6.742-1.006-1.729zM10.46 11.636L.5 5.876-.502 7.608l9.961 5.76 1.001-1.732zM.503 7.606L12.08.865 11.072-.864-.503 5.878.503 7.607zM11.075.867l9.96 5.76 1.002-1.732-9.96-5.76L11.074.866z"/><path id="I" d="M21.536 5.76L9.961 12.501 0 6.737 11.58 0l9.956 5.76z"/><path id="J" d="M9.96 12.502l-.5.865.502.291.502-.292-.503-.864zM0 6.737l-.503-.864-1.49.867 1.492.863L0 6.737zM11.58 0l.501-.866-.502-.29-.501.292.503.864zm9.453 4.895L9.457 11.638l1.007 1.728 11.575-6.742-1.006-1.729zM10.46 11.636L.501 5.872l-1.002 1.73 9.96 5.765 1.002-1.73zM.503 7.602L12.083.864 11.079-.864-.502 5.873.502 7.602zM11.08.866l9.955 5.76 1.002-1.732-9.956-5.76L11.08.866z"/><path id="K" d="M21.536 5.76L9.961 12.496 0 6.737 11.58 0l9.956 5.76z"/><path id="L" d="M9.96 12.497l-.5.866.502.29.502-.292-.503-.864zM0 6.737l-.503-.864-1.49.867 1.492.863L0 6.737zM11.58 0l.501-.866-.502-.29-.501.292.503.864zm9.453 4.895L9.458 11.633l1.006 1.728 11.575-6.737-1.006-1.729zm-10.572 6.736l-9.96-5.76-1.002 1.732 9.961 5.76 1.001-1.732zM.503 7.601L12.083.865 11.079-.864-.502 5.873.502 7.602zM11.08.867l9.955 5.76 1.002-1.732-9.956-5.76L11.08.866z"/><path id="M" d="M21.536 5.76L9.961 12.496 0 6.737 11.576 0l9.96 5.76z"/><path id="N" d="M9.96 12.497l-.5.866.502.29.502-.292-.503-.864zM0 6.737l-.503-.864-1.49.867 1.492.863L0 6.737zM11.576 0l.5-.866-.502-.29-.502.292.504.864zm9.457 4.895L9.458 11.633l1.006 1.728 11.575-6.737-1.006-1.729zm-10.572 6.736l-9.96-5.76-1.002 1.732 9.961 5.76 1.001-1.732zM.503 7.601L12.079.865 11.072-.864-.502 5.873.503 7.602zM11.075.867l9.96 5.76 1.002-1.732-9.96-5.76L11.074.866z"/><path id="O" d="M21.531 5.76L9.955 12.496 0 6.737 11.57 0l9.961 5.76z"/><path id="P" d="M9.955 12.497l-.5.865.502.29.502-.291-.504-.864zM0 6.737l-.503-.864-1.49.867 1.492.863L0 6.737zM11.57 0l.501-.866-.502-.29-.502.292.503.864zm9.458 4.895L9.452 11.633l1.007 1.728 11.575-6.737-1.006-1.729zm-10.572 6.736L.501 5.871-.501 7.604l9.956 5.76 1.001-1.732zM.503 7.601L12.073.864 11.068-.864-.503 5.873.503 7.601zM11.07.866l9.96 5.76 1.002-1.732-9.961-5.76L11.07.866z"/><path id="Q" d="M21.531 5.754l-11.57 6.743L0 6.737 11.576 0l9.955 5.754z"/><path id="R" d="M9.96 12.497l-.5.866.503.29.501-.292-.503-.864zM0 6.737l-.503-.864-1.49.867 1.492.863L0 6.737zM11.576 0l.5-.866-.502-.29-.502.292.504.864zm9.452 4.89l-11.57 6.743 1.006 1.728 11.57-6.743-1.006-1.728zM10.46 11.631L.5 5.871-.502 7.603l9.961 5.76 1.001-1.732zM.503 7.601L12.079.865 11.072-.864-.502 5.873.503 7.602zM11.075.867l9.956 5.754 1-1.731-9.955-5.755-1 1.732z"/><path id="S" d="M21.536 5.76l-11.58 6.737L0 6.737 11.576 0l9.96 5.76z"/><path id="T" d="M9.955 12.497l-.5.865.502.29.501-.29-.503-.865zM0 6.737l-.503-.864-1.49.867 1.492.863L0 6.737zM11.576 0l.5-.866-.502-.29-.502.292.504.864zm9.457 4.895l-11.58 6.737 1.005 1.73L22.04 6.623l-1.006-1.729zm-10.577 6.736L.501 5.871-.501 7.604l9.956 5.76 1.001-1.732zM.503 7.601L12.079.865 11.072-.864-.502 5.873.503 7.602zM11.075.867l9.96 5.76 1.002-1.732-9.96-5.76L11.074.866z"/><path id="U" d="M21.531 5.76L9.955 12.501 0 6.742 11.576 0l9.955 5.76z"/><path id="V" d="M9.955 12.502l-.5.865.502.291.502-.292-.504-.864zM0 6.742l-.503-.864-1.489.867 1.491.863L0 6.742zM11.576 0l.5-.866-.502-.29-.502.292.504.864zm9.452 4.895L9.452 11.638l1.007 1.728 11.575-6.742-1.006-1.729zm-10.572 6.741L.501 5.876-.501 7.609l9.956 5.76 1.001-1.732zM.503 7.606L12.08.865 11.072-.864-.503 5.878.503 7.607zM11.075.867l9.955 5.76 1.002-1.732-9.956-5.76L11.075.866z"/><path id="W" d="M21.536 5.76l-11.58 6.742L0 6.742 11.576 0l9.96 5.76z"/><path id="X" d="M9.955 12.502l-.5.865.502.291.502-.292-.504-.864zM0 6.742l-.503-.864-1.489.867 1.491.863L0 6.742zM11.576 0l.5-.866-.502-.29-.502.292.504.864zm9.457 4.895l-11.58 6.743 1.006 1.728 11.58-6.742-1.006-1.729zm-10.577 6.741L.501 5.876-.501 7.609l9.956 5.76 1.001-1.732zM.503 7.606L12.08.865 11.072-.864-.503 5.878.503 7.607zM11.075.867l9.96 5.76 1.002-1.732-9.96-5.76L11.074.866z"/><path id="Y" d="M21.536 5.76L9.961 12.496 0 6.742 11.58 0l9.956 5.76z"/><path id="Z" d="M9.96 12.497l-.5.866.502.29.502-.292-.503-.864zM0 6.742l-.503-.864-1.49.868 1.493.862.5-.866zM11.58 0l.501-.866-.502-.29-.502.292.504.864zm9.453 4.895L9.458 11.633l1.006 1.728 11.575-6.737-1.006-1.729zm-10.572 6.736L.5 5.877l-1 1.731 9.96 5.755 1-1.732zM.503 7.607L12.083.864 11.079-.864-.503 5.878.503 7.607zM11.08.866l9.955 5.76 1.002-1.732-9.956-5.76L11.08.866z"/><path id="aa" d="M21.531 5.76l-11.57 6.742L0 6.737 11.576 0l9.955 5.76z"/><path id="ab" d="M9.96 12.502l-.5.865.502.291.502-.292-.503-.864zM0 6.737l-.503-.864-1.49.867 1.492.863L0 6.737zM11.576 0l.5-.866-.502-.29-.502.292.504.864zm9.452 4.895l-11.57 6.743 1.006 1.728 11.57-6.743-1.006-1.728zm-10.566 6.741L.5 5.872l-1.002 1.73 9.96 5.765 1.002-1.73zM.502 7.602L12.079.864 11.072-.864-.502 5.873.503 7.602zM11.075.866l9.955 5.76 1.002-1.732-9.956-5.76L11.075.866z"/><path id="ac" d="M21.531 5.754L9.955 12.497 0 6.737 11.576 0l9.955 5.754z"/><path id="ad" d="M9.955 12.497l-.5.865.502.291.502-.292-.504-.864zM0 6.737l-.503-.864-1.49.867 1.492.863L0 6.737zM11.576 0l.5-.866-.502-.29-.502.292.504.864zm9.452 4.89L9.452 11.633l1.007 1.728 11.575-6.743-1.006-1.728zm-10.572 6.741L.501 5.871-.501 7.604l9.956 5.76 1.001-1.732zM.503 7.601L12.079.865 11.072-.864-.502 5.873.503 7.602zM11.075.867l9.956 5.754 1-1.731-9.955-5.755-1 1.732z"/><path id="ae" d="M21.531 5.76L9.955 12.496 0 6.742 11.576 0l9.955 5.76z"/><path id="af" d="M9.955 12.497l-.5.866.502.29.502-.292-.504-.864zM0 6.742l-.503-.864-1.49.868 1.493.862.5-.866zM11.576 0l.5-.866-.502-.29-.502.292.504.864zm9.452 4.895L9.452 11.633l1.007 1.728 11.575-6.737-1.006-1.729zm-10.572 6.736L.5 5.877l-1 1.731 9.955 5.755 1-1.732zM.503 7.607L12.08.864 11.072-.864-.503 5.878.503 7.607zM11.075.866l9.955 5.76 1.002-1.732-9.956-5.76L11.075.866z"/><path id="ag" d="M21.531 5.76L9.955 12.496 0 6.737 11.576 0l9.955 5.76z"/><path id="ah" d="M9.955 12.497l-.5.865.502.29.502-.291-.504-.864zM0 6.737l-.503-.864-1.49.867 1.492.863L0 6.737zM11.576 0l.5-.866-.502-.29-.502.292.504.864zm9.452 4.895L9.452 11.633l1.007 1.728 11.575-6.737-1.006-1.729zm-10.572 6.736L.501 5.871-.501 7.604l9.956 5.76 1.001-1.732zM.503 7.601L12.079.865 11.072-.864-.502 5.873.503 7.602zM11.075.867l9.955 5.76 1.002-1.732-9.956-5.76L11.075.866z"/><path id="ai" d="M21.536 5.754L9.961 12.497 0 6.737 11.58 0l9.956 5.754z"/><path id="aj" d="M9.96 12.497l-.5.866.502.29.502-.292-.503-.864zM0 6.737l-.503-.864-1.49.867 1.492.863L0 6.737zM11.58 0l.501-.866-.502-.29-.501.292.503.864zm9.453 4.89L9.457 11.633l1.007 1.728 11.575-6.743-1.006-1.728zM10.46 11.631L.5 5.871-.502 7.603l9.961 5.76 1.001-1.732zM.503 7.601L12.083.865 11.079-.864-.502 5.873.502 7.602zM11.08.867l9.956 5.754 1-1.731-9.955-5.755-1 1.732z"/><path id="ak" d="M120.539 68.595L2.504.336A2.5 2.5 0 0 0 0 .336l30.5 124.681 90.039-52.076a2.508 2.508 0 0 0 1.253-2.173c0-.897-.477-1.725-1.253-2.173z"/></defs></svg>