<svg width="276" height="1696" viewBox="0 0 276 1696" xmlns="http://www.w3.org/2000/svg" xmlns:xlink="http://www.w3.org/1999/xlink"><title>Path 8 Copy</title><desc>Created using Figma</desc><use xlink:href="#a" transform="matrix(1 0 0 -1 2 1695)" fill="#EBEFF1"/><defs><path id="a" d="M215.762 328.408v-1.5 1.5zm56.107 55.684l1.5-.001-1.5.001zm.014 40.306h-1.5 1.5zM0 589.659h1.5H0zm55.973 55.758l.005-1.5-.005 1.5zm159.923 0l.005 1.5-.005-1.5zM0 899.508h1.5H0zm271.869 120.522h1.5-1.5zm.014 40.31h1.5-1.5zM0 1225.6h1.5H0zm55.973 55.76l.005-1.5-.005 1.5zm159.923 0l.005 1.5-.005-1.5zM0 1695h1.5v-1.99h-3v1.99H0zm1.5-5.95V1685h-3v4.05h3zm0-8.08v-4.02h-3v4.02h3zm0-8.07v-4.07h-3v4.07h3zm0-8.05v-4.05h-3v4.05h3zm0-8.08v-4.02h-3v4.02h3zm0-8.08v-4h-3v4h3zm0-8.07v-3.99h-3v3.99h3zm0-8.05v-4h-3v4h3zm0-8.06v-4h-3v4h3zm0-8.05v-4.02h-3v4.02h3zm0-8.06v-4.02h-3v4.02h3zm0-8.05v-4.03h-3v4.03h3zm0-8.06v-4.03h-3v4.03h3zm0-8.06v-4.03h-3v4.03h3zm0-8.07v-4.02h-3v4.02h3zm0-8.06v-4.01h-3v4.01h3zm0-8.06v-4.02h-3v4.02h3zm0-8.06v-4.02h-3v4.02h3zm0-8.06v-4.02h-3v4.02h3zm0-8.07v-4h-3v4h3zm0-8.06v-3.99h-3v3.99h3zm0-8.06v-4h-3v4h3zm0-8.05v-4.05h-3v4.05h3zm0-8.03v-4.06h-3v4.06h3zm0-8.12v-4.03h-3v4.03h3zm0-5.96c0-.67.008-1.33.024-1.99l-2.999-.07c-.016.67-.025 1.37-.025 2.06h3zm.222-5.92c.103-1.35.238-2.63.41-3.91l-2.973-.4a72.367 72.367 0 0 0-.428 4.08l2.99.23zm1.05-7.77c.26-1.32.554-2.58.89-3.83l-2.897-.78c-.349 1.3-.665 2.65-.936 4.02l2.943.59zm2.04-7.57c.44-1.26.907-2.45 1.423-3.62l-2.748-1.21a53.117 53.117 0 0 0-1.507 3.85l2.833.98zm3.132-7.13a47.02 47.02 0 0 1 1.99-3.34l-2.51-1.64a48.092 48.092 0 0 0-2.12 3.56l2.64 1.42zm4.26-6.49c.816-1.04 1.648-2 2.536-2.95l-2.184-2.05a47.25 47.25 0 0 0-2.708 3.14l2.356 1.86zm5.323-5.66c.98-.87 1.968-1.68 3.01-2.46l-1.798-2.4c-1.092.82-2.18 1.71-3.209 2.62l1.997 2.24zm6.222-4.66c1.11-.7 2.222-1.34 3.383-1.94l-1.391-2.66c-1.21.63-2.425 1.33-3.587 2.06l1.595 2.54zm6.91-3.62a52.84 52.84 0 0 1 3.645-1.42l-.99-2.83c-1.29.45-2.588.95-3.843 1.49l1.188 2.76zm7.385-2.59a62.21 62.21 0 0 1 3.813-.92l-.612-2.94c-1.333.28-2.683.61-4 .97l.799 2.89zm7.68-1.6a64.43 64.43 0 0 1 3.906-.45l-.257-2.99a62.7 62.7 0 0 0-4.08.47l.431 2.97zm7.832-.68c.66-.01 1.309-.02 1.966-.02v-3c-.678 0-1.37.01-2.05.03l.084 2.99zm1.966-.02h1.962v-3h-1.962v3zm6.006 0h3.994v-3h-3.994v3zm8.005 0h4.02v-3h-4.02v3zm8.034 0h3.992v-3h-3.992v3zm7.995 0h4.015v-3h-4.015v3zm8.043 0h4v-3h-4v3zm8.004 0h4.02v-3h-4.02v3zm8.031 0h4.005v-3h-4.005v3zm8.021 0h4.01v-3h-4.01v3zm8.019 0h4.014v-3h-4.014v3zm8.023 0h4.012v-3h-4.012v3zm8.021 0h4.013v-3h-4.013v3zm8.025 0h4.002v-3h-4.002v3zm8.023 0h4.011v-3h-4.011v3zm8.008 0h4.026v-3h-4.026v3zm8.039 0h3.997v-3h-3.997v3zm8.013 0h4.023v-3h-4.023v3zm8.035 0h4v-3h-4v3zm7.994 0h4.01v-3h-4.01v3zm8.022 0h4.006v-3h-4.006v3zm8.054 0h1.959v-3h-1.959v3zm1.959 0c.691 0 1.394-.01 2.085-.03l-.091-3c-.668.02-1.325.03-1.994.03v3zm6.247-.29c1.378-.12 2.775-.29 4.141-.5l-.458-2.97c-1.319.21-2.623.37-3.955.49l.272 2.98zm8.244-1.27a62.2 62.2 0 0 0 4.048-1.04l-.841-2.88c-1.279.38-2.549.7-3.854.99l.647 2.93zm8.02-2.35a59.263 59.263 0 0 0 3.873-1.58l-1.237-2.74a53.649 53.649 0 0 1-3.674 1.51l1.038 2.81zm7.624-3.45a56.25 56.25 0 0 0 3.599-2.16l-1.64-2.51c-1.114.73-2.232 1.4-3.399 2.03l1.44 2.64zm7.02-4.59a52.891 52.891 0 0 0 3.212-2.71l-2.027-2.21c-.983.9-1.975 1.73-3.022 2.54l1.837 2.38zm6.19-5.68c.935-1.02 1.854-2.1 2.714-3.21l-2.371-1.84a45.448 45.448 0 0 1-2.549 3.02l2.206 2.03zm5.151-6.64c.747-1.15 1.47-2.37 2.137-3.61l-2.642-1.42a47.869 47.869 0 0 1-2.012 3.4l2.517 1.63zm3.978-7.38a57.997 57.997 0 0 0 1.537-3.9l-2.83-1a51.007 51.007 0 0 1-1.454 3.69l2.747 1.21zm2.782-7.89c.358-1.32.684-2.69.964-4.08l-2.94-.59c-.27 1.33-.572 2.61-.918 3.88l2.894.79zm1.661-8.19c.184-1.34.335-2.73.446-4.14l-2.991-.23a68.662 68.662 0 0 1-.427 3.96l2.972.41zm.661-8.28c.017-.69.026-1.4.026-2.1h-3c0 .68-.008 1.35-.025 2.02l2.999.08zm.026-2.1v-2.12l-3 .01v2.11h3zm-.001-6.21l-.003-4.16-3 .01.003 4.15h3zm-.01-8.28c-.004-1.93-.009-3.23-.015-4.12l-3 .02c.006.89.011 2.18.015 4.11l3-.01zm-.093-8.21c-.006-.87-.011-2.16-.016-4.11h-3c.005 1.96.01 3.26.016 4.13l3-.02zm-.022-8.23c-.001-1.22-.003-2.6-.003-4.15h-3c0 1.55.002 2.93.003 4.15h3zm-.004-8.25l-.001-2.12h-3l.001 2.12h3zm-.001-2.12c0-.69-.008-1.39-.025-2.07l-3 .08c.017.66.025 1.32.025 1.99h3zm-.237-6.17c-.11-1.38-.258-2.76-.44-4.09l-2.972.41c.176 1.28.315 2.57.421 3.92l2.991-.24zm-1.13-8.15a61.48 61.48 0 0 0-.959-4.03l-2.892.8c.343 1.24.644 2.5.911 3.82l2.94-.59zm-2.2-7.98a56.128 56.128 0 0 0-1.539-3.85l-2.74 1.23a49.012 49.012 0 0 1 1.452 3.63l2.827-1.01zm-3.387-7.57c-.671-1.22-1.4-2.42-2.151-3.55l-2.498 1.66a46.75 46.75 0 0 1 2.019 3.33l2.63-1.44zm-4.607-6.92a49.491 49.491 0 0 0-2.736-3.13l-2.171 2.07a44.45 44.45 0 0 1 2.564 2.94l2.343-1.88zm-5.737-6.01a48.273 48.273 0 0 0-3.233-2.61l-1.786 2.41c1.052.78 2.049 1.58 3.036 2.45l1.983-2.25zm-6.67-4.95a55.091 55.091 0 0 0-3.607-2.04l-1.378 2.66c1.169.6 2.287 1.24 3.403 1.93l1.582-2.55zm-7.356-3.81a64.56 64.56 0 0 0-3.861-1.48l-.978 2.83c1.249.43 2.454.9 3.663 1.41l1.176-2.76zm-7.812-2.69a68.138 68.138 0 0 0-4.015-.96l-.598 2.94c1.296.27 2.558.57 3.828.91l.785-2.89zm-8.079-1.65a79.932 79.932 0 0 0-4.094-.46l-.243 3c1.32.1 2.612.24 3.919.43l.418-2.97zm-8.205-.67c-.682-.02-1.375-.03-2.058-.02l.01 3c.662-.01 1.313 0 1.975.02l.073-3zm-2.058-.02h-1.952l.009 3h1.953l-.01-3zm-5.968.01c-1.27.01-2.606.01-4.006.01l.006 3c1.4 0 2.737 0 4.007-.01l-.007-3zm-8 .02c-1.29 0-2.621 0-3.991.01l.004 3c1.37-.01 2.702-.01 3.992-.01l-.005-3zm-7.986.01c-1.305 0-2.639.01-4.001.01l.003 3c1.362 0 2.697-.01 4.002-.01l-.004-3zm-8.012.01h-4.008l.003 3h4.008l-.003-3zm-7.991.01h-3.999l.002 3h3.999l-.002-3zm-8.011 0c-1.319 0-2.651 0-3.992.01l.001 3c1.342-.01 2.673-.01 3.993-.01l-.002-3zm-7.988.01h-4.006l.001 3h4.006l-.001-3zm-8.003 0h-3.997v3h3.998l-.001-3zm-8.001 0h-3.997v3h3.998l-.001-3zm-7.997 0h-3.999v3h3.999v-3zm-7.999 0h-4.001l-.001 3h4.002v-3zm-7.995 0h-4.005v3h4.005v-3zm-8.006 0h-3.989l-.001 3h3.989l.001-3zm-7.997-.01h-4.005l-.001 3h4.004l.002-3zm-7.995 0h-3.996l-.003 3h3.998l.001-3zm-8.009-.01h-4.001l-.003 3h4.001l.003-3zm-7.991 0c-1.358-.01-2.686-.01-3.981-.01l-.004 3c1.296 0 2.624 0 3.981.01l.004-3zm-7.988-.01c-1.38-.01-2.717-.01-4.006-.01l-.005 3c1.289 0 2.626 0 4.007.01l.004-3zm-8.004-.02c-1.403 0-2.732 0-3.981-.01l-.007 3c1.25.01 2.58.01 3.982.01l.006-3zm-8.015-.02h-1.957l-.01 3h1.958l.009-3zm-1.957 0c-.66-.01-1.312-.02-1.976-.04l-.099 3c.686.02 1.382.03 2.065.04l.01-3zm-5.921-.29a65.005 65.005 0 0 1-3.923-.48l-.457 2.97c1.357.2 2.74.37 4.103.5l.277-2.99zm-7.806-1.2c-1.293-.28-2.554-.6-3.826-.97l-.828 2.89c1.32.38 2.675.72 4.014 1.01l.64-2.93zm-7.576-2.18a53.492 53.492 0 0 1-3.654-1.47l-1.215 2.75c1.257.55 2.558 1.08 3.85 1.54l1.019-2.82zm-7.19-3.19a50.106 50.106 0 0 1-3.391-1.98l-1.611 2.53c1.163.74 2.378 1.45 3.59 2.1l1.412-2.65zm-6.614-4.21a46.997 46.997 0 0 1-3.026-2.49l-1.999 2.24a53.03 53.03 0 0 0 3.217 2.64l1.808-2.39zm-5.833-5.22a45.086 45.086 0 0 1-2.562-2.96l-2.348 1.87a50.43 50.43 0 0 0 2.729 3.15l2.18-2.06zm-4.865-6.12a47.454 47.454 0 0 1-2.025-3.35l-2.63 1.44a50.405 50.405 0 0 0 2.156 3.57l2.499-1.66zm-3.773-6.86a51.778 51.778 0 0 1-1.463-3.64l-2.824 1.01c.472 1.32.996 2.62 1.549 3.85l2.738-1.22zm-2.65-7.39a55.718 55.718 0 0 1-.923-3.84l-2.939.61c.282 1.37.61 2.73.971 4.03l2.89-.8zm-1.59-7.72c-.179-1.29-.32-2.58-.428-3.93l-2.99.24c.111 1.39.262 2.77.447 4.1l2.972-.41zm-.635-7.88c-.017-.66-.025-1.32-.025-2h-3c0 .7.009 1.39.026 2.08l3-.08zm-.025-2v-2.07h-3v2.07h3zm.001-6.18l.003-4.12h-3l-.003 4.12h3zm.006-8.23l.002-4.12h-3l-.002 4.12h3zm.003-8.23v-4.12h-3v4.12h3zm0-8.24l-.002-4.13-3 .01.001 4.12h3zm-.003-8.22l-.002-4.14h-3l.002 4.14h3zm-.004-8.24l-.002-4.11h-3l.002 4.11h3zm-.003-6.2c0-.68.008-1.34.024-2l-2.999-.08c-.017.68-.025 1.38-.025 2.08h3zm.227-5.96c.105-1.35.245-2.65.422-3.94l-2.973-.4a71.809 71.809 0 0 0-.44 4.1l2.99.24zm1.08-7.83c.268-1.33.569-2.59.913-3.85l-2.893-.79a61.91 61.91 0 0 0-.96 4.04l2.94.6zm2.09-7.6a48.48 48.48 0 0 1 1.452-3.65l-2.742-1.22a54.78 54.78 0 0 0-1.537 3.86l2.828 1.01zm3.192-7.18a45.146 45.146 0 0 1 2.017-3.35l-2.504-1.66a50.493 50.493 0 0 0-2.147 3.58l2.634 1.43zm4.314-6.53a45.145 45.145 0 0 1 2.559-2.97l-2.185-2.05c-.938.99-1.863 2.06-2.727 3.16l2.353 1.86zm5.366-5.7c.985-.89 1.98-1.7 3.027-2.5l-1.808-2.39a52.996 52.996 0 0 0-3.22 2.65l2 2.24zm6.255-4.73a50.146 50.146 0 0 1 3.398-1.98l-1.409-2.65a56.371 56.371 0 0 0-3.598 2.09l1.609 2.54zm6.94-3.7a59.405 59.405 0 0 1 3.663-1.46l-1.011-2.82a54.53 54.53 0 0 0-3.86 1.54l1.208 2.74zm7.422-2.66a62.93 62.93 0 0 1 3.835-.95l-.63-2.94c-1.343.29-2.7.63-4.023 1.01l.818 2.88zm7.725-1.66c1.314-.2 2.61-.35 3.93-.47l-.265-2.99c-1.365.12-2.751.29-4.11.49l.445 2.97zm7.883-.7c.664-.02 1.317-.03 1.98-.03v-3c-.685 0-1.382.01-2.068.03l.088 3zm1.98-.03h1.954v-3h-1.955v3zm5.993 0h3.982v-3h-3.982v3zm7.981 0h4.01v-3h-4.01v3zm8.003 0h3.983v-3h-3.983v3zm7.977 0h4.006v-3H85.93v3zm8.024 0h3.983v-3h-3.983v3zm7.979 0h4.01v-3h-4.009l-.001 3zm8.006 0h3.995l.001-3h-3.995l-.001 3zm8.001.01h3.997l.001-3h-3.997l-.001 3zm7.996 0h4.002l.001-3h-4.003v3zm8 0h4.001v-3h-4.001v3zm7.998 0h4.002l.001-3h-4.002l-.001 3zm8.003 0h3.992v-3h-3.992v3zm8 0h4v-3h-3.999l-.001 3zm7.986 0h4.014l.001-3h-4.014l-.001 3zm8.016 0h3.985l.001-3h-3.985l-.001 3zm7.991.01h4.012v-3h-4.011l-.001 3zm8.011 0h3.989l.001-3h-3.989l-.001 3zm7.972 0h3.999v-3h-3.999v3zm7.999 0h3.996v-3h-3.995l-.001 3zm8.033 0h1.953v-3h-1.953v3zm1.953 0c.688 0 1.386-.01 2.074-.03l-.084-3c-.666.02-1.323.03-1.99.03v3zm6.216-.26c1.373-.12 2.764-.28 4.124-.48l-.429-2.96c-1.317.19-2.619.34-3.949.45l.254 2.99zm8.217-1.2a68.73 68.73 0 0 0 4.043-.97l-.8-2.9c-1.279.36-2.549.67-3.854.94l.611 2.93zm8.018-2.22c1.305-.46 2.617-.97 3.882-1.52l-1.196-2.76a53.042 53.042 0 0 1-3.681 1.45l.995 2.83zm7.647-3.33a56.14 56.14 0 0 0 3.618-2.1l-1.607-2.53c-1.119.71-2.24 1.36-3.412 1.98l1.401 2.65zm7.058-4.49c1.1-.83 2.194-1.73 3.229-2.67l-2.009-2.22a43.46 43.46 0 0 1-3.032 2.5l1.812 2.39zm6.219-5.61c.936-1 1.858-2.08 2.718-3.19l-2.366-1.84a44.87 44.87 0 0 1-2.548 2.99l2.196 2.04zm5.151-6.61a48.327 48.327 0 0 0 2.125-3.6l-2.646-1.41a45.157 45.157 0 0 1-1.996 3.38l2.517 1.63zm3.948-7.37c.54-1.25 1.052-2.56 1.512-3.89l-2.835-.98a51.318 51.318 0 0 1-1.429 3.67l2.752 1.2zm2.731-7.87c.35-1.31.668-2.68.941-4.07l-2.944-.58a57.132 57.132 0 0 1-.895 3.87l2.898.78zm1.616-8.16c.179-1.34.324-2.73.432-4.12l-2.991-.23a70.227 70.227 0 0 1-.414 3.95l2.973.4zm.64-8.26c.017-.68.026-1.38.026-2.08h-3c0 .68-.009 1.34-.025 2.01l2.999.07zm.026-2.08l.001-2.07h-3l-.001 2.07h3zm.002-6.08l.002-4.04h-3l-.002 4.04h3zm.004-8.06l.003-4.02h-3l-.003 4.02h3zm-.001-8.02l-.005-4h-3l.005 4.01 3-.01zm-.009-8.03l-.004-4.04h-3l.004 4.04h3zm-.008-8.05l-.002-2.07h-3l.002 2.07h3zm-.002-2.07c0-.7-.009-1.4-.027-2.08l-2.999.08c.017.66.026 1.32.026 2h3zm-.239-6.21a74.013 74.013 0 0 0-.437-4.11l-2.973.4c.175 1.29.314 2.59.419 3.95l2.991-.24zm-1.121-8.2a63.076 63.076 0 0 0-.95-4.06l-2.896.79c.341 1.25.639 2.52.904 3.85l2.942-.58zm-2.181-8.035a54.946 54.946 0 0 0-1.527-3.878l-2.747 1.207a50.08 50.08 0 0 1 1.442 3.663l2.832-.992zm-3.364-7.636a50.095 50.095 0 0 0-2.14-3.588l-2.509 1.646a44.901 44.901 0 0 1 2.01 3.369l2.639-1.427zm-4.589-6.99a48.551 48.551 0 0 0-2.732-3.169l-2.184 2.057a43.91 43.91 0 0 1 2.56 2.97l2.356-1.858zm-5.735-6.09a49.331 49.331 0 0 0-3.238-2.648l-1.799 2.401a45.474 45.474 0 0 1 3.041 2.486l1.996-2.239zm-6.685-5.014a53.858 53.858 0 0 0-3.622-2.076l-1.389 2.659a49.277 49.277 0 0 1 3.416 1.959l1.595-2.542zm-7.389-3.865a58.957 58.957 0 0 0-3.881-1.506l-.986 2.833c1.255.437 2.467.906 3.682 1.429l1.185-2.756zm-7.854-2.738a64.964 64.964 0 0 0-4.038-.967l-.606 2.938c1.305.269 2.574.572 3.852.922l.792-2.893zm-8.126-1.679a70.836 70.836 0 0 0-4.118-.467l-.251 2.99c1.328.111 2.629.258 3.944.446l.425-2.969zm-8.254-.697a79.316 79.316 0 0 0-2.07-.028v3c.666 0 1.322.009 1.988.027l.082-2.999zm-2.07-.028h-1.95l.001 3h1.949v-3zm-5.977.002l-3.99.003.003 3 3.989-.003-.002-3zm-7.982.007l-3.989.004.003 3 3.989-.004-.003-3zm-7.964.008l-3.98.005.003 3 3.981-.005-.004-3zm-7.972.01l-4.002.005.004 3 4.002-.005-.004-3zm-8 .011l-3.977.005.004 3 3.977-.005-.004-3zm-7.97.011l-4.004.006.004 3 4.005-.006-.005-3zm-7.983.012l-3.991.005.004 3 3.991-.005-.004-3zm-7.991.011l-3.984.006.005 3 3.984-.006-.005-3zm-7.976.012l-3.994.006.005 3 3.994-.006-.005-3zm-7.982.013l-3.992.006.004 3 3.992-.006-.004-3zm-7.981.012l-3.994.006.004 3 3.994-.006-.004-3zm-7.985.012l-3.987.006.005 3 3.987-.006-.005-3zm-7.985.012l-3.988.006.004 3 3.989-.006-.005-3zm-7.972.011l-4.003.006.004 3 4.003-.006-.004-3zm-7.993.012l-3.972.005.004 3 3.972-.005-.004-3zm-7.98.011l-3.999.005.004 3 4-.005-.004-3zm-7.987.01l-3.978.005.004 3 3.978-.005-.004-3zm-7.951.01l-4 .004.002 3 4.001-.004-.003-3zm-7.992.008l-3.978.003.002 3 3.979-.003-.003-3zm-8.009.004l-1.95.001v3l1.95-.001v-3zm-1.95.001c-.666 0-1.322-.009-1.99-.028l-.083 2.999c.688.019 1.386.029 2.073.029v-3zm-5.959-.253a64.37 64.37 0 0 1-3.943-.462l-.441 2.968c1.363.202 2.755.364 4.127.483l.258-2.989zm-7.844-1.172a56.07 56.07 0 0 1-3.837-.969l-.837 2.88a59.99 59.99 0 0 0 4.04 1.022l.634-2.933zm-7.588-2.21a49.9 49.9 0 0 1-3.64-1.52l-1.265 2.72a54.023 54.023 0 0 0 3.857 1.611l1.048-2.811zm-7.142-3.324a45.878 45.878 0 0 1-3.334-2.088l-1.7 2.473a50.26 50.26 0 0 0 3.551 2.223l1.483-2.608zm-6.475-4.453a44.201 44.201 0 0 1-2.922-2.628l-2.102 2.141a48.631 48.631 0 0 0 3.117 2.803l1.907-2.316zm-5.608-5.501a46.328 46.328 0 0 1-2.435-3.095l-2.432 1.757a50.997 50.997 0 0 0 2.59 3.291l2.277-1.953zm-4.61-6.377a52.053 52.053 0 0 1-1.923-3.455l-2.674 1.361a56.352 56.352 0 0 0 2.033 3.651l2.564-1.557zm-3.593-7.044a61.223 61.223 0 0 1-1.426-3.693l-2.831.991a64.962 64.962 0 0 0 1.495 3.873l2.762-1.171zm-2.625-7.479a72.958 72.958 0 0 1-.986-3.858l-2.926.666c.312 1.369.658 2.72 1.027 4.014l2.885-.822zm-1.774-7.769a88.018 88.018 0 0 1-.602-3.949l-2.975.387c.18 1.388.39 2.76.623 4.083l2.954-.521zm-1.035-7.926a105.947 105.947 0 0 1-.277-3.994l-2.996.152c.07 1.393.166 2.771.284 4.107l2.989-.265zm-.41-8.001c-.012-.672-.017-1.345-.017-2.031h-3c0 .698.006 1.396.017 2.08l3-.049zm-.017-2.031v-2.005h-3v2.005h3zm0-4.024v-3.954h-3v3.954h3zm0-7.915v-3.973h-3v3.973h3zm0-7.92v-3.967h-3v3.967h3zm0-7.93v-3.959h-3v3.959h3zm0-5.997c0-.683.006-1.352.019-2.021l-3-.057c-.012.684-.019 1.381-.019 2.078h3zm.172-6.007c.08-1.356.184-2.669.316-3.971l-2.985-.301a97.825 97.825 0 0 0-.326 4.097l2.995.175zm.804-7.921c.197-1.343.42-2.638.672-3.92l-2.943-.58a85.635 85.635 0 0 0-.697 4.064l2.968.436zm1.54-7.799a71.5 71.5 0 0 1 1.072-3.823l-2.865-.89a75.821 75.821 0 0 0-1.117 3.982l2.91.731zm2.357-7.573a63.632 63.632 0 0 1 1.505-3.662l-2.737-1.226a67.843 67.843 0 0 0-1.576 3.832l2.808 1.056zm3.235-7.215a58.521 58.521 0 0 1 1.955-3.425l-2.554-1.574a62.658 62.658 0 0 0-2.054 3.599l2.653 1.4zm4.142-6.715a54.806 54.806 0 0 1 2.41-3.126l-2.309-1.915a59.639 59.639 0 0 0-2.54 3.294l2.44 1.747zm5.032-6.067a53.937 53.937 0 0 1 2.83-2.747l-2.011-2.226a57.876 57.876 0 0 0-2.985 2.898l2.166 2.075zm5.85-5.281a53.646 53.646 0 0 1 3.194-2.307l-1.668-2.493a58.064 58.064 0 0 0-3.37 2.433l1.844 2.367zm6.55-4.38a53.633 53.633 0 0 1 3.494-1.823l-1.29-2.708a57.984 57.984 0 0 0-3.687 1.924l1.484 2.607zm7.112-3.391a53.11 53.11 0 0 1 3.723-1.299l-.883-2.867a57.387 57.387 0 0 0-3.932 1.372l1.092 2.794zm7.524-2.314a47.56 47.56 0 0 1 3.86-.713l-.423-2.97a51.844 51.844 0 0 0-4.099.757l.662 2.926zm7.757-1.092c.67-.034 1.306-.051 1.947-.05v-3c-.679 0-1.392.018-2.1.054l.153 2.996zm1.947-.05h1.962v-3h-1.962v3zm6.006 0h3.994v-3h-3.994v3zm8.005 0h4.02v-3h-4.02v3zm8.034 0h3.992v-3h-3.992v3zm7.995 0h4.015v-3h-4.015v3zm8.043 0h4v-3h-4v3zm8.004 0h4.02v-3h-4.02v3zm8.031 0h4.005v-3h-4.005v3zm8.021 0h4.01v-3h-4.01v3zm8.019 0h4.014v-3h-4.014v3zm8.023 0h4.012v-3h-4.012v3zm8.021 0h4.013v-3h-4.013v3zm8.025 0h4.002v-3h-4.002v3zm8.023 0h4.011v-3h-4.011v3zm8.008 0h4.026v-3h-4.026v3zm8.039 0h3.997v-3h-3.997v3zm8.013 0h4.023v-3h-4.023v3zm8.035 0h4v-3h-4v3zm7.994 0h4.01v-3h-4.01v3zm8.022 0h4.006v-3h-4.006v3zm8.054 0h1.959v-3h-1.959v3zm1.959 0c.691 0 1.394-.011 2.085-.032l-.091-2.998c-.668.02-1.325.03-1.994.03v3zm6.247-.283a67.616 67.616 0 0 0 4.141-.508l-.458-2.965a63.047 63.047 0 0 1-3.955.485l.272 2.988zm8.244-1.276c1.354-.3 2.72-.649 4.048-1.036l-.841-2.88a58.786 58.786 0 0 1-3.854.986l.647 2.93zm8.02-2.345a58.252 58.252 0 0 0 3.873-1.588l-1.237-2.733a54.119 54.119 0 0 1-3.674 1.506l1.038 2.815zm7.624-3.458a54.38 54.38 0 0 0 3.599-2.154l-1.64-2.512a50.096 50.096 0 0 1-3.399 2.034l1.44 2.632zm7.02-4.589a50.768 50.768 0 0 0 3.212-2.708l-2.027-2.211a47.342 47.342 0 0 1-3.022 2.548l1.837 2.371zm6.19-5.678a50.445 50.445 0 0 0 2.714-3.207l-2.371-1.84a45.335 45.335 0 0 1-2.549 3.014l2.206 2.033zm5.151-6.638a51.86 51.86 0 0 0 2.137-3.61l-2.642-1.421a47.161 47.161 0 0 1-2.012 3.398l2.517 1.633zm3.978-7.385a56.082 56.082 0 0 0 1.537-3.897l-2.83-.996a51.454 51.454 0 0 1-1.454 3.686l2.747 1.207zm2.782-7.89c.358-1.314.684-2.687.964-4.071l-2.94-.594a58.99 58.99 0 0 1-.918 3.875l2.894.79zm1.661-8.186c.184-1.341.335-2.733.446-4.134l-2.991-.237a68.733 68.733 0 0 1-.427 3.962l2.972.409zm.661-8.284c.017-.688.026-1.392.026-2.093h-3c0 .682-.008 1.348-.025 2.017l2.999.076zm.026-2.093v-2.118l-3 .001v2.117h3zm-.001-6.215l-.003-4.155-3 .003.003 4.153 3-.001zm-.01-8.278a945.53 945.53 0 0 0-.015-4.118l-3 .021c.006.886.011 2.181.015 4.104l3-.007zm-.093-8.21c-.006-.871-.011-2.161-.016-4.111l-3 .006c.005 1.953.01 3.251.016 4.126l3-.021zm-.022-8.228c-.001-1.226-.003-2.604-.003-4.155l-3 .001c0 1.552.002 2.931.003 4.157l3-.003zm-.004-8.25l-.001-2.117h-3l.001 2.117h3zm-.001-2.117c0-.694-.008-1.39-.025-2.07l-3 .076c.017.661.025 1.319.025 1.994h3zm-.237-6.173a72.012 72.012 0 0 0-.44-4.087l-2.972.409c.176 1.28.315 2.571.421 3.914l2.991-.236zm-1.13-8.155a60.933 60.933 0 0 0-.959-4.027l-2.892.796c.343 1.248.644 2.507.911 3.827l2.94-.596zm-2.2-7.974a53.544 53.544 0 0 0-1.539-3.848l-2.74 1.222a49.063 49.063 0 0 1 1.452 3.632l2.827-1.006zm-3.387-7.572a50.227 50.227 0 0 0-2.151-3.553l-2.498 1.662a45.552 45.552 0 0 1 2.019 3.335l2.63-1.444zm-4.607-6.916a48.17 48.17 0 0 0-2.736-3.132l-2.171 2.071a44.086 44.086 0 0 1 2.564 2.934l2.343-1.873zm-5.737-6.016a49.597 49.597 0 0 0-3.233-2.612l-1.786 2.41a45.51 45.51 0 0 1 3.036 2.453l1.983-2.251zm-6.67-4.945a53.832 53.832 0 0 0-3.607-2.047l-1.378 2.664a49.307 49.307 0 0 1 3.403 1.932l1.582-2.549zm-7.356-3.811a58.991 58.991 0 0 0-3.861-1.484l-.978 2.836c1.249.43 2.454.893 3.663 1.408l1.176-2.76zm-7.812-2.697a65.036 65.036 0 0 0-4.015-.95l-.598 2.939c1.296.264 2.558.562 3.828.907l.785-2.896zm-8.079-1.648a70.942 70.942 0 0 0-4.094-.452l-.243 2.99c1.32.107 2.612.249 3.919.433l.418-2.971zm-8.205-.669a78.404 78.404 0 0 0-2.058-.021l.01 3c.662-.003 1.313.004 1.975.02l.073-2.999zm-2.058-.021l-1.952.006.009 3 1.953-.006-.01-3zm-5.968.017l-4.006.008.006 3 4.007-.008-.007-3zm-8 .016l-3.991.006.004 3 3.992-.006-.005-3zm-7.986.012l-4.001.004.003 3 4.002-.004-.004-3zm-8.012.009l-4.008.003.003 3 4.008-.003-.003-3zm-7.991.007l-3.999.002.002 3 3.999-.002-.002-3zm-8.011.005l-3.992.002.001 3 3.993-.002-.002-3zm-7.988.004l-4.006.001.001 3 4.006-.001-.001-3zm-8.003.003l-3.997.001v3l3.998-.001-.001-3zm-8.001.001l-3.997.001v3l3.998-.001-.001-3zm-7.997.001h-3.999v3h3.999v-3zm-7.999 0l-4.001-.001-.001 3 4.002.001v-3zm-7.995-.002l-4.005-.001v3l4.005.001v-3zm-8.006-.002l-3.989-.002-.001 3 3.989.002.001-3zm-7.997-.004l-4.005-.002-.001 3 4.004.002.002-3zm-7.995-.004l-3.996-.003-.003 3 3.998.003.001-3zm-8.009-.007l-4.001-.003-.003 3 4.001.003.003-3zm-7.991-.007l-3.981-.005-.004 3 3.981.005.004-3zm-7.988-.01l-4.006-.007-.005 3 4.007.007.004-3zm-8.004-.014l-3.981-.008-.007 3 3.982.008.006-3zm-8.015-.019l-1.957-.006-.01 3 1.958.006.009-3zm-1.957-.006a65.238 65.238 0 0 1-1.976-.036l-.099 2.998c.686.023 1.382.035 2.065.038l.01-3zm-5.921-.284a65.02 65.02 0 0 1-3.923-.483l-.457 2.965c1.357.209 2.74.379 4.103.505l.277-2.987zm-7.806-1.205a60.695 60.695 0 0 1-3.826-.965l-.828 2.884c1.32.378 2.675.719 4.014 1.012l.64-2.931zm-7.576-2.178a55.605 55.605 0 0 1-3.654-1.466l-1.215 2.744a59.596 59.596 0 0 0 3.85 1.543l1.019-2.821zm-7.19-3.187a50.531 50.531 0 0 1-3.391-1.98l-1.611 2.531a54.912 54.912 0 0 0 3.59 2.095l1.412-2.646zm-6.614-4.216a46.949 46.949 0 0 1-3.026-2.487l-1.999 2.237a51.486 51.486 0 0 0 3.217 2.644l1.808-2.394zm-5.833-5.218a45.253 45.253 0 0 1-2.562-2.955l-2.348 1.866a49.416 49.416 0 0 0 2.729 3.149l2.18-2.06zm-4.865-6.123a46.055 46.055 0 0 1-2.025-3.347l-2.63 1.445a50.429 50.429 0 0 0 2.156 3.561l2.499-1.659zM6.4 614.645a50 50 0 0 1-1.463-3.637l-2.824 1.011a54.341 54.341 0 0 0 1.549 3.853l2.738-1.227zm-2.65-7.384a56.914 56.914 0 0 1-.923-3.837l-2.939.602c.282 1.374.61 2.736.971 4.037l2.89-.802zm-1.59-7.725a66.524 66.524 0 0 1-.428-3.924l-2.99.239c.111 1.39.262 2.771.447 4.099l2.972-.414zm-.635-7.877a77.458 77.458 0 0 1-.025-2h-3c0 .696.009 1.395.026 2.077l3-.077zm-.025-2v-2.069h-3v2.069h3zm.001-6.178l.003-4.117-3-.002-.003 4.118 3 .001zm.006-8.231l.002-4.118-3-.001-.002 4.118 3 .001zm.003-8.231v-4.121l-3 .001v4.119l3 .001zm0-8.236l-.002-4.129-3 .001.001 4.129 3-.001zm-.003-8.225l-.002-4.139-3 .001.002 4.139 3-.001zm-.004-8.24l-.002-4.111-3 .002.002 4.11 3-.001zm-.003-6.199c0-.678.008-1.34.024-2.003l-2.999-.075a82.91 82.91 0 0 0-.025 2.08l3-.002zm.227-5.963c.105-1.35.245-2.646.422-3.933l-2.973-.408a71.732 71.732 0 0 0-.44 4.106l2.99.235zm1.08-7.827c.268-1.327.569-2.592.913-3.846l-2.893-.794a61.757 61.757 0 0 0-.96 4.045l2.94.595zm2.09-7.604a50.308 50.308 0 0 1 1.452-3.646l-2.742-1.217a54.433 54.433 0 0 0-1.537 3.861l2.828 1.002zm3.192-7.172a45.948 45.948 0 0 1 2.017-3.358l-2.504-1.652a50.133 50.133 0 0 0-2.147 3.574l2.634 1.436zm4.314-6.536a45.032 45.032 0 0 1 2.559-2.964l-2.185-2.056a49.236 49.236 0 0 0-2.727 3.16l2.353 1.86zm5.366-5.702a46.583 46.583 0 0 1 3.027-2.491l-1.808-2.393a50.167 50.167 0 0 0-3.22 2.65l2 2.234zm6.255-4.729a50.107 50.107 0 0 1 3.398-1.977l-1.409-2.649a54.56 54.56 0 0 0-3.598 2.094l1.609 2.532zm6.94-3.694a55.146 55.146 0 0 1 3.663-1.458l-1.011-2.824a59.742 59.742 0 0 0-3.86 1.536l1.208 2.746zm7.422-2.661a60.154 60.154 0 0 1 3.835-.953l-.63-2.933c-1.343.288-2.7.625-4.023 1l.818 2.886zm7.725-1.662a64.397 64.397 0 0 1 3.93-.469l-.265-2.988a68.715 68.715 0 0 0-4.11.49l.445 2.967zm7.883-.703a68.855 68.855 0 0 1 1.98-.029v-3c-.685 0-1.382.011-2.068.031l.088 2.998zm1.98-.029h1.954v-3h-1.955v3zm5.993.001h3.982v-3h-3.982v3zm7.981 0l4.01.001v-3l-4.01-.001v3zm8.003.001l3.983.001v-3l-3.983-.001v3zm7.977.001l4.006.001v-3l-4.005-.001v3zm8.024.001l3.983.001v-3l-3.983-.001v3zm7.979.002h4.01v-3h-4.009l-.001 3zm8.006.001h3.995l.001-3h-3.995l-.001 3zm8.001.001l3.997.001.001-3-3.997-.001-.001 3zm7.996.001l4.002.001.001-3-4.003-.001v3zm8 .002h4.001v-3h-4.001v3zm7.998.001l4.002.001.001-3-4.002-.001-.001 3zm8.003.001l3.992.001v-3l-3.992-.001v3zm8 .001l4 .001v-3l-3.999-.001-.001 3zm7.986.002h4.014l.001-3h-4.014l-.001 3zm8.016.001h3.985l.001-3h-3.985l-.001 3zm7.991.001l4.012.001v-3l-4.011-.001-.001 3zm8.011.001l3.989.001.001-3-3.989-.001-.001 3zm7.972.001h3.999v-3h-3.999v3zm7.999.001h3.996v-3h-3.995l-.001 3zm8.033 0h1.953v-3h-1.953v3zm1.953 0c.688 0 1.386-.009 2.074-.028l-.084-2.999c-.666.018-1.323.027-1.99.027v3zm6.216-.261a70.96 70.96 0 0 0 4.124-.473l-.429-2.969c-1.317.191-2.619.34-3.949.453l.254 2.989zm8.217-1.194a64.312 64.312 0 0 0 4.043-.978l-.8-2.891a60.402 60.402 0 0 1-3.854.932l.611 2.937zm8.018-2.225a58.379 58.379 0 0 0 3.882-1.523l-1.196-2.751a54.008 54.008 0 0 1-3.681 1.444l.995 2.83zm7.647-3.33a53.86 53.86 0 0 0 3.618-2.097l-1.607-2.534a49.253 49.253 0 0 1-3.412 1.978l1.401 2.653zm7.058-4.484a50.044 50.044 0 0 0 3.229-2.669l-2.009-2.228a45.626 45.626 0 0 1-3.032 2.506l1.812 2.391zm6.219-5.612a48.484 48.484 0 0 0 2.718-3.189l-2.366-1.844a44.35 44.35 0 0 1-2.548 2.989l2.196 2.044zm5.151-6.607a50.322 50.322 0 0 0 2.125-3.604l-2.646-1.414a45.468 45.468 0 0 1-1.996 3.385l2.517 1.633zm3.948-7.376a55.45 55.45 0 0 0 1.512-3.888l-2.835-.981a51.213 51.213 0 0 1-1.429 3.673l2.752 1.196zm2.731-7.874c.35-1.31.668-2.68.941-4.063l-2.944-.58a58.068 58.068 0 0 1-.895 3.868l2.898.775zm1.616-8.16c.179-1.334.324-2.721.432-4.118l-2.991-.23a69.934 69.934 0 0 1-.414 3.95l2.973.398zm.64-8.251c.017-.685.026-1.386.026-2.085l-3-.001c0 .68-.009 1.345-.025 2.011l2.999.075zm.026-2.085l.001-2.071-3-.001-.001 2.071 3 .001zm.002-6.077l.002-4.041-3-.001-.002 4.041 3 .001zm.004-8.065l.003-4.019-3-.003-.003 4.02 3 .002zm-.001-8.015l-.005-4.007-3 .003.005 4.009 3-.005zm-.009-8.032l-.004-4.044-3 .003.004 4.044 3-.003zm-.008-8.049l-.002-2.07-3 .003.002 2.07 3-.003zm-.002-2.07c0-.698-.009-1.398-.027-2.082l-2.999.076c.017.666.026 1.329.026 2.009l3-.003zm-.239-6.21a73.782 73.782 0 0 0-.437-4.112l-2.973.403c.175 1.29.314 2.59.419 3.943l2.991-.234zm-1.121-8.204a62.454 62.454 0 0 0-.95-4.055l-2.896.784c.341 1.258.639 2.527.904 3.858l2.942-.587zm-2.181-8.032a54.946 54.946 0 0 0-1.527-3.878l-2.747 1.207c.523 1.19.998 2.392 1.442 3.662l2.832-.991zm-3.364-7.637a50.073 50.073 0 0 0-2.14-3.587l-2.509 1.645a45.307 45.307 0 0 1 2.01 3.369l2.639-1.427zm-4.589-6.989a48.551 48.551 0 0 0-2.732-3.169l-2.184 2.056a44.405 44.405 0 0 1 2.56 2.97l2.356-1.857zm-5.735-6.091a49.656 49.656 0 0 0-3.238-2.648l-1.799 2.401a45.787 45.787 0 0 1 3.041 2.486l1.996-2.239zm-6.685-5.013a53.428 53.428 0 0 0-3.622-2.076l-1.389 2.659a49.265 49.265 0 0 1 3.416 1.958l1.595-2.541zm-7.389-3.865a59.532 59.532 0 0 0-3.881-1.507l-.986 2.834a54.42 54.42 0 0 1 3.682 1.429l1.185-2.756zm-7.854-2.739a66.423 66.423 0 0 0-4.038-.967l-.606 2.939a60.8 60.8 0 0 1 3.852.922l.792-2.894zm-8.126-1.679a71.714 71.714 0 0 0-4.118-.466l-.251 2.989c1.328.112 2.629.259 3.944.447l.425-2.97zm-8.254-.696a75.144 75.144 0 0 0-2.07-.028v3c.666 0 1.322.009 1.988.027l.082-2.999zm-2.07-.028h-1.952l.001 3h1.951v-3zm-5.979.002l-3.985.003.002 3 3.985-.003-.002-3zm-7.976.007l-3.999.004.003 3 3.999-.004-.003-3zm-7.974.008l-3.978.005.003 3 3.979-.005-.004-3zm-7.966.01l-3.998.006.004 3 3.998-.006-.004-3zm-8.006.011l-3.975.006.004 3 3.976-.006-.005-3zm-7.962.012l-4 .006.005 3 3.999-.006-.004-3zm-7.99.012l-3.985.006.004 3 3.985-.006-.004-3zm-7.981.012l-3.992.006.005 3 3.991-.006-.004-3zm-7.98.012l-3.993.006.004 3 3.994-.006-.005-3zm-7.983.012l-3.992.006.005 3 3.991-.006-.004-3zm-7.982.012l-3.991.006.005 3 3.99-.006-.004-3zm-7.985.012l-3.987.006.005 3 3.987-.006-.005-3zm-7.979.012l-3.996.006.005 3 3.996-.006-.005-3zm-7.98.012l-3.99.006.004 3 3.99-.006-.004-3zm-7.99.011l-3.989.006.004 3 3.988-.006-.004-3zm-7.961.011l-4.007.005.004 3 4.007-.005-.004-3zm-8.007.01l-3.991.005.003 3 3.991-.005-.003-3zm-7.976.009l-3.982.004.003 3 3.982-.004-.003-3zm-7.969.008l-3.998.003.002 3 3.999-.003-.003-3zm-8.007.004H56.18v3h1.95v-3zm-1.949 0c-.653 0-1.298-.012-1.965-.038l-.115 2.998c.695.027 1.398.04 2.08.04v-3zm-5.891-.334a56.925 56.925 0 0 1-3.905-.573l-.537 2.952c1.373.249 2.762.452 4.11.603l.332-2.982zm-7.769-1.41a58.842 58.842 0 0 1-3.795-1.088l-.922 2.855a63.69 63.69 0 0 0 3.986 1.143l.731-2.91zm-7.513-2.425a58.063 58.063 0 0 1-3.619-1.581l-1.293 2.707a62.598 62.598 0 0 0 3.804 1.662l1.108-2.788zm-7.118-3.403a54.763 54.763 0 0 1-3.362-2.062l-1.66 2.5a59.043 59.043 0 0 0 3.545 2.173l1.477-2.611zm-6.561-4.357a51.277 51.277 0 0 1-3.019-2.529l-2.012 2.225c1.03.932 2.11 1.835 3.193 2.675l1.838-2.371zm-5.829-5.275a49.165 49.165 0 0 1-2.587-2.962l-2.336 1.882a53.033 53.033 0 0 0 2.744 3.141l2.18-2.061zm-4.925-6.115a48.203 48.203 0 0 1-2.079-3.334l-2.607 1.485a52.701 52.701 0 0 0 2.207 3.537l2.48-1.688zm-3.887-6.826a50.226 50.226 0 0 1-1.528-3.618l-2.806 1.06a54.517 54.517 0 0 0 1.618 3.832l2.716-1.274zm-2.78-7.352a55.017 55.017 0 0 1-.98-3.827l-2.931.642c.3 1.371.65 2.733 1.033 4.033l2.878-.848zm-1.694-7.704a62.452 62.452 0 0 1-.461-3.923l-2.99.258a66.75 66.75 0 0 0 .485 4.11l2.966-.445zm-.685-7.876a71.272 71.272 0 0 1-.028-2h-3c0 .698.01 1.4.029 2.083l2.999-.083zm-.028-2v-2.016h-3v2.016h3zm0-5.973v-3.944h-3v3.944h3zm0-7.92v-3.955h-3v3.955h3zm0-7.924v-3.959h-3v3.959h3zm0-7.915v-3.959h-3v3.959h3zm0-7.919v-3.957h-3v3.957h3zm0-7.923v-3.966h-3v3.966h3zm0-7.921v-3.949h-3v3.949h3zm0-7.931v-3.946h-3v3.946h3zm0-7.9v-2.014h-3v2.014h3zm0-2.014c0-.669.009-1.321.026-1.976l-2.999-.079a78.44 78.44 0 0 0-.027 2.055h3zm.237-5.884c.11-1.331.253-2.609.435-3.879l-2.97-.425a68.507 68.507 0 0 0-.455 4.058l2.99.246zm1.112-7.723a55.45 55.45 0 0 1 .934-3.788l-2.886-.819a59.603 59.603 0 0 0-.983 3.99l2.935.617zm2.131-7.486a49.273 49.273 0 0 1 1.471-3.59l-2.73-1.245a53.638 53.638 0 0 0-1.559 3.806l2.818 1.029zm3.222-7.055a46.037 46.037 0 0 1 2.022-3.3l-2.49-1.673a50.448 50.448 0 0 0-2.152 3.512l2.62 1.461zm4.317-6.427a45.637 45.637 0 0 1 2.543-2.918l-2.177-2.064a50.057 50.057 0 0 0-2.708 3.107l2.342 1.875zm5.326-5.619a47.522 47.522 0 0 1 2.994-2.464l-1.812-2.391a51.693 51.693 0 0 0-3.18 2.618l1.998 2.237zm6.179-4.685a50.395 50.395 0 0 1 3.35-1.971l-1.424-2.641a55.185 55.185 0 0 0-3.545 2.086l1.619 2.526zm6.84-3.691a54.847 54.847 0 0 1 3.608-1.468l-1.034-2.817c-1.275.468-2.56.991-3.802 1.548l1.228 2.737zm7.312-2.687a59.018 59.018 0 0 1 3.78-.972l-.652-2.928a63.828 63.828 0 0 0-3.97 1.02l.842 2.88zm7.616-1.699a62.977 62.977 0 0 1 3.878-.484l-.279-2.987c-1.348.126-2.72.297-4.064.508l.465 2.963zm7.777-.726c.656-.02 1.3-.03 1.953-.03v-3c-.676 0-1.366.011-2.046.032l.093 2.998zm1.953-.03h1.962v-3h-1.962v3zm6.006 0h3.994v-3h-3.994v3zm8.005 0h4.02v-3h-4.02v3zm8.034 0h3.992v-3h-3.992v3zm7.995 0h4.015v-3h-4.015v3zm8.043 0h4v-3h-4v3zm8.004 0h4.02v-3h-4.02v3zm8.031 0h4.005v-3h-4.005v3zm8.021 0h4.01v-3h-4.01v3zm8.019 0h4.014v-3h-4.014v3zm8.023 0h4.012v-3h-4.012v3zm8.021 0h4.013v-3h-4.013v3zm8.025 0h4.002v-3h-4.002v3zm8.023 0h4.011v-3h-4.011v3zm8.008 0h4.026v-3h-4.026v3zm8.039 0h3.997v-3h-3.997v3zm8.013 0h4.023v-3h-4.023v3zm8.035 0h4v-3h-4v3zm7.994 0h4.01v-3h-4.01v3zm8.022 0h4.006v-3h-4.006v3zm8.054 0h1.959v-3h-1.959v3zm1.959 0c.691 0 1.394-.011 2.085-.031l-.091-2.999c-.668.02-1.325.03-1.994.03v3zm6.247-.283a68.403 68.403 0 0 0 4.141-.507l-.458-2.965a63.043 63.043 0 0 1-3.955.484l.272 2.988zm8.244-1.276a62.821 62.821 0 0 0 4.048-1.036l-.841-2.88a59.434 59.434 0 0 1-3.854.987l.647 2.929zm8.02-2.345a58.252 58.252 0 0 0 3.873-1.588l-1.237-2.732a54.629 54.629 0 0 1-3.674 1.505l1.038 2.815zm7.624-3.458a54.367 54.367 0 0 0 3.599-2.153l-1.64-2.512a50.083 50.083 0 0 1-3.399 2.033l1.44 2.632zm7.02-4.589a51.088 51.088 0 0 0 3.212-2.707l-2.027-2.212a47.016 47.016 0 0 1-3.022 2.548l1.837 2.371zm6.19-5.678a50.445 50.445 0 0 0 2.714-3.207l-2.371-1.839a45.85 45.85 0 0 1-2.549 3.014l2.206 2.032zm5.151-6.637a52.117 52.117 0 0 0 2.137-3.611l-2.642-1.421a47.161 47.161 0 0 1-2.012 3.398l2.517 1.634zm3.978-7.386a56.082 56.082 0 0 0 1.537-3.897l-2.83-.995a51.614 51.614 0 0 1-1.454 3.685l2.747 1.207zm2.782-7.89c.358-1.314.684-2.687.964-4.071l-2.94-.594a58.838 58.838 0 0 1-.918 3.875l2.894.79zm1.661-8.186c.184-1.34.335-2.733.446-4.134l-2.991-.237a68.68 68.68 0 0 1-.427 3.962l2.972.41zm.661-8.284c.017-.688.026-1.392.026-2.093h-3c0 .682-.008 1.348-.025 2.017l2.999.076zm.026-2.093v-2.117h-3v2.117h3zm-.001-6.215l-.003-4.155-3 .003.003 4.154 3-.002zm-.01-8.277a944.792 944.792 0 0 0-.015-4.118l-3 .02c.006.886.011 2.181.015 4.104l3-.006zm-.093-8.21c-.006-.871-.011-2.162-.016-4.112l-3 .007c.005 1.953.01 3.25.016 4.126l3-.022zm-.022-8.229c-.001-1.226-.003-2.604-.003-4.155l-3 .002c0 1.55.002 2.93.003 4.156l3-.003zm-.004-8.25l-.001-2.117h-3l.001 2.117h3zm-.001-2.117l.001-2.004h-3l-.001 2.004h3zm.001-5.965l.002-3.953-3-.002-.002 3.954 3 .001zm.006-7.922l.004-3.97-3-.005-.004 3.972 3 .002zm.01-7.923l.008-3.969-3-.006-.008 3.97 3 .005zm.017-7.936l.012-3.958-3-.01-.012 3.96 3 .008zm.028-7.925l.02-3.96-3-.017-.02 3.964 3 .013zm.048-7.913c.006-.719.011-1.211.015-1.525l.004-.34.001-.078.001-.02V.024L272 0l-1.5-.023v.027l-.001.082-.005.345c-.003.316-.009.812-.015 1.534l3 .026z"/></defs></svg>