<svg width="768" height="362" viewBox="0 0 768 362" xmlns="http://www.w3.org/2000/svg" xmlns:xlink="http://www.w3.org/1999/xlink"><title>Component</title><desc>Created using Figma</desc><g transform="translate(10272 4164)"><mask id="b"><use xlink:href="#a" transform="translate(-10528 -4164)" fill="#FFF"/></mask><g mask="url(#b)"><use xlink:href="#c" transform="translate(-9807 -4058)" fill="url(#d)"/></g><g mask="url(#b)"><use xlink:href="#e" transform="translate(-9583 -3997)" fill="#FFF" opacity=".8"/><use xlink:href="#e" transform="translate(-9589 -4113)" fill="#FF8306"/><use xlink:href="#f" transform="translate(-9565 -4067)" fill="#FFF" opacity=".8"/><use xlink:href="#g" transform="translate(-9705 -4073)" fill="#F6F9FA" opacity=".8"/><use xlink:href="#e" transform="translate(-9694 -4049)" fill="#FF8306"/><use xlink:href="#h" transform="translate(-9547 -4017)" fill="#FF8306"/><use xlink:href="#i" transform="translate(-9564 -4091)" fill="#FF8306"/><use xlink:href="#j" transform="translate(-9558 -4033)" fill="#F6F9FA" fill-opacity=".7"/><use xlink:href="#k" transform="rotate(-15 -20379.39 34764.73)" fill="#FF8306"/></g><g mask="url(#b)"><use xlink:href="#l" transform="translate(-9632 -4079)" fill="#FB992D"/><use xlink:href="#m" transform="translate(-9674 -4079)" fill="#FFB739"/><use xlink:href="#n" transform="translate(-9674 -4107)" fill="#FB992D"/><use xlink:href="#o" transform="translate(-9642 -4089)" fill="#F67A21"/><use xlink:href="#p" transform="translate(-9657 -4069)" fill="#FFEAC3"/><use xlink:href="#q" transform="translate(-9657 -4097)" fill="#FFD488"/></g></g><defs><linearGradient id="d" x2="1" gradientUnits="userSpaceOnUse" gradientTransform="rotate(90 100.82 81.18) scale(138.445)"><stop offset="0" stop-color="#0BAFF0"/><stop offset="1" stop-color="#0C97CC"/></linearGradient><path id="a" fill-rule="evenodd" d="M0 0h1280v362H0V0z"/><path id="c" fill-rule="evenodd" d="M182 364c100.516 0 182-81.484 182-182S282.516 0 182 0 0 81.484 0 182s81.484 182 182 182z"/><path id="e" d="M1.5 4.584c.64 0 1.174-.347 1.528-.82.354-.472.556-1.098.556-1.764H2.416c0 .438-.134.812-.323 1.064-.188.25-.404.352-.593.352v1.168zM3.584 2c0-.666-.202-1.292-.556-1.765-.354-.472-.889-.82-1.528-.82v1.17c.19 0 .405.1.593.351.189.252.323.626.323 1.064h1.168zM1.5-.584c-.64 0-1.174.347-1.528.82C-.382.707-.584 1.333-.584 2H.584c0-.438.134-.812.323-1.064.188-.25.404-.352.593-.352V-.584zM-.584 2c0 .666.202 1.292.556 1.765.354.472.889.82 1.528.82v-1.17c-.19 0-.405-.1-.593-.351C.718 2.812.584 2.438.584 2H-.584z"/><path id="f" d="M.5 1.35c.47 0 .85-.38.85-.85h-.7A.15.15 0 0 1 .5.65v.7zM1.35.5A.85.85 0 0 0 .5-.35v.7A.15.15 0 0 1 .65.5h.7zM.5-.35A.85.85 0 0 0-.35.5h.7A.15.15 0 0 1 .5.35v-.7zM-.35.5c0 .47.38.85.85.85v-.7A.15.15 0 0 1 .35.5h-.7z"/><path id="g" d="M1.5 3.584A2.084 2.084 0 0 0 3.584 1.5H2.416c0 .506-.41.916-.916.916v1.168zM3.584 1.5A2.084 2.084 0 0 0 1.5-.584V.584c.506 0 .916.41.916.916h1.168zM1.5-.584A2.084 2.084 0 0 0-.584 1.5H.584c0-.506.41-.916.916-.916V-.584zM-.584 1.5c0 1.151.933 2.084 2.084 2.084V2.416A.916.916 0 0 1 .584 1.5H-.584z"/><path id="h" fill-rule="evenodd" d="M1.504 1.008C1.502.193 1.529-.5 2.006-.5c.476 0 .49.686.486 1.502C3.304.99 4 1.005 4 1.494c0 .486-.696.512-1.502.505.012.809-.005 1.501-.492 1.501-.486 0-.513-.698-.505-1.504C.688 1.997 0 1.969 0 1.494c0-.477.687-.49 1.504-.486z"/><path id="i" fill-rule="evenodd" d="M2.517 3.024C2.539 1.616 2.734.5 4.019.5 5.298.5 5.465 1.599 5.477 3 6.879 2.995 8 3.166 8 4.481 8 5.787 6.888 5.987 5.5 6c.003 1.391-.174 2.5-1.481 2.5C2.708 8.5 2.51 7.379 2.5 5.984 1.104 5.959 0 5.759 0 4.48c0-1.284 1.107-1.447 2.517-1.457z"/><path id="j" fill-rule="evenodd" d="M.559 2.053c.087-.328.325-.553.954-.553.616 0 .845.215.927.533.331.076.56.308.56.955 0 .629-.219.873-.536.963-.078.325-.313.549-.951.549-.647 0-.887-.23-.971-.562C.22 3.848 0 3.608 0 2.988c0-.634.227-.858.559-.935z"/><path id="k" d="M14 6.045h-.876v.001H14zm0-5.09l-.876-.001h.877zM14 6.5h.877-.876zm1 0h.877-.876zm0-.455h-.876v.001H15zm0-5.09l-.876-.001H15zM15 .5h.877V.499L15.001.5zm-.5-.5v.877h.001V0zm-.5.5l.877.001V.498L14.001.5zM8.34 6.955l-.76.438h.001l.759-.438zm-2.546-4.41l-.759.439.76-.438zm2.774 4.803l.76-.436-.002-.003-.758.44zm.866-.5l.759-.438-.76.438zm-.228-.394l-.76.439h.001l.759-.439zM6.66 2.046l.76-.439-.76.439zm-.227-.394l.76-.438-.76.438zm-.866.5l.76-.438-.76.438zM.982 8.877l.37-.794-.37.794zm4.613 2.152l-.37.794.37-.794zM.569 8.685L.2 9.48l.37-.794zm.423-.906l-.37.794.37-.794zm.412.192l.37-.794-.37.794zm4.614 2.151l-.37.795.37-.795zm.412.193l.371-.794-.37.794zm-.422.906l.37-.794-.37.794zm8.869-5.176V.955h-1.753v5.09h1.753zm0 .454v-.455l-1.753.002v.455l1.753-.002zm-.377-.375c.209 0 .377.168.377.377L13.124 6.5c0 .76.617 1.377 1.377 1.377V6.124zm-.376.376c0-.208.168-.376.376-.376l.001 1.753c.76 0 1.376-.617 1.376-1.376L14.124 6.5zm0-.454v.455l1.753-.002v-.455l-1.753.002zm0-5.092v5.091h1.753V.955h-1.753zm0-.455v.455l1.753.001V.501L14.124.499zm.377.378a.376.376 0 0 1-.377-.374l1.753-.005a1.377 1.377 0 0 0-1.376-1.374V.877zm.376-.38a.378.378 0 0 1-.377.38l.001-1.753c-.76 0-1.379.615-1.377 1.379l1.753-.005zm0 .459V.5h-1.753v.455l1.753.002zm-5.778 5.56L6.553 2.107l-1.518.877 2.546 4.409 1.518-.877zm.227.393l-.228-.394-1.517.879.228.394 1.517-.88zm-.513-.137a.377.377 0 0 1 .515.14l-1.52.873c.38.66 1.224.885 1.881.505l-.876-1.518zm-.138.515a.377.377 0 0 1 .138-.515l.876 1.518c.658-.38.884-1.222.504-1.88l-1.518.877zm-.228-.394l.228.394 1.517-.878-.228-.394-1.517.878zm-2.546-4.41l2.546 4.41 1.518-.877-2.546-4.409-1.518.877zm-.227-.393l.227.394 1.518-.877-.227-.393-1.518.876zm.514.138a.377.377 0 0 1-.514-.138l1.518-.876A1.376 1.376 0 0 0 5.312.71l.877 1.518zm.138-.514c.104.18.042.41-.137.514L5.312.71a1.376 1.376 0 0 0-.504 1.88l1.518-.876zm.228.394l-.228-.394-1.518.876.227.394 1.519-.876zM.61 9.672l4.614 2.151.74-1.589-4.613-2.15-.74 1.588zM.2 9.48l.413.192.74-1.589-.413-.192L.2 9.48zm-.666-1.83a1.377 1.377 0 0 0 .665 1.83L.94 7.89c.189.088.27.312.182.5l-1.589-.74zm1.83-.665a1.376 1.376 0 0 0-1.83.666l1.59.74a.377.377 0 0 1-.502.182l.742-1.588zm.411.192l-.411-.192-.741 1.588.411.192.741-1.588zm4.614 2.151L1.774 7.177l-.74 1.588 4.613 2.152.741-1.589zm.412.192l-.412-.192-.74 1.589.412.192.74-1.589zm.666 1.83a1.377 1.377 0 0 0-.665-1.83l-.742 1.59a.376.376 0 0 1-.182-.5l1.59.74zm-1.83.665a1.376 1.376 0 0 0 1.83-.666l-1.589-.74a.377.377 0 0 1 .502-.182l-.742 1.588zm-.411-.192l.412.192.74-1.588-.412-.193-.74 1.59z"/><path id="l" d="M0 22.855L7.304 83 56 55.333V0L0 22.855z"/><path id="m" d="M49 20.45V83L0 55.333V0l49 20.45z"/><path id="n" d="M0 28.157L17.096 38l32.39-9.53L66 9.842 48.905 0 0 28.157z"/><path id="o" d="M0 28.158L17.093 38 66 9.843 48.907 0l-32.63 9.667L0 28.158z"/><path id="p" d="M15 32L0 23.773V0l14.459 1.077.541 7.15V32z"/><path id="q" d="M0 28.442L48.426 0 63 8.558 14.572 37 0 28.442z"/></defs></svg>