<svg width="1280" height="251" viewBox="0 0 1280 251" xmlns="http://www.w3.org/2000/svg" xmlns:xlink="http://www.w3.org/1999/xlink"><title>Component</title><desc>Created using Figma</desc><g transform="translate(13030 4047)"><mask id="b"><use xlink:href="#a" transform="translate(-13030 -4046)" fill="#FFF"/></mask><g mask="url(#b)"><use xlink:href="#c" transform="translate(-12701 -3930)" fill="url(#d)"/></g></g><use xlink:href="#e" transform="translate(668 201)" fill="#FFF" opacity=".8"/><use xlink:href="#e" transform="translate(658 1)" fill="#FF8306"/><use xlink:href="#f" transform="translate(698 81)" fill="#FFF" opacity=".8"/><use xlink:href="#g" transform="translate(458 71)" fill="#F6F9FA" opacity=".8"/><use xlink:href="#e" transform="translate(477 111)" fill="#FF8306"/><use xlink:href="#h" transform="translate(730 167.5)" fill="#FF8306"/><use xlink:href="#i" transform="translate(700 39)" fill="#FF8306"/><use xlink:href="#j" transform="translate(710 136.5)" fill="#F6F9FA" fill-opacity=".7"/><use xlink:href="#h" transform="translate(885 117.5)" fill="#FF8306"/><use xlink:href="#k" transform="translate(865 72)" fill="#FF8306"/><use xlink:href="#j" transform="translate(885 136.5)" fill="#F6F9FA" fill-opacity=".7"/><use xlink:href="#l" transform="rotate(-15 408.16 -1982.437)" fill="#FF8306"/><use xlink:href="#m" transform="translate(628 79)" fill="#FB992D"/><use xlink:href="#n" transform="translate(557 79)" fill="#FFB739"/><use xlink:href="#o" transform="translate(557 31)" fill="#FB992D"/><use xlink:href="#p" transform="translate(611 62)" fill="#F67A21"/><use xlink:href="#q" transform="translate(586 95)" fill="#FFEAC3"/><use xlink:href="#r" transform="translate(586 48)" fill="#FFD488"/><defs><linearGradient id="d" x2="1" gradientUnits="userSpaceOnUse" gradientTransform="rotate(90 172.557 138.943) scale(236.953)"><stop offset="0" stop-color="#0BAFF0"/><stop offset="1" stop-color="#0C97CC"/></linearGradient><path id="a" fill-rule="evenodd" d="M0 0h1280v250H0V0z"/><path id="c" fill-rule="evenodd" d="M311.5 623C483.537 623 623 483.537 623 311.5S483.537 0 311.5 0 0 139.463 0 311.5 139.463 623 311.5 623z"/><path id="e" d="M3 7a4 4 0 0 0 4-4H5a2 2 0 0 1-2 2v2zm4-4a4 4 0 0 0-4-4v2a2 2 0 0 1 2 2h2zM3-1a4 4 0 0 0-4 4h2a2 2 0 0 1 2-2v-2zm-4 4a4 4 0 0 0 4 4V5a2 2 0 0 1-2-2h-2z"/><path id="f" d="M1.5 3.5a2 2 0 0 0 2-2h-1a1 1 0 0 1-1 1v1zm2-2a2 2 0 0 0-2-2v1a1 1 0 0 1 1 1h1zm-2-2a2 2 0 0 0-2 2h1a1 1 0 0 1 1-1v-1zm-2 2a2 2 0 0 0 2 2v-1a1 1 0 0 1-1-1h-1z"/><path id="g" d="M2 5a3 3 0 0 0 3-3H3a1 1 0 0 1-1 1v2zm3-3a3 3 0 0 0-3-3v2a1 1 0 0 1 1 1h2zM2-1a3 3 0 0 0-3 3h2a1 1 0 0 1 1-1v-2zm-3 3a3 3 0 0 0 3 3V3a1 1 0 0 1-1-1h-2z"/><path id="h" fill-rule="evenodd" d="M2.517 2.524C2.539 1.116 2.734 0 4.019 0c1.279 0 1.446 1.099 1.458 2.5C6.879 2.495 8 2.666 8 3.981 8 5.287 6.888 5.487 5.5 5.5 5.503 6.891 5.326 8 4.019 8 2.708 8 2.51 6.879 2.5 5.484 1.104 5.459 0 5.259 0 3.98c0-1.284 1.107-1.447 2.517-1.457z"/><path id="i" fill-rule="evenodd" d="M5.018 5.032C5.018 2.286 5.172 0 7.025 0 8.874 0 8.98 2.261 8.97 5.006c2.733-.04 5.031.072 5.031 1.97 0 1.888-2.294 2.042-5.006 2.023.04 2.72-.078 5.001-1.969 5.001s-2.044-2.3-2.024-5.018C2.269 8.98 0 8.822 0 6.975 0 5.123 2.267 5.02 5.018 5.032z"/><path id="j" fill-rule="evenodd" d="M1.504 1.508C1.502.693 1.529 0 2.006 0c.476 0 .49.686.486 1.502C3.304 1.49 4 1.505 4 1.994c0 .486-.696.512-1.502.505C2.51 3.308 2.493 4 2.006 4c-.486 0-.513-.698-.505-1.504C.688 2.497 0 2.469 0 1.994c0-.477.687-.49 1.504-.486z"/><path id="k" d="M6 13.5A7.5 7.5 0 0 0 13.5 6h-3A4.5 4.5 0 0 1 6 10.5v3zM13.5 6A7.5 7.5 0 0 0 6-1.5v3A4.5 4.5 0 0 1 10.5 6h3zM6-1.5A7.5 7.5 0 0 0-1.5 6h3A4.5 4.5 0 0 1 6 1.5v-3zM-1.5 6A7.5 7.5 0 0 0 6 13.5v-3A4.5 4.5 0 0 1 1.5 6h-3z"/><path id="l" d="M22.531 9.5h1.5-1.5zm0-8h-1.5 1.5zm0 9h1.5-1.5zm.5.5v1.5V11zm.5-.5h1.5-1.5zm0-1h-1.5 1.5zm0-8h-1.5 1.5zm0-1h1.5V.496l-1.5.004zm-.5-.5v1.5V0zm-.5.5h1.5V.496l-1.5.004zm-7.933 10.714l1.3-.75-1.3.75zm-4-6.928l-1.3.75 1.3-.75zm4.5 7.794l-1.299.75 1.3-.75zm.866-.5l1.3-.75-1.3.75zm-.5-.866l1.3-.75-1.3.75zm-4-6.928l-1.3.75 1.3-.75zm-.5-.866l1.299-.75-1.3.75zm-.866.5l-1.299.75 1.299-.75zM1.195 14.263l.634-1.36-.634 1.36zm7.25 3.38l-.634 1.36.634-1.36zM.288 13.84l-.635 1.36h.002l.633-1.36zm.423-.906l-.635 1.359h.001l.634-1.36zm.906.422l-.634 1.36.634-1.36zm7.251 3.381l.634-1.36-.634 1.36zm.906.423l.634-1.36-.634 1.36zm-.422.906l.635-1.359h-.001l-.634 1.36zM24.031 9.5v-8h-3v8h3zm0 1v-1h-3v1h3zm-1-1a1 1 0 0 1 1 1h-3a2 2 0 0 0 2 2v-3zm-1 .999a1 1 0 0 1 1-.999v3a2 2 0 0 0 2-2l-3-.001zm0-1v1h3v-1h-3zm0-7.999v8h3v-8h-3zm0-1v1h3v-1h-3zm1 1a1 1 0 0 1-1-.996l3-.008a2 2 0 0 0-2-1.996v3zm1-1.004a1.001 1.001 0 0 1-1 1.004l.001-3a1.999 1.999 0 0 0-2 2.004l3-.008zm0 1.004v-1h-3v1h3zm-8.134 8.964l-4-6.928-2.598 1.5 4 6.928 2.598-1.5zm.5.866l-.5-.866-2.598 1.5.5.866 2.598-1.5zm-1.366-.366a1 1 0 0 1 1.366.366l-2.598 1.5a2 2 0 0 0 2.732.732l-1.5-2.598zm-.366 1.366a1 1 0 0 1 .366-1.366l1.5 2.598a2 2 0 0 0 .732-2.732l-2.598 1.5zm-.5-.866l.5.866 2.598-1.5-.5-.866-2.598 1.5zm-4-6.928l4 6.928 2.598-1.5-4-6.928-2.598 1.5zm-.5-.866l.5.866 2.598-1.5-.5-.866-2.598 1.5zm1.366.366a1 1 0 0 1-1.366-.366l2.598-1.5a2 2 0 0 0-2.732-.732l1.5 2.598zm.366-1.366a1 1 0 0 1-.366 1.366l-1.5-2.598a2 2 0 0 0-.732 2.732l2.598-1.5zm.5.866l-.5-.866-2.598 1.5.5.866 2.598-1.5zM.561 15.622l7.25 3.381 1.268-2.719-7.25-3.38-1.268 2.718zm-.906-.422l.907.423 1.267-2.72-.907-.422L-.345 15.2zm-.968-2.658A2 2 0 0 0-.347 15.2l1.27-2.718a1 1 0 0 1 .484 1.328l-2.72-1.267zm2.66-.967a2 2 0 0 0-2.66.967l2.72 1.267a1 1 0 0 1-1.33.484l1.27-2.718zm.904.422l-.906-.423-1.268 2.72.906.422 1.268-2.72zm7.251 3.38l-7.251-3.38-1.268 2.719 7.251 3.38 1.268-2.718zm.906.423l-.906-.422-1.268 2.719.906.422 1.268-2.719zm.968 2.658a2 2 0 0 0-.968-2.657L9.14 18.518a1 1 0 0 1-.483-1.328l2.72 1.267zm-2.659.967a2 2 0 0 0 2.66-.967l-2.72-1.267a1 1 0 0 1 1.33-.484l-1.27 2.718zm-.905-.422l.906.423 1.268-2.72-.907-.422-1.267 2.72z"/><path id="m" d="M0 39.377L12.391 143 95 95.333V0L0 39.377z"/><path id="n" d="M83 35.232V143L0 95.333V0l83 35.232z"/><path id="o" d="M0 47.423L28.753 64l54.474-16.05L111 16.575 82.25 0 0 47.423z"/><path id="p" d="M0 47.425L28.748 64 111 16.578 82.253 0l-54.88 16.28L0 47.426z"/><path id="q" d="M25 56L0 41.603V0l24.098 1.885L25 14.397V56z"/><path id="r" d="M0 47.66L82.247 0 107 14.34 24.75 62 0 47.66z"/></defs></svg>