<svg width="260" height="220" viewBox="0 0 260 220" xmlns="http://www.w3.org/2000/svg" xmlns:xlink="http://www.w3.org/1999/xlink"><title>Component</title><desc>Created using Figma</desc><use xlink:href="#a" transform="translate(0 40)" fill="url(#b)"/><use xlink:href="#c" transform="translate(160 84)" fill="#FFF" opacity=".8"/><use xlink:href="#c" transform="translate(156 1)" fill="#FF8306"/><use xlink:href="#d" transform="translate(173 34)" fill="#FFF" opacity=".8"/><use xlink:href="#e" transform="translate(73 30)" fill="#F6F9FA" opacity=".8"/><use xlink:href="#c" transform="translate(81 47)" fill="#FF8306"/><use xlink:href="#f" transform="translate(186 70)" fill="#FF8306"/><use xlink:href="#g" transform="translate(174 17)" fill="#FF8306"/><use xlink:href="#h" transform="translate(178 58)" fill="#F6F9FA" fill-opacity=".7"/><use xlink:href="#f" transform="translate(251 49)" fill="#FF8306"/><use xlink:href="#i" transform="translate(242 31)" fill="#FF8306"/><use xlink:href="#h" transform="translate(251 58)" fill="#F6F9FA" fill-opacity=".7"/><use xlink:href="#j" transform="rotate(-15 107.247 -303.09)" fill="#FF8306"/><use xlink:href="#k" transform="translate(125 25)" fill="#FB992D"/><use xlink:href="#l" transform="translate(95 25)" fill="#FFB739"/><use xlink:href="#m" transform="translate(95 5)" fill="#FB992D"/><use xlink:href="#n" transform="translate(118 18)" fill="#F67A21"/><use xlink:href="#o" transform="translate(107 32)" fill="#FFEAC3"/><use xlink:href="#p" transform="translate(107 12)" fill="#FFD488"/><defs><linearGradient id="b" x2="1" gradientUnits="userSpaceOnUse" gradientTransform="rotate(90 72.014 57.986) scale(98.889)"><stop offset="0" stop-color="#0BAFF0"/><stop offset="1" stop-color="#0C97CC"/></linearGradient><path id="a" fill-rule="evenodd" d="M130 260c71.797 0 130-58.203 130-130S201.797 0 130 0 0 58.203 0 130s58.203 130 130 130z"/><path id="c" d="M1 3.417c.46 0 .824-.279 1.054-.625.233-.349.363-.807.363-1.292h-.834c0 .343-.094.635-.223.83-.131.196-.267.253-.36.253v.834zM2.417 1.5c0-.485-.13-.943-.363-1.292C1.824-.138 1.46-.417 1-.417v.834c.093 0 .229.057.36.254.13.194.223.486.223.829h.834zM1-.417c-.46 0-.824.279-1.054.625-.233.349-.363.807-.363 1.292h.834c0-.343.094-.635.223-.83C.771.475.907.418 1 .418v-.834zM-.417 1.5c0 .485.13.943.363 1.292.23.346.595.625 1.054.625v-.834c-.093 0-.229-.057-.36-.254A1.519 1.519 0 0 1 .417 1.5h-.834z"/><path id="d" d="M.5 1.25A.75.75 0 0 0 1.25.5h-.5A.25.25 0 0 1 .5.75v.5zM1.25.5A.75.75 0 0 0 .5-.25v.5A.25.25 0 0 1 .75.5h.5zM.5-.25A.75.75 0 0 0-.25.5h.5A.25.25 0 0 1 .5.25v-.5zM-.25.5c0 .414.336.75.75.75v-.5A.25.25 0 0 1 .25.5h-.5z"/><path id="e" d="M1 2.417c.783 0 1.417-.634 1.417-1.417h-.834A.583.583 0 0 1 1 1.583v.834zM2.417 1C2.417.217 1.783-.417 1-.417v.834c.322 0 .583.261.583.583h.834zM1-.417C.217-.417-.417.217-.417 1h.834C.417.678.678.417 1 .417v-.834zM-.417 1c0 .783.634 1.417 1.417 1.417v-.834A.583.583 0 0 1 .417 1h-.834z"/><path id="f" fill-rule="evenodd" d="M1.005 1.008C1.009.45 1.063 0 1.505 0c.444 0 .487.445.487 1C2.546.994 3 1.04 3 1.494 3 1.946 2.549 2 2 2c.006.55-.041 1-.494 1S1 2.546 1 1.995c-.553-.004-1-.058-1-.501 0-.445.447-.486 1.005-.486z"/><path id="g" fill-rule="evenodd" d="M2.01 2.016C2.017.903 2.123 0 3.013 0c.886 0 .971.89.971 2.001C5.093 1.989 6 2.077 6 2.987 6 3.893 5.098 4.001 3.999 4c.012 1.102-.081 2-.986 2C2.104 6 1.998 5.093 2 3.99c-1.105-.008-2-.117-2-1.003 0-.888.896-.971 2.01-.971z"/><path id="h" fill-rule="evenodd" d="M.51 1.012C.534.718.629.5 1.007.5c.375 0 .463.213.481.502.293.015.513.104.513.492 0 .382-.215.48-.503.501-.016.29-.106.505-.491.505-.386 0-.483-.22-.502-.511C.214 1.966 0 1.869 0 1.494c0-.379.217-.465.51-.482z"/><path id="i" d="M2.5 5.626c1.726 0 3.126-1.4 3.126-3.126H4.374A1.874 1.874 0 0 1 2.5 4.374v1.252zM5.626 2.5c0-1.726-1.4-3.126-3.126-3.126V.626c1.035 0 1.874.839 1.874 1.874h1.252zM2.5-.626A3.126 3.126 0 0 0-.626 2.5H.626C.626 1.465 1.465.626 2.5.626V-.626zM-.626 2.5c0 1.726 1.4 3.126 3.126 3.126V4.374A1.874 1.874 0 0 1 .626 2.5H-.626z"/><path id="j" d="M10 4.318h-.626H10zm0-3.636h.626H10zm0 4.11l.626.002v-.003H10zm.417 0L9.79 4.79v.003l.626-.003zm0-.474h.626-.626zm0-3.636h.626-.626zm0-.474L9.79.206v.002h.626zm-.417 0L9.374.206v.003L10 .208zm-4.063 4.97l.542-.313-.542.313zM4.12 2.03l.542-.313-.542.313zm2.055 3.56l.543-.312v-.001l-.543.313zm.284.076l-.311-.543-.004.002.315.54zm.076-.285l-.542.313.002.004.54-.317zm-.237-.41l-.542.313.542-.313zM4.48 1.821l-.542.312v.001l.542-.313zm-.236-.41l.543-.312-.002-.004-.54.316zm-.285-.076L3.645.792l-.001.001.314.542zm-.076.285l-.543.31.001.003.542-.313zm-3.41 4.3l.265-.567-.265.567zM3.77 7.458l-.265.567.265-.567zM.043 5.72l-.264.568.264-.568zm-.1-.276l-.567-.268-.002.005.569.263zm.276-.101l-.264.567.264-.567zm.43.2l.265-.567-.265.567zM3.945 7.08l.265-.568-.265.568zm.428.2l-.265.567.265-.567zm.101.277l-.566-.268-.002.005.568.263zm-.277.1l.265-.567-.265.567zm6.429-3.34V.683H9.374v3.636h1.252zm0 .474v-.474l-1.252.001v.474l1.252-.001zm-.418-.417c.23 0 .42.186.418.42L9.374 4.79a.834.834 0 0 0 .834.837V4.374zm-.417.42a.417.417 0 0 1 .417-.42v1.252a.834.834 0 0 0 .835-.837l-1.252.005zm0-.477v.474l1.252.001V4.32l-1.252-.002zm0-3.635v3.636h1.252V.682H9.79zm0-.474v.474h1.252V.206L9.79.208zm.417.418a.418.418 0 0 1-.418-.42l1.252.004a.834.834 0 0 0-.834-.836V.626zm.418-.416a.418.418 0 0 1-.418.416V-.626a.834.834 0 0 0-.834.832l1.252.004zm0 .471V.207L9.374.21v.473h1.252zM6.48 4.865L4.661 1.716l-1.084.626 1.818 3.15 1.084-.627zm.237.41l-.237-.41-1.084.626.237.41 1.084-.625zm-.573-.151a.419.419 0 0 1 .574.153L5.631 5.9a.834.834 0 0 0 1.142.306l-.63-1.082zm-.149.573a.42.42 0 0 1 .153-.575l.622 1.086a.833.833 0 0 0 .305-1.144l-1.08.633zm-.239-.414l.237.41 1.084-.626-.237-.41-1.084.626zM3.937 2.134l1.818 3.15 1.084-.627-1.818-3.149-1.084.626zm-.236-.41l.236.41 1.085-.625-.236-.41-1.085.624zm.57.153a.417.417 0 0 1-.568-.15l1.08-.632A.835.835 0 0 0 3.646.792l.626 1.085zm.154-.569a.417.417 0 0 1-.152.568L3.643.793a.835.835 0 0 0-.304 1.138l1.086-.623zm.236.408l-.237-.41-1.084.627.237.41 1.084-.627zM.208 6.488l3.296 1.537.53-1.135L.737 5.353l-.53 1.135zm-.429-.2l.43.2.528-1.135-.43-.2-.528 1.135zM-.626 5.18A.835.835 0 0 0-.22 6.288l.53-1.135c.21.098.297.347.202.553l-1.137-.525zm1.11-.405a.834.834 0 0 0-1.107.4l1.132.535a.418.418 0 0 1-.554.2l.53-1.135zm.43.2l-.43-.2-.529 1.134.43.2.528-1.135zm3.295 1.536L.914 4.976.384 6.11 3.68 7.647l.53-1.135zm.43.2l-.43-.2-.53 1.135.43.2.53-1.134zm.401 1.112a.834.834 0 0 0-.402-1.111l-.53 1.134a.418.418 0 0 1-.2-.558l1.132.535zm-1.107.4a.834.834 0 0 0 1.11-.405l-1.137-.525a.418.418 0 0 1 .556-.204l-.53 1.135zm-.429-.2l.429.2.529-1.134-.429-.2-.529 1.135z"/><path id="k" d="M0 16.246L5.217 59 40 39.333V0L0 16.246z"/><path id="l" d="M35 14.536V59L0 39.333V0l35 14.536z"/><path id="m" d="M0 20.007L12.175 27l23.065-6.77L47 6.991 34.827 0 0 20.007z"/><path id="n" d="M0 20.007L12.172 27 47 6.994 34.828 0 11.59 6.868 0 20.008z"/><path id="o" d="M11 23L0 17.087V0l10.603.774L11 5.913V23z"/><path id="p" d="M0 19.986L34.59 0 45 6.014 10.409 26 0 19.986z"/></defs></svg>