<svg width="534" height="381" viewBox="0 0 534 381" xmlns="http://www.w3.org/2000/svg" xmlns:xlink="http://www.w3.org/1999/xlink"><title>Shape</title><desc>Created using Figma</desc><use xlink:href="#a" transform="translate(24 20)" fill="#FFF" filter="url(#b)"/><g transform="translate(15110 -2318)"><use xlink:href="#c" transform="translate(-15100 2319)" fill="#FFF"/><mask id="d"><use xlink:href="#c" fill="#fff" transform="translate(-15100 2319)"/></mask><g mask="url(#d)"><use xlink:href="#e" transform="translate(-15100 2319)" fill="#EBEFF1"/></g></g><defs><filter id="b" filterUnits="userSpaceOnUse" x="-15110" y="2318" width="534" height="381" color-interpolation-filters="sRGB"><feFlood flood-opacity="0" result="BackgroundImageFix"/><feColorMatrix in="SourceAlpha" values="0 0 0 0 0 0 0 0 0 0 0 0 0 0 0 0 0 0 255 0"/><feOffset dy="4"/><feGaussianBlur stdDeviation="12"/><feColorMatrix values="0 0 0 0 0 0 0 0 0 0 0 0 0 0 0 0 0 0 0.154891 0"/><feBlend in2="BackgroundImageFix" result="effect1_dropShadow"/><feBlend in="SourceGraphic" in2="effect1_dropShadow" result="shape"/></filter><path id="a" fill-rule="evenodd" d="M458.892 3.988c-.453-2.352-2.5-3.988-4.896-3.988H6a6 6 0 0 0-6 6v321a6 6 0 0 0 6 6h447.151a5.98 5.98 0 0 0 5.892-4.869c4.186-22.158 21.254-112.617 21.88-117.502.222-1.74 5.077-30.092 5.077-44.817 0-14.725-4.862-41.964-5.077-44.124-.667-6.704-18.127-97.45-22.031-117.7z"/><path id="c" fill-rule="evenodd" d="M485.448 4.826C484.904 2.003 482.44 0 479.566 0H6a6 6 0 0 0-6 6v340a6 6 0 0 0 6 6h473.546c2.883 0 5.351-2.008 5.886-4.841 4.325-22.885 22.534-119.325 23.198-124.512.236-1.84 5.37-31.809 5.37-47.374 0-15.565-5.143-44.358-5.37-46.642-.699-7.021-18.832-101.25-23.182-123.805z"/><path id="e" d="M508.63 222.647l-.992-.127.992.127zm0-94.016l-.995.099.995-.099zM485.448 4.826l-.982.19.982-.19zm-.016 342.333l-.982-.186.982.186zM479.566-1H6v2h473.566v-2zM-1 6v340h2V6h-2zm7 347h473.546v-2H6v2zm480.415-5.655c4.318-22.85 22.538-119.345 23.207-124.571l-1.984-.254c-.659 5.147-18.857 101.534-23.188 124.453l1.965.372zm23.207-124.571c.222-1.735 5.378-31.852 5.378-47.501h-2c0 15.48-5.113 45.302-5.362 47.247l1.984.254zM515 175.273c-.002-7.84-1.294-18.999-2.609-28.439a700.505 700.505 0 0 0-1.838-12.296c-.515-3.267-.875-5.466-.928-6.006l-1.99.198c.06.602.429 2.858.942 6.119a692.983 692.983 0 0 1 1.833 12.261c1.312 9.418 2.592 20.438 2.59 28.163h2zm-5.375-46.741c-.355-3.569-5.078-28.953-10.234-56.165a23143.388 23143.388 0 0 0-12.961-67.73l-1.964.378c2.175 11.278 7.796 40.472 12.96 67.725 5.172 27.297 9.865 52.537 10.209 55.99l1.99-.198zM479.566 1c2.403 0 4.448 1.67 4.9 4.015l1.964-.378C485.794 1.336 482.912-1 479.566-1v2zM6-1a7 7 0 0 0-7 7h2a5 5 0 0 1 5-5v-2zm-7 347a7 7 0 0 0 7 7v-2a5 5 0 0 1-5-5h-2zm480.546 7c3.355 0 6.242-2.341 6.869-5.655l-1.965-.372c-.445 2.352-2.492 4.027-4.904 4.027v2z"/></defs></svg>