<svg width="673" height="767" viewBox="0 0 673 767" xmlns="http://www.w3.org/2000/svg" xmlns:xlink="http://www.w3.org/1999/xlink"><title>кривая</title><desc>Created using Figma</desc><use xlink:href="#a" transform="translate(2 .13)" fill="#EBEFF1"/><g transform="translate(10713 -2741)"><use xlink:href="#b" transform="translate(-10518 3080)" fill="#0BAFF0"/><mask id="c"><path fill="#fff" transform="translate(-10518 3080)" d="M-3-3h26v26H-3z"/><use xlink:href="#b" transform="translate(-10518 3080)"/></mask><g mask="url(#c)"><use xlink:href="#d" transform="translate(-10518 3080)" fill="#F6F9FA"/></g></g><use xlink:href="#e" transform="translate(202 342)" fill="#FFF"/><g transform="translate(10713 -2741)"><use xlink:href="#b" transform="translate(-10254 3080)" fill="#0BAFF0"/><mask id="f"><path fill="#fff" transform="translate(-10254 3080)" d="M-3-3h26v26H-3z"/><use xlink:href="#b" transform="translate(-10254 3080)"/></mask><g mask="url(#f)"><use xlink:href="#d" transform="translate(-10254 3080)" fill="#F6F9FA"/></g></g><use xlink:href="#g" transform="translate(465.6 342)" fill="#FFF"/><g transform="translate(10713 -2741)"><use xlink:href="#b" transform="translate(-10519 3434)" fill="#0BAFF0"/><mask id="h"><path fill="#fff" transform="translate(-10519 3434)" d="M-3-3h26v26H-3z"/><use xlink:href="#b" transform="translate(-10519 3434)"/></mask><g mask="url(#h)"><use xlink:href="#d" transform="translate(-10519 3434)" fill="#F6F9FA"/></g></g><use xlink:href="#i" transform="translate(200.6 696)" fill="#FFF"/><g transform="translate(10713 -2741)"><use xlink:href="#b" transform="translate(-10255 3435)" fill="#0BAFF0"/><mask id="j"><path fill="#fff" transform="translate(-10255 3435)" d="M-3-3h26v26H-3z"/><use xlink:href="#b" transform="translate(-10255 3435)"/></mask><g mask="url(#j)"><use xlink:href="#d" transform="translate(-10255 3435)" fill="#F6F9FA"/></g></g><use xlink:href="#k" transform="translate(464 697)" fill="#FFF"/><defs><path id="a" d="M.028 65.488h1.5-1.5zm668.63 352.007h1.5-1.5zm-.01 214.035l-1.5-.003 1.5.003zM.01 0h-1.5v.522l.001 1.49 3-.001V0H.01zm-1.498 6.127l.001 4.097h3V6.127h-3zm.002 8.186l.002 4.094 3-.001-.002-4.093h-3zm.003 8.192v4.097l3-.001v-4.097h-3zm.002 8.19l.001 4.096h3l-.001-4.096h-3zm.002 8.193l.001 4.097h3v-4.097h-3zm.002 8.186l.002 4.105h3l-.002-4.105h-3zm.003 8.202v4.097h3v-4.097h-3zm.002 8.168v2.043h3v-2.043h-3zm0 2.043v1.923h3v-1.922h-3zm-.002 5.99v3.986l3 .001v-3.986h-3zm-.001 7.949l-.001 3.987h3v-3.986l-3-.001zm-.002 8.022l-.001 4.006h3V87.45h-3zm-.002 7.982v4.056h3v-4.055h-3zm-.002 8.01v4.032h3v-4.031l-3-.001zm-.001 8.012l-.001 4.02h3v-4.019l-3-.001zm-.002 8.009v4.017l3 .001v-4.017l-3-.001zm-.002 8.007v4.019l3 .001v-4.02h-3zm-.001 8.006l-.001 4.023h3v-4.022l-3-.001zm-.002 8.007v4.021h3v-4.02l-3-.001zm-.001 8.009v4.009l3 .001v-4.009l-3-.001zm-.002 8.009v4.003l3 .001V159.5l-3-.001zm0 8.008l-.001 4.002h3v-4.001l-3-.001zm-.002 8.004v4.006h3v-4.005l-3-.001zm-.001 8.001v4.013h3v-4.013h-3zm-.001 8.007v4.012l3 .001v-4.013h-3zm-.001 8.01v4.006l3 .001v-4.007h-3zm-.001 8.01v3.998h3v-3.998h-3zm0 8.01l-.001 3.99h3v-3.99h-3zm-.001 8.009v3.986h3v-3.986h-3zm0 8.006l-.001 3.993h3v-3.992l-3-.001zm-.001 8.001v4.013h3v-4.013h-3zm0 7.979v4.051l3-.001v-4.05h-3zm0 8.032l.001 3.975h3v-3.975h-3zm.002 8.023l.001 4.019 3-.001v-4.019l-3 .001zm.003 8.024c0 1.554.002 2.871.003 3.927l3-.003a8595.89 8595.89 0 0 1-.003-3.925l-3 .001zm.005 5.91c.002.686.008 1.374.02 2.051l3-.052c-.012-.665-.018-1.33-.02-2.005l-3 .006zm.154 6.122c.068 1.372.158 2.736.27 4.068l2.989-.25c-.11-1.306-.196-2.619-.262-3.965l-2.997.147zm.684 8.129c.165 1.366.357 2.724.57 4.045l2.962-.479a98.605 98.605 0 0 1-.554-3.927l-2.978.361zm1.309 8.068c.278 1.35.587 2.692.919 3.99l2.906-.741a84.54 84.54 0 0 1-.887-3.855l-2.938.606zm2.03 7.935a76.43 76.43 0 0 0 1.317 3.886l2.814-1.041a72.15 72.15 0 0 1-1.265-3.731l-2.866.886zm2.854 7.701a66.84 66.84 0 0 0 1.77 3.725l2.667-1.372a62.776 62.776 0 0 1-1.688-3.555l-2.749 1.202zm3.776 7.329a59.399 59.399 0 0 0 2.249 3.461l2.456-1.723a55.06 55.06 0 0 1-2.135-3.284l-2.57 1.546zm4.746 6.758a55.037 55.037 0 0 0 2.74 3.104l2.172-2.07a50.777 50.777 0 0 1-2.59-2.933l-2.322 1.899zm5.71 5.988a53.802 53.802 0 0 0 3.189 2.645l1.823-2.382a49.183 49.183 0 0 1-3.007-2.495l-2.004 2.232zm6.571 5.033a55.347 55.347 0 0 0 3.555 2.12l1.439-2.632a51.017 51.017 0 0 1-3.36-2.004l-1.634 2.516zm7.255 3.969a60.22 60.22 0 0 0 3.814 1.576l1.049-2.811a55.974 55.974 0 0 1-3.62-1.495l-1.243 2.73zm7.723 2.889c1.294.388 2.637.745 3.983 1.059l.682-2.921a63.033 63.033 0 0 1-3.803-1.012l-.862 2.874zm8.016 1.877c1.324.229 2.69.428 4.06.59l.352-2.979a72.033 72.033 0 0 1-3.9-.567l-.512 2.956zm8.14.969c1.337.091 2.712.153 4.089.183l.066-2.999a84.506 84.506 0 0 1-3.952-.177l-.204 2.993zm6.146.206h1.996v-3h-1.996v3zm5.988 0h3.991v-3h-3.991v3zm7.983 0h3.99v-3h-3.99v3zm7.982 0h3.992v-3h-3.992v3zm7.983 0h3.992v-3H93.56v3zm7.983 0h3.991v-3h-3.991v3zm7.983 0h3.991v-3h-3.991v3zm7.983 0h3.991v-3h-3.991v3zm7.983 0h3.991v-3h-3.991v3zm7.982 0h3.992v-3h-3.992v3zm7.983 0h3.992v-3h-3.992v3zm7.983 0h3.992v-3h-3.992v3zm7.983 0h3.991v-3h-3.991v3zm7.983 0h3.991v-3h-3.991v3zm7.983 0h3.991v-3h-3.991v3zm7.983 0h3.991v-3h-3.991v3zm7.982 0h3.992v-3h-3.992v3zm7.983 0h3.992v-3h-3.992v3zm7.983 0h3.992v-3h-3.992v3zm7.983 0h3.992v-3h-3.992v3zm7.983 0h3.991v-3h-3.991v3zm7.983 0h3.991v-3h-3.991v3zm7.983 0h3.991v-3h-3.991v3zm7.983 0h3.991v-3h-3.991v3zm7.982 0h3.992v-3h-3.992v3zm7.983 0h3.992v-3H261.2v3zm7.983 0h3.992v-3h-3.992v3zm7.983 0h3.991v-3h-3.991v3zm7.983 0h3.991v-3h-3.991v3zm7.983 0h3.991v-3h-3.991v3zm7.983 0h3.991v-3h-3.991v3zm7.982 0h3.992v-3h-3.992v3zm7.983 0h3.992v-3h-3.992v3zm7.983 0h3.992v-3h-3.992v3zm7.983 0h3.991v-3h-3.991v3zm7.983 0h3.991v-3h-3.991v3zm7.983 0h3.991v-3h-3.991v3zm7.983 0h3.991v-3h-3.991v3zm7.982 0h3.992v-3h-3.992v3zm7.983 0h3.992v-3h-3.992v3zm7.983 0h3.992v-3h-3.992v3zm7.983 0h3.991v-3h-3.991v3zm7.983 0h3.991v-3h-3.991v3zm7.983 0h3.991v-3h-3.991v3zm7.983 0h3.991v-3h-3.991v3zm7.982 0h3.992v-3h-3.992v3zm7.983 0h3.992v-3h-3.992v3zm7.983 0h3.992v-3h-3.992v3zm7.983 0h3.991v-3h-3.991v3zm7.983 0h3.991v-3h-3.991v3zm7.983 0h3.991v-3h-3.991v3zm7.983 0h3.991v-3h-3.991v3zm7.982 0h3.992v-3h-3.992v3zm7.983 0h3.992v-3h-3.992v3zm7.983 0h3.992v-3h-3.992v3zm7.983 0h3.991v-3h-3.991v3zm7.983 0h3.991v-3h-3.991v3zm7.983 0h3.991v-3h-3.991v3zm7.983 0h3.991v-3h-3.991v3zm7.982 0h3.992v-3h-3.992v3zm7.983 0h3.992v-3H540.6v3zm7.983 0h3.992v-3h-3.992v3zm7.983 0h3.991v-3h-3.991v3zm7.983 0h3.991v-3h-3.991v3zm7.983 0h3.991v-3h-3.991v3zm7.983 0h3.991v-3h-3.991v3zm7.982 0h3.992v-3h-3.992v3zm7.983 0h3.992v-3h-3.992v3zm7.983 0h1.996v-3h-1.996v3zm1.996 0c.681 0 1.35.005 2.018.016l.048-3c-.681-.011-1.373-.016-2.066-.016v3zm6.013.146c1.359.067 2.676.158 3.98.273l.263-2.989a110.962 110.962 0 0 0-4.094-.281l-.149 2.997zm7.939.704c1.345.176 2.642.377 3.924.607l.53-2.953a87.021 87.021 0 0 0-4.065-.628l-.389 2.974zm7.806 1.408a66.06 66.06 0 0 1 3.833 1.019l.858-2.875a69.615 69.615 0 0 0-4.006-1.065l-.685 2.921zm7.578 2.271c1.259.469 2.452.963 3.63 1.504l1.251-2.727a56.732 56.732 0 0 0-3.834-1.588l-1.047 2.811zm7.135 3.283a44.83 44.83 0 0 1 3.33 2.058l1.688-2.48a48.737 48.737 0 0 0-3.552-2.195l-1.466 2.617zm6.457 4.402a40.53 40.53 0 0 1 2.892 2.623l2.119-2.125a45.115 45.115 0 0 0-3.103-2.813l-1.908 2.315zm5.523 5.507a41.587 41.587 0 0 1 2.352 3.12l2.476-1.694a46.096 46.096 0 0 0-2.518-3.341l-2.31 1.915zm4.42 6.447a48.051 48.051 0 0 1 1.782 3.493l2.724-1.255a52.029 52.029 0 0 0-1.892-3.71l-2.614 1.472zm3.295 7.132a58.478 58.478 0 0 1 1.254 3.738l2.874-.86a62.14 62.14 0 0 0-1.318-3.928l-2.81 1.05zm2.273 7.56c.299 1.273.565 2.556.804 3.89l2.953-.531a78.096 78.096 0 0 0-.837-4.046l-2.92.687zm1.412 7.824a92 92 0 0 1 .43 3.954l2.989-.262a99.732 99.732 0 0 0-.444-4.081l-2.975.389zm.703 7.933c.065 1.313.108 2.635.129 3.993l3-.047a120.499 120.499 0 0 0-.133-4.095l-2.996.149zm1.645 6.007h-1.5v1.591h3v-1.591h-1.5zm-1.5 4.773v1.592h3v-1.592h-3zm0 1.592v1.967h3v-1.967h-3zm0 5.93v3.967h3v-3.967h-3zm0 7.929l-.001 3.969h3l.001-3.969h-3zm-.001 7.929v3.97h3v-3.97h-3zm0 7.929v3.971h3v-3.971h-3zm.001 7.929v3.972h3v-3.972h-3zm0 7.931v3.967h3v-3.968l-3 .001zm0 7.93v3.964h3v-3.964h-3zm0 7.93l.001 3.963h3l-.001-3.964-3 .001zm.001 7.929v3.964h3v-3.964h-3zm0 7.928v3.966h3v-3.966h-3zm0 7.927l.001 3.97h3l-.001-3.97h-3zm.001 7.926v3.974h3v-3.974h-3zm0 7.926l.001 3.978h3l-.001-3.978h-3zm.001 7.929v3.979h3v-3.979h-3zm0 7.93v3.979h3v-3.979h-3zm.001 7.928v3.981h3v-3.981h-3zm0 7.927v3.984h3v-3.984h-3zm0 7.923v3.992h3v-3.992h-3zm.001 7.933v3.987h3v-3.987h-3zm0 7.941v3.968h3v-3.968h-3zm-.001 7.942v3.932h3v-3.932h-3zm0 7.931v3.958h3v-3.958h-3zm0 7.897l-.001 3.997h3l.001-3.997h-3zm-.001 7.966l-.001 3.95h3l.001-3.949-3-.001zm-.002 7.891l-.001 3.953 3 .001.001-3.953-3-.001zm-.003 7.925l-.002 4.006 3 .002.002-4.007-3-.001zm-.006 7.945l-.002 1.951 3 .006.002-1.954-3-.003zm-.002 1.951c-.002.675-.008 1.34-.019 2.005l2.999.052c.012-.677.018-1.365.02-2.051l-3-.006zm-.151 5.981a115.568 115.568 0 0 1-.262 3.965l2.99.25c.111-1.332.201-2.696.269-4.068l-2.997-.147zm-.665 7.915a98.99 98.99 0 0 1-.554 3.927l2.962.479c.213-1.321.405-2.679.57-4.045l-2.978-.361zm-1.269 7.823a83.984 83.984 0 0 1-.887 3.855l2.907.741c.331-1.298.64-2.64.918-3.99l-2.938-.606zm-1.958 7.655a72.207 72.207 0 0 1-1.265 3.731l2.814 1.041c.466-1.26.909-2.568 1.317-3.886l-2.866-.886zm-2.737 7.385a62.547 62.547 0 0 1-1.688 3.555l2.668 1.372a66.863 66.863 0 0 0 1.769-3.725l-2.749-1.202zm-3.597 6.985a55.067 55.067 0 0 1-2.135 3.284l2.456 1.723a59.732 59.732 0 0 0 2.25-3.461l-2.571-1.546zm-4.499 6.405a50.438 50.438 0 0 1-2.589 2.933l2.172 2.07a54.958 54.958 0 0 0 2.74-3.104l-2.323-1.899zm-5.392 5.655a49.393 49.393 0 0 1-3.007 2.495l1.824 2.382a54.017 54.017 0 0 0 3.187-2.645l-2.004-2.232zm-6.2 4.749a50.976 50.976 0 0 1-3.36 2.004l1.439 2.632a55.352 55.352 0 0 0 3.555-2.12l-1.634-2.516zm-6.864 3.755a55.689 55.689 0 0 1-3.62 1.495l1.049 2.811a60.255 60.255 0 0 0 3.814-1.576l-1.243-2.73zm-7.341 2.745a63.21 63.21 0 0 1-3.804 1.012l.682 2.921a66.721 66.721 0 0 0 3.983-1.059l-.861-2.874zm-7.667 1.795c-1.284.223-2.571.41-3.9.567l.353 2.979a77.067 77.067 0 0 0 4.059-.59l-.512-2.956zm-7.831.932a84.514 84.514 0 0 1-3.952.177l.066 2.999a89.143 89.143 0 0 0 4.09-.183l-.204-2.993zm-5.943.199h-1.996v3h1.996v-3zm-5.987 0h-3.992v3h3.992v-3zm-7.983 0h-3.992v3h3.992v-3zm-7.983 0h-3.992v3h3.992v-3zm-7.983 0h-3.992v3h3.992v-3zm-7.983 0h-3.991v3h3.991v-3zm-7.983 0h-3.991v3h3.991v-3zm-7.983 0h-3.991v3h3.991v-3zm-7.983 0h-3.991v3h3.991v-3zm-7.982 0h-3.992v3h3.992v-3zm-7.983 0h-3.992v3h3.992v-3zm-7.983 0h-3.992v3h3.992v-3zm-7.983 0h-3.991v3h3.991v-3zm-7.983 0h-3.991v3h3.991v-3zm-7.983 0h-3.991v3h3.991v-3zm-7.983 0h-3.991v3h3.991v-3zm-7.982 0h-3.992v3h3.992v-3zm-7.983 0h-3.992v3h3.992v-3zm-7.983 0h-3.992v3h3.992v-3zm-7.983 0h-3.991v3h3.991v-3zm-7.983 0h-3.991v3h3.991v-3zm-7.983 0h-3.991v3h3.991v-3zm-7.983 0h-3.991v3h3.991v-3zm-7.982 0h-3.992v3h3.992v-3zm-7.983 0h-3.992v3h3.992v-3zm-7.983 0h-3.992v3h3.992v-3zm-7.983 0h-3.991v3h3.991v-3zm-7.983 0h-3.991v3h3.991v-3zm-7.983 0h-3.991v3h3.991v-3zm-7.983 0h-3.991v3h3.991v-3zm-7.982 0h-3.992v3h3.992v-3zm-7.983 0h-3.992v3h3.992v-3zm-7.983 0h-3.992v3h3.992v-3zm-7.983 0h-3.991v3h3.991v-3zm-7.983 0h-3.991v3h3.991v-3zm-7.983 0h-3.991v3h3.991v-3zm-7.983 0h-3.991v3h3.991v-3zm-7.982 0h-3.992v3h3.992v-3zm-7.983 0h-3.992v3h3.992v-3zm-7.983 0h-3.992v3h3.992v-3zm-7.983 0h-3.992v3h3.992v-3zm-7.983 0h-3.991v3h3.991v-3zm-7.983 0h-3.991v3h3.991v-3zm-7.983 0h-3.991v3h3.991v-3zm-7.983 0h-3.991v3h3.991v-3zm-7.982 0h-3.992v3h3.992v-3zm-7.983 0h-3.992v3h3.992v-3zm-7.983 0h-3.992v3h3.992v-3zm-7.983 0h-3.991v3h3.991v-3zm-7.983 0h-3.991v3h3.991v-3zm-7.983 0h-3.991v3h3.991v-3zm-7.983 0h-3.991v3h3.991v-3zm-7.982 0h-3.992v3h3.992v-3zm-7.983 0h-3.992v3h3.992v-3zm-7.983 0h-3.992v3h3.992v-3zm-7.983 0h-3.991v3h3.991v-3zm-7.983 0h-3.991v3h3.991v-3zm-7.983 0h-3.991v3h3.991v-3zm-7.983 0h-3.991v3h3.991v-3zm-7.982 0h-3.992v3h3.992v-3zm-7.983 0h-3.992v3h3.992v-3zm-7.983 0h-3.992v3h3.992v-3zm-7.983 0h-3.991v3h3.991v-3zm-7.983 0h-3.991v3h3.991v-3zm-7.983 0h-3.991v3h3.991v-3zm-7.983 0h-3.991v3h3.991v-3zm-7.982 0h-3.992v3h3.992v-3zm-7.983 0h-3.992v3h3.992v-3zm-7.983 0h-1.996v3h1.996v-3zm-1.996 0c-.673 0-1.347.005-2.01.016l.05 3c.65-.011 1.299-.016 1.96-.016v-3zm-5.992.151c-1.348.07-2.685.165-3.981.283l.272 2.988a97.014 97.014 0 0 1 3.864-.275l-.155-2.996zm-7.953.73a85.49 85.49 0 0 0-3.952.627l.542 2.951a80.578 80.578 0 0 1 3.811-.605l-.4-2.973zm-7.873 1.454a69.711 69.711 0 0 0-3.877 1.047l.867 2.872a64.412 64.412 0 0 1 3.708-1.001l-.698-2.918zm-7.702 2.338a58.199 58.199 0 0 0-3.731 1.549l1.25 2.728a52.766 52.766 0 0 1 3.533-1.467l-1.052-2.81zm-7.34 3.371a49.613 49.613 0 0 0-3.464 2.111l1.665 2.495a45.492 45.492 0 0 1 3.255-1.983l-1.455-2.623zm-6.742 4.508a46.518 46.518 0 0 0-3.057 2.676l2.074 2.167a42.131 42.131 0 0 1 2.857-2.5l-1.874-2.343zm-5.866 5.614a47.529 47.529 0 0 0-2.538 3.172l2.421 1.772a43.058 43.058 0 0 1 2.375-2.969l-2.258-1.975zm-4.793 6.543a52.333 52.333 0 0 0-1.972 3.535l2.675 1.359a48.054 48.054 0 0 1 1.857-3.331l-2.56-1.563zm-3.67 7.208a61.513 61.513 0 0 0-1.434 3.761l2.837.976a57.45 57.45 0 0 1 1.362-3.576l-2.766-1.161zm-2.625 7.602a74.744 74.744 0 0 0-.969 3.899l2.93.646c.282-1.282.588-2.516.93-3.741l-2.891-.804zm-1.734 7.837a91.266 91.266 0 0 0-.579 3.951l2.978.37a86.99 86.99 0 0 1 .559-3.82l-2.958-.501zm-.99 7.919c-.11 1.301-.197 2.636-.262 3.977l2.997.144c.063-1.315.147-2.596.254-3.869l-2.99-.252zm-.386 7.957c-.01.661-.016 1.332-.016 2.002h3c0-.659.005-1.307.015-1.956l-3-.046z"/><path id="b" fill-rule="evenodd" d="M10 20c5.523 0 10-4.477 10-10S15.523 0 10 0 0 4.477 0 10s4.477 10 10 10z"/><path id="d" d="M10 23c7.18 0 13-5.82 13-13h-6a7 7 0 0 1-7 7v6zm13-13c0-7.18-5.82-13-13-13v6a7 7 0 0 1 7 7h6zM10-3C2.82-3-3 2.82-3 10h6a7 7 0 0 1 7-7v-6zM-3 10c0 7.18 5.82 13 13 13v-6a7 7 0 0 1-7-7h-6z"/><path id="e" d="M4.271 11h-1.09V3.775l-2.185.803v-.984l3.106-1.166h.17V11z"/><path id="g" d="M6.299 11H.709v-.78l2.953-3.28c.438-.497.738-.899.902-1.208.168-.312.252-.634.252-.966 0-.446-.134-.81-.404-1.096-.27-.285-.629-.428-1.078-.428-.54 0-.959.154-1.26.463-.297.305-.445.73-.445 1.277H.545c0-.785.252-1.42.756-1.904.508-.484 1.185-.726 2.033-.726.793 0 1.42.209 1.88.627.462.414.692.966.692 1.658 0 .84-.535 1.84-1.605 3l-2.285 2.478h4.283V11z"/><path id="i" d="M2.285 6.207H3.1c.511-.008.914-.143 1.207-.404.293-.262.44-.615.44-1.06 0-1-.499-1.5-1.495-1.5-.469 0-.844.134-1.125.403-.277.266-.416.62-.416 1.061H.627c0-.676.246-1.236.738-1.682.496-.449 1.125-.673 1.887-.673.805 0 1.436.212 1.893.638.457.426.685 1.018.685 1.776 0 .37-.121.73-.363 1.078a2.157 2.157 0 0 1-.979.779c.469.148.83.395 1.084.738.258.344.387.764.387 1.26 0 .766-.25 1.373-.75 1.822-.5.45-1.15.674-1.951.674-.801 0-1.453-.217-1.957-.65C.8 10.033.55 9.46.55 8.75h1.09c0 .45.146.809.44 1.078.292.27.685.404 1.177.404.523 0 .924-.136 1.201-.41.277-.273.416-.666.416-1.177 0-.497-.152-.877-.457-1.143-.305-.266-.744-.402-1.318-.41h-.815v-.885z"/><path id="k" d="M5.285 8.135H6.47v.885H5.285V11h-1.09V9.02H.311v-.64L4.13 2.47h1.154v5.666zm-3.744 0h2.654V3.95l-.129.235-2.525 3.949z"/></defs></svg>