<svg width="1280" height="417" viewBox="0 0 1280 417" xmlns="http://www.w3.org/2000/svg" xmlns:xlink="http://www.w3.org/1999/xlink"><title>кривая</title><desc>Created using Figma</desc><use xlink:href="#a" transform="translate(0 .13)" fill="#EBEFF1"/><g transform="translate(13350 -2702)"><use xlink:href="#b" transform="translate(-13200 3041)" fill="#0BAFF0"/><mask id="c"><path fill="#fff" transform="translate(-13200 3041)" d="M-3-3h26v26H-3z"/><use xlink:href="#b" transform="translate(-13200 3041)"/></mask><g mask="url(#c)"><use xlink:href="#d" transform="translate(-13200 3041)" fill="#F6F9FA"/></g></g><use xlink:href="#e" transform="translate(157 342)" fill="#FFF"/><g transform="translate(13350 -2702)"><use xlink:href="#b" transform="translate(-12880 3041)" fill="#0BAFF0"/><mask id="f"><path fill="#fff" transform="translate(-12880 3041)" d="M-3-3h26v26H-3z"/><use xlink:href="#b" transform="translate(-12880 3041)"/></mask><g mask="url(#f)"><use xlink:href="#d" transform="translate(-12880 3041)" fill="#F6F9FA"/></g></g><use xlink:href="#g" transform="translate(476.6 342)" fill="#FFF"/><g transform="translate(13350 -2702)"><use xlink:href="#b" transform="translate(-12560 3041)" fill="#0BAFF0"/><mask id="h"><path fill="#fff" transform="translate(-12560 3041)" d="M-3-3h26v26H-3z"/><use xlink:href="#b" transform="translate(-12560 3041)"/></mask><g mask="url(#h)"><use xlink:href="#d" transform="translate(-12560 3041)" fill="#F6F9FA"/></g></g><use xlink:href="#i" transform="translate(796.6 342)" fill="#FFF"/><g transform="translate(13350 -2702)"><use xlink:href="#b" transform="translate(-12240 3041)" fill="#0BAFF0"/><mask id="j"><path fill="#fff" transform="translate(-12240 3041)" d="M-3-3h26v26H-3z"/><use xlink:href="#b" transform="translate(-12240 3041)"/></mask><g mask="url(#j)"><use xlink:href="#d" transform="translate(-12240 3041)" fill="#F6F9FA"/></g></g><use xlink:href="#k" transform="translate(1116 342)" fill="#FFF"/><defs><path id="a" d="M.028 65.488h1.5-1.5zM.01 0h-1.5v.522l.001 1.49 3-.001V0H.01zm-1.498 6.127l.001 4.097h3V6.127h-3zm.002 8.186l.002 4.094 3-.001-.002-4.093h-3zm.003 8.192v4.097l3-.001v-4.097h-3zm.002 8.19l.001 4.096h3l-.001-4.096h-3zm.002 8.193l.001 4.097h3v-4.097h-3zm.002 8.186l.002 4.105h3l-.002-4.105h-3zm.003 8.202v4.097h3v-4.097h-3zm.002 8.168v2.043h3v-2.043h-3zm0 2.043v1.923h3v-1.922h-3zm-.002 5.99v3.986l3 .001v-3.986h-3zm-.001 7.949l-.001 3.987h3v-3.986l-3-.001zm-.002 8.022l-.001 4.006h3V87.45h-3zm-.002 7.982v4.056h3v-4.055h-3zm-.002 8.01v4.032h3v-4.031l-3-.001zm-.001 8.012l-.001 4.02h3v-4.019l-3-.001zm-.002 8.009v4.017l3 .001v-4.017l-3-.001zm-.002 8.007v4.019l3 .001v-4.02h-3zm-.001 8.006l-.001 4.023h3v-4.022l-3-.001zm-.002 8.007v4.021h3v-4.02l-3-.001zm-.001 8.009v4.009l3 .001v-4.009l-3-.001zm-.002 8.009v4.003l3 .001V159.5l-3-.001zm0 8.008l-.001 4.002h3v-4.001l-3-.001zm-.002 8.004v4.006h3v-4.005l-3-.001zm-.001 8.001v4.013h3v-4.013h-3zm-.001 8.007v4.012l3 .001v-4.013h-3zm-.001 8.01v4.006l3 .001v-4.007h-3zm-.001 8.01v3.998h3v-3.998h-3zm0 8.01l-.001 3.99h3v-3.99h-3zm-.001 8.009v3.986h3v-3.986h-3zm0 8.006l-.001 3.993h3v-3.992l-3-.001zm-.001 8.001v4.013h3v-4.013h-3zm0 7.979v4.051l3-.001v-4.05h-3zm0 8.032l.001 3.975h3v-3.975h-3zm.002 8.023l.001 4.019 3-.001v-4.019l-3 .001zm.003 8.024c0 1.554.002 2.871.003 3.927l3-.003a8595.89 8595.89 0 0 1-.003-3.925l-3 .001zm.005 5.91c.002.686.008 1.374.02 2.051l3-.052c-.012-.665-.018-1.33-.02-2.005l-3 .006zm.154 6.122c.068 1.372.158 2.736.27 4.068l2.989-.25c-.11-1.306-.196-2.619-.262-3.965l-2.997.147zm.684 8.129c.165 1.366.357 2.724.57 4.045l2.962-.479a98.605 98.605 0 0 1-.554-3.927l-2.978.361zm1.309 8.068c.278 1.35.587 2.692.919 3.99l2.906-.741a84.54 84.54 0 0 1-.887-3.855l-2.938.606zm2.03 7.935a76.43 76.43 0 0 0 1.317 3.886l2.814-1.041a72.15 72.15 0 0 1-1.265-3.731l-2.866.886zm2.854 7.701a66.84 66.84 0 0 0 1.77 3.725l2.667-1.372a62.776 62.776 0 0 1-1.688-3.555l-2.749 1.202zm3.776 7.329a59.399 59.399 0 0 0 2.249 3.461l2.456-1.723a55.06 55.06 0 0 1-2.135-3.284l-2.57 1.546zm4.746 6.758a55.037 55.037 0 0 0 2.74 3.104l2.172-2.07a50.777 50.777 0 0 1-2.59-2.933l-2.322 1.899zm5.71 5.988a53.802 53.802 0 0 0 3.189 2.645l1.823-2.382a49.183 49.183 0 0 1-3.007-2.495l-2.004 2.232zm6.571 5.033a55.347 55.347 0 0 0 3.555 2.12l1.439-2.632a51.017 51.017 0 0 1-3.36-2.004l-1.634 2.516zm7.255 3.969a60.22 60.22 0 0 0 3.814 1.576l1.049-2.811a55.974 55.974 0 0 1-3.62-1.495l-1.243 2.73zm7.723 2.889c1.294.388 2.637.745 3.983 1.059l.682-2.921a63.033 63.033 0 0 1-3.803-1.012l-.862 2.874zm8.016 1.877c1.324.229 2.69.428 4.06.59l.352-2.979a72.033 72.033 0 0 1-3.9-.567l-.512 2.956zm8.14.969c1.337.091 2.712.153 4.089.183l.066-2.999a84.506 84.506 0 0 1-3.952-.177l-.204 2.993zm6.146.206h1.384v-3h-1.383v3zm5.735 0h3.74v-3h-3.74v3zm7.622 0h4.452v-3H76.98v3zm8.324 0h3.75v-3h-3.75v3zm7.762 0h4.272v-3h-4.272v3zm8.498 0h3.704v-3h-3.704v3zm7.559 0h4.004v-3h-4.004v3zm8.156 0h4.296v-3h-4.296v3zm8.255 0h3.792v-3h-3.792v3zm7.681 0h3.984v-3h-3.984v3zm8.062 0h4.171v-3h-4.171v3zm8.434 0h3.862v-3h-3.862v3zm7.701 0h3.905v-3h-3.905v3zm7.875 0h4.036v-3h-4.036v3zm8.136 0h4.163v-3h-4.163v3zm8.388 0h3.822v-3h-3.822v3zm7.693 0h3.919v-3h-3.919v3zm7.885 0h4.013v-3h-4.013v3zm8.073 0h4.105v-3h-4.105v3zm8.255 0h4.116v-3h-4.116v3zm7.978 0h3.898v-3h-3.898v3zm7.832 0h3.969v-3h-3.969v3zm7.974 0h4.038v-3h-4.038v3zm8.111 0h4.107v-3h-4.107v3zm8.247 0h3.998v-3h-3.998v3zm7.894 0h3.924v-3h-3.924v3zm7.875 0h3.978v-3h-3.978v3zm7.983 0h4.031v-3h-4.031v3zm8.087 0h4.082v-3h-4.082v3zm8.19 0h4.089v-3h-4.089v3zm7.995 0h3.928v-3h-3.928v3zm7.877 0h3.97v-3h-3.97v3zm7.961 0h4.01v-3h-4.01v3zm8.041 0h4.05v-3h-4.05v3zm8.12 0h4.089v-3h-4.089v3zm8.174 0h3.924v-3h-3.924v3zm7.865 0h3.957v-3h-3.957v3zm7.93 0h3.989v-3h-3.989v3zm7.994 0h4.02v-3h-4.02v3zm8.055 0h4.05v-3h-4.05v3zm8.114 0h4.079v-3h-4.079v3zm8.095 0h3.946v-3h-3.946v3zm7.904 0h3.971v-3h-3.971v3zm7.955 0h3.995v-3h-3.995v3zm8.002 0h4.018v-3h-4.018v3zm8.048 0h4.041v-3h-4.041v3zm8.092 0h4.063v-3h-4.063v3zm8.088 0h3.96v-3h-3.96v3zm7.929 0h3.978v-3h-3.978v3zm7.965 0h3.996v-3h-3.996v3zm8 0h4.013v-3h-4.013v3zm8.035 0h4.029v-3h-4.029v3zm8.066 0h4.045v-3h-4.045v3zm8.098 0h3.978v-3h-3.978v3zm7.955 0h3.983v-3h-3.983v3zm7.972 0h3.996v-3h-3.996v3zm7.998 0h4.008v-3h-4.008v3zm8.021 0h4.019v-3h-4.019v3zm8.043 0h4.03v-3h-4.03v3zm8.064 0h4.031v-3h-4.031v3zm8.016 0h3.989v-3h-3.989v3zm7.983 0h3.997v-3h-3.997v3zm7.998 0h4.005v-3h-4.005v3zm8.013 0h4.012v-3h-4.012v3zm8.026 0h4.017v-3h-4.017v3zm8.037 0h4.023v-3h-4.023v3zm8.042 0h3.999v-3h-3.999v3zm7.999 0h4.003v-3h-4.003v3zm8.006 0h4.006v-3h-4.006v3zm8.012 0h4.008v-3h-4.008v3zm8.017 0h4.009v-3h-4.009v3zm8.019 0h4.011v-3h-4.011v3zm8.022 0h4.011v-3h-4.011v3zm8.022 0h4.012v-3h-4.012v3zm8.022 0h4.011v-3h-4.011v3zm8.02 0h4.009v-3h-4.009v3zm8.016 0h4.006v-3h-4.006v3zm8.011 0h4.003v-3h-4.003v3zm8.004 0h3.999v-3h-3.999v3zm8 0h4.025v-3h-4.025v3zm8.047 0h4.02v-3h-4.02v3zm8.037 0h4.013v-3h-4.013v3zm8.024 0h4.007v-3h-4.007v3zm8.011 0h3.999v-3h-3.999v3zm7.995 0h3.992v-3h-3.992v3zm7.979 0h3.994v-3h-3.994v3zm8.032 0h4.033v-3h-4.033v3zm8.062 0h4.023v-3h-4.023v3zm8.04 0h4.012v-3h-4.012v3zm8.017 0h4v-3h-4v3zm7.994 0h3.987v-3h-3.987v3zm7.967 0h3.974v-3h-3.974v3zm7.98 0h4.05v-3h-4.05v3zm8.093 0h4.035v-3h-4.035v3zm8.063 0h4.018v-3h-4.018v3zm8.029 0h4.001v-3H823v3zm7.994 0h3.983v-3h-3.983v3zm7.958 0h3.964v-3h-3.964v3zm7.92 0h4.066v-3h-4.066v3zm8.125 0h4.049v-3h-4.049v3zm8.086 0h4.026v-3h-4.026v3zm8.04 0h4.003v-3h-4.003v3zm7.993 0h3.979v-3h-3.979v3zm7.945 0h3.953v-3h-3.953v3zm7.893 0h4.071v-3h-4.071v3zm8.146 0h4.059v-3H903.1v3zm8.104 0h4.029v-3h-4.029v3zm8.044 0h3.998v-3h-3.998v3zm7.981 0h3.966v-3h-3.966v3zm7.916 0h3.933v-3h-3.933v3zm7.909 0h4.101v-3h-4.101v3zm8.183 0h4.062v-3h-4.062v3zm8.105 0h4.022v-3h-4.022v3zm8.024 0h3.982v-3h-3.982v3zm7.942 0h3.939v-3h-3.939v3zm7.857 0h3.963v-3h-3.963v3zm8.085 0h4.097v-3h-4.097v3zm8.169 0h4.041v-3h-4.041v3zm8.061 0h3.99v-3h-3.99v3zm7.96 0h3.94v-3h-3.94v3zm7.85 0h3.88v-3h-3.88v3zm8.01 0h4.12v-3h-4.12v3zm8.22 0h4.05v-3h-4.05v3zm8.07 0h3.99v-3h-3.99v3zm7.94 0h3.92v-3h-3.92v3zm7.79 0h3.96v-3h-3.96v3zm8.14 0h4.12v-3h-4.12v3zm8.2 0h4.04v-3h-4.04v3zm8.03 0h3.93v-3h-3.93v3zm7.82 0h3.85v-3h-3.85v3zm7.9 0h4.19v-3h-4.19v3zm8.32 0h4.06v-3h-4.06v3zm8.06 0h3.93v-3h-3.93v3zm7.79 0h3.79v-3h-3.79v3zm7.97 0h4.21v-3h-4.21v3zm8.32 0h4.02v-3h-4.02v3zm7.94 0h3.82v-3h-3.82v3zm7.58 0h4.35v-3h-4.35v3zm8.54 0h4.05v-3h-4.05v3zm7.94 0h3.74v-3h-3.74v3zm7.78 0h4.33v-3h-4.33v3zm8.4 0h3.79v-3h-3.79v3zm7.48 0h4.55v-3h-4.55v3zm8.5 0h3.58v-3h-3.58v3zm8.07 0h1.36v-3h-1.36v3zm1.36 0c.68 0 1.35.005 2.02.016l.04-3c-.68-.011-1.37-.016-2.06-.016v3zm6.01.146c1.36.067 2.68.158 3.98.273l.27-2.989c-1.34-.117-2.71-.211-4.1-.281l-.15 2.997zm7.94.704c1.35.176 2.64.377 3.93.607l.53-2.953a87.657 87.657 0 0 0-4.07-.628l-.39 2.974zm7.81 1.408c1.32.31 2.58.646 3.83 1.019l.86-2.875a68.056 68.056 0 0 0-4.01-1.065l-.68 2.921zm7.57 2.271c1.26.469 2.46.963 3.64 1.504l1.25-2.727c-1.23-.564-2.53-1.1-3.84-1.588l-1.05 2.811zm7.14 3.283c1.16.652 2.26 1.327 3.33 2.058l1.69-2.48a48.91 48.91 0 0 0-3.55-2.195l-1.47 2.617zm6.46 4.402a41.16 41.16 0 0 1 2.89 2.623l2.12-2.125a46.51 46.51 0 0 0-3.1-2.813l-1.91 2.315zm5.52 5.507a39.02 39.02 0 0 1 2.35 3.12l2.48-1.694a47.008 47.008 0 0 0-2.52-3.341l-2.31 1.915zm4.42 6.447a48.036 48.036 0 0 1 1.78 3.493l2.73-1.255a54.265 54.265 0 0 0-1.9-3.71l-2.61 1.472zm3.3 7.132c.45 1.219.86 2.449 1.25 3.738l2.87-.86c-.4-1.336-.84-2.661-1.31-3.928l-2.81 1.05zm2.27 7.56c.3 1.273.56 2.556.8 3.89l2.95-.531a70.535 70.535 0 0 0-.83-4.046l-2.92.687zm1.41 7.824c.17 1.297.31 2.605.43 3.954l2.99-.262a86.006 86.006 0 0 0-.45-4.081l-2.97.389zm.7 7.933c.07 1.313.11 2.635.13 3.993l3-.047c-.02-1.383-.06-2.757-.13-4.095l-3 .149zm1.65 6.007l-1.17.936v-.001s-.01 0 0 0h-.01l.01.001v.003c0 .003 0 .008.01.015.01.016.03.037.05.068.05.062.12.149.2.264.18.235.41.552.68.936l2.47-1.704c-.29-.42-.56-.787-.75-1.036-.09-.128-.18-.232-.23-.301a.496.496 0 0 1-.06-.083c-.01-.009-.02-.018-.02-.023 0-.002-.01-.005-.01-.006v-.004l-1.17.935zm1.31 4.888c.11.28.18.5.2.658.04.172.01.181.03.095a.672.672 0 0 1 .12-.214.654.654 0 0 1 .2-.178c.12-.062.13-.014-.12-.027l-.16 2.996c.56.029 1.16-.034 1.7-.326.6-.32.98-.836 1.14-1.415.29-.977-.05-2.028-.34-2.726l-2.77 1.137z"/><path id="b" fill-rule="evenodd" d="M10 20c5.523 0 10-4.477 10-10S15.523 0 10 0 0 4.477 0 10s4.477 10 10 10z"/><path id="d" d="M10 23c7.18 0 13-5.82 13-13h-6a7 7 0 0 1-7 7v6zm13-13c0-7.18-5.82-13-13-13v6a7 7 0 0 1 7 7h6zM10-3C2.82-3-3 2.82-3 10h6a7 7 0 0 1 7-7v-6zM-3 10c0 7.18 5.82 13 13 13v-6a7 7 0 0 1-7-7h-6z"/><path id="e" d="M4.271 11h-1.09V3.775l-2.185.803v-.984l3.106-1.166h.17V11z"/><path id="g" d="M6.299 11H.709v-.78l2.953-3.28c.438-.497.738-.899.902-1.208.168-.312.252-.634.252-.966 0-.446-.134-.81-.404-1.096-.27-.285-.629-.428-1.078-.428-.54 0-.959.154-1.26.463-.297.305-.445.73-.445 1.277H.545c0-.785.252-1.42.756-1.904.508-.484 1.185-.726 2.033-.726.793 0 1.42.209 1.88.627.462.414.692.966.692 1.658 0 .84-.535 1.84-1.605 3l-2.285 2.478h4.283V11z"/><path id="i" d="M2.285 6.207H3.1c.511-.008.914-.143 1.207-.404.293-.262.44-.615.44-1.06 0-1-.499-1.5-1.495-1.5-.469 0-.844.134-1.125.403-.277.266-.416.62-.416 1.061H.627c0-.676.246-1.236.738-1.682.496-.449 1.125-.673 1.887-.673.805 0 1.436.212 1.893.638.457.426.685 1.018.685 1.776 0 .37-.121.73-.363 1.078a2.157 2.157 0 0 1-.979.779c.469.148.83.395 1.084.738.258.344.387.764.387 1.26 0 .766-.25 1.373-.75 1.822-.5.45-1.15.674-1.951.674-.801 0-1.453-.217-1.957-.65C.8 10.033.55 9.46.55 8.75h1.09c0 .45.146.809.44 1.078.292.27.685.404 1.177.404.523 0 .924-.136 1.201-.41.277-.273.416-.666.416-1.177 0-.497-.152-.877-.457-1.143-.305-.266-.744-.402-1.318-.41h-.815v-.885z"/><path id="k" d="M5.285 8.135H6.47v.885H5.285V11h-1.09V9.02H.311v-.64L4.13 2.47h1.154v5.666zm-3.744 0h2.654V3.95l-.129.235-2.525 3.949z"/></defs></svg>