<svg width="276" height="1435" viewBox="0 0 276 1435" xmlns="http://www.w3.org/2000/svg" xmlns:xlink="http://www.w3.org/1999/xlink"><title>кривая</title><desc>Created using Figma</desc><use xlink:href="#a" transform="translate(2 -12)" fill="#EBEFF1"/><g transform="translate(9642 -3007)"><use xlink:href="#b" transform="translate(-9513 3347)" fill="#0BAFF0"/><mask id="c"><path fill="#fff" transform="translate(-9513 3347)" d="M-3-3h26v26H-3z"/><use xlink:href="#b" transform="translate(-9513 3347)"/></mask><g mask="url(#c)"><use xlink:href="#d" transform="translate(-9513 3347)" fill="#F6F9FA"/></g></g><use xlink:href="#e" transform="translate(136 343)" fill="#FFF"/><g transform="translate(9642 -3007)"><use xlink:href="#b" transform="translate(-9513 3701)" fill="#0BAFF0"/><mask id="f"><path fill="#fff" transform="translate(-9513 3701)" d="M-3-3h26v26H-3z"/><use xlink:href="#b" transform="translate(-9513 3701)"/></mask><g mask="url(#f)"><use xlink:href="#d" transform="translate(-9513 3701)" fill="#F6F9FA"/></g></g><use xlink:href="#g" transform="translate(135.6 697)" fill="#FFF"/><g transform="translate(9642 -3007)"><use xlink:href="#b" transform="translate(-9514 4055)" fill="#0BAFF0"/><mask id="h"><path fill="#fff" transform="translate(-9514 4055)" d="M-3-3h26v26H-3z"/><use xlink:href="#b" transform="translate(-9514 4055)"/></mask><g mask="url(#h)"><use xlink:href="#d" transform="translate(-9514 4055)" fill="#F6F9FA"/></g></g><use xlink:href="#i" transform="translate(134.6 1051)" fill="#FFF"/><g transform="translate(9642 -3007)"><use xlink:href="#b" transform="translate(-9514 4389)" fill="#0BAFF0"/><mask id="j"><path fill="#fff" transform="translate(-9514 4389)" d="M-3-3h26v26H-3z"/><use xlink:href="#b" transform="translate(-9514 4389)"/></mask><g mask="url(#j)"><use xlink:href="#d" transform="translate(-9514 4389)" fill="#F6F9FA"/></g></g><use xlink:href="#k" transform="translate(134 1385)" fill="#FFF"/><defs><path id="a" d="M0 1458.1h-1.5H0zm271.869-109.13h1.5-1.5zm.014-222.31h-1.5 1.5zM0 771.4h1.5H0zm55.973-55.757l-.005-1.5.005 1.5zm159.923 0l.005-1.5-.005 1.5zM1.5 1578.17v-1.97h-3v1.97h3zm0-5.99v-3.99h-3v3.99h3zm0-7.99v-4.01h-3v4.01h3zm0-8.01v-4.01h-3v4.01h3zm0-8.01v-4.01h-3v4.01h3zm0-8.02v-4h-3v4h3zm0-8v-4h-3v4h3zm0-8.01v-4h-3v4h3zm0-8.01v-4h-3v4h3zm0-8v-4.01h-3v4.01h3zm0-8.02v-4h-3v4h3zm0-8.01v-4h-3v4h3zm0-8.01v-4h-3v4h3zm0-8.01v-4h-3v4h3zm0-7.98v-4.04h-3v4.04h3zm0-8.04v-1.96h-3v1.96h3zm0-1.96c0-.68.008-1.33.023-1.99l-3-.07a88.3 88.3 0 0 0-.023 2.06h3zm.212-5.93c.099-1.34.23-2.63.395-3.9l-2.975-.39c-.17 1.32-.31 2.69-.412 4.07l2.992.22zm1.015-7.77c.255-1.32.542-2.58.87-3.82l-2.9-.77a62.35 62.35 0 0 0-.915 4.02l2.945.57zm2.007-7.56a47.79 47.79 0 0 1 1.417-3.62l-2.746-1.21a52.232 52.232 0 0 0-1.506 3.85l2.835.98zm3.134-7.11a43.272 43.272 0 0 1 2.014-3.31l-2.487-1.67a46.328 46.328 0 0 0-2.158 3.54l2.63 1.44zm4.328-6.41a38.14 38.14 0 0 1 2.596-2.87l-2.126-2.12a45.85 45.85 0 0 0-2.788 3.08l2.318 1.91zm5.456-5.49c1.006-.83 2.02-1.6 3.093-2.33l-1.7-2.48c-1.128.78-2.25 1.63-3.31 2.51l1.917 2.3zm6.387-4.4a52.774 52.774 0 0 1 3.462-1.78l-1.267-2.72a50.713 50.713 0 0 0-3.676 1.9l1.481 2.6zm7.06-3.29a57.9 57.9 0 0 1 3.706-1.26l-.866-2.87c-1.31.4-2.627.84-3.9 1.32l1.06 2.81zm7.495-2.27c1.278-.3 2.548-.56 3.85-.78l-.514-2.96a77.02 77.02 0 0 0-4.02.82l.684 2.92zm7.745-1.35a73.35 73.35 0 0 1 3.924-.37l-.206-2.99a79.24 79.24 0 0 0-4.073.38l.355 2.98zm7.867-.55c.66-.01 1.313-.02 1.974-.02v-3c-.677 0-1.363.01-2.041.02l.067 3zm1.974-.02h1.95v-3h-1.95v3zm5.98 0c1.25.01 2.579.01 3.98.01l.002-3c-1.401 0-2.73 0-3.98-.01l-.001 3zm7.97.01c1.288 0 2.622 0 4 .01l.004-3c-1.379-.01-2.713-.01-4-.01l-.004 3zm7.974.01h3.978l.004-3h-3.978l-.004 3zm7.966.01c1.31 0 2.645 0 4 .01l.004-3c-1.355-.01-2.69-.01-4-.01l-.004 3zm8.007.01c1.308 0 2.632 0 3.972.01l.004-3c-1.34-.01-2.664-.01-3.972-.01l-.004 3zm7.962.01c1.322 0 2.657.01 4.003.01l.004-3c-1.346 0-2.68-.01-4.003-.01l-.004 3zm7.987.01c1.321.01 2.651.01 3.988.01l.004-3c-1.337 0-2.667 0-3.988-.01l-.004 3zm7.986.02h3.987l.005-3h-3.987l-.005 3zm7.978.01h3.994l.004-3h-3.994l-.004 3zm7.983.01c1.33 0 2.661 0 3.992.01l.004-3c-1.33-.01-2.661-.01-3.992-.01l-.004 3zm7.98.01c1.334 0 2.666.01 3.994.01l.005-3c-1.329 0-2.661-.01-3.994-.01l-.005 3zm7.986.01c1.333.01 2.662.01 3.984.01l.005-3c-1.323 0-2.651 0-3.984-.01l-.005 3zm7.984.02h3.991l.004-3h-3.991l-.004 3zm7.97.01h4.004l.005-3h-4.005l-.004 3zm7.997.01h3.977l.004-3h-3.977l-.004 3zm7.975.01h4.002l.004-3h-4.002l-.004 3zm7.994.01h3.98l.004-3h-3.981l-.003 3zm7.955.01h3.989l.003-3h-3.989l-.003 3zm7.981.01h3.99l.002-3h-3.989l-.003 3zm8.017 0h1.95v-3h-1.949l-.001 3zm1.95 0c.687 0 1.384-.01 2.07-.03l-.082-3c-.666.02-1.322.03-1.988.03v3zm6.206-.26c1.371-.11 2.759-.27 4.118-.46l-.425-2.97c-1.315.19-2.616.33-3.944.44l.251 2.99zm8.206-1.17a68.76 68.76 0 0 0 4.038-.97l-.792-2.9c-1.278.36-2.547.66-3.852.93l.606 2.94zm8.011-2.2a65.19 65.19 0 0 0 3.881-1.51l-1.185-2.76c-1.215.53-2.427 1-3.682 1.43l.986 2.84zm7.648-3.3c1.224-.64 2.45-1.34 3.622-2.08l-1.595-2.54a45.53 45.53 0 0 1-3.416 1.96l1.389 2.66zm7.069-4.44a48.726 48.726 0 0 0 3.238-2.65l-1.996-2.24c-.989.88-1.987 1.7-3.041 2.49l1.799 2.4zm6.241-5.57c.941-1 1.867-2.07 2.732-3.17l-2.356-1.86a42.257 42.257 0 0 1-2.56 2.97l2.184 2.06zm5.181-6.57a50.362 50.362 0 0 0 2.14-3.59l-2.639-1.43a42.813 42.813 0 0 1-2.01 3.37l2.509 1.65zm3.977-7.35a53.512 53.512 0 0 0 1.527-3.88l-2.832-.99a50.44 50.44 0 0 1-1.442 3.67l2.747 1.2zm2.758-7.85c.353-1.31.675-2.68.95-4.06l-2.942-.58c-.265 1.33-.563 2.6-.904 3.85l2.896.79zm1.634-8.15c.18-1.33.328-2.72.437-4.11l-2.991-.24a68.314 68.314 0 0 1-.419 3.95l2.973.4zm.649-8.24c.018-.68.027-1.38.027-2.08h-3c0 .68-.009 1.34-.026 2l2.999.08zm.027-2.08l.002-1.91-3-.01-.002 1.92h3zm.005-5.89l.002-3.99h-3l-.002 3.99h3zm.004-8l.001-3.93h-3l-.001 3.93h3zm.003-7.89l.001-4.01h-3l-.001 4.01h3zm.002-7.95l.002-3.98h-3l-.002 3.98h3zm.003-7.96v-3.96h-3v3.96h3zm.001-7.96l.001-3.94h-3l-.001 3.94h3zm.002-7.94v-3.94h-3v3.94h3zm.001-7.94v-3.95h-3v3.95h3zm.001-7.94v-3.95h-3v3.95h3zm.001-7.94v-3.96h-3v3.96h3zm0-7.94l.001-3.96h-3l-.001 3.96h3zm.001-7.94v-3.96h-3v3.96h3zm0-7.94v-3.97h-3v3.97h3zm0-7.94l.001-3.97h-3l-.001 3.97h3zm.001-7.94v-3.97h-3v3.97h3zm0-7.95v-3.96h-3v3.96h3zm0-7.94l-.001-3.96h-3l.001 3.96h3zm-.001-7.95v-3.95h-3v3.96l3-.01zm0-7.94v-3.95h-3v3.95h3zm0-7.94l-.001-3.95h-3l.001 3.95h3zm-.001-7.95v-3.94h-3v3.94h3zm-.001-7.94v-3.94h-3v3.94h3zm0-7.94l-.001-3.96h-3l.001 3.96h3zm-.001-7.94l-.001-3.98h-3l.001 3.98h3zm-.001-7.92l-.001-4.01h-3l.001 4.02 3-.01zm-.002-7.97l-.001-3.93h-3l.001 3.93h3zm-.001-7.94l-.001-3.99h-3l.001 3.99h3zm-.003-7.97v-1.91h-3v1.91h3zm0-1.91c0-.7-.009-1.4-.026-2.08l-2.999.07c.016.67.025 1.33.025 2.01h3zm-.234-6.22a75.45 75.45 0 0 0-.432-4.12l-2.973.4c.173 1.29.31 2.6.414 3.95l2.991-.23zm-1.107-8.21a62.528 62.528 0 0 0-.941-4.07l-2.898.78c.338 1.26.633 2.53.895 3.87l2.944-.58zm-2.16-8.05c-.46-1.33-.972-2.64-1.512-3.89l-2.752 1.2c.518 1.19.988 2.4 1.429 3.67l2.835-.98zm-3.335-7.66a48.327 48.327 0 0 0-2.125-3.6l-2.517 1.63c.71 1.09 1.365 2.2 1.996 3.38l2.646-1.41zm-4.558-7.02a45.34 45.34 0 0 0-2.718-3.19l-2.196 2.04a44.87 44.87 0 0 1 2.548 2.99l2.366-1.84zm-5.708-6.13a46.394 46.394 0 0 0-3.229-2.67l-1.812 2.39a43.46 43.46 0 0 1 3.032 2.5l2.009-2.22zm-6.669-5.06a56.14 56.14 0 0 0-3.618-2.1l-1.401 2.65c1.172.62 2.293 1.27 3.412 1.98l1.607-2.53zm-7.383-3.91a58.902 58.902 0 0 0-3.882-1.52l-.995 2.83c1.255.44 2.466.92 3.681 1.45l1.196-2.76zm-7.857-2.77a68.73 68.73 0 0 0-4.043-.97l-.611 2.93c1.305.27 2.575.58 3.854.94l.8-2.9zm-8.136-1.69c-1.36-.2-2.751-.36-4.124-.48l-.254 2.99c1.33.11 2.632.26 3.949.45l.429-2.96zm-8.266-.71c-.688-.02-1.386-.03-2.074-.03v3c.667 0 1.324.01 1.99.03l.084-3zm-2.074-.03h-1.953v3h1.953v-3zm-5.99 0h-3.996l.001 3h3.995v-3zm-7.996 0h-3.999v3h3.999v-3zm-7.982 0h-3.989l.001 3h3.989l-.001-3zm-7.988 0h-4.012l.001 3h4.011v-3zm-8.018.01h-3.985l.001 3h3.985l-.001-3zm-7.987 0h-4.014l.001 3h4.014l-.001-3zm-8 0h-4l.001 3h3.999v-3zm-8.008 0h-3.992v3h3.992v-3zm-7.993 0h-4.002l.001 3h4.002l-.001-3zm-7.999 0h-4.001v3h4.001v-3zm-7.999 0h-4.002v3h4.003l-.001-3zm-8.001 0h-3.997l.001 3h3.997l-.001-3zm-8.003.01h-3.995l.001 3h3.995l-.001-3zm-7.991 0h-4.01l.001 3h4.009v-3zm-8.006 0h-3.983v3h3.984v-3zm-8 0h-4.007v3h4.007v-3zm-8 0H77.95v3h3.984v-3zm-7.978 0H69.95v3h4.009v-3zm-8.008 0h-3.982v3h3.982v-3zm-8.02 0h-1.956v3h1.955v-3zm-1.956 0c-.645 0-1.273-.01-1.92-.04l-.14 2.99c.682.04 1.38.05 2.06.05v-3zm-5.751-.4a41.88 41.88 0 0 1-3.794-.69l-.661 2.93c1.335.3 2.706.55 4.046.74l.409-2.98zm-7.519-1.69c-1.23-.39-2.427-.81-3.642-1.3l-1.12 2.78a51.2 51.2 0 0 0 3.864 1.38l.898-2.86zm-7.173-2.88a54.275 54.275 0 0 1-3.413-1.84L30.6 1065c1.178.69 2.397 1.34 3.604 1.94l1.326-2.69zm-6.688-3.92a57.887 57.887 0 0 1-3.127-2.29l-1.858 2.35c1.07.84 2.182 1.66 3.291 2.42l1.694-2.48zm-6.095-4.8a61.74 61.74 0 0 1-2.797-2.7l-2.15 2.1c.95.97 1.94 1.93 2.936 2.83l2.01-2.23zm-5.418-5.57a59.857 59.857 0 0 1-2.435-3.03l-2.397 1.8a65.7 65.7 0 0 0 2.552 3.18l2.28-1.95zm-4.676-6.21a59.525 59.525 0 0 1-2.044-3.32l-2.6 1.5a68.3 68.3 0 0 0 2.14 3.47l2.504-1.65zM8.767 1037a66.335 66.335 0 0 1-1.633-3.53l-2.759 1.18a71.27 71.27 0 0 0 1.707 3.69l2.685-1.34zm-3.058-7.16c-.439-1.21-.84-2.44-1.216-3.7l-2.875.85a71.5 71.5 0 0 0 1.269 3.87l2.822-1.02zm-2.222-7.47a71.318 71.318 0 0 1-.796-3.82l-2.952.53c.242 1.34.522 2.68.83 3.98l2.918-.69zm-1.385-7.68a74.91 74.91 0 0 1-.389-3.88l-2.991.22c.1 1.36.237 2.72.403 4.04l2.977-.38zm-.58-7.78a80.47 80.47 0 0 1-.022-1.97h-3c0 .68.008 1.37.024 2.04l2.999-.07zm-.022-1.97l.001-1.91-3-.01-.001 1.92h3zm.003-5.953v-4.062l-3-.001v4.062l3 .001zm.002-8.11v-3.98l-3-.001v3.98l3 .001zm.002-8.04v-4.021h-3v4.021h3zm0-8.039l.001-4.058h-3v4.058h3zm.001-8.055v-4.065h-3v4.064l3 .001zm.001-8.06v-4.056h-3v4.056h3zm0-8.061v-4.043h-3v4.042l3 .001zm0-8.064v-4.029h-3v4.029h3zm0-8.065v-4.017h-3v4.017h3zm0-8.066v-4.009h-3v4.009h3zm0-8.051v-4.02h-3v4.02h3zm0-8.049v-4.032h-3v4.032h3zm0-8.056v-4.034h-3v4.034h3zm0-8.06v-4.027h-3v4.027h3zm0-8.058v-4.028h-3v4.028h3zm0-8.053l-.001-4.035h-3v4.035h3zm-.001-8.053v-4.04h-3v4.04h3zm0-8.064l-.001-4.028h-3v4.028h3zm-.001-8.063v-4.01l-3 .001v4.009h3zm0-8.062l-.001-3.999h-3v3.999h3zm-.001-8.058v-4.007h-3v4.007h3zm-.001-8.057v-4.013l-3 .001v4.012h3zm0-8.057l-.001-4.013h-3v4.013h3zm-.001-8.061v-4h-3v4h3zm-.001-8.065v-3.962h-3v3.962h3zm0-8.057l-.001-4.022-3 .001v4.021h3zm-.002-7.994v-4.084h-3v4.084h3zm0-8.134v-4.031h-3v4.032l3-.001zm0-7.98L1.5 771.4h-3v1.995h3zM1.5 771.4c0-.676.008-1.336.025-1.999l-2.999-.077A81.7 81.7 0 0 0-1.5 771.4h3zm.232-5.952c.108-1.347.25-2.64.429-3.925l-2.972-.414a70.878 70.878 0 0 0-.447 4.1l2.99.239zm1.095-7.813c.271-1.323.575-2.585.923-3.836l-2.891-.802a61.18 61.18 0 0 0-.97 4.036l2.938.602zm2.11-7.583a49.996 49.996 0 0 1 1.463-3.637l-2.738-1.227a54.507 54.507 0 0 0-1.549 3.852l2.824 1.012zm3.21-7.152a46.253 46.253 0 0 1 2.026-3.346l-2.5-1.66a50.448 50.448 0 0 0-2.154 3.562l2.629 1.444zm4.33-6.514a44.992 44.992 0 0 1 2.56-2.955l-2.18-2.06a49.416 49.416 0 0 0-2.73 3.149l2.35 1.866zm5.368-5.686a46.619 46.619 0 0 1 3.026-2.487l-1.808-2.394a50.788 50.788 0 0 0-3.217 2.644l2 2.237zm6.249-4.724a50.518 50.518 0 0 1 3.391-1.979l-1.412-2.647a54.478 54.478 0 0 0-3.59 2.096l1.611 2.53zm6.926-3.701a55.595 55.595 0 0 1 3.655-1.465l-1.02-2.822a60.187 60.187 0 0 0-3.849 1.544l1.214 2.743zm7.405-2.678a60.015 60.015 0 0 1 3.826-.965l-.64-2.931c-1.34.292-2.694.634-4.014 1.012l.828 2.884zm7.709-1.687a64.23 64.23 0 0 1 3.923-.484l-.277-2.987a69.524 69.524 0 0 0-4.103.506l.457 2.965zm7.868-.731a65.238 65.238 0 0 1 1.976-.036l-.01-3a67.81 67.81 0 0 0-2.065.038l.1 2.998zm1.976-.036l1.957-.006-.01-3-1.957.006.01 3zm5.99-.017l3.982-.009-.006-3-3.982.009.007 3zm7.98-.016l4.006-.006-.004-3-4.007.006.005 3zm8.013-.011l3.98-.005-.003-3-3.981.005.004 3zm7.97-.009l4.002-.004-.003-3-4.001.004.003 3zm8.015-.007l3.996-.003-.001-3-3.998.003.003 3zm7.986-.005l4.005-.003-.002-3-4.004.003.001 3zm8.013-.005l3.989-.001-.001-3-3.989.001.001 3zm7.99-.002l4.005-.002v-3l-4.005.002v3zm7.999-.002l4.001-.001v-3l-4.002.001.001 3zm8.001-.001h3.999v-3h-3.999v3zm7.999 0h3.997l.001-3h-3.998v3zm8.001.001l3.997.001.001-3-3.998-.001v3zm7.994.002l4.006.002.001-3-4.006-.002-.001 3zm8.002.004l3.992.002.002-3-3.993-.002-.001 3zm8.004.004l3.999.003.002-3-3.999-.003-.002 3zm7.982.006l4.008.004.003-3-4.008-.004-.003 3zm8.019.008l4.001.005.004-3-4.002-.005-.003 3zm7.995.011l3.992.006.005-3-3.992-.006-.005 3zm7.986.013l4.006.009.007-3-4.007-.009-.006 3zm8.022.02l1.952.006.01-3-1.953-.006-.009 3zm1.952.006a74.28 74.28 0 0 0 2.058-.022l-.073-2.999a72.25 72.25 0 0 1-1.975.021l-.01 3zm6.169-.238a70.946 70.946 0 0 0 4.094-.453l-.418-2.97a67.341 67.341 0 0 1-3.919.433l.243 2.99zm8.158-1.15a65.036 65.036 0 0 0 4.015-.95l-.785-2.896c-1.27.345-2.532.643-3.828.906l.598 2.94zm7.966-2.163a59.576 59.576 0 0 0 3.861-1.485l-1.176-2.76a54.267 54.267 0 0 1-3.663 1.408l.978 2.837zm7.61-3.248a53.832 53.832 0 0 0 3.607-2.047l-1.582-2.549a49.294 49.294 0 0 1-3.403 1.931l1.378 2.665zm7.044-4.38a49.283 49.283 0 0 0 3.233-2.613l-1.983-2.251a44.886 44.886 0 0 1-3.036 2.453l1.786 2.411zm6.234-5.496a48.435 48.435 0 0 0 2.736-3.132l-2.343-1.873a44.086 44.086 0 0 1-2.564 2.934l2.171 2.071zm5.192-6.496a49.979 49.979 0 0 0 2.151-3.552l-2.63-1.444a45.32 45.32 0 0 1-2.019 3.334l2.498 1.662zm3.999-7.276a53.918 53.918 0 0 0 1.539-3.848l-2.827-1.006a48.863 48.863 0 0 1-1.452 3.631l2.74 1.223zm2.78-7.795c.357-1.298.681-2.657.959-4.027l-2.94-.596a56.945 56.945 0 0 1-.911 3.827l2.892.796zm1.649-8.095a71.95 71.95 0 0 0 .44-4.088l-2.991-.235a67.77 67.77 0 0 1-.421 3.914l2.972.409zm.652-8.19c.017-.68.025-1.376.025-2.07h-3c0 .675-.008 1.333-.025 1.994l3 .076zm.025-2.07l.001-1.923h-3l-.001 1.923h3zm.001-5.952l.001-4.045-3-.001-.001 4.045 3 .001zm.003-8.123l.001-3.96-3-.002-.001 3.961 3 .001zm.003-7.986l.002-4.066-3-.002-.002 4.067 3 .001zm.004-8.042l.002-4.061-3-.002-.002 4.062 3 .001zm.004-8.053l.002-4.043-3-.001-.002 4.043 3 .001zm.004-8.051l.003-4.036-3-.002-.003 4.036 3 .002zm.005-8.048l.002-4.037-3-.002-.002 4.037 3 .002zm.005-8.046l.002-4.043-3-.002-.002 4.043 3 .002zm.005-8.046l.002-4.05-3-.002-.002 4.05 3 .002zm.005-8.049l.002-4.039-3-.002-.002 4.039 3 .002zm.005-8.05l.002-4.027-3-.002-.002 4.027 3 .002zm.005-8.051l.002-4.02-3-.002-.002 4.02 3 .002zm.005-8.051l.003-4.016-3-.002-.003 4.016 3 .002zm.005-8.044l.003-4.021-3-.002-.003 4.021 3 .002zm.005-8.044l.003-4.025-3-.001-.003 4.024 3 .002zm.006-8.047l.002-4.021-3-.002-.002 4.021 3 .002zm.005-8.049l.002-4.016-3-.002-.002 4.016 3 .002zm.005-8.048l.003-4.019-3-.002-.003 4.019 3 .002zm.005-8.044l.003-4.026-3-.002-.003 4.027 3 .001zm.005-8.038l.003-4.039-3-.002-.003 4.039 3 .002zm.005-8.036l.003-4.051-3-.002-.003 4.051 3 .002zm.005-8.053l.003-4.045-3-.002-.003 4.045 3 .002zm.005-8.052l.002-4.039-3-.002-.002 4.039 3 .002zm.005-8.049l.002-4.038-3-.002-.002 4.038 3 .002zm.004-8.045l.003-4.045-3-.001-.003 4.045 3 .001zm.005-8.034l.002-4.063-3-.002a5370.02 5370.02 0 0 0-.002 4.063l3 .002zm.004-8.041l.001-4.063-3-.001-.001 4.063 3 .001zm.003-8.09l.002-3.962-3-.001-.002 3.961 3 .002zm.003-8.038l.001-4.045-3-.001-.001 4.045 3 .001zm.002-8.075v-1.923h-3v1.923h3zm0-1.923c0-.701-.009-1.405-.026-2.093l-2.999.076c.017.669.025 1.335.025 2.017h3zm-.241-6.243a72.944 72.944 0 0 0-.446-4.134l-2.972.409c.178 1.297.32 2.604.427 3.961l2.991-.236zm-1.143-8.249a63.405 63.405 0 0 0-.964-4.071l-2.894.79c.346 1.265.648 2.541.918 3.875l2.94-.594zm-2.209-8.064a56.082 56.082 0 0 0-1.537-3.897l-2.747 1.207a51.614 51.614 0 0 1 1.454 3.685l2.83-.995zm-3.378-7.672a52.117 52.117 0 0 0-2.137-3.611l-2.517 1.634a47.161 47.161 0 0 1 2.012 3.398l2.642-1.421zm-4.574-7.041a50.167 50.167 0 0 0-2.714-3.207l-2.206 2.032a45.85 45.85 0 0 1 2.549 3.014l2.371-1.839zm-5.692-6.178a51.088 51.088 0 0 0-3.212-2.707l-1.837 2.371a47.016 47.016 0 0 1 3.022 2.548l2.027-2.212zm-6.633-5.143a54.367 54.367 0 0 0-3.599-2.153l-1.44 2.632a50.083 50.083 0 0 1 3.399 2.033l1.64-2.512zm-7.35-4.023a58.252 58.252 0 0 0-3.873-1.588l-1.038 2.815c1.252.461 2.461.956 3.674 1.505l1.237-2.732zm-7.845-2.897a62.821 62.821 0 0 0-4.048-1.036l-.647 2.929c1.305.289 2.575.613 3.854.987l.841-2.88zm-8.151-1.805a68.403 68.403 0 0 0-4.141-.507l-.272 2.988c1.332.121 2.636.28 3.955.484l.458-2.965zm-8.303-.759a72.482 72.482 0 0 0-2.085-.031v3c.669 0 1.326.01 1.994.03l.091-2.999zm-2.085-.031h-1.959v3h1.959v-3zm-6.007 0h-4.006v3h4.006v-3zm-8.018 0h-4.01v3h4.01v-3zm-8.004 0h-4v3h4v-3zm-8.012 0h-4.023v3h4.023v-3zm-8.039 0h-3.997v3h3.997v-3zm-8.01 0h-4.026v3h4.026v-3zm-8.023 0h-4.011v3h4.011v-3zm-8.032 0h-4.002v3h4.002v-3zm-8.014 0h-4.013v3h4.013v-3zm-8.022 0h-4.012v3h4.012v-3zm-8.021 0h-4.014v3h4.014v-3zm-8.023 0h-4.01v3h4.01v-3zm-8.026 0h-4.005v3h4.005v-3zm-8.016 0h-4.02v3h4.02v-3zm-8.025 0h-3.999v3h4v-3zm-8.027 0h-4.015v3h4.015v-3zm-8.018 0h-3.992v3h3.992v-3zm-8.007 0h-4.02v3h4.02v-3zm-8.03 0h-3.994v3h3.994v-3zm-8.039 0h-1.96v3h1.96v-3zm-1.96 0c-.658 0-1.307-.009-1.967-.028l-.085 2.999c.682.019 1.373.029 2.051.029v-3zm-5.893-.251a66.03 66.03 0 0 1-3.906-.45l-.431 2.969c1.35.196 2.727.354 4.08.47l.257-2.989zm-7.773-1.132a60.158 60.158 0 0 1-3.813-.922l-.798 2.892c1.316.363 2.666.689 4 .967l.611-2.937zm-7.553-2.089c-1.24-.433-2.44-.9-3.645-1.42l-1.188 2.755a59.116 59.116 0 0 0 3.843 1.497l.99-2.832zm-7.173-3.099a48.513 48.513 0 0 1-3.382-1.941l-1.595 2.541a53.068 53.068 0 0 0 3.587 2.058l1.39-2.658zm-6.593-4.145a44.868 44.868 0 0 1-3.011-2.461l-1.997 2.239a49.212 49.212 0 0 0 3.209 2.623l1.799-2.401zm-5.798-5.172a43.357 43.357 0 0 1-2.536-2.942l-2.356 1.857a47.824 47.824 0 0 0 2.708 3.142l2.184-2.057zm-4.806-6.097a44.9 44.9 0 0 1-1.99-3.341l-2.64 1.425a49.285 49.285 0 0 0 2.12 3.56l2.51-1.644zm-3.699-6.846a49.685 49.685 0 0 1-1.422-3.625l-2.833.988a54.17 54.17 0 0 0 1.507 3.841l2.748-1.204zm-2.573-7.363a57.521 57.521 0 0 1-.89-3.824l-2.943.582a61.82 61.82 0 0 0 .936 4.022l2.897-.78zm-1.53-7.688a68.404 68.404 0 0 1-.41-3.907l-2.991.23c.106 1.384.25 2.757.428 4.076l2.973-.399zm-.608-7.84a80.347 80.347 0 0 1-.024-1.99h-3c0 .692.009 1.386.025 2.064l3-.074zm-.024-1.99v-1.953h-3v1.953h3zm0-5.986v-3.976h-3v3.976h3zm0-7.973v-3.999h-3v3.999h3zm0-7.961v-3.977h-3v3.977h3zm0-7.984v-4.019h-3v4.019h3zm0-7.972v-4.013h-3v4.013h3zm0-8.002v-3.979h-3v3.979h3zm0-8.004v-3.957h-3v3.957h3zm0-7.996v-3.945h-3v3.945h3zm0-7.984v-3.947h-3v3.947h3zm0-7.974v-3.962h-3v3.962h3zm0-7.969v-3.99h-3v3.99h3zm0-7.972v-4.026h-3v4.026h3zm0-7.98v-4.026h-3v4.026h3zm0-7.995v-3.989h-3v3.989h3zm0-8.018v-3.951h-3v3.951h3zm0-7.963v-3.996h-3v3.996h3zm0-7.964v-4.026h-3v4.026h3zm0-8.001v-3.978h-3v3.978h3zm0-8.009v-3.966h-3v3.966h3zm0-7.948v-4.03h-3v4.03h3zm0-7.998v-3.979h-3v3.979h3zm0-8.003v-3.981h-3v3.981h3zm0-7.953v-4.014h-3v4.014h3zm0-8.017v-3.962h-3v3.962h3zm0-7.963v-4.035h-3v4.035h3zm0-7.984v-3.986h-3v3.986h3zm0-8.008v-3.986h-3v3.986h3zm0-7.954v-4.003h-3v4.003h3zm0-8.04v-3.949h-3v3.95h3zm0-7.93V65.91h-3v4.014h3zm0-8.023v-3.96h-3v3.96h3zm0-7.95V49.93h-3v4.022h3zm0-8.012v-3.966h-3v3.966h3zm0-7.961v-4.024h-3v4.024h3zm0-8.006v-3.969h-3v3.97h3zm0-7.965v-4.024h-3v4.024h3zm0-8.006v-3.969h-3v3.969h3zm0-7.963V2.02h-3v4.02h3z"/><path id="b" fill-rule="evenodd" d="M10 20c5.523 0 10-4.477 10-10S15.523 0 10 0 0 4.477 0 10s4.477 10 10 10z"/><path id="d" d="M10 23c7.18 0 13-5.82 13-13h-6a7 7 0 0 1-7 7v6zm13-13c0-7.18-5.82-13-13-13v6a7 7 0 0 1 7 7h6zM10-3C2.82-3-3 2.82-3 10h6a7 7 0 0 1 7-7v-6zM-3 10c0 7.18 5.82 13 13 13v-6a7 7 0 0 1-7-7h-6z"/><path id="e" d="M4.271 11h-1.09V3.775l-2.185.803v-.984l3.106-1.166h.17V11z"/><path id="g" d="M6.299 11H.709v-.78l2.953-3.28c.438-.497.738-.899.902-1.208.168-.312.252-.634.252-.966 0-.446-.134-.81-.404-1.096-.27-.285-.629-.428-1.078-.428-.54 0-.959.154-1.26.463-.297.305-.445.73-.445 1.277H.545c0-.785.252-1.42.756-1.904.508-.484 1.185-.726 2.033-.726.793 0 1.42.209 1.88.627.462.414.692.966.692 1.658 0 .84-.535 1.84-1.605 3l-2.285 2.478h4.283V11z"/><path id="i" d="M2.285 6.207H3.1c.511-.008.914-.143 1.207-.404.293-.262.44-.615.44-1.06 0-1-.499-1.5-1.495-1.5-.469 0-.844.134-1.125.403-.277.266-.416.62-.416 1.061H.627c0-.676.246-1.236.738-1.682.496-.449 1.125-.673 1.887-.673.805 0 1.436.212 1.893.638.457.426.685 1.018.685 1.776 0 .37-.121.73-.363 1.078a2.157 2.157 0 0 1-.979.779c.469.148.83.395 1.084.738.258.344.387.764.387 1.26 0 .766-.25 1.373-.75 1.822-.5.45-1.15.674-1.951.674-.801 0-1.453-.217-1.957-.65C.8 10.033.55 9.46.55 8.75h1.09c0 .45.146.809.44 1.078.292.27.685.404 1.177.404.523 0 .924-.136 1.201-.41.277-.273.416-.666.416-1.177 0-.497-.152-.877-.457-1.143-.305-.266-.744-.402-1.318-.41h-.815v-.885z"/><path id="k" d="M5.285 8.135H6.47v.885H5.285V11h-1.09V9.02H.311v-.64L4.13 2.47h1.154v5.666zm-3.744 0h2.654V3.95l-.129.235-2.525 3.949z"/></defs></svg>