<svg width="319" height="267" viewBox="0 0 319 267" xmlns="http://www.w3.org/2000/svg" xmlns:xlink="http://www.w3.org/1999/xlink"><title>price-bg-1920-1</title><desc>Created using Figma</desc><use xlink:href="#a" transform="translate(59.98 45.25)" fill="#FB992D"/><use xlink:href="#b" transform="translate(.35 45.25)" fill="#FFB739"/><use xlink:href="#c" transform="translate(.35 5)" fill="#FB992D"/><use xlink:href="#d" transform="translate(45.98 31.18)" fill="#F67A21"/><use xlink:href="#e" transform="translate(24.87 59.32)" fill="#FFEAC3"/><use xlink:href="#f" transform="translate(24.87 19.07)" fill="#FFD488"/><g transform="translate(188.12 5)" fill="#CFD8DC"><use xlink:href="#g"/><use xlink:href="#h"/></g><g transform="translate(188.12 9.11)" fill="#B0BEC5"><use xlink:href="#i"/><use xlink:href="#j"/></g><use xlink:href="#k" transform="translate(308.64 73.19)" fill="#90A4AE"/><use xlink:href="#l" transform="translate(194.35 19.08)" fill="#F57C00"/><g transform="translate(87.56 183.59)" fill="#90A4AE"><use xlink:href="#m"/><use xlink:href="#n"/></g><use xlink:href="#o" transform="translate(85.05 122.92)" fill="#CFD8DC"/><g transform="translate(132.91 186.56)" fill="#B0BEC5"><use xlink:href="#p"/><use xlink:href="#q"/></g><g transform="translate(206.23 164.01)"><use xlink:href="#r" fill="#546E7A"/><use xlink:href="#s" fill="#CFD8DC"/></g><g transform="translate(167.01 172.92)"><use xlink:href="#t" fill="#546E7A"/><use xlink:href="#u" fill="#CFD8DC"/></g><g transform="translate(191.02 186.8)"><use xlink:href="#v" fill="#546E7A"/><use xlink:href="#w" fill="#CFD8DC"/></g><g transform="translate(203.03 193.75)"><use xlink:href="#x" fill="#546E7A"/><use xlink:href="#y" fill="#CFD8DC"/></g><g transform="translate(179.02 179.86)"><use xlink:href="#z" fill="#546E7A"/><use xlink:href="#A" fill="#CFD8DC"/></g><g transform="translate(192.62 171.94)"><use xlink:href="#v" fill="#546E7A"/><use xlink:href="#w" fill="#CFD8DC"/></g><g transform="translate(231.86 163.03)"><use xlink:href="#B" fill="#546E7A"/><use xlink:href="#C" fill="#CFD8DC"/></g><g transform="translate(243.86 169.98)"><use xlink:href="#D" fill="#546E7A"/><use xlink:href="#E" fill="#CFD8DC"/></g><g transform="translate(218.24 170.96)"><use xlink:href="#F" fill="#546E7A"/><use xlink:href="#G" fill="#CFD8DC"/></g><g transform="translate(230.25 177.9)"><use xlink:href="#H" fill="#546E7A"/><use xlink:href="#I" fill="#CFD8DC"/></g><g transform="translate(204.63 178.88)"><use xlink:href="#J" fill="#546E7A"/><use xlink:href="#K" fill="#CFD8DC"/></g><g transform="translate(216.64 185.83)"><use xlink:href="#L" fill="#546E7A"/><use xlink:href="#M" fill="#CFD8DC"/></g><g transform="translate(219.85 156.09)"><use xlink:href="#z" fill="#546E7A"/><use xlink:href="#A" fill="#CFD8DC"/></g><g transform="translate(194.23 157.07)"><use xlink:href="#z" fill="#546E7A"/><use xlink:href="#A" fill="#CFD8DC"/></g><g transform="translate(207.84 149.15)"><use xlink:href="#N" fill="#546E7A"/><use xlink:href="#O" fill="#CFD8DC"/></g><g transform="translate(195.84 142.2)"><use xlink:href="#B" fill="#546E7A"/><use xlink:href="#C" fill="#CFD8DC"/></g><g transform="translate(182.22 150.13)"><use xlink:href="#P" fill="#546E7A"/><use xlink:href="#Q" fill="#CFD8DC"/></g><g transform="translate(170.22 143.18)"><use xlink:href="#R" fill="#546E7A"/><use xlink:href="#S" fill="#CFD8DC"/></g><g transform="translate(183.83 135.26)"><use xlink:href="#D" fill="#546E7A"/><use xlink:href="#E" fill="#CFD8DC"/></g><g transform="translate(267.88 183.87)"><use xlink:href="#R" fill="#546E7A"/><use xlink:href="#S" fill="#CFD8DC"/></g><g transform="translate(227.04 207.64)"><use xlink:href="#H" fill="#546E7A"/><use xlink:href="#I" fill="#CFD8DC"/></g><g transform="translate(240.65 199.72)"><use xlink:href="#P" fill="#546E7A"/><use xlink:href="#Q" fill="#CFD8DC"/></g><g transform="translate(254.26 191.79)"><use xlink:href="#F" fill="#546E7A"/><use xlink:href="#G" fill="#CFD8DC"/></g><g transform="translate(242.26 184.85)"><use xlink:href="#T" fill="#546E7A"/><use xlink:href="#U" fill="#CFD8DC"/></g><g transform="translate(255.87 176.92)"><use xlink:href="#B" fill="#546E7A"/><use xlink:href="#C" fill="#CFD8DC"/></g><g transform="translate(156.61 151.11)"><use xlink:href="#T" fill="#546E7A"/><use xlink:href="#U" fill="#CFD8DC"/></g><g transform="translate(155.01 165.97)"><use xlink:href="#T" fill="#546E7A"/><use xlink:href="#U" fill="#CFD8DC"/></g><g transform="translate(168.61 158.05)"><use xlink:href="#H" fill="#546E7A"/><use xlink:href="#I" fill="#CFD8DC"/></g><g transform="translate(180.62 165)"><use xlink:href="#z" fill="#546E7A"/><use xlink:href="#A" fill="#CFD8DC"/></g><g transform="translate(215.03 200.69)"><use xlink:href="#L" fill="#546E7A"/><use xlink:href="#M" fill="#CFD8DC"/></g><g transform="translate(228.65 192.77)"><use xlink:href="#H" fill="#546E7A"/><use xlink:href="#I" fill="#CFD8DC"/></g><g transform="translate(143 159.03)"><use xlink:href="#V" fill="#546E7A"/><use xlink:href="#W" fill="#CFD8DC"/></g><use xlink:href="#X" transform="translate(186.86 122.92)" fill="#455A64" opacity=".15"/><defs><path id="a" d="M0 33.25l10.522 87.5 70.15-40.25V0L0 33.25z"/><path id="b" d="M70.15 29.75v91L0 80.5V0l70.15 29.75z"/><path id="c" d="M0 40.25l24.522 14.07 46.46-13.622 23.688-26.63L70.15 0 0 40.25z"/><path id="d" d="M0 40.252l24.518 14.069 70.15-40.25L70.15 0 23.346 13.818 0 40.252z"/><path id="e" d="M21.109 47.111L0 35V0l20.347 1.586.762 10.526v35z"/><path id="f" d="M0 40.252L70.147 0 91.26 12.112 21.11 52.364 0 40.252z"/><path id="g" d="M0 4.106L7.099 0l118.035 68.264v116.325l-7.099 4.106"/><path id="h" d="M7.099 0l2.503-4.328a5 5 0 0 0-5.007 0L7.1 0zm118.035 68.264h5a5 5 0 0 0-2.497-4.329l-2.503 4.329zm0 116.325l2.503 4.329a5.002 5.002 0 0 0 2.497-4.329h-5zM2.504 8.434l7.098-4.106-5.007-8.656-7.098 4.106 5.006 8.656zm2.091-4.106L122.63 72.592l5.007-8.657L9.602-4.328 4.595 4.328zm115.539 63.936v116.325h10V68.264h-10zm2.496 111.997l-7.099 4.106 5.007 8.656 7.099-4.105-5.007-8.657z"/><path id="i" d="M118.035 184.589L0 116.321V0l118.035 68.269v116.32z"/><path id="j" d="M0 116.321h-5a5 5 0 0 0 2.497 4.328L0 116.321zM0 0l2.503-4.328A5 5 0 0 0-5 0h5zm118.035 68.269h5a5 5 0 0 0-2.497-4.328l-2.503 4.328zm2.503 111.992L2.503 111.992l-5.006 8.657 118.035 68.269 5.006-8.657zM5 116.321V0H-5v116.321H5zM-2.503 4.328l118.035 68.269 5.006-8.656L2.503-4.33l-5.006 8.657zm115.538 63.94V184.59h10V68.269h-10z"/><path id="k" d="M.005 4.096L7.104 0v116.213a2.862 2.862 0 0 1-1.431 2.478L0 121.973.005 4.096z"/><path id="l" d="M105.447 159.545L0 98.561V0l105.447 60.979v98.566z"/><path id="m" d="M0 0v10.08l118.035 68.264 100.562-58.158v-10.08"/><path id="n" d="M0 10.08h-5a5 5 0 0 0 2.497 4.329L0 10.08zm118.035 68.264l-2.503 4.328a5 5 0 0 0 5.006 0l-2.503-4.328zm100.562-58.158l2.503 4.329a5 5 0 0 0 2.497-4.329h-5zM-5 0v10.08H5V0H-5zm2.497 14.409l118.035 68.263 5.006-8.656L2.503 5.752l-5.006 8.657zm123.041 68.263L221.1 24.515l-5.007-8.657-100.561 58.158 5.006 8.656zm103.059-62.486v-10.08h-10v10.08h10z"/><path id="o" d="M222.354 68.595L104.319.336a2.5 2.5 0 0 0-2.504 0L1.253 58.49a2.51 2.51 0 0 0 0 4.346l118.056 68.269a2.5 2.5 0 0 0 2.504 0l100.562-58.158a2.51 2.51 0 0 0 0-4.346l-.021-.005z"/><path id="p" d="M67.537 21.778L48.709 10.89 29.882 0 13.84 9.277 0 17.284l18.828 10.889 18.827 10.889 13.84-8.007 16.042-9.277z"/><path id="q" d="M48.71 10.89l-2.504 4.327 2.503-4.328zM29.881 0l2.503-4.328a5 5 0 0 0-5.006 0L29.882 0zM13.84 9.277l-2.503-4.329h-.001l2.504 4.329zM0 17.284l-2.504-4.328a5 5 0 0 0 0 8.656L0 17.284zm18.828 10.889L16.323 32.5l2.503-4.328zm18.827 10.889l-2.503 4.328a5 5 0 0 0 5.007 0l-2.504-4.328zm13.84-8.007l-2.503-4.328h-.001l2.504 4.328zM70.04 17.45L51.213 6.561l-5.007 8.656 18.828 10.89 5.006-8.657zM51.213 6.561L32.385-4.329 27.38 4.329l18.827 10.89 5.007-8.657zM27.379-4.329L11.337 4.949l5.006 8.657 16.042-9.277-5.006-8.656zM11.336 4.95l-13.84 8.007 5.008 8.655 13.84-8.007-5.008-8.655zm-13.84 16.663L16.325 32.5l5.007-8.656-18.828-10.89-5.006 8.657zM16.325 32.5l18.828 10.89 5.006-8.657-18.827-10.89-5.007 8.657zM40.16 43.39L54 35.383l-5.008-8.656-13.84 8.007 5.008 8.656zm13.839-8.007l16.042-9.276-5.006-8.657-16.042 9.277 5.006 8.656z"/><path id="r" d="M21.541 5.76l-11.58 6.742L0 6.742 11.58 0l9.961 5.76z"/><path id="s" d="M9.96 12.502l-.5.866.502.29.502-.292-.503-.864zM0 6.742l-.503-.864-1.49.867 1.492.863L0 6.742zM11.58 0l.501-.866-.502-.29-.502.292.504.864zm9.458 4.895l-11.58 6.743 1.006 1.728 11.58-6.742-1.006-1.729zm-10.577 6.741l-9.96-5.76-1.002 1.732 9.961 5.76 1.001-1.732zM.503 7.606L12.083.865 11.079-.864-.503 5.878.503 7.607zM11.08.867l9.96 5.76 1.002-1.732-9.96-5.76L11.08.866z"/><path id="t" d="M21.536 5.76L9.961 12.501 0 6.742 11.576 0l9.96 5.76z"/><path id="u" d="M9.96 12.502l-.5.866.502.29.502-.292-.503-.864zM0 6.742l-.503-.864-1.49.868 1.492.862L0 6.742zM11.576 0l.5-.866-.502-.29-.502.292.504.864zm9.457 4.895L9.457 11.638l1.007 1.728 11.575-6.742-1.006-1.729zM10.46 11.636L.5 5.876-.502 7.608l9.961 5.76 1.001-1.732zM.503 7.606L12.08.865 11.072-.864-.503 5.878.503 7.607zM11.075.867l9.96 5.76 1.002-1.732-9.96-5.76L11.074.866z"/><path id="v" d="M21.536 5.76L9.961 12.501 0 6.737 11.58 0l9.956 5.76z"/><path id="w" d="M9.96 12.502l-.5.865.502.291.502-.292-.503-.864zM0 6.737l-.503-.864-1.49.867 1.492.863L0 6.737zM11.58 0l.501-.866-.502-.29-.501.292.503.864zm9.453 4.895L9.457 11.638l1.007 1.728 11.575-6.742-1.006-1.729zM10.46 11.636L.501 5.872l-1.002 1.73 9.96 5.765 1.002-1.73zM.503 7.602L12.083.864 11.079-.864-.502 5.873.502 7.602zM11.08.866l9.955 5.76 1.002-1.732-9.956-5.76L11.08.866z"/><path id="x" d="M21.536 5.76L9.961 12.496 0 6.737 11.58 0l9.956 5.76z"/><path id="y" d="M9.96 12.497l-.5.866.502.29.502-.292-.503-.864zM0 6.737l-.503-.864-1.49.867 1.492.863L0 6.737zM11.58 0l.501-.866-.502-.29-.501.292.503.864zm9.453 4.895L9.458 11.633l1.006 1.728 11.575-6.737-1.006-1.729zm-10.572 6.736l-9.96-5.76-1.002 1.732 9.961 5.76 1.001-1.732zM.503 7.601L12.083.865 11.079-.864-.502 5.873.502 7.602zM11.08.867l9.955 5.76 1.002-1.732-9.956-5.76L11.08.866z"/><path id="z" d="M21.536 5.76L9.961 12.496 0 6.737 11.576 0l9.96 5.76z"/><path id="A" d="M9.96 12.497l-.5.866.502.29.502-.292-.503-.864zM0 6.737l-.503-.864-1.49.867 1.492.863L0 6.737zM11.576 0l.5-.866-.502-.29-.502.292.504.864zm9.457 4.895L9.458 11.633l1.006 1.728 11.575-6.737-1.006-1.729zm-10.572 6.736l-9.96-5.76-1.002 1.732 9.961 5.76 1.001-1.732zM.503 7.601L12.079.865 11.072-.864-.502 5.873.503 7.602zM11.075.867l9.96 5.76 1.002-1.732-9.96-5.76L11.074.866z"/><path id="B" d="M21.531 5.76L9.955 12.496 0 6.737 11.57 0l9.961 5.76z"/><path id="C" d="M9.955 12.497l-.5.865.502.29.502-.291-.504-.864zM0 6.737l-.503-.864-1.49.867 1.492.863L0 6.737zM11.57 0l.501-.866-.502-.29-.502.292.503.864zm9.458 4.895L9.452 11.633l1.007 1.728 11.575-6.737-1.006-1.729zm-10.572 6.736L.501 5.871-.501 7.604l9.956 5.76 1.001-1.732zM.503 7.601L12.073.864 11.068-.864-.503 5.873.503 7.601zM11.07.866l9.96 5.76 1.002-1.732-9.961-5.76L11.07.866z"/><path id="D" d="M21.531 5.754l-11.57 6.743L0 6.737 11.576 0l9.955 5.754z"/><path id="E" d="M9.96 12.497l-.5.866.503.29.501-.292-.503-.864zM0 6.737l-.503-.864-1.49.867 1.492.863L0 6.737zM11.576 0l.5-.866-.502-.29-.502.292.504.864zm9.452 4.89l-11.57 6.743 1.006 1.728 11.57-6.743-1.006-1.728zM10.46 11.631L.5 5.871-.502 7.603l9.961 5.76 1.001-1.732zM.503 7.601L12.079.865 11.072-.864-.502 5.873.503 7.602zM11.075.867l9.956 5.754 1-1.731-9.955-5.755-1 1.732z"/><path id="F" d="M21.536 5.76l-11.58 6.737L0 6.737 11.576 0l9.96 5.76z"/><path id="G" d="M9.955 12.497l-.5.865.502.29.501-.29-.503-.865zM0 6.737l-.503-.864-1.49.867 1.492.863L0 6.737zM11.576 0l.5-.866-.502-.29-.502.292.504.864zm9.457 4.895l-11.58 6.737 1.005 1.73L22.04 6.623l-1.006-1.729zm-10.577 6.736L.501 5.871-.501 7.604l9.956 5.76 1.001-1.732zM.503 7.601L12.079.865 11.072-.864-.502 5.873.503 7.602zM11.075.867l9.96 5.76 1.002-1.732-9.96-5.76L11.074.866z"/><path id="H" d="M21.531 5.76L9.955 12.501 0 6.742 11.576 0l9.955 5.76z"/><path id="I" d="M9.955 12.502l-.5.865.502.291.502-.292-.504-.864zM0 6.742l-.503-.864-1.489.867 1.491.863L0 6.742zM11.576 0l.5-.866-.502-.29-.502.292.504.864zm9.452 4.895L9.452 11.638l1.007 1.728 11.575-6.742-1.006-1.729zm-10.572 6.741L.501 5.876-.501 7.609l9.956 5.76 1.001-1.732zM.503 7.606L12.08.865 11.072-.864-.503 5.878.503 7.607zM11.075.867l9.955 5.76 1.002-1.732-9.956-5.76L11.075.866z"/><path id="J" d="M21.536 5.76l-11.58 6.742L0 6.742 11.576 0l9.96 5.76z"/><path id="K" d="M9.955 12.502l-.5.865.502.291.502-.292-.504-.864zM0 6.742l-.503-.864-1.489.867 1.491.863L0 6.742zM11.576 0l.5-.866-.502-.29-.502.292.504.864zm9.457 4.895l-11.58 6.743 1.006 1.728 11.58-6.742-1.006-1.729zm-10.577 6.741L.501 5.876-.501 7.609l9.956 5.76 1.001-1.732zM.503 7.606L12.08.865 11.072-.864-.503 5.878.503 7.607zM11.075.867l9.96 5.76 1.002-1.732-9.96-5.76L11.074.866z"/><path id="L" d="M21.536 5.76L9.961 12.496 0 6.742 11.58 0l9.956 5.76z"/><path id="M" d="M9.96 12.497l-.5.866.502.29.502-.292-.503-.864zM0 6.742l-.503-.864-1.49.868 1.493.862.5-.866zM11.58 0l.501-.866-.502-.29-.502.292.504.864zm9.453 4.895L9.458 11.633l1.006 1.728 11.575-6.737-1.006-1.729zm-10.572 6.736L.5 5.877l-1 1.731 9.96 5.755 1-1.732zM.503 7.607L12.083.864 11.079-.864-.503 5.878.503 7.607zM11.08.866l9.955 5.76 1.002-1.732-9.956-5.76L11.08.866z"/><path id="N" d="M21.531 5.76l-11.57 6.742L0 6.737 11.576 0l9.955 5.76z"/><path id="O" d="M9.96 12.502l-.5.865.502.291.502-.292-.503-.864zM0 6.737l-.503-.864-1.49.867 1.492.863L0 6.737zM11.576 0l.5-.866-.502-.29-.502.292.504.864zm9.452 4.895l-11.57 6.743 1.006 1.728 11.57-6.743-1.006-1.728zm-10.566 6.741L.5 5.872l-1.002 1.73 9.96 5.765 1.002-1.73zM.502 7.602L12.079.864 11.072-.864-.502 5.873.503 7.602zM11.075.866l9.955 5.76 1.002-1.732-9.956-5.76L11.075.866z"/><path id="P" d="M21.531 5.754L9.955 12.497 0 6.737 11.576 0l9.955 5.754z"/><path id="Q" d="M9.955 12.497l-.5.865.502.291.502-.292-.504-.864zM0 6.737l-.503-.864-1.49.867 1.492.863L0 6.737zM11.576 0l.5-.866-.502-.29-.502.292.504.864zm9.452 4.89L9.452 11.633l1.007 1.728 11.575-6.743-1.006-1.728zm-10.572 6.741L.501 5.871-.501 7.604l9.956 5.76 1.001-1.732zM.503 7.601L12.079.865 11.072-.864-.502 5.873.503 7.602zM11.075.867l9.956 5.754 1-1.731-9.955-5.755-1 1.732z"/><path id="R" d="M21.531 5.76L9.955 12.496 0 6.742 11.576 0l9.955 5.76z"/><path id="S" d="M9.955 12.497l-.5.866.502.29.502-.292-.504-.864zM0 6.742l-.503-.864-1.49.868 1.493.862.5-.866zM11.576 0l.5-.866-.502-.29-.502.292.504.864zm9.452 4.895L9.452 11.633l1.007 1.728 11.575-6.737-1.006-1.729zm-10.572 6.736L.5 5.877l-1 1.731 9.955 5.755 1-1.732zM.503 7.607L12.08.864 11.072-.864-.503 5.878.503 7.607zM11.075.866l9.955 5.76 1.002-1.732-9.956-5.76L11.075.866z"/><path id="T" d="M21.531 5.76L9.955 12.496 0 6.737 11.576 0l9.955 5.76z"/><path id="U" d="M9.955 12.497l-.5.865.502.29.502-.291-.504-.864zM0 6.737l-.503-.864-1.49.867 1.492.863L0 6.737zM11.576 0l.5-.866-.502-.29-.502.292.504.864zm9.452 4.895L9.452 11.633l1.007 1.728 11.575-6.737-1.006-1.729zm-10.572 6.736L.501 5.871-.501 7.604l9.956 5.76 1.001-1.732zM.503 7.601L12.079.865 11.072-.864-.502 5.873.503 7.602zM11.075.867l9.955 5.76 1.002-1.732-9.956-5.76L11.075.866z"/><path id="V" d="M21.536 5.754L9.961 12.497 0 6.737 11.58 0l9.956 5.754z"/><path id="W" d="M9.96 12.497l-.5.866.502.29.502-.292-.503-.864zM0 6.737l-.503-.864-1.49.867 1.492.863L0 6.737zM11.58 0l.501-.866-.502-.29-.501.292.503.864zm9.453 4.89L9.457 11.633l1.007 1.728 11.575-6.743-1.006-1.728zM10.46 11.631L.5 5.871-.502 7.603l9.961 5.76 1.001-1.732zM.503 7.601L12.083.865 11.079-.864-.502 5.873.502 7.602zM11.08.867l9.956 5.754 1-1.731-9.955-5.755-1 1.732z"/><path id="X" d="M120.539 68.595L2.504.336A2.5 2.5 0 0 0 0 .336l30.5 124.681 90.039-52.076a2.508 2.508 0 0 0 1.253-2.173c0-.897-.477-1.725-1.253-2.173z"/></defs></svg>