<svg width="1920" height="1131" viewBox="0 0 1920 1131" xmlns="http://www.w3.org/2000/svg" xmlns:xlink="http://www.w3.org/1999/xlink"><title>iMac + Macbook Pro + Macbook + iPad + Apple Watch Style 1 + iPhone Front Mask</title><desc>Created using Figma</desc><g transform="translate(621 3925)"><mask id="b"><use xlink:href="#a" transform="translate(-621 -3925)" fill="#FFF"/></mask><g mask="url(#b)"><use xlink:href="#a" transform="translate(-621 -3925)" fill="#F6F9FA"/></g><g mask="url(#b)"><use xlink:href="#c" transform="translate(718.978 -3070.75)" fill="#FB992D"/><use xlink:href="#d" transform="translate(659.351 -3070.75)" fill="#FFB739"/><use xlink:href="#e" transform="translate(659.35 -3111)" fill="#FB992D"/><use xlink:href="#f" transform="translate(704.982 -3084.82)" fill="#F67A21"/><use xlink:href="#g" transform="translate(683.872 -3056.68)" fill="#FFEAC3"/><use xlink:href="#h" transform="translate(683.872 -3096.93)" fill="#FFD488"/></g><g mask="url(#b)"><g transform="translate(847.117 -3111)" fill="#CFD8DC"><use xlink:href="#i"/><use xlink:href="#j"/></g><g transform="translate(847.117 -3106.89)" fill="#B0BEC5"><use xlink:href="#k"/><use xlink:href="#l"/></g><use xlink:href="#m" transform="translate(967.641 -3042.81)" fill="#90A4AE"/><use xlink:href="#n" transform="translate(853.352 -3096.92)" fill="#F57C00"/><g transform="translate(746.555 -2932.41)" fill="#90A4AE"><use xlink:href="#o"/><use xlink:href="#p"/></g><use xlink:href="#q" transform="translate(744.05 -2993.08)" fill="#CFD8DC"/><g transform="translate(791.907 -2929.44)" fill="#B0BEC5"><use xlink:href="#r"/><use xlink:href="#s"/></g><g transform="translate(865.234 -2951.99)"><use xlink:href="#t" fill="#546E7A"/><use xlink:href="#u" fill="#CFD8DC"/></g><g transform="translate(826.01 -2943.08)"><use xlink:href="#v" fill="#546E7A"/><use xlink:href="#w" fill="#CFD8DC"/></g><g transform="translate(850.02 -2929.2)"><use xlink:href="#x" fill="#546E7A"/><use xlink:href="#y" fill="#CFD8DC"/></g><g transform="translate(862.03 -2922.25)"><use xlink:href="#z" fill="#546E7A"/><use xlink:href="#A" fill="#CFD8DC"/></g><g transform="translate(838.015 -2936.14)"><use xlink:href="#B" fill="#546E7A"/><use xlink:href="#C" fill="#CFD8DC"/></g><g transform="translate(851.625 -2944.06)"><use xlink:href="#x" fill="#546E7A"/><use xlink:href="#y" fill="#CFD8DC"/></g><g transform="translate(890.859 -2952.97)"><use xlink:href="#D" fill="#546E7A"/><use xlink:href="#E" fill="#CFD8DC"/></g><g transform="translate(902.864 -2946.02)"><use xlink:href="#F" fill="#546E7A"/><use xlink:href="#G" fill="#CFD8DC"/></g><g transform="translate(877.244 -2945.04)"><use xlink:href="#H" fill="#546E7A"/><use xlink:href="#I" fill="#CFD8DC"/></g><g transform="translate(889.254 -2938.1)"><use xlink:href="#J" fill="#546E7A"/><use xlink:href="#K" fill="#CFD8DC"/></g><g transform="translate(863.635 -2937.12)"><use xlink:href="#L" fill="#546E7A"/><use xlink:href="#M" fill="#CFD8DC"/></g><g transform="translate(875.639 -2930.17)"><use xlink:href="#N" fill="#546E7A"/><use xlink:href="#O" fill="#CFD8DC"/></g><g transform="translate(878.849 -2959.91)"><use xlink:href="#B" fill="#546E7A"/><use xlink:href="#C" fill="#CFD8DC"/></g><g transform="translate(853.229 -2958.93)"><use xlink:href="#B" fill="#546E7A"/><use xlink:href="#C" fill="#CFD8DC"/></g><g transform="translate(866.844 -2966.85)"><use xlink:href="#P" fill="#546E7A"/><use xlink:href="#Q" fill="#CFD8DC"/></g><g transform="translate(854.839 -2973.8)"><use xlink:href="#D" fill="#546E7A"/><use xlink:href="#E" fill="#CFD8DC"/></g><g transform="translate(841.224 -2965.87)"><use xlink:href="#R" fill="#546E7A"/><use xlink:href="#S" fill="#CFD8DC"/></g><g transform="translate(829.22 -2972.82)"><use xlink:href="#T" fill="#546E7A"/><use xlink:href="#U" fill="#CFD8DC"/></g><g transform="translate(842.829 -2980.74)"><use xlink:href="#F" fill="#546E7A"/><use xlink:href="#G" fill="#CFD8DC"/></g><g transform="translate(926.878 -2932.13)"><use xlink:href="#T" fill="#546E7A"/><use xlink:href="#U" fill="#CFD8DC"/></g><g transform="translate(886.045 -2908.36)"><use xlink:href="#J" fill="#546E7A"/><use xlink:href="#K" fill="#CFD8DC"/></g><g transform="translate(899.654 -2916.28)"><use xlink:href="#R" fill="#546E7A"/><use xlink:href="#S" fill="#CFD8DC"/></g><g transform="translate(913.264 -2924.21)"><use xlink:href="#H" fill="#546E7A"/><use xlink:href="#I" fill="#CFD8DC"/></g><g transform="translate(901.259 -2931.15)"><use xlink:href="#V" fill="#546E7A"/><use xlink:href="#W" fill="#CFD8DC"/></g><g transform="translate(914.874 -2939.08)"><use xlink:href="#D" fill="#546E7A"/><use xlink:href="#E" fill="#CFD8DC"/></g><g transform="translate(815.61 -2964.89)"><use xlink:href="#V" fill="#546E7A"/><use xlink:href="#W" fill="#CFD8DC"/></g><g transform="translate(814.005 -2950.03)"><use xlink:href="#V" fill="#546E7A"/><use xlink:href="#W" fill="#CFD8DC"/></g><g transform="translate(827.615 -2957.95)"><use xlink:href="#J" fill="#546E7A"/><use xlink:href="#K" fill="#CFD8DC"/></g><g transform="translate(839.62 -2951)"><use xlink:href="#B" fill="#546E7A"/><use xlink:href="#C" fill="#CFD8DC"/></g><g transform="translate(874.035 -2915.31)"><use xlink:href="#N" fill="#546E7A"/><use xlink:href="#O" fill="#CFD8DC"/></g><g transform="translate(887.649 -2923.23)"><use xlink:href="#J" fill="#546E7A"/><use xlink:href="#K" fill="#CFD8DC"/></g><g transform="translate(801.995 -2956.97)"><use xlink:href="#X" fill="#546E7A"/><use xlink:href="#Y" fill="#CFD8DC"/></g><use xlink:href="#Z" transform="translate(845.865 -2993.08)" fill="#455A64" opacity=".15"/></g><g mask="url(#b)"><use xlink:href="#aa" transform="translate(883.557 -3487.1)" fill="#C8D1D4"/><use xlink:href="#ab" transform="translate(884.052 -3331.5)" fill="#C8D1D4"/><use xlink:href="#ac" transform="translate(897.259 -3474.02)" fill="#C8D1D4"/><use xlink:href="#ad" transform="translate(964.32 -3266.74)" fill="#C8D1D4"/><use xlink:href="#ae" transform="translate(964.32 -3266.74)" fill="#C8D1D4"/><use xlink:href="#af" transform="translate(964.508 -3301.45)" fill="#C8D1D4"/><use xlink:href="#ag" transform="translate(1008.88 -3480.73)" fill="#6C84FA"/></g><g mask="url(#b)" fill="#C8D1D4"><use xlink:href="#ah" transform="translate(1078.38 -3843.38)"/><use xlink:href="#ai" transform="translate(855.734 -3843.38)"/><use xlink:href="#aj" transform="translate(868.437 -3830.21)"/><use xlink:href="#ak" transform="translate(867.344 -3843.38)"/><use xlink:href="#al" transform="translate(979.352 -3837.01)"/><use xlink:href="#am" transform="translate(955.857 -3670.18)"/><use xlink:href="#an" transform="translate(827.732 -3673.43)"/><use xlink:href="#ak" transform="translate(867.344 -3661.4)"/><use xlink:href="#ao" transform="translate(825.678 -3670.6)"/><use xlink:href="#ap" transform="translate(1087.26 -3670.6)"/></g><g mask="url(#b)"><use xlink:href="#aq" transform="translate(-500 -3535.81)" fill="#C8D1D4"/></g><g mask="url(#b)" fill="#C8D1D4"><use xlink:href="#ar" transform="translate(1057.61 -3568.29)"/><use xlink:href="#as" transform="translate(1006 -3602.01)"/><use xlink:href="#at" transform="translate(1037.14 -3592.38)"/><use xlink:href="#au" transform="translate(1039.88 -3592.2)"/><use xlink:href="#av" transform="translate(1040.15 -3575.11)"/><use xlink:href="#aw" transform="translate(1006 -3599.18)"/><use xlink:href="#ax" transform="translate(1010.43 -3621.84)"/><use xlink:href="#ay" transform="translate(1039.45 -3621.13)"/><use xlink:href="#az" transform="translate(1048.4 -3614.34)"/><use xlink:href="#aA" transform="translate(1010.39 -3583.65)"/><use xlink:href="#aB" transform="translate(1039.34 -3556.7)"/><use xlink:href="#aC" transform="translate(1044.25 -3553.86)"/><use xlink:href="#aD" transform="translate(1057.76 -3543.67)"/><use xlink:href="#aE" transform="translate(1051.91 -3535.86)"/></g><g mask="url(#b)"><use xlink:href="#aF" transform="translate(-535 -3754.99)" fill="#C8D1D4"/></g></g><defs><path id="a" fill-rule="evenodd" d="M0 0h1920v1131H0V0z"/><path id="c" d="M0 33.25l10.522 87.5 70.15-40.25V0L0 33.25z"/><path id="d" d="M70.15 29.75v91L0 80.5V0l70.15 29.75z"/><path id="e" d="M0 40.25l24.522 14.07 46.46-13.622 23.688-26.63L70.15 0 0 40.25z"/><path id="f" d="M0 40.252l24.518 14.069 70.15-40.25L70.15 0 23.346 13.818 0 40.252z"/><path id="g" d="M21.109 47.111L0 35V0l20.347 1.586.762 10.526v35z"/><path id="h" d="M0 40.252L70.147 0 91.26 12.112 21.11 52.364 0 40.252z"/><path id="i" d="M0 4.106L7.099 0l118.035 68.264v116.325l-7.099 4.106"/><path id="j" d="M7.099 0l2.503-4.328a5 5 0 0 0-5.007 0L7.1 0zm118.035 68.264h5a5 5 0 0 0-2.497-4.329l-2.503 4.329zm0 116.325l2.503 4.329a5.002 5.002 0 0 0 2.497-4.329h-5zM2.504 8.434l7.098-4.106-5.007-8.656-7.098 4.106 5.006 8.656zm2.091-4.106L122.63 72.592l5.007-8.657L9.602-4.328 4.595 4.328zm115.539 63.936v116.325h10V68.264h-10zm2.496 111.997l-7.099 4.106 5.007 8.656 7.099-4.105-5.007-8.657z"/><path id="k" d="M118.035 184.589L0 116.321V0l118.035 68.269v116.32z"/><path id="l" d="M0 116.321h-5a5 5 0 0 0 2.497 4.328L0 116.321zM0 0l2.503-4.328A5 5 0 0 0-5 0h5zm118.035 68.269h5a5 5 0 0 0-2.497-4.328l-2.503 4.328zm2.503 111.992L2.503 111.992l-5.006 8.657 118.035 68.269 5.006-8.657zM5 116.321V0H-5v116.321H5zM-2.503 4.328l118.035 68.269 5.006-8.656L2.503-4.33l-5.006 8.657zm115.538 63.94V184.59h10V68.269h-10z"/><path id="m" d="M.005 4.096L7.104 0v116.213a2.862 2.862 0 0 1-1.431 2.478L0 121.973.005 4.096z"/><path id="n" d="M105.447 159.545L0 98.561V0l105.447 60.979v98.566z"/><path id="o" d="M0 0v10.08l118.035 68.264 100.562-58.158v-10.08"/><path id="p" d="M0 10.08h-5a5 5 0 0 0 2.497 4.329L0 10.08zm118.035 68.264l-2.503 4.328a4.999 4.999 0 0 0 5.006 0l-2.503-4.328zm100.562-58.158l2.503 4.329a5 5 0 0 0 2.497-4.329h-5zM-5 0v10.08H5V0H-5zm2.497 14.409l118.035 68.263 5.006-8.656L2.503 5.752l-5.006 8.657zm123.041 68.263L221.1 24.515l-5.007-8.657-100.561 58.158 5.006 8.656zm103.059-62.486v-10.08h-10v10.08h10z"/><path id="q" d="M222.354 68.595L104.319.336a2.5 2.5 0 0 0-2.504 0L1.253 58.49a2.51 2.51 0 0 0 0 4.346l118.056 68.269a2.5 2.5 0 0 0 2.504 0l100.562-58.158a2.51 2.51 0 0 0 0-4.346l-.021-.005z"/><path id="r" d="M67.537 21.778L48.709 10.89 29.882 0 13.84 9.277 0 17.284l18.828 10.889 18.827 10.889 13.84-8.007 16.042-9.277z"/><path id="s" d="M48.71 10.89l-2.504 4.327 2.503-4.328zM29.881 0l2.503-4.328a5 5 0 0 0-5.006 0L29.882 0zM13.84 9.277l-2.503-4.329h-.001l2.504 4.329zM0 17.284l-2.504-4.328a5 5 0 0 0 0 8.656L0 17.284zm18.828 10.889L16.323 32.5l2.503-4.328zm18.827 10.889l-2.503 4.328a5 5 0 0 0 5.007 0l-2.504-4.328zm13.84-8.007l-2.503-4.328h-.001l2.504 4.328zM70.04 17.45L51.213 6.561l-5.007 8.656 18.828 10.89 5.006-8.657zM51.213 6.561L32.385-4.329 27.38 4.329l18.827 10.89 5.007-8.657zM27.379-4.329L11.337 4.949l5.006 8.657 16.042-9.277-5.006-8.656zM11.336 4.95l-13.84 8.007 5.008 8.655 13.84-8.007-5.008-8.655zm-13.84 16.663L16.325 32.5l5.007-8.656-18.828-10.89-5.006 8.657zM16.325 32.5l18.828 10.89 5.006-8.657-18.827-10.89-5.007 8.657zM40.16 43.39L54 35.383l-5.008-8.656-13.84 8.007 5.008 8.656zm13.839-8.007l16.042-9.276-5.006-8.657-16.042 9.277 5.006 8.656z"/><path id="t" d="M21.541 5.76l-11.58 6.742L0 6.742 11.58 0l9.961 5.76z"/><path id="u" d="M9.96 12.502l-.5.866.502.29.502-.292-.503-.864zM0 6.742l-.503-.864-1.49.867 1.492.863L0 6.742zM11.58 0l.501-.866-.502-.29-.502.292.504.864zm9.458 4.895l-11.58 6.743 1.006 1.728 11.58-6.742-1.006-1.729zm-10.577 6.741l-9.96-5.76-1.002 1.732 9.961 5.76 1.001-1.732zM.503 7.606L12.083.865 11.079-.864-.503 5.878.503 7.607zM11.08.867l9.96 5.76 1.002-1.732-9.96-5.76L11.08.866z"/><path id="v" d="M21.536 5.76L9.961 12.501 0 6.742 11.576 0l9.96 5.76z"/><path id="w" d="M9.96 12.502l-.5.866.502.29.502-.292-.503-.864zM0 6.742l-.503-.864-1.49.868 1.492.862L0 6.742zM11.576 0l.5-.866-.502-.29-.502.292.504.864zm9.457 4.895L9.457 11.638l1.007 1.728 11.575-6.742-1.006-1.729zM10.46 11.636L.5 5.876-.502 7.608l9.961 5.76 1.001-1.732zM.503 7.606L12.08.865 11.072-.864-.503 5.878.503 7.607zM11.075.867l9.96 5.76 1.002-1.732-9.96-5.76L11.074.866z"/><path id="x" d="M21.536 5.76L9.961 12.501 0 6.737 11.58 0l9.956 5.76z"/><path id="y" d="M9.96 12.502l-.5.865.502.291.502-.292-.503-.864zM0 6.737l-.503-.864-1.49.867 1.492.863L0 6.737zM11.58 0l.501-.866-.502-.29-.501.292.503.864zm9.453 4.895L9.457 11.638l1.007 1.728 11.575-6.742-1.006-1.729zM10.46 11.636L.501 5.872l-1.002 1.73 9.96 5.765 1.002-1.73zM.503 7.602L12.083.864 11.079-.864-.502 5.873.502 7.602zM11.08.866l9.955 5.76 1.002-1.732-9.956-5.76L11.08.866z"/><path id="z" d="M21.536 5.76L9.961 12.496 0 6.737 11.58 0l9.956 5.76z"/><path id="A" d="M9.96 12.497l-.5.866.502.29.502-.292-.503-.864zM0 6.737l-.503-.864-1.49.867 1.492.863L0 6.737zM11.58 0l.501-.866-.502-.29-.501.292.503.864zm9.453 4.895L9.458 11.633l1.006 1.728 11.575-6.737-1.006-1.729zm-10.572 6.736l-9.96-5.76-1.002 1.732 9.961 5.76 1.001-1.732zM.503 7.601L12.083.865 11.079-.864-.502 5.873.502 7.602zM11.08.867l9.955 5.76 1.002-1.732-9.956-5.76L11.08.866z"/><path id="B" d="M21.536 5.76L9.961 12.496 0 6.737 11.576 0l9.96 5.76z"/><path id="C" d="M9.96 12.497l-.5.866.502.29.502-.292-.503-.864zM0 6.737l-.503-.864-1.49.867 1.492.863L0 6.737zM11.576 0l.5-.866-.502-.29-.502.292.504.864zm9.457 4.895L9.458 11.633l1.006 1.728 11.575-6.737-1.006-1.729zm-10.572 6.736l-9.96-5.76-1.002 1.732 9.961 5.76 1.001-1.732zM.503 7.601L12.079.865 11.072-.864-.502 5.873.503 7.602zM11.075.867l9.96 5.76 1.002-1.732-9.96-5.76L11.074.866z"/><path id="D" d="M21.531 5.76L9.955 12.496 0 6.737 11.57 0l9.961 5.76z"/><path id="E" d="M9.955 12.497l-.5.865.502.29.502-.291-.504-.864zM0 6.737l-.503-.864-1.49.867 1.492.863L0 6.737zM11.57 0l.501-.866-.502-.29-.502.292.503.864zm9.458 4.895L9.452 11.633l1.007 1.728 11.575-6.737-1.006-1.729zm-10.572 6.736L.501 5.871-.501 7.604l9.956 5.76 1.001-1.732zM.503 7.601L12.073.864 11.068-.864-.503 5.873.503 7.601zM11.07.866l9.96 5.76 1.002-1.732-9.961-5.76L11.07.866z"/><path id="F" d="M21.531 5.754l-11.57 6.743L0 6.737 11.576 0l9.955 5.754z"/><path id="G" d="M9.96 12.497l-.5.866.503.29.501-.292-.503-.864zM0 6.737l-.503-.864-1.49.867 1.492.863L0 6.737zM11.576 0l.5-.866-.502-.29-.502.292.504.864zm9.452 4.89l-11.57 6.743 1.006 1.728 11.57-6.743-1.006-1.728zM10.46 11.631L.5 5.871-.502 7.603l9.961 5.76 1.001-1.732zM.503 7.601L12.079.865 11.072-.864-.502 5.873.503 7.602zM11.075.867l9.956 5.754 1-1.731-9.955-5.755-1 1.732z"/><path id="H" d="M21.536 5.76l-11.58 6.737L0 6.737 11.576 0l9.96 5.76z"/><path id="I" d="M9.955 12.497l-.5.865.502.29.501-.29-.503-.865zM0 6.737l-.503-.864-1.49.867 1.492.863L0 6.737zM11.576 0l.5-.866-.502-.29-.502.292.504.864zm9.457 4.895l-11.58 6.737 1.005 1.73L22.04 6.623l-1.006-1.729zm-10.577 6.736L.501 5.871-.501 7.604l9.956 5.76 1.001-1.732zM.503 7.601L12.079.865 11.072-.864-.502 5.873.503 7.602zM11.075.867l9.96 5.76 1.002-1.732-9.96-5.76L11.074.866z"/><path id="J" d="M21.531 5.76L9.955 12.501 0 6.742 11.576 0l9.955 5.76z"/><path id="K" d="M9.955 12.502l-.5.865.502.291.502-.292-.504-.864zM0 6.742l-.503-.864-1.489.867 1.491.863L0 6.742zM11.576 0l.5-.866-.502-.29-.502.292.504.864zm9.452 4.895L9.452 11.638l1.007 1.728 11.575-6.742-1.006-1.729zm-10.572 6.741L.501 5.876-.501 7.609l9.956 5.76 1.001-1.732zM.503 7.606L12.08.865 11.072-.864-.503 5.878.503 7.607zM11.075.867l9.955 5.76 1.002-1.732-9.956-5.76L11.075.866z"/><path id="L" d="M21.536 5.76l-11.58 6.742L0 6.742 11.576 0l9.96 5.76z"/><path id="M" d="M9.955 12.502l-.5.865.502.291.502-.292-.504-.864zM0 6.742l-.503-.864-1.489.867 1.491.863L0 6.742zM11.576 0l.5-.866-.502-.29-.502.292.504.864zm9.457 4.895l-11.58 6.743 1.006 1.728 11.58-6.742-1.006-1.729zm-10.577 6.741L.501 5.876-.501 7.609l9.956 5.76 1.001-1.732zM.503 7.606L12.08.865 11.072-.864-.503 5.878.503 7.607zM11.075.867l9.96 5.76 1.002-1.732-9.96-5.76L11.074.866z"/><path id="N" d="M21.536 5.76L9.961 12.496 0 6.742 11.58 0l9.956 5.76z"/><path id="O" d="M9.96 12.497l-.5.866.502.29.502-.292-.503-.864zM0 6.742l-.503-.864-1.49.868 1.493.862.5-.866zM11.58 0l.501-.866-.502-.29-.502.292.504.864zm9.453 4.895L9.458 11.633l1.006 1.728 11.575-6.737-1.006-1.729zm-10.572 6.736L.5 5.877l-1 1.731 9.96 5.755 1-1.732zM.503 7.607L12.083.864 11.079-.864-.503 5.878.503 7.607zM11.08.866l9.955 5.76 1.002-1.732-9.956-5.76L11.08.866z"/><path id="P" d="M21.531 5.76l-11.57 6.742L0 6.737 11.576 0l9.955 5.76z"/><path id="Q" d="M9.96 12.502l-.5.865.502.291.502-.292-.503-.864zM0 6.737l-.503-.864-1.49.867 1.492.863L0 6.737zM11.576 0l.5-.866-.502-.29-.502.292.504.864zm9.452 4.895l-11.57 6.743 1.006 1.728 11.57-6.743-1.006-1.728zm-10.566 6.741L.5 5.872l-1.002 1.73 9.96 5.765 1.002-1.73zM.502 7.602L12.079.864 11.072-.864-.502 5.873.503 7.602zM11.075.866l9.955 5.76 1.002-1.732-9.956-5.76L11.075.866z"/><path id="R" d="M21.531 5.754L9.955 12.497 0 6.737 11.576 0l9.955 5.754z"/><path id="S" d="M9.955 12.497l-.5.865.502.291.502-.292-.504-.864zM0 6.737l-.503-.864-1.49.867 1.492.863L0 6.737zM11.576 0l.5-.866-.502-.29-.502.292.504.864zm9.452 4.89L9.452 11.633l1.007 1.728 11.575-6.743-1.006-1.728zm-10.572 6.741L.501 5.871-.501 7.604l9.956 5.76 1.001-1.732zM.503 7.601L12.079.865 11.072-.864-.502 5.873.503 7.602zM11.075.867l9.956 5.754 1-1.731-9.955-5.755-1 1.732z"/><path id="T" d="M21.531 5.76L9.955 12.496 0 6.742 11.576 0l9.955 5.76z"/><path id="U" d="M9.955 12.497l-.5.866.502.29.502-.292-.504-.864zM0 6.742l-.503-.864-1.49.868 1.493.862.5-.866zM11.576 0l.5-.866-.502-.29-.502.292.504.864zm9.452 4.895L9.452 11.633l1.007 1.728 11.575-6.737-1.006-1.729zm-10.572 6.736L.5 5.877l-1 1.731 9.955 5.755 1-1.732zM.503 7.607L12.08.864 11.072-.864-.503 5.878.503 7.607zM11.075.866l9.955 5.76 1.002-1.732-9.956-5.76L11.075.866z"/><path id="V" d="M21.531 5.76L9.955 12.496 0 6.737 11.576 0l9.955 5.76z"/><path id="W" d="M9.955 12.497l-.5.865.502.29.502-.291-.504-.864zM0 6.737l-.503-.864-1.49.867 1.492.863L0 6.737zM11.576 0l.5-.866-.502-.29-.502.292.504.864zm9.452 4.895L9.452 11.633l1.007 1.728 11.575-6.737-1.006-1.729zm-10.572 6.736L.501 5.871-.501 7.604l9.956 5.76 1.001-1.732zM.503 7.601L12.079.865 11.072-.864-.502 5.873.503 7.602zM11.075.867l9.955 5.76 1.002-1.732-9.956-5.76L11.075.866z"/><path id="X" d="M21.536 5.754L9.961 12.497 0 6.737 11.58 0l9.956 5.754z"/><path id="Y" d="M9.96 12.497l-.5.866.502.29.502-.292-.503-.864zM0 6.737l-.503-.864-1.49.867 1.492.863L0 6.737zM11.58 0l.501-.866-.502-.29-.501.292.503.864zm9.453 4.89L9.457 11.633l1.007 1.728 11.575-6.743-1.006-1.728zM10.46 11.631L.5 5.871-.502 7.603l9.961 5.76 1.001-1.732zM.503 7.601L12.083.865 11.079-.864-.502 5.873.502 7.602zM11.08.867l9.956 5.754 1-1.731-9.955-5.755-1 1.732z"/><path id="Z" d="M120.539 68.595L2.504.336A2.5 2.5 0 0 0 0 .336l30.5 124.681 90.039-52.076a2.508 2.508 0 0 0 1.253-2.173c0-.897-.477-1.725-1.253-2.173z"/><path id="aa" fill-rule="evenodd" d="M9.475 186.252c-5.232 0-9.475-4.406-9.475-9.837V9.836C0 4.405 4.244 0 9.475 0h231.694c5.232 0 9.475 4.406 9.475 9.836v166.579c0 5.432-4.244 9.837-9.475 9.837H9.475zM241.169 1.157H9.475c-4.616 0-8.361 3.887-8.361 8.68v166.578c0 4.792 3.744 8.68 8.36 8.68H241.17c4.616 0 8.361-3.887 8.361-8.68V9.836c0-4.792-3.744-8.68-8.361-8.68z"/><path id="ab" d="M.557 0L0 1.157h249.035L249.592 0H.557z"/><path id="ac" fill-rule="evenodd" d="M224.131 132.343L0 132.112.223 0l224.131.231-.223 132.112zm-.222-.231l.222-131.65L.446.233.223 131.88l223.686.232z"/><path id="ad" d="M2.228 6.96h84.438c1.231 0 2.452-1.058 2.452-2.314v-3.47c0-.666-.434-1.038-1.019-1.143a2.315 2.315 0 0 0-.627-.021c-.047.004.06 1.157.06 1.157a1.38 1.38 0 0 1 .377.004c.111.02.095 3.473.095 3.473 0 .566-.682 1.157-1.338 1.157H2.228c-.6 0-1.114-.528-1.114-1.157H0C0 5.917 1.017 6.96 2.228 6.96z"/><path id="ae" d="M86.89 5.803H2.452c-.656 0-1.338-.591-1.338-1.157v-3.47c.197-.022.319-.023.43-.012.024.002.211-1.139.211-1.139a2.514 2.514 0 0 0-.736.008C.434.138 0 .51 0 1.175v3.471C0 5.902 1.22 6.96 2.452 6.96H86.89c1.21 0 2.228-1.043 2.228-2.314h-1.114c0 .629-.515 1.157-1.114 1.157z"/><path id="af" fill-rule="evenodd" d="M17.63.353c-.004.275-.01.595-.02.955-.028 1.03-.071 2.18-.134 3.416-.18 3.533-.478 7.066-.923 10.36-.652 4.827-1.564 8.713-2.761 11.296-.288.621-1.748 1.744-4.012 3.107-.616.37-1.285.756-1.998 1.152a124.506 124.506 0 0 1-6.299 3.238c-2.213 1.087-1.886 2.587.558 2.587h84.664c2.437 0 2.748-1.488.55-2.558l-.55-.258a111.599 111.599 0 0 1-5.755-2.935 58.232 58.232 0 0 1-2.32-1.347c-2.067-1.272-3.39-2.337-3.676-2.978-1.137-2.551-1.906-6.482-2.35-11.402-.418-4.637-.51-9.536-.415-13.839.012-.528.023-.903.03-1.1L71.108 0c-.008.204-.02.585-.032 1.121-.095 4.343-.003 9.284.42 13.973.455 5.04 1.245 9.081 2.448 11.78.42.942 1.839 2.084 4.12 3.487.716.441 1.509.9 2.364 1.373a112.325 112.325 0 0 0 6.366 3.224c.353.172.617.338.768.475.095-.221.117-.238.05-.217-.193.057-.502.091-.906.091H2.041c-.406 0-.717-.034-.911-.093-.072-.022-.054-.009-.029.11.221-.05.486-.218.85-.397a127.426 127.426 0 0 0 1.982-.97 112.858 112.858 0 0 0 4.375-2.298 68.142 68.142 0 0 0 2.03-1.171c2.493-1.5 4.03-2.682 4.458-3.606 1.258-2.715 2.194-6.702 2.86-11.638.45-3.33.752-6.895.932-10.459a143.945 143.945 0 0 0 .157-4.411l.005-.346-1.114-.01-.005.335z"/><path id="ag" fill-rule="evenodd" d="M1.114 2.314c.615 0 1.114-.518 1.114-1.157C2.228.517 1.729 0 1.114 0 .499 0 0 .518 0 1.157s.499 1.157 1.114 1.157z"/><path id="ah" d="M14.343 1.416c5.657 0 10.244 4.76 10.244 10.629V162.15c0 5.87-4.588 10.628-10.248 10.628a.698.698 0 0 0-.69.709c0 .391.305.708.682.708 6.423 0 11.622-5.393 11.622-12.045V12.045C25.953 5.394 20.754 0 14.343 0H.683A.696.696 0 0 0 0 .708c0 .391.306.708.683.708h13.66z"/><path id="ai" d="M11.61 0C5.2 0 0 5.394 0 12.045V162.15c0 6.652 5.2 12.045 11.614 12.045.385 0 .69-.317.69-.708a.696.696 0 0 0-.682-.709c-5.668 0-10.256-4.758-10.256-10.628V12.045c0-5.87 4.587-10.629 10.244-10.629h13.66a.696.696 0 0 0 .683-.708A.696.696 0 0 0 25.27 0H11.61z"/><path id="aj" fill-rule="evenodd" d="M224.288 150.686L0 150.403.273 0l224.288.283-.273 150.403zm-.273-.283L224.288.566.546.283.273 150.12l223.742.283z"/><path id="ak" fill-rule="evenodd" d="M0 0h225.381v1.416H0V0z"/><path id="al" fill-rule="evenodd" d="M1.366 2.832c.754 0 1.366-.634 1.366-1.416C2.732.634 2.12 0 1.366 0 .612 0 0 .634 0 1.416c0 .782.612 1.416 1.366 1.416z"/><path id="am" fill-rule="evenodd" d="M0 .283V0h48.354v2.407c0 1.333-1.037 2.408-2.327 2.408h-43.7C1.04 4.815 0 3.743 0 2.407V.283zm47.808 0l.273.283h-.273V.283zM.546.566h47.262v1.841c0 1.02-.793 1.842-1.781 1.842h-43.7c-.986 0-1.78-.82-1.78-1.842V.567zm0 0H.273L.546.283v.283z"/><path id="an" fill-rule="evenodd" d="M0 2.832h301.873V4.25H0V2.832z"/><path id="ao" d="M.797 0h-.56l-.11.57a6.322 6.322 0 0 0-.062.448c-.167 1.527-.027 3.244.66 4.888.237.566.533 1.101.893 1.599.813 1.124 2.1 1.907 3.72 2.424a15.11 15.11 0 0 0 2.976.606c.353.037.682.061.977.075.18.008.312.01.386.01h35.405V9.206H9.676c-.237 0-.667-.02-1.224-.078a13.812 13.812 0 0 1-2.713-.55c-1.37-.437-2.418-1.075-3.03-1.92a6.52 6.52 0 0 1-.732-1.313C1.4 3.961 1.28 2.481 1.421 1.179c.019-.167.036-.28.046-.332l-.67.57h40.186V0H.797z"/><path id="ap" d="M43.71 1.416l-.67-.569c.01.052.028.165.046.332.143 1.302.022 2.782-.556 4.165a6.524 6.524 0 0 1-.732 1.312c-.612.846-1.66 1.484-3.03 1.92-.857.274-1.784.452-2.713.55-.557.06-.987.08-1.223.08H0v1.416h34.832c.074 0 .205-.003.385-.011.296-.014.624-.038.977-.075a15.11 15.11 0 0 0 2.977-.606c1.62-.517 2.907-1.3 3.72-2.424.36-.498.656-1.033.892-1.599.688-1.644.828-3.361.66-4.888a5.958 5.958 0 0 0-.063-.45L44.27 0H5.464v1.416H43.71z"/><path id="aq" fill-rule="evenodd" d="M6.82 0h133.882c3.767 0 6.82 3.168 6.82 7.07v201.126c0 3.905-3.047 7.07-6.82 7.07H6.819c-3.766 0-6.819-3.168-6.819-7.07V7.07C0 3.166 3.047 0 6.82 0zm0 213.85c-3.012 0-5.454-2.533-5.454-5.654V7.071c0-3.125 2.438-5.655 5.453-5.655h133.883c3.011 0 5.454 2.533 5.454 5.655v201.125c0 3.125-2.438 5.654-5.454 5.654H6.819zM8.741 18.41l-.546.567v-.566h.546zm130.038 0H8.742v.567h-.546v177.878h131.13V18.411h-.546zm0 .567H8.742V196.29h-.546l.546.566v-.566H138.78v.566l.546-.566h-.546V18.977zm0 0h.546l-.546-.566v.566zM79.225 205.353c0-3.129-2.447-5.665-5.464-5.665-3.018 0-5.464 2.536-5.464 5.665 0 3.128 2.446 5.665 5.464 5.665 3.017 0 5.464-2.537 5.464-5.665zm-9.562 0c0-2.347 1.835-4.249 4.098-4.249s4.098 1.902 4.098 4.249c0 2.346-1.835 4.248-4.098 4.248s-4.098-1.902-4.098-4.248zm6.83-195.44c0 .783-.612 1.417-1.366 1.417-.754 0-1.366-.634-1.366-1.416 0-.783.612-1.417 1.366-1.417.754 0 1.366.634 1.366 1.417z"/><path id="ar" fill-rule="evenodd" d="M6.176.086c2.749.554 4.47 3.622 3.867 6.839-.603 3.217-3.308 5.393-6.056 4.839C1.238 11.21-.483 8.142.12 4.925.724 1.708 3.428-.468 6.176.086zm-.104.556C3.637.152 1.205 2.108.657 5.033c-.549 2.925.999 5.684 3.434 6.175 2.435.49 4.867-1.466 5.415-4.391.549-2.925-.999-5.684-3.434-6.175z"/><path id="as" d="M38.246 21.577l-.29-.407-.21.15v.257h.5zm0-12.016h-.5v.264l.218.15.282-.414zM.5 6A5.5 5.5 0 0 1 6 .5v-1A6.5 6.5 0 0 0-.5 6h1zm0 38.984V6h-1v38.984h1zm5.5 5.5a5.5 5.5 0 0 1-5.5-5.5h-1a6.5 6.5 0 0 0 6.5 6.5v-1zm26.246 0H6v1h26.246v-1zm5.5-5.5a5.5 5.5 0 0 1-5.5 5.5v1a6.5 6.5 0 0 0 6.5-6.5h-1zm0-23.407v23.407h1V21.577h-1zm.79.408c1.74-1.239 2.942-4.082 2.942-6.406h-1c0 2.086-1.11 4.585-2.522 5.591l.58.815zm2.942-6.406c0-2.355-1.17-5.215-2.95-6.43l-.564.825c1.428.976 2.514 3.472 2.514 5.605h1zM37.746 6v3.561h1V6h-1zm-5.5-5.5a5.5 5.5 0 0 1 5.5 5.5h1a6.5 6.5 0 0 0-6.5-6.5v1zM6 .5h26.246v-1H6v1z"/><path id="at" fill-rule="evenodd" d="M5.054 0c2.8 0 5.054 2.67 5.054 5.948 0 3.277-2.254 5.948-5.054 5.948-2.8 0-5.054-2.67-5.054-5.948C0 2.671 2.254 0 5.054 0zm0 .566C2.574.566.546 2.968.546 5.948c0 2.98 2.027 5.382 4.508 5.382 2.48 0 4.508-2.402 4.508-5.382 0-2.98-2.027-5.382-4.508-5.382z"/><path id="au" d="M0 5.052c0 2.885 1.947 5.24 4.371 5.24.62 0 1.221-.155 1.775-.45a.288.288 0 0 0 .118-.38.269.269 0 0 0-.368-.123 3.225 3.225 0 0 1-1.525.387C2.269 9.726.546 7.642.546 5.052c0-2.113 1.158-3.94 2.789-4.5a.286.286 0 0 0 .173-.358.271.271 0 0 0-.345-.18C1.299.655 0 2.704 0 5.052z"/><path id="av" fill-rule="evenodd" d="M4.098 2.118C4.098.962 3.18 0 2.049 0 .909 0 0 .948 0 2.118v12.759c0 1.155.917 2.118 2.049 2.118 1.14 0 2.049-.949 2.049-2.118V2.117zm-2.049 14.31c-.825 0-1.503-.704-1.503-1.552V2.119c0-.86.668-1.552 1.503-1.552.825 0 1.503.704 1.503 1.552v12.758c0 .86-.668 1.552-1.503 1.552z"/><path id="aw" fill-rule="evenodd" d="M25.944 0H5.472C2.44 0 0 2.54 0 5.67v33.978c0 3.138 2.45 5.671 5.472 5.671h20.472c3.034 0 5.473-2.539 5.473-5.67V5.67c0-3.137-2.45-5.671-5.473-5.671zM5.472 44.753c-2.722 0-4.926-2.282-4.926-5.105V5.671C.546 2.848 2.745.566 5.472.566h20.472c2.723 0 4.926 2.282 4.926 5.105v33.977c0 2.823-2.198 5.105-4.926 5.105H5.472z"/><path id="ax" d="M1.749 20.415a19.815 19.815 0 0 0 2.5-2.216c.579-.613 3.728-4.187 4.704-5.231 1.487-1.592 2.816-2.871 4.107-3.912 2.65-2.138 5.16-3.746 7.446-4.899a24.583 24.583 0 0 1 2.119-.955c.362-.141.607-.224.725-.259 2.092-.847 5.56-1.527 7.74-1.527h14.323c2.176 0 5.382 1.039 7.05 2.31l.847.645.225-1.065c-.07.225-.07.225-.274.427-.328.238-.416.206-.587.098.127.08.357.25.702.53.993.806 2.692 2.306 5.253 4.666 2.646 2.438 4.722 4.917 6.292 7.304.547.832.99 1.591 1.34 2.262.206.395.333.67.39.805.104.21.248.506.435.921.313.696.626 1.463.918 2.276.607 1.692 1.04 3.354 1.225 4.896.065.536.098 1.05.098 1.542 0 1.91-.492 3.982-1.315 6.061-.29.733-.6 1.413-.911 2.023a14.35 14.35 0 0 1-.405.75l-.098.303-.083.88a559.9 559.9 0 0 1-.98 9.362c-.193 1.677-.38 3.2-.557 4.53a98.87 98.87 0 0 1-.422 2.88c-.148.895-.353 1.93-.608 3.076-.13.587-.273 1.198-.425 1.828a141.496 141.496 0 0 1-1.304 4.983c-.181.656-.725 1.603-1.157 2.013a7.344 7.344 0 0 1-.61.628c-.481.446-1.06.895-1.737 1.315-2.305 1.428-5.118 2.171-8.45 1.857-2.893-.273-4.741-1.2-5.783-2.551-.699-.905-.924-1.814-.912-2.43-.103-.796-.07-1.944.062-2.664.01-.04.044-.194.09-.431.074-.387.157-.873.246-1.465.255-1.683.516-3.889.769-6.682.26-2.896.439-5.867.561-8.837a209.043 209.043 0 0 0 .125-3.963l-.07-.326a72.732 72.732 0 0 1-.672-1.48 80.637 80.637 0 0 1-1.484-3.592 57.05 57.05 0 0 1-.984-2.76c-.556-1.707-.927-3.19-1.074-4.374-.278-2.23-.105-4.517.352-6.672.106-.498.22-.949.332-1.342.067-.233.118-.392.145-.47l.099-.285-.131-.271L35.789 8.18l-1.222.633 6.147 12.746-.032-.556a11.68 11.68 0 0 0-.168.546c-.122.425-.243.908-.357 1.44-.489 2.303-.673 4.748-.373 7.159.16 1.29.553 2.857 1.135 4.645.295.906.634 1.854 1.009 2.83a82.015 82.015 0 0 0 2.2 5.176l-.071-.326a207.4 207.4 0 0 1-.124 3.928 182.52 182.52 0 0 1-.545 8.645c-.261 2.885-.519 5.062-.77 6.714-.148.98-.26 1.563-.32 1.811-.169.912-.205 2.22-.086 3.049-.026.81.278 2.036 1.203 3.235 1.289 1.67 3.481 2.77 6.727 3.077 3.632.342 6.73-.476 9.274-2.053 1.297-.804 2.173-1.617 2.63-2.18.563-.526 1.237-1.701 1.485-2.595l.112-.4a142.85 142.85 0 0 0 1.205-4.635c.154-.638.298-1.257.431-1.854.26-1.17.47-2.23.623-3.156.135-.82.278-1.799.429-2.924.179-1.34.367-2.871.56-4.557a503.949 503.949 0 0 0 .983-9.39l.084-.883-.099.303c.093-.156.25-.44.45-.83.33-.649.66-1.37.967-2.147.884-2.235 1.417-4.478 1.417-6.6 0-.55-.037-1.124-.108-1.716-.2-1.664-.66-3.428-1.301-5.215a33.113 33.113 0 0 0-.96-2.38c-.198-.44-.353-.759-.444-.935-.046-.12-.191-.432-.417-.866a27.527 27.527 0 0 0-1.414-2.386c-1.631-2.481-3.78-5.048-6.513-7.566-5.425-5-6.455-5.834-7.06-5.394-.206.204-.206.204-.276.43l.667.15.405-.57C51.364 1.131 47.873 0 45.413 0H31.09c-2.35 0-5.988.713-8.175 1.602-.09.023-.372.119-.77.274-.653.254-1.402.587-2.236 1.008-2.37 1.195-4.96 2.855-7.688 5.054-1.348 1.087-2.722 2.41-4.25 4.044-.994 1.066-4.14 4.636-4.697 5.225l-.198.206A18.488 18.488 0 0 1 0 19.926l.693 1.22c.218-.134.587-.38 1.056-.731z"/><path id="ay" d="M1.997 19.548a9.548 9.548 0 0 1-.617-2.624c-.19-2.149 1.53-5.328 4.594-8.652 3.653-3.961 9.335-6.13 14.623-6.868L20.415 0C14.848.777 8.903 3.047 4.987 7.294 1.672 10.889-.217 14.38.02 17.054c.096 1.082.349 2.096.71 3.025.284.729.572 1.26.776 1.563l1.12-.81c-.148-.22-.386-.66-.63-1.284z"/><path id="az" fill-rule="evenodd" d="M10.126 25.514c-.835-.104-1.762-.816-2.119-1.63L1.772 9.65a8.79 8.79 0 0 1-.279-.457 13.696 13.696 0 0 1-.605-1.177C.408 6.956.091 5.903.017 4.908-.21 1.85 1.85 0 6.777 0c4.839 0 8.594 1.264 11.392 3.374a12.719 12.719 0 0 1 2.394 2.334c.375.482.61.86.705 1.055.425.642 1.048 1.74 1.385 2.44l5.003 10.373c.736 1.526.438 3.74-.656 4.875-.123.214-.361.52-.72.824a3.345 3.345 0 0 1-1.708.78c-1.478.212-3.38.27-5.606.201a85.75 85.75 0 0 1-5.418-.357 103.819 103.819 0 0 1-3.422-.385zM1.382 7.774c.185.406.382.786.58 1.128.113.197.202.339.275.456l.008.013 6.26 14.277c.278.636 1.042 1.224 1.69 1.304.173.024.497.066.947.12.75.09 1.578.179 2.456.263 1.852.176 3.678.302 5.384.355 2.199.068 4.072.01 5.515-.195a2.812 2.812 0 0 0 1.437-.658 3.09 3.09 0 0 0 .637-.73c.967-1.014 1.23-2.964.596-4.278L22.164 9.456a25.207 25.207 0 0 0-1.363-2.402 6.729 6.729 0 0 0-.663-.99c-.59-.76-1.348-1.52-2.29-2.232C15.142 1.792 11.5.566 6.777.566 2.143.566.36 2.168.56 4.864c.068.917.366 1.908.821 2.91z"/><path id="aA" d="M.307 32.72c.248.188.526.403.825.642.855.683 1.71 1.419 2.504 2.18.64.61 1.213 1.21 1.704 1.792.552.655 2.563 3.105 2.8 3.39a81.433 81.433 0 0 0 3.257 3.724c3.08 3.288 6.205 5.87 9.84 7.913 5.79 3.254 11.872 3.849 20.882 2.914 7.289-.755 15.572-6.767 19.655-14.527 1.636-3.11 3.033-9.99 4.242-19.6.58-4.607 1.076-9.541 1.49-14.475a404.978 404.978 0 0 0 .496-6.58L66.64 0l-.031.469-.093 1.33a401.238 401.238 0 0 1-.371 4.752c-.412 4.915-.907 9.83-1.484 14.414-1.184 9.418-2.564 16.21-4.086 19.104-3.873 7.36-11.766 13.09-18.592 13.797-8.761.909-14.601.337-20.096-2.75-3.501-1.968-6.52-4.462-9.51-7.655A80.054 80.054 0 0 1 9.175 39.8c-.231-.279-2.248-2.735-2.808-3.398A24.745 24.745 0 0 0 4.562 34.5a39.145 39.145 0 0 0-2.596-2.26 38.94 38.94 0 0 0-1.186-.91L0 32.493c.054.039.159.116.307.227z"/><path id="aB" d="M3.492 1.836c-.061.854-.17 1.706-.34 2.495-.21.984-.5 1.793-.863 2.357-.024.039-.311.472-.426.65-.23.357-.438.696-.636 1.046-.36.635-.653 1.243-.865 1.827-.386 1.067-.486 2.004-.19 2.792.857 2.28 4.035 6.569 7.07 8.817 1.665 1.233 4.12 1.96 7.168 2.295 2.48.272 5.117.262 7.602.083a40.806 40.806 0 0 0 1.413-.127.703.703 0 0 0 .6-.784.69.69 0 0 0-.756-.623c-.25.03-.716.076-1.352.121-2.412.174-4.974.183-7.363-.079-2.834-.31-5.085-.977-6.518-2.039-2.817-2.086-5.83-6.151-6.59-8.178-.15-.396-.084-1.009.195-1.78.18-.499.44-1.037.763-1.607.183-.324.378-.64.594-.976.109-.169.397-.604.428-.652.472-.734.815-1.696 1.06-2.836.185-.863.303-1.78.368-2.697.04-.55.053-.98.053-1.233A.696.696 0 0 0 4.224 0a.696.696 0 0 0-.683.708c0 .22-.012.616-.049 1.128z"/><path id="aC" d="M2.2 16.168a17.288 17.288 0 0 0 2.609-2.213c1.073-1.113 1.97-2.354 2.632-3.725.256-.53.498-1.085.726-1.663.673-1.699 1.205-3.513 1.61-5.327a38.05 38.05 0 0 0 .352-1.753c.056-.32.091-.552.109-.679a.705.705 0 0 0-.58-.8.687.687 0 0 0-.772.6c-.016.11-.049.324-.101.626-.09.508-.201 1.075-.338 1.686-.39 1.744-.9 3.488-1.543 5.11a23.888 23.888 0 0 1-.685 1.567c-.591 1.226-1.401 2.345-2.376 3.357a15.924 15.924 0 0 1-2.4 2.035c-.488.337-.862.559-1.065.664a.72.72 0 0 0-.306.95c.169.35.58.492.917.317.251-.13.674-.38 1.211-.752z"/><path id="aD" fill-rule="evenodd" d="M2.318.104c.753.348.972 1.437.55 2.422-.424.985-1.351 1.546-2.105 1.198C.009 3.376-.21 2.286.213 1.3.636.316 1.563-.244 2.318.104zM2.095.62c-.435-.2-1.07.183-1.383.911C.4 2.262.55 3.006.985 3.207c.436.202 1.07-.181 1.383-.91.313-.729.164-1.474-.273-1.675z"/><path id="aE" fill-rule="evenodd" d="M2.41 2.712a1.667 1.667 0 0 1-1.605.457C.23 3.03-.171 2.608.073 2.15a4.79 4.79 0 0 1 .78-1.052c.897-.93 1.942-1.39 2.42-.895.478.496.035 1.58-.863 2.51zm.477-2.11c-.169-.174-.945.167-1.648.896-.289.3-.527.621-.688.923-.007.015.102.13.378.196.387.094.805-.005 1.095-.305.702-.729 1.032-1.534.863-1.71z"/><path id="aF" fill-rule="evenodd" d="M12.301 0h46.427c6.04 0 10.935 5.08 10.935 11.33v127.46c0 6.257-4.884 11.33-10.935 11.33H12.3c-6.04 0-10.935-5.081-10.935-11.33V58.065H.683c-.377 0-.683-.327-.683-.709v-9.912c0-.391.317-.709.683-.709h.683v-2.832H.683c-.377 0-.683-.327-.683-.709v-9.912c0-.391.317-.709.683-.709h.683v-7.081H.683A.685.685 0 0 1 0 24.797v-4.275c0-.384.317-.695.683-.695h.683V11.33C1.366 5.073 6.25 0 12.301 0zm0 148.704c-5.282 0-9.57-4.444-9.57-9.914V11.33c0-5.48 4.278-9.914 9.57-9.914h46.427c5.282 0 9.57 4.444 9.57 9.914v127.46c0 5.48-4.278 9.914-9.57 9.914H12.3zM35.514 7.789a.696.696 0 0 1-.682.708.696.696 0 0 1-.683-.708c0-.39.305-.708.683-.708.377 0 .682.317.682.708zm-12.293 4.957c.754 0 1.366-.634 1.366-1.416 0-.782-.612-1.416-1.366-1.416-.754 0-1.366.634-1.366 1.416 0 .782.612 1.416 1.366 1.416zm-17.21 7.081l-.547.567v-.567h.546zm60.374 0H6.01v.567h-.546v112.731H66.93V19.827h-.546zm0 .567H6.01v112.165h-.546l.546.566v-.566h60.375v.566l.546-.566h-.546V20.394zm0 0h.546l-.546-.567v.567zm-37.7-8.356c0-.391.317-.708.708-.708H40.27a.708.708 0 0 1 0 1.416H29.393a.708.708 0 0 1-.708-.708zM34.83 135.25c3.018 0 5.464 2.536 5.464 5.664 0 3.129-2.446 5.665-5.464 5.665-3.017 0-5.463-2.536-5.463-5.665 0-3.128 2.446-5.664 5.463-5.664zm-4.097 5.665c0-2.347 1.834-4.249 4.098-4.249 2.263 0 4.097 1.902 4.097 4.249 0 2.346-1.834 4.248-4.097 4.248-2.264 0-4.098-1.902-4.098-4.248z"/></defs></svg>