<svg width="1024" height="160" viewBox="0 0 1024 160" xmlns="http://www.w3.org/2000/svg" xmlns:xlink="http://www.w3.org/1999/xlink"><title>Фон с кругляхами</title><desc>Created using Figma</desc><g transform="translate(11553 7167)"><path fill="#FFF" d="M-11553-7167h1024v160h-1024z"/><clipPath id="a" clip-rule="evenodd"><path d="M-11553-7984h1024V177h-1024v-8161z" fill="#FFF"/></clipPath><g clip-path="url(#a)"><path d="M-11553-7984h1024V177h-1024v-8161z" fill="#FFF"/><mask id="c"><use xlink:href="#b" transform="translate(-11681 -7764)" fill="#FFF"/></mask><g mask="url(#c)"><use xlink:href="#b" transform="translate(-11681 -7764)" fill="#F6F9FA"/></g><mask id="e"><use xlink:href="#d" transform="translate(-11553 -7167)" fill="#FFF"/></mask><g mask="url(#e)"><use xlink:href="#d" transform="translate(-11553 -7167)" fill="#00689A"/></g><g mask="url(#e)"><use xlink:href="#f" transform="translate(-11314 -7291)" fill="#007DAE"/></g><g mask="url(#e)"><use xlink:href="#f" transform="translate(-11238 -7291)" fill="#0070A0"/></g><g mask="url(#e)"><use xlink:href="#f" transform="translate(-11149 -7291)" fill="#006490"/></g><g mask="url(#e)"><use xlink:href="#f" transform="translate(-11049 -7291)" fill="#005981"/></g><g style="mix-blend-mode:soft-light" transform="translate(-11553 -7167)"><use xlink:href="#d" fill="#FFF"/><use xlink:href="#d" fill="url(#g)" fill-opacity=".6"/></g></g></g><defs><linearGradient id="g" x2="1" gradientUnits="userSpaceOnUse" gradientTransform="matrix(.00002 160 -1024 0 561.703 0)"><stop offset="0" stop-color="#D9D9D9" stop-opacity=".5"/><stop offset="1" stop-color="#005475"/></linearGradient><path id="b" fill-rule="evenodd" d="M0 0h1280v651H0V0z"/><path id="d" fill-rule="evenodd" d="M0 0h1024v160H0V0z"/><path id="f" fill-rule="evenodd" d="M369.5 732C573.569 732 739 568.136 739 366S573.569 0 369.5 0 0 163.864 0 366s165.431 366 369.5 366z"/></defs></svg>