<svg width="320" height="460" viewBox="0 0 320 460" xmlns="http://www.w3.org/2000/svg" xmlns:xlink="http://www.w3.org/1999/xlink"><title>Фон с кругляхами</title><desc>Created using Figma</desc><g transform="translate(13990 6638)"><path fill="#FFF" d="M-13990-6638h320v460h-320z"/><clipPath id="a" clip-rule="evenodd"><path d="M-15270-6998h1920v6710h-1920v-6710z" fill="#FFF"/></clipPath><g clip-path="url(#a)"><path d="M-15270-6998h1920v6710h-1920v-6710z" fill="#FFF"/><mask id="c"><use xlink:href="#b" transform="translate(-15270 -6775)" fill="#FFF"/></mask><g mask="url(#c)"><use xlink:href="#b" transform="translate(-15270 -6775)" fill="#F6F9FA"/></g><g mask="url(#c)" fill="#C8D1D4"><use xlink:href="#d" transform="translate(-13765.4 -6347.44)"/><use xlink:href="#e" transform="translate(-13764.9 -6195.51)"/><use xlink:href="#f" transform="translate(-13751.7 -6334.67)"/></g><g mask="url(#c)" fill="#C8D1D4"><use xlink:href="#g" transform="translate(-13793.3 -6695.31)"/><use xlink:href="#h" transform="translate(-13780.6 -6682.45)"/><use xlink:href="#i" transform="translate(-13693.1 -6526.19)"/><use xlink:href="#j" transform="translate(-13821.3 -6529.37)"/><use xlink:href="#k" transform="translate(-13781.7 -6517.62)"/><use xlink:href="#l" transform="translate(-13823.3 -6526.61)"/></g><use xlink:href="#m" transform="translate(-14950 -6638)" fill="#FFF"/><mask id="n"><use xlink:href="#m" fill="#fff" transform="translate(-14950 -6638)"/></mask><g mask="url(#n)"><use xlink:href="#o" transform="translate(-14950 -6638)" fill="#EBEFF1"/></g><mask id="q"><use xlink:href="#p" transform="translate(-13990 -6638)" fill="#FFF"/></mask><g mask="url(#q)"><use xlink:href="#p" transform="translate(-13990 -6638)" fill="#0C97CC"/></g><g mask="url(#q)"><use xlink:href="#r" transform="translate(-14091 -6717)" fill="#007DAE"/></g><g mask="url(#q)"><use xlink:href="#r" transform="translate(-14027 -6717)" fill="#0070A0"/></g><g mask="url(#q)"><use xlink:href="#r" transform="translate(-13953 -6717)" fill="#006490"/></g><g mask="url(#q)"><use xlink:href="#r" transform="translate(-13869 -6717)" fill="#005981"/></g><mask id="s"><use xlink:href="#p" transform="translate(-13990 -6638)" fill="#FFF" style="mix-blend-mode:soft-light"/></mask><g style="mix-blend-mode:soft-light" mask="url(#s)"><use xlink:href="#p" transform="translate(-13990 -6638)" fill="#FFF"/><use xlink:href="#p" transform="translate(-13990 -6638)" fill="url(#t)" fill-opacity=".6"/></g></g></g><defs><linearGradient id="t" x2="1" gradientUnits="userSpaceOnUse" gradientTransform="matrix(0 460 -320 0 175.532 0)"><stop offset="0" stop-color="#D9D9D9" stop-opacity=".5"/><stop offset="1" stop-color="#005475"/></linearGradient><path id="b" fill-rule="evenodd" d="M0 0h1920v651H0V0z"/><path id="d" fill-rule="evenodd" d="M9.475 181.854c-5.232 0-9.475-4.302-9.475-9.604V9.604C0 4.301 4.244 0 9.475 0h231.694c5.232 0 9.475 4.302 9.475 9.604V172.25c0 5.303-4.244 9.604-9.475 9.604H9.475zM241.17 1.129H9.475c-4.616 0-8.36 3.796-8.36 8.475V172.25c0 4.678 3.743 8.474 8.36 8.474H241.17c4.615 0 8.36-3.795 8.36-8.474V9.604c0-4.679-3.744-8.475-8.36-8.475z"/><path id="e" d="M.557 0L0 1.13h249.035l.557-1.13H.557z"/><path id="f" fill-rule="evenodd" d="M224.132 129.218L0 128.992.223 0l224.131.226-.222 128.992zm-.224-.226l.223-128.54L.445.226l-.222 128.54 223.685.226z"/><path id="g" d="M11.61 0C5.2 0 0 5.267 0 11.76v146.562c0 6.495 5.2 11.76 11.614 11.76.385 0 .69-.309.69-.691a.687.687 0 0 0-.682-.691c-5.668 0-10.256-4.646-10.256-10.378V11.76c0-5.73 4.587-10.377 10.244-10.377h13.66c.377 0 .683-.31.683-.692A.687.687 0 0 0 25.27 0H11.61z"/><path id="h" fill-rule="evenodd" d="M224.288 147.128L0 146.852.273 0l224.289.276-.274 146.852zm-.273-.276l.273-146.3L.547.277.273 146.575l223.742.277z"/><path id="i" fill-rule="evenodd" d="M0 .276V0h48.354v2.351c0 1.3-1.037 2.35-2.327 2.35h-43.7A2.334 2.334 0 0 1 0 2.352V.276zm47.809 0l.272.277h-.272V.276zM.547.553h47.262V2.35c0 .995-.793 1.797-1.782 1.797H2.328c-.987 0-1.781-.8-1.781-1.797V.553zm0 0H.273L.547.276v.277z"/><path id="j" fill-rule="evenodd" d="M0 2.766h301.873v1.382H0V2.766z"/><path id="k" fill-rule="evenodd" d="M0 0h225.381v1.383H0V0z"/><path id="l" d="M.797 0h-.56l-.11.556a6.131 6.131 0 0 0-.062.439c-.167 1.49-.027 3.167.66 4.773a7.71 7.71 0 0 0 .893 1.56c.813 1.098 2.1 1.863 3.72 2.368.952.296 1.965.486 2.976.59a16.62 16.62 0 0 0 1.363.085h35.405V8.988H9.676c-.237 0-.667-.019-1.224-.077a14.104 14.104 0 0 1-2.713-.537c-1.37-.426-2.418-1.05-3.03-1.875a6.325 6.325 0 0 1-.732-1.281C1.4 3.868 1.28 2.422 1.421 1.15a4.99 4.99 0 0 1 .046-.324l-.67.556h40.186V0H.797z"/><path id="m" fill-rule="evenodd" d="M0 6a6 6 0 0 1 6-6h1268c3.31 0 6 2.686 6 6v448c0 3.314-2.69 6-6 6H6a6 6 0 0 1-6-6V6z"/><path id="o" d="M6 1h1268v-2H6v2zm1273 5v448h2V6h-2zm-5 453H6v2h1268v-2zM1 454V6h-2v448h2zM6-1a7 7 0 0 0-7 7h2a5 5 0 0 1 5-5v-2zm1268 2a5 5 0 0 1 5 5h2c0-3.866-3.13-7-7-7v2zm5 453c0 2.761-2.24 5-5 5v2c3.87 0 7-3.134 7-7h-2zM6 459a5 5 0 0 1-5-5h-2a7 7 0 0 0 7 7v-2z"/><path id="p" fill-rule="evenodd" d="M0 0h314a6 6 0 0 1 6 6v448a6 6 0 0 1-6 6H0V0z"/><path id="r" fill-rule="evenodd" d="M309 618c170.656 0 309-138.344 309-309S479.656 0 309 0 0 138.344 0 309s138.344 309 309 309z"/></defs></svg>