<svg width="1280" height="651" viewBox="0 0 1280 651" xmlns="http://www.w3.org/2000/svg" xmlns:xlink="http://www.w3.org/1999/xlink"><title>whathappen-bg-1280</title><desc>Created using Figma</desc><g transform="translate(13030 6775)"><mask id="b"><use xlink:href="#a" transform="translate(-13030 -6775)" fill="#FFF"/></mask><g mask="url(#b)"><use xlink:href="#a" transform="translate(-13030 -6775)" fill="#F6F9FA"/></g><g mask="url(#b)" fill="#C8D1D4"><use xlink:href="#c" transform="translate(-11845 -6347)"/><use xlink:href="#d" transform="translate(-11845 -6196)"/><use xlink:href="#e" transform="translate(-11765 -6132)"/><use xlink:href="#f" transform="translate(-11765 -6132)"/><use xlink:href="#g" transform="translate(-11764 -6166)"/></g><g mask="url(#b)" fill="#C8D1D4"><use xlink:href="#h" transform="translate(-11873 -6695)"/><use xlink:href="#i" transform="translate(-11861 -6681.72)"/><use xlink:href="#j" transform="translate(-11862 -6695)"/><use xlink:href="#k" transform="translate(-11773 -6526)"/><use xlink:href="#l" transform="translate(-11901 -6529)"/><use xlink:href="#j" transform="translate(-11862 -6517)"/><use xlink:href="#m" transform="translate(-11903 -6526)"/></g><g mask="url(#b)" fill="#C8D1D4"><use xlink:href="#k" transform="translate(-13000 -6534)"/><use xlink:href="#n" transform="translate(-12878 -6703)"/><use xlink:href="#o" transform="translate(-13090 -6538)"/><use xlink:href="#p" transform="translate(-13088 -6689.72)"/><use xlink:href="#q" transform="translate(-12866 -6535)"/><use xlink:href="#j" transform="translate(-13089 -6526)"/><use xlink:href="#j" transform="translate(-13089 -6703)"/><use xlink:href="#r" transform="translate(-12977 -6697)"/></g></g><defs><path id="a" fill-rule="evenodd" d="M0 0h1280v651H0V0z"/><path id="c" fill-rule="evenodd" d="M9.488 182C4.25 182 0 177.695 0 172.388V9.612C0 4.304 4.25 0 9.488 0h232.024C246.751 0 251 4.305 251 9.612v162.776c0 5.308-4.25 9.612-9.488 9.612H9.488zM241.62 1H9.38C4.754 1 1 4.804 1 9.494v163.012C1 177.196 4.753 181 9.38 181h232.24c4.626 0 8.38-3.804 8.38-8.494V9.494C250 4.804 246.247 1 241.62 1z"/><path id="d" d="M.558 0L0 1h249.442L250 0H.558z"/><path id="e" d="M2.225 7h84.327C87.782 7 89 5.936 89 4.673v-3.49c0-.67-.433-1.044-1.017-1.15a2.296 2.296 0 0 0-.626-.021c-.048.005.059 1.163.059 1.163.153-.015.275-.014.377.004.11.02.094 3.494.094 3.494 0 .569-.68 1.163-1.335 1.163H2.225c-.598 0-1.113-.53-1.113-1.163H0C0 5.952 1.016 7 2.225 7z"/><path id="f" d="M86.775 5.836H2.448c-.655 0-1.335-.594-1.335-1.163v-3.49a2.04 2.04 0 0 1 .429-.012c.024.002.211-1.146.211-1.146a2.493 2.493 0 0 0-.735.008C.433.139 0 .513 0 1.183v3.49C0 5.936 1.219 7 2.448 7h84.327C87.985 7 89 5.952 89 4.673h-1.112c0 .633-.515 1.163-1.113 1.163z"/><path id="g" fill-rule="evenodd" d="M17.684.349a138.971 138.971 0 0 1-.155 4.316c-.18 3.487-.48 6.975-.926 10.227-.654 4.766-1.569 8.602-2.77 11.152-.289.614-1.753 1.722-4.024 3.068-.617.366-1.288.746-2.004 1.138a125.114 125.114 0 0 1-6.318 3.197C-.731 34.52-.403 36 2.048 36h84.919c2.444 0 2.756-1.47.551-2.526a113.168 113.168 0 0 1-6.323-3.152 58.499 58.499 0 0 1-2.328-1.33c-2.072-1.255-3.4-2.307-3.687-2.94-1.14-2.518-1.911-6.399-2.356-11.257-.42-4.578-.511-9.415-.417-13.662.012-.522.023-.892.031-1.087L71.321 0c-.008.201-.02.578-.032 1.107-.095 4.288-.003 9.165.421 13.795.456 4.977 1.249 8.966 2.455 11.63.422.93 1.845 2.058 4.132 3.443.72.435 1.514.889 2.372 1.355a113.204 113.204 0 0 0 6.385 3.183c.354.17.62.334.77.47.096-.219.118-.235.05-.215-.193.056-.502.09-.908.09H2.046c-.406 0-.718-.034-.913-.092-.072-.022-.054-.008-.028.108.221-.049.487-.215.853-.391l.543-.257a127.904 127.904 0 0 0 5.832-2.97A69.015 69.015 0 0 0 10.37 30.1c2.5-1.481 4.04-2.648 4.47-3.56 1.263-2.68 2.2-6.616 2.87-11.49.45-3.288.753-6.807.934-10.326A139.931 139.931 0 0 0 18.801.37l.005-.34-1.117-.011-.005.33z"/><path id="h" d="M11.631 0C5.208 0 0 5.264 0 11.755v146.49C0 164.737 5.209 170 11.635 170a.69.69 0 0 0 .692-.691.687.687 0 0 0-.684-.691c-5.678 0-10.275-4.644-10.275-10.373V11.755c0-5.728 4.596-10.373 10.263-10.373h13.685c.378 0 .684-.31.684-.69A.688.688 0 0 0 25.316 0H11.63z"/><path id="i" fill-rule="evenodd" d="M222.729 145.725L223 0l1 .001-.272 146.724L0 146.448v-.999l222.729.276z"/><path id="j" fill-rule="evenodd" d="M0 0h225v1H0V0z"/><path id="k" fill-rule="evenodd" d="M46.731 0L47 .286h-.269V0zM.271 0L.27.286H0L.271 0zM0 .286V2.5C0 3.887 1.032 5 2.31 5h43.38C46.97 5 48 3.883 48 2.5V0H0v.286zm.269 0H46.73v1.857C46.73 3.171 45.951 4 44.98 4H2.02C1.05 4 .269 3.174.269 2.143V.286z"/><path id="l" fill-rule="evenodd" d="M0 3.2h302v1.6H0V3.2z"/><path id="m" d="M.796 0H.237l-.11.536C.11.62.087.764.064.959-.103 2.397.037 4.013.723 5.561c.236.533.532 1.037.891 1.506.812 1.058 2.095 1.795 3.713 2.282.951.286 1.962.469 2.971.57a17.247 17.247 0 0 0 1.36.081H45V8.667H9.659c-.237 0-.666-.019-1.222-.075a14.517 14.517 0 0 1-2.709-.517c-1.367-.412-2.413-1.012-3.023-1.808a6.049 6.049 0 0 1-.731-1.236c-.577-1.302-.698-2.696-.555-3.921.018-.157.035-.264.045-.313l-.668.536H40.91V0H.796z"/><path id="n" d="M14.369 1.382c5.667 0 10.263 4.645 10.263 10.372v146.491c0 5.729-4.597 10.373-10.267 10.373a.69.69 0 0 0-.692.691c0 .382.306.691.684.691C20.791 170 26 164.737 26 158.245V11.755C26 5.264 20.792 0 14.369 0H.684A.688.688 0 0 0 0 .691c0 .382.306.691.684.691H14.37z"/><path id="o" fill-rule="evenodd" d="M0 3.2h227v1.6H0V3.2z"/><path id="p" fill-rule="evenodd" d="M223.727 140.724L224 0l1 .001-.273 141.723L0 141.446v-.999l223.727.277z"/><path id="q" d="M32.389 1.333c.546 0 .965.039 1.229.106.09.023.065.006.03-.172-.037-.181-.018-.209-.092-.156-.218.158-.593.345-1.101.543a124.056 124.056 0 0 1-1.526.6c-1.204.464-2.534.958-3.95 1.462-3.234 1.152-6.437 2.176-9.432 2.974-1.242.331-2.592.62-4.032.869-2.804.484-5.815.796-8.826.97a89.026 89.026 0 0 1-4.007.138.674.674 0 0 0-.682.666c0 .369.305.667.682.667.208 0 .593-.004 1.13-.018a90.655 90.655 0 0 0 2.957-.123c3.06-.176 6.121-.493 8.983-.987a47.68 47.68 0 0 0 4.154-.895c3.035-.81 6.272-1.844 9.54-3.008a166.76 166.76 0 0 0 5.116-1.917l.407-.163C35.93 1.735 35.58 0 32.389 0H2.727a.674.674 0 0 0-.682.667c0 .368.305.666.682.666h29.662z"/><path id="r" fill-rule="evenodd" d="M1.5 3a1.5 1.5 0 1 0 0-3 1.5 1.5 0 0 0 0 3z"/></defs></svg>