<svg width="1920" height="651" viewBox="0 0 1920 651" xmlns="http://www.w3.org/2000/svg" xmlns:xlink="http://www.w3.org/1999/xlink"><title>whathappen-bg-1920</title><desc>Created using Figma</desc><g transform="translate(15270 6775)"><mask id="b"><use xlink:href="#a" transform="translate(-15270 -6775)" fill="#FFF"/></mask><g mask="url(#b)"><use xlink:href="#a" transform="translate(-15270 -6775)" fill="#F6F9FA"/></g><g mask="url(#b)"><use xlink:href="#c" transform="translate(-13765.4 -6347.44)" fill="#C8D1D4"/><use xlink:href="#d" transform="translate(-13764.9 -6195.51)" fill="#C8D1D4"/><use xlink:href="#e" transform="translate(-13751.7 -6334.67)" fill="#C8D1D4"/><use xlink:href="#f" transform="translate(-13684.7 -6132.28)" fill="#C8D1D4"/><use xlink:href="#g" transform="translate(-13684.7 -6132.28)" fill="#C8D1D4"/><use xlink:href="#h" transform="translate(-13684.5 -6166.17)" fill="#C8D1D4"/><use xlink:href="#i" transform="translate(-13640.1 -6341.22)" fill="#6C84FA"/></g><g mask="url(#b)" fill="#C8D1D4"><use xlink:href="#j" transform="translate(-13570.6 -6695.31)"/><use xlink:href="#k" transform="translate(-13793.3 -6695.31)"/><use xlink:href="#l" transform="translate(-13780.6 -6682.45)"/><use xlink:href="#m" transform="translate(-13781.7 -6695.31)"/><use xlink:href="#n" transform="translate(-13669.6 -6689.09)"/><use xlink:href="#o" transform="translate(-13693.1 -6526.19)"/><use xlink:href="#p" transform="translate(-13821.3 -6529.37)"/><use xlink:href="#m" transform="translate(-13781.7 -6517.62)"/><use xlink:href="#q" transform="translate(-13823.3 -6526.61)"/><use xlink:href="#r" transform="translate(-13561.7 -6526.61)"/></g><g mask="url(#b)" fill="#C8D1D4"><use xlink:href="#o" transform="translate(-14920.3 -6533.5)"/><use xlink:href="#j" transform="translate(-14797.8 -6703.31)"/><use xlink:href="#k" transform="translate(-15020.5 -6703.31)"/><use xlink:href="#s" transform="translate(-15010.2 -6537.37)"/><use xlink:href="#t" transform="translate(-15007.8 -6690.45)"/><use xlink:href="#u" transform="translate(-15042.3 -6534.61)"/><use xlink:href="#v" transform="translate(-14785.5 -6534.61)"/><use xlink:href="#m" transform="translate(-15008.9 -6525.62)"/><use xlink:href="#m" transform="translate(-15008.9 -6703.31)"/><use xlink:href="#n" transform="translate(-14896.8 -6697.09)"/></g><g mask="url(#b)"><use xlink:href="#w" transform="translate(-15149 -6395)" fill="#C8D1D4"/></g><g mask="url(#b)" fill="#C8D1D4"><use xlink:href="#x" transform="translate(-13591.4 -6426.71)"/><use xlink:href="#y" transform="translate(-13643 -6459.64)"/><use xlink:href="#z" transform="translate(-13611.9 -6450.24)"/><use xlink:href="#A" transform="translate(-13609.1 -6450.05)"/><use xlink:href="#B" transform="translate(-13608.9 -6433.37)"/><use xlink:href="#C" transform="translate(-13643 -6456.88)"/><use xlink:href="#D" transform="translate(-13638.6 -6479)"/><use xlink:href="#E" transform="translate(-13609.6 -6478.3)"/><use xlink:href="#F" transform="translate(-13600.6 -6471.67)"/><use xlink:href="#G" transform="translate(-13638.6 -6441.71)"/><use xlink:href="#H" transform="translate(-13609.7 -6415.39)"/><use xlink:href="#I" transform="translate(-13604.8 -6412.63)"/><use xlink:href="#J" transform="translate(-13591.2 -6402.67)"/><use xlink:href="#K" transform="translate(-13597.1 -6395.05)"/></g><g mask="url(#b)"><use xlink:href="#L" transform="translate(-15184 -6609)" fill="#C8D1D4"/></g></g><defs><path id="a" fill-rule="evenodd" d="M0 0h1920v651H0V0z"/><path id="c" fill-rule="evenodd" d="M9.475 181.854c-5.232 0-9.475-4.302-9.475-9.604V9.604C0 4.301 4.244 0 9.475 0h231.694c5.232 0 9.475 4.302 9.475 9.604V172.25c0 5.303-4.244 9.604-9.475 9.604H9.475zM241.17 1.129H9.475c-4.616 0-8.36 3.796-8.36 8.475V172.25c0 4.678 3.743 8.474 8.36 8.474H241.17c4.615 0 8.36-3.795 8.36-8.474V9.604c0-4.679-3.744-8.475-8.36-8.475z"/><path id="d" d="M.557 0L0 1.13h249.035l.557-1.13H.557z"/><path id="e" fill-rule="evenodd" d="M224.132 129.218L0 128.992.223 0l224.131.226-.222 128.992zm-.224-.226l.223-128.54L.445.226l-.222 128.54 223.685.226z"/><path id="f" d="M2.228 6.795h84.438c1.231 0 2.452-1.033 2.452-2.259V1.148c0-.65-.434-1.013-1.019-1.116a2.37 2.37 0 0 0-.627-.02c-.047.004.06 1.13.06 1.13a1.37 1.37 0 0 1 .377.003c.111.02.095 3.391.095 3.391 0 .553-.682 1.13-1.338 1.13H2.228c-.6 0-1.114-.516-1.114-1.13H0c0 1.242 1.017 2.26 2.228 2.26z"/><path id="g" d="M86.89 5.666H2.452c-.656 0-1.338-.577-1.338-1.13V1.148c.197-.021.319-.022.43-.012.024.003.211-1.111.211-1.111a2.574 2.574 0 0 0-.736.007C.434.135 0 .498 0 1.148v3.388c0 1.226 1.22 2.26 2.452 2.26H86.89c1.21 0 2.228-1.018 2.228-2.26h-1.114c0 .614-.515 1.13-1.114 1.13z"/><path id="h" fill-rule="evenodd" d="M17.63.345c-.004.269-.01.58-.02.933a137.956 137.956 0 0 1-.134 3.335c-.18 3.45-.478 6.898-.923 10.114-.652 4.714-1.564 8.508-2.761 11.03-.288.606-1.748 1.703-4.012 3.034-.616.361-1.285.738-1.998 1.125a114.517 114.517 0 0 1-4.332 2.222 124.275 124.275 0 0 1-1.967.94c-2.213 1.06-1.886 2.525.558 2.525h84.664c2.437 0 2.748-1.453.55-2.498a114.436 114.436 0 0 1-1.976-.924 102.628 102.628 0 0 1-4.329-2.193 58.45 58.45 0 0 1-2.32-1.316c-2.067-1.241-3.39-2.282-3.676-2.907-1.137-2.491-1.906-6.329-2.35-11.133-.418-4.528-.51-9.31-.415-13.512.012-.516.023-.882.03-1.075L71.108 0c-.008.2-.02.571-.032 1.095-.095 4.24-.003 9.064.42 13.642.455 4.922 1.245 8.867 2.448 11.502.42.92 1.839 2.035 4.12 3.405.716.431 1.509.88 2.364 1.34 1.393.753 2.884 1.504 4.375 2.218a112.374 112.374 0 0 0 1.99.93c.354.169.618.33.77.464.094-.216.116-.232.049-.212-.193.056-.502.09-.906.09H2.041c-.406 0-.717-.034-.911-.092-.072-.021-.054-.008-.029.108.221-.049.486-.213.85-.388l.542-.253a127.193 127.193 0 0 0 5.815-2.937 68.763 68.763 0 0 0 2.03-1.144c2.493-1.465 4.03-2.619 4.458-3.521 1.258-2.651 2.194-6.543 2.86-11.363.45-3.252.752-6.732.932-10.212a137.242 137.242 0 0 0 .157-4.307l.005-.337-1.114-.01-.005.327z"/><path id="i" fill-rule="evenodd" d="M1.114 2.259c.615 0 1.114-.506 1.114-1.13C2.228.507 1.729 0 1.114 0 .499 0 0 .506 0 1.13c0 .623.499 1.129 1.114 1.129z"/><path id="j" d="M14.343 1.383C20 1.383 24.587 6.03 24.587 11.76v146.562c0 5.732-4.588 10.378-10.248 10.378a.688.688 0 0 0-.69.691c0 .382.305.691.682.691 6.423 0 11.622-5.265 11.622-11.76V11.76C25.953 5.267 20.754 0 14.343 0H.683A.687.687 0 0 0 0 .691c0 .382.306.692.683.692h13.66z"/><path id="k" d="M11.61 0C5.2 0 0 5.267 0 11.76v146.562c0 6.495 5.2 11.76 11.614 11.76.385 0 .69-.309.69-.691a.687.687 0 0 0-.682-.691c-5.668 0-10.256-4.646-10.256-10.378V11.76c0-5.73 4.587-10.377 10.244-10.377h13.66c.377 0 .683-.31.683-.692A.687.687 0 0 0 25.27 0H11.61z"/><path id="l" fill-rule="evenodd" d="M224.288 147.128L0 146.852.273 0l224.289.276-.274 146.852zm-.273-.276l.273-146.3L.547.277.273 146.575l223.742.277z"/><path id="m" fill-rule="evenodd" d="M0 0h225.381v1.383H0V0z"/><path id="n" fill-rule="evenodd" d="M1.366 2.766c.754 0 1.366-.62 1.366-1.383C2.732.619 2.12 0 1.366 0 .612 0 0 .62 0 1.383s.612 1.383 1.366 1.383z"/><path id="o" fill-rule="evenodd" d="M0 .276V0h48.354v2.351c0 1.3-1.037 2.35-2.327 2.35h-43.7A2.334 2.334 0 0 1 0 2.352V.276zm47.809 0l.272.277h-.272V.276zM.547.553h47.262V2.35c0 .995-.793 1.797-1.782 1.797H2.328c-.987 0-1.781-.8-1.781-1.797V.553zm0 0H.273L.547.276v.277z"/><path id="p" fill-rule="evenodd" d="M0 2.766h301.873v1.382H0V2.766z"/><path id="q" d="M.797 0h-.56l-.11.556a6.131 6.131 0 0 0-.062.439c-.167 1.49-.027 3.167.66 4.773a7.71 7.71 0 0 0 .893 1.56c.813 1.098 2.1 1.863 3.72 2.368.952.296 1.965.486 2.976.59a16.62 16.62 0 0 0 1.363.085h35.405V8.988H9.676c-.237 0-.667-.019-1.224-.077a14.104 14.104 0 0 1-2.713-.537c-1.37-.426-2.418-1.05-3.03-1.875a6.325 6.325 0 0 1-.732-1.281C1.4 3.868 1.28 2.422 1.421 1.15a4.99 4.99 0 0 1 .046-.324l-.67.556h40.186V0H.797z"/><path id="r" d="M43.71 1.383l-.67-.556c.01.05.028.162.046.324.143 1.271.022 2.717-.556 4.067a6.328 6.328 0 0 1-.732 1.281c-.612.826-1.66 1.449-3.03 1.875-.857.267-1.784.44-2.713.537-.557.058-.987.077-1.223.077H0v1.383h34.832c.074 0 .205-.003.385-.01.296-.014.624-.038.977-.074a15.424 15.424 0 0 0 2.977-.591c1.62-.505 2.907-1.27 3.72-2.367a7.7 7.7 0 0 0 .892-1.561c.688-1.606.828-3.282.66-4.773a5.688 5.688 0 0 0-.063-.44L44.27 0H5.464v1.383H43.71z"/><path id="s" fill-rule="evenodd" d="M0 2.766h226.747v1.382H0V2.766z"/><path id="t" fill-rule="evenodd" d="M224.288 141.597L0 141.32.273 0l224.289.276-.274 141.321zm-.273-.277L224.288.553.547.276.273 141.044l223.742.276z"/><path id="u" d="M2.632 0C-.572 0-.946 1.796 2.037 3a122.419 122.419 0 0 0 1.535.624c1.217.485 2.56 1.002 3.99 1.53 3.274 1.206 6.517 2.28 9.558 3.118a46.23 46.23 0 0 0 4.162.929c2.867.512 5.934.841 9 1.024a85.314 85.314 0 0 0 4.096.146c.377 0 .683-.31.683-.692a.687.687 0 0 0-.683-.69 85.151 85.151 0 0 1-4.016-.145c-3.017-.18-6.033-.503-8.843-1.005a45.034 45.034 0 0 1-4.04-.9c-3-.829-6.209-1.89-9.45-3.085a162.082 162.082 0 0 1-5.08-1.97 54.86 54.86 0 0 1-.397-.165c-.518-.209-.892-.403-1.11-.566-.071-.053-.05-.02-.089.17-.037.18-.059.194.037.17.268-.07.691-.11 1.242-.11h30.14c.378 0 .684-.31.684-.692A.687.687 0 0 0 32.773 0H2.632z"/><path id="v" d="M32.451 1.383c.547 0 .967.04 1.231.109.092.024.066.006.03-.178-.036-.188-.017-.217-.09-.162-.22.164-.595.358-1.105.564l-.406.168a161.949 161.949 0 0 1-5.08 1.97c-3.24 1.195-6.45 2.256-9.45 3.084a45.034 45.034 0 0 1-4.04.901c-2.81.502-5.826.826-8.843 1.005a86.42 86.42 0 0 1-2.917.126c-.526.014-.9.018-1.098.018A.687.687 0 0 0 0 9.68c0 .382.306.692.683.692a85.105 85.105 0 0 0 4.095-.146c3.066-.183 6.133-.512 9-1.024a46.379 46.379 0 0 0 4.162-.929c3.042-.839 6.285-1.912 9.56-3.119a163.357 163.357 0 0 0 5.124-1.988c.199-.081.336-.138.408-.169C36 1.8 35.65 0 32.452 0H2.731a.687.687 0 0 0-.683.691c0 .382.306.692.683.692h29.72z"/><path id="w" fill-rule="evenodd" d="M6.82 0h133.882c3.767 0 6.819 3.093 6.819 6.903V203.28c0 3.812-3.046 6.903-6.819 6.903H6.819C3.053 210.183 0 207.09 0 203.28V6.903C0 3.091 3.047 0 6.82 0zm0 208.8c-3.011 0-5.454-2.473-5.454-5.52V6.903c0-3.05 2.438-5.52 5.453-5.52h133.884c3.011 0 5.453 2.473 5.453 5.52V203.28c0 3.051-2.438 5.52-5.453 5.52H6.819zM8.74 17.976l-.546.553v-.553h.546zm130.038 0H8.741v.553h-.546v173.678h131.131V17.976h-.547zm0 .553H8.741v173.125h-.546l.546.553v-.553H138.78v.553l.547-.553h-.547V18.529zm0 0h.547l-.547-.553v.553zM79.225 200.504c0-3.055-2.447-5.531-5.464-5.531-3.018 0-5.464 2.476-5.464 5.531 0 3.055 2.446 5.531 5.464 5.531 3.017 0 5.464-2.476 5.464-5.531zm-9.562 0c0-2.291 1.835-4.149 4.098-4.149s4.097 1.858 4.097 4.149-1.834 4.148-4.097 4.148c-2.263 0-4.098-1.857-4.098-4.148zM76.493 9.68c0 .763-.612 1.383-1.366 1.383-.755 0-1.366-.62-1.366-1.383 0-.764.611-1.383 1.366-1.383.754 0 1.365.619 1.365 1.383z"/><path id="x" fill-rule="evenodd" d="M6.176.084c2.749.541 4.47 3.536 3.867 6.677-.603 3.141-3.308 5.266-6.056 4.725C1.238 10.946-.483 7.95.12 4.81.724 1.668 3.428-.456 6.176.084zM6.07.627C3.637.148 1.205 2.06.656 4.915c-.548 2.856 1 5.55 3.435 6.028 2.435.48 4.867-1.43 5.415-4.287.549-2.856-1-5.55-3.435-6.029z"/><path id="y" d="M38.246 21.068l-.285-.41-.215.149v.261h.5zm0-11.733h-.5v.268l.223.148.277-.416zM.5 6A5.5 5.5 0 0 1 6 .5v-1A6.5 6.5 0 0 0-.5 6h1zm0 37.78V6h-1v37.78h1zm5.5 5.5a5.5 5.5 0 0 1-5.5-5.5h-1a6.5 6.5 0 0 0 6.5 6.5v-1zm26.246 0H6v1h26.246v-1zm5.5-5.5a5.5 5.5 0 0 1-5.5 5.5v1a6.5 6.5 0 0 0 6.5-6.5h-1zm0-22.712V43.78h1V21.068h-1zm.785.411c1.741-1.21 2.947-3.991 2.947-6.268h-1c0 2.03-1.106 4.466-2.517 5.447l.57.821zm2.947-6.268c0-2.306-1.174-5.104-2.955-6.292l-.554.832c1.426.952 2.51 3.385 2.51 5.46h1zM37.746 6v3.335h1V6h-1zm-5.5-5.5a5.5 5.5 0 0 1 5.5 5.5h1a6.5 6.5 0 0 0-6.5-6.5v1zM6 .5h26.246v-1H6v1z"/><path id="z" fill-rule="evenodd" d="M5.054 0c2.8 0 5.054 2.608 5.054 5.808 0 3.2-2.254 5.807-5.054 5.807C2.254 11.615 0 9.008 0 5.808S2.254 0 5.054 0zm0 .553C2.572.553.546 2.898.546 5.808c0 2.91 2.026 5.255 4.508 5.255 2.48 0 4.508-2.346 4.508-5.255 0-2.91-2.028-5.255-4.508-5.255z"/><path id="A" d="M0 4.933c0 2.817 1.947 5.116 4.371 5.116.62 0 1.221-.151 1.775-.439a.278.278 0 0 0 .118-.372.272.272 0 0 0-.368-.12 3.287 3.287 0 0 1-1.525.378C2.269 9.496.546 7.462.546 4.933c0-2.063 1.158-3.847 2.789-4.394a.277.277 0 0 0 .173-.35.272.272 0 0 0-.345-.175C1.299.64 0 2.641 0 4.933z"/><path id="B" fill-rule="evenodd" d="M4.098 2.068C4.098.939 3.18 0 2.048 0A2.054 2.054 0 0 0 0 2.068v12.457c0 1.129.917 2.068 2.049 2.068 1.14 0 2.049-.925 2.049-2.068V2.068zM2.048 16.04a1.518 1.518 0 0 1-1.502-1.516V2.068c0-.84.668-1.515 1.503-1.515.824 0 1.502.687 1.502 1.515v12.457c0 .84-.667 1.516-1.502 1.516z"/><path id="C" fill-rule="evenodd" d="M25.944 0H5.473C2.439 0 0 2.479 0 5.537v33.175c0 3.063 2.45 5.537 5.473 5.537h20.471c3.034 0 5.473-2.479 5.473-5.537V5.537c0-3.063-2.45-5.537-5.473-5.537zM5.472 43.696c-2.723 0-4.926-2.228-4.926-4.984V5.537C.546 2.781 2.744.553 5.472.553h20.471c2.723 0 4.927 2.228 4.927 4.984v33.175c0 2.757-2.198 4.984-4.927 4.984H5.472z"/><path id="D" d="M1.749 19.933a19.692 19.692 0 0 0 2.5-2.164c.579-.598 3.728-4.088 4.704-5.107 1.487-1.554 2.816-2.804 4.107-3.82 2.65-2.087 5.16-3.657 7.446-4.783a25.09 25.09 0 0 1 2.119-.933c.362-.137.607-.219.725-.252 2.092-.828 5.56-1.491 7.74-1.491h14.323c2.176 0 5.382 1.014 7.05 2.255l.847.63.225-1.04c-.07.22-.07.22-.274.417-.328.232-.416.2-.587.096.127.077.357.244.702.518.993.786 2.692 2.25 5.253 4.554 2.646 2.382 4.722 4.802 6.292 7.133.547.812.99 1.553 1.34 2.208.206.386.333.654.39.786a30.228 30.228 0 0 1 1.353 3.122c.607 1.651 1.04 3.274 1.225 4.78.065.523.098 1.026.098 1.505 0 1.865-.492 3.889-1.315 5.918-.29.716-.6 1.38-.911 1.976a13.92 13.92 0 0 1-.405.732l-.098.296-.083.858a537.569 537.569 0 0 1-.98 9.142 235.616 235.616 0 0 1-.557 4.422 94.411 94.411 0 0 1-.422 2.813 55.024 55.024 0 0 1-.608 3.003 97.84 97.84 0 0 1-.425 1.785 135.68 135.68 0 0 1-1.304 4.865c-.181.64-.725 1.566-1.157 1.966a7.27 7.27 0 0 1-.61.613 11.25 11.25 0 0 1-1.737 1.283c-2.305 1.396-5.118 2.121-8.45 1.814-2.893-.266-4.741-1.172-5.783-2.49-.699-.885-.924-1.772-.912-2.374-.103-.776-.07-1.897.062-2.6.01-.04.044-.19.09-.422.074-.377.157-.851.246-1.43.255-1.643.516-3.796.769-6.524.26-2.828.439-5.728.561-8.628a199.23 199.23 0 0 0 .125-3.87l-.07-.317a71.093 71.093 0 0 1-.672-1.444 77.693 77.693 0 0 1-1.484-3.51 54.822 54.822 0 0 1-.984-2.694c-.556-1.667-.927-3.115-1.074-4.27-.278-2.178-.105-4.41.352-6.515.106-.487.22-.926.332-1.31a9.66 9.66 0 0 1 .145-.46l.099-.278-.131-.264-6.147-12.445-1.222.618 6.147 12.445-.032-.543c-.035.1-.094.28-.168.533a20.83 20.83 0 0 0-.357 1.406c-.489 2.249-.673 4.636-.373 6.99.16 1.26.553 2.79 1.135 4.535.295.885.634 1.81 1.009 2.764a79.025 79.025 0 0 0 2.2 5.053l-.071-.318a197.67 197.67 0 0 1-.124 3.835c-.121 2.879-.3 5.757-.545 8.441-.261 2.817-.519 4.943-.77 6.555-.148.958-.26 1.527-.32 1.769-.169.89-.205 2.167-.086 2.977-.026.79.278 1.988 1.203 3.158 1.289 1.63 3.481 2.706 6.727 3.004 3.632.335 6.73-.464 9.274-2.004 1.297-.785 2.173-1.578 2.63-2.128.563-.514 1.237-1.661 1.485-2.534l.112-.391a136.694 136.694 0 0 0 1.205-4.525c.154-.623.298-1.228.431-1.81.26-1.143.47-2.178.623-3.082.135-.8.278-1.756.429-2.855.179-1.308.367-2.803.56-4.45a480.714 480.714 0 0 0 .983-9.167l.084-.863-.099.297c.093-.153.25-.43.45-.812.33-.633.66-1.337.967-2.096.884-2.182 1.417-4.372 1.417-6.443 0-.539-.037-1.098-.108-1.676-.2-1.625-.66-3.347-1.301-5.092a31.89 31.89 0 0 0-.96-2.324c-.198-.429-.353-.74-.444-.913a11.014 11.014 0 0 0-.417-.846 26.754 26.754 0 0 0-1.414-2.33c-1.631-2.422-3.78-4.928-6.513-7.386-5.425-4.882-6.455-5.697-7.06-5.267-.206.2-.206.2-.276.42l.667.147.405-.557C51.364 1.104 47.873 0 45.413 0H31.09c-2.35 0-5.988.696-8.175 1.565-.09.022-.372.115-.77.267a25.96 25.96 0 0 0-2.236.984c-2.37 1.167-4.96 2.788-7.688 4.935-1.348 1.061-2.722 2.352-4.25 3.948-.994 1.04-4.14 4.526-4.697 5.102A18.333 18.333 0 0 1 .95 18.81c-.433.316-.767.534-.95.644l.693 1.191c.218-.13.587-.37 1.056-.713z"/><path id="E" d="M1.997 19.087a9.14 9.14 0 0 1-.617-2.563c-.19-2.098 1.53-5.202 4.594-8.447C9.627 4.209 15.31 2.09 20.597 1.37L20.415 0C14.848.759 8.903 2.975 4.987 7.121c-3.315 3.51-5.204 6.92-4.967 9.53.096 1.057.349 2.047.71 2.954.284.712.572 1.231.776 1.526l1.12-.79c-.148-.216-.386-.646-.63-1.254z"/><path id="F" fill-rule="evenodd" d="M10.126 24.912c-.835-.101-1.762-.798-2.119-1.593L1.773 9.422a7.953 7.953 0 0 1-.28-.446c-.206-.35-.413-.736-.605-1.15C.408 6.793.09 5.764.017 4.793-.21 1.807 1.85 0 6.777 0c4.84 0 8.594 1.234 11.392 3.294.982.725 1.776 1.5 2.395 2.28.374.47.609.84.705 1.03a24.286 24.286 0 0 1 1.385 2.381l5.002 10.129c.736 1.49.439 3.651-.656 4.76a3.278 3.278 0 0 1-.72.805c-.48.396-1.05.67-1.708.761-1.478.207-3.38.264-5.606.196a87.654 87.654 0 0 1-5.418-.348 105.487 105.487 0 0 1-3.422-.376zM1.383 7.59a12.79 12.79 0 0 0 .863 1.56l6.26 13.94c.277.62 1.042 1.194 1.688 1.272a105.76 105.76 0 0 0 3.404.373 87.43 87.43 0 0 0 5.385.348c2.199.066 4.072.01 5.515-.191a2.845 2.845 0 0 0 1.436-.643c.305-.252.505-.502.638-.713.966-.99 1.229-2.893.596-4.176L22.165 9.233a24.41 24.41 0 0 0-1.364-2.345c-.096-.187-.312-.527-.662-.968a12.064 12.064 0 0 0-2.291-2.178C15.144 1.75 11.5.553 6.778.553 2.144.553.362 2.117.562 4.75c.068.894.366 1.863.821 2.84z"/><path id="G" d="M.307 31.948a37.523 37.523 0 0 1 3.33 2.754 23.055 23.055 0 0 1 1.703 1.75c.552.64 2.563 3.032 2.8 3.31a80.123 80.123 0 0 0 3.257 3.636c3.08 3.211 6.205 5.732 9.84 7.726 5.79 3.177 11.872 3.758 20.882 2.846 7.289-.738 15.572-6.608 19.655-14.185 1.636-3.036 3.033-9.754 4.242-19.136.58-4.499 1.076-9.316 1.49-14.133A386.246 386.246 0 0 0 68.002.09L66.64 0l-.031.458-.093 1.299a388.42 388.42 0 0 1-.371 4.639c-.412 4.799-.907 9.597-1.484 14.074-1.184 9.196-2.564 15.827-4.086 18.653-3.873 7.187-11.766 12.78-18.592 13.471-8.761.887-14.601.33-20.096-2.685-3.501-1.922-6.52-4.357-9.51-7.474a78.83 78.83 0 0 1-3.202-3.575c-.231-.272-2.248-2.67-2.808-3.318a24.412 24.412 0 0 0-1.805-1.857 38.86 38.86 0 0 0-2.596-2.206 39.065 39.065 0 0 0-1.186-.89L0 31.726c.054.038.159.114.307.223z"/><path id="H" d="M3.492 1.793c-.061.833-.17 1.665-.34 2.436-.21.96-.5 1.75-.863 2.301-.024.038-.311.461-.426.635-.23.348-.438.68-.636 1.02C.867 8.807.574 9.4.362 9.97c-.386 1.042-.486 1.956-.19 2.726.857 2.227 4.035 6.414 7.07 8.608 1.665 1.205 4.12 1.915 7.168 2.242 2.48.265 5.117.256 7.602.08a41.048 41.048 0 0 0 1.413-.123.69.69 0 0 0 .6-.766.685.685 0 0 0-.756-.608c-.25.03-.716.074-1.352.118-2.412.17-4.974.18-7.363-.077-2.834-.303-5.085-.954-6.518-1.99-2.817-2.038-5.83-6.007-6.59-7.986-.15-.387-.084-.985.195-1.738.18-.487.44-1.013.763-1.57.183-.315.378-.625.594-.952.109-.165.397-.59.428-.637.472-.716.815-1.655 1.06-2.768.185-.843.303-1.74.368-2.634.04-.537.053-.957.053-1.204A.687.687 0 0 0 4.224 0a.687.687 0 0 0-.683.691c0 .215-.012.601-.049 1.102z"/><path id="I" d="M2.2 15.786c.89-.6 1.778-1.32 2.609-2.16 1.073-1.087 1.97-2.299 2.632-3.637.256-.518.498-1.06.726-1.624.673-1.66 1.205-3.43 1.61-5.201.143-.62.259-1.195.352-1.712.056-.313.091-.539.109-.663a.69.69 0 0 0-.58-.782.684.684 0 0 0-.772.587c-.016.107-.049.316-.101.611-.09.496-.201 1.05-.338 1.646-.39 1.703-.9 3.405-1.543 4.989a22.897 22.897 0 0 1-.685 1.53c-.591 1.197-1.401 2.29-2.376 3.278a15.833 15.833 0 0 1-2.4 1.987c-.488.33-.862.546-1.065.649a.695.695 0 0 0-.306.927.68.68 0 0 0 .917.31 12.14 12.14 0 0 0 1.211-.735z"/><path id="J" fill-rule="evenodd" d="M2.317.101c.754.34.973 1.404.55 2.366-.423.961-1.35 1.51-2.104 1.17-.754-.34-.973-1.405-.55-2.366C.636.309 1.563-.24 2.317.1zm-.221.506C1.659.41 1.026.784.712 1.495.4 2.207.549 2.935.985 3.13c.437.197 1.07-.177 1.383-.888.314-.712.163-1.44-.272-1.635z"/><path id="K" fill-rule="evenodd" d="M2.41 2.648a1.695 1.695 0 0 1-1.606.446C.23 2.96-.17 2.546.073 2.097c.185-.341.455-.697.78-1.026C1.75.163 2.794-.286 3.272.197c.478.484.034 1.542-.863 2.451zm.476-2.06c-.169-.17-.945.163-1.648.875-.29.292-.526.606-.688.901-.006.014.103.126.378.192.387.092.805-.005 1.095-.299.703-.711 1.032-1.497.863-1.668z"/><path id="L" fill-rule="evenodd" d="M12.302 0h46.426c6.04 0 10.935 4.96 10.935 11.062v124.451c0 6.11-4.884 11.062-10.934 11.062H12.301c-6.04 0-10.936-4.961-10.936-11.062V56.694H.683A.694.694 0 0 1 0 56.002v-9.678c0-.382.316-.692.683-.692h.683v-2.765H.683A.694.694 0 0 1 0 42.174v-9.678c0-.382.316-.692.683-.692h.683V24.89H.683A.676.676 0 0 1 0 24.212v-4.175c0-.374.316-.678.683-.678h.683v-8.297C1.366 4.952 6.251 0 12.302 0zM12.3 145.192c-5.282 0-9.57-4.338-9.57-9.679V11.062c0-5.35 4.277-9.68 9.57-9.68h46.426c5.283 0 9.57 4.34 9.57 9.68v124.451c0 5.35-4.278 9.679-9.57 9.679H12.301zM35.515 7.605a.687.687 0 0 1-.684.692.687.687 0 0 1-.683-.692c0-.381.306-.69.683-.69.378 0 .684.309.684.69zm-12.293 4.84c.754 0 1.365-.619 1.365-1.383 0-.763-.611-1.382-1.365-1.382-.755 0-1.367.619-1.367 1.383 0 .763.612 1.382 1.367 1.382zM6.01 19.36l-.546.553v-.553h.546zm60.375 0H6.01v.553h-.546v110.069h61.468V19.359h-.547zm0 .553H6.01V129.43h-.546l.546.552v-.552h60.375v.552l.547-.552h-.547V19.912zm0 0h.547l-.547-.553v.553zm-37.7-8.158c0-.382.31-.691.691-.691h10.911a.691.691 0 0 1 0 1.382H29.376a.691.691 0 0 1-.691-.691zm6.147 120.302c3.018 0 5.464 2.476 5.464 5.531 0 3.055-2.446 5.531-5.464 5.531-3.018 0-5.464-2.476-5.464-5.531 0-3.055 2.447-5.531 5.464-5.531zm-4.099 5.531c0-2.291 1.835-4.149 4.098-4.149 2.264 0 4.098 1.858 4.098 4.149s-1.834 4.148-4.098 4.148c-2.263 0-4.098-1.857-4.098-4.148z"/></defs></svg>