<svg width="416" height="173" viewBox="0 0 416 173" xmlns="http://www.w3.org/2000/svg" xmlns:xlink="http://www.w3.org/1999/xlink"><title>иллюстрация + фон copy</title><desc>Created using Figma</desc><use xlink:href="#a" transform="translate(158.8 20.535)" fill="#90A4AE"/><use xlink:href="#b" transform="translate(407 98.372)" fill="#90A4AE"/><use xlink:href="#c" transform="translate(153 78.377)" fill="#90A4AE"/><use xlink:href="#d" transform="rotate(180 207.9 82.56)" fill="#CFD8DC"/><use xlink:href="#e" transform="rotate(180 200.4 78.23)" fill="#F57C00"/><use xlink:href="#f" transform="rotate(180 110.8 26.238)" fill="#ECEFF1"/><use xlink:href="#g" transform="rotate(180 177.75 64.927)" fill="#78909C"/><use xlink:href="#h" transform="rotate(180 207.9 82.56)" fill="#ECEFF1" opacity=".1"/><use xlink:href="#i" transform="scale(1 -1) rotate(-60 -62.548 -33.572)" fill="#CFD8DC"/><use xlink:href="#j" transform="scale(1 -1) rotate(-60 -60.497 -102.362)" fill="#90A4AE"/><use xlink:href="#k" transform="scale(1 -1) rotate(-60 -62.535 -98.805)" fill="url(#l)"/><use xlink:href="#m" transform="scale(1 -1) rotate(-60 -57.6 -33.487)" fill="#B0BEC5"/><use xlink:href="#n" transform="scale(1 -1) rotate(-60 52.86 -166.82)" fill="#90A4AE"/><use xlink:href="#o" transform="scale(1 -1) rotate(-60 -61.878 -32.03)" fill="#CFD8DC"/><use xlink:href="#p" transform="scale(1 -1) rotate(-60 -44.019 -44.351)" fill="#F57C00"/><use xlink:href="#q" transform="scale(1 -1) rotate(-60 -51.178 -62.11)" fill="#263238"/><use xlink:href="#r" transform="scale(1 -1) rotate(-60 46.944 -123.354)" fill="#CFD8DC"/><use xlink:href="#s" transform="scale(1 -1) rotate(-60 -57.605 -33.49)" fill="#ECEFF1" opacity=".1"/><defs><linearGradient id="l" x2="1" gradientUnits="userSpaceOnUse" gradientTransform="matrix(1.50853 2.76057 -3.38994 1.22846 4.299 2.352)"><stop offset="0" stop-color="#CFD8DC"/><stop offset="1" stop-color="#90A4AE"/></linearGradient><path id="a" d="M249.409 91.706L148.36 150.12a10.616 10.616 0 0 1-10.628 0L1.681 71.466a3.365 3.365 0 0 1 0-5.828L107.204.45a3.356 3.356 0 0 1 3.36 0l140.402 84.404c2.239 1.296.683 5.555-1.557 6.851z"/><path id="b" d="M8.849 0S9.193 9.259.923 14.027C-1.847 15.627 2.5 1.682 2.5 1.682L8.849 0z"/><path id="c" d="M.142 0s-1.716 8.384 6.775 13.291c2.77 1.6 4.27-6.563 4.27-6.563L.141 0z"/><path id="d" d="M261.089 89.256L154.03 151.14a10.616 10.616 0 0 1-10.628 0L1.706 69.22a3.411 3.411 0 0 1 0-5.91L108.78 1.426a10.614 10.614 0 0 1 10.627 0L261.089 83.33a3.412 3.412 0 0 1 0 5.926z"/><path id="e" d="M228.782 74.672l-101.194 58.5a.915.915 0 0 1-.919 0L.459 60.218a.921.921 0 0 1 0-1.595L101.654.123a.918.918 0 0 1 .919 0l126.21 72.954a.921.921 0 0 1 0 1.595z"/><path id="f" d="M9.513.947c2.183 1.26 2.199 3.313.026 4.578-2.173 1.265-5.702 1.26-7.89 0C-.54 4.265-.55 2.212 1.619.952A8.68 8.68 0 0 1 9.512.947z"/><path id="g" d="M2.275.23a.576.576 0 0 1 0 1.09 2.052 2.052 0 0 1-1.885 0 .576.576 0 0 1 0-1.09 2.052 2.052 0 0 1 1.885 0z"/><path id="h" d="M4.001 70.54l-2.295-1.32a3.411 3.411 0 0 1 0-5.91L108.78 1.426a10.614 10.614 0 0 1 10.627 0S206.823 51.68 252.08 77.854c.766.443-25.762 15.804-25.762 15.804L4.001 70.539z"/><path id="i" d="M56.499 37.097L0 4.477 7.763 0 64.26 32.62l-7.76 4.477z"/><path id="j" d="M7.763 130.436L0 134.913V4.477L7.763 0v130.436z"/><path id="k" d="M7.78 0a4.081 4.081 0 0 1 2.029 3.51l-7.78 4.478C2.03 7.383.524 4.778 0 4.477L7.78 0z"/><path id="m" d="M58.515 168.246l-56.486-32.62A4.053 4.053 0 0 1 0 132.115V1.689A1.69 1.69 0 0 1 2.537.226l56.485 32.62a4.054 4.054 0 0 1 2.03 3.511v130.426a1.69 1.69 0 0 1-2.537 1.463z"/><path id="n" d="M0 5.937a1.69 1.69 0 0 0 .835-1.46L8.615 0a1.69 1.69 0 0 1-.856 1.473L0 5.937z"/><path id="o" d="M9.454.226a1.693 1.693 0 0 0-1.692 0L0 4.703a1.693 1.693 0 0 1 1.691 0L9.454.226z"/><path id="p" d="M54.56 130.477L.444 99.229A.885.885 0 0 1 0 98.462V.886A.885.885 0 0 1 1.33.119l54.117 31.248c.274.158.443.45.443.767v97.586a.884.884 0 0 1-1.33.757z"/><path id="q" d="M17.165 12.362L.254 2.6A.507.507 0 0 1 0 2.16V.506a.507.507 0 0 1 .758-.44l16.911 9.762c.157.09.254.258.254.439v1.659a.507.507 0 0 1-.758.436z"/><path id="r" d="M4.972 12.132c2.75 1.588 4.996.307 5.006-2.849.01-3.156-2.222-7.018-4.972-8.602C2.256-.904.01.373 0 3.529c-.01 3.156 2.205 7.025 4.972 8.603z"/><path id="s" d="M0 34.607V1.689A1.69 1.69 0 0 1 2.537.226l56.485 32.62a4.054 4.054 0 0 1 2.03 3.511v81.141C61.061 118.14 0 35.208 0 34.607z"/></defs></svg>